<?xml version="1.0" encoding="utf-8"?>
<!-- Generator: Adobe Illustrator 27.5.0, SVG Export Plug-In . SVG Version: 6.00 Build 0)  -->
<svg version="1.1" id="圖層_1" xmlns="http://www.w3.org/2000/svg" xmlns:xlink="http://www.w3.org/1999/xlink" x="0px" y="0px"
	 viewBox="0 0 154 218" style="enable-background:new 0 0 154 218;" xml:space="preserve">
<style type="text/css">
	.st0{fill:#FFFFFF;}
	.st1{fill:none;}
	.st2{fill:#D74C38;}
	.st3{fill:#FFC93D;}
	.st4{fill:#C2A16C;}
</style>
<g>
	<g>
		<path class="st0" d="M7.8,137.2c-0.1,1.7,1.4,1.3,2.5,3.1c0.5,0.8,2.2,0.9,3,1.9c0.6,0.8,0.2,2.6,1,3.4c0.7,0.7,2.5,0.4,3.4,1.2
			c0.8,0.7,1.4,1.6,2.3,2.3c0.9,0.6,0.8,2.7,1.8,3.3c0.9,0.6,2.3,0.4,3.3,1c0.9,0.5,1.6,1.8,2.6,2.3c1,0.5,1.9,1.1,3,1.6
			c1,0.4,2.3,0.3,3.3,0.7c1,0.4,2.2,0.4,3.3,0.8c1,0.3,2.5-0.7,3.6-0.4c1,0.3,1.9,1.2,3,1.4c1.1,0.2,2.1,0.5,3.2,0.7
			c1.1,0.2,2.2,0,3.3,0.2c1.1,0.2,2,1.1,3.2,1.3c1.1,0.1,2,1.6,3.2,1.8c1.1,0.1,2.4-1.8,3.5-1.7c1.1,0.1,2.1,0.8,3.3,0.9
			c1.1,0.1,2.2-0.8,3.4-0.8c1.1,0,2.2,0.5,3.3,0.5c1.1,0,2.2,1.1,3.3,1.1c1.1,0,2.2-1.5,3.3-1.5c1.1,0,2.2,0.8,3.3,0.8
			c1.1,0,2.3,0.7,3.3,0.7c1.1-0.1,2.2-1,3.2-1.1c1.1-0.1,2.3,0.5,3.3,0.4c1.1-0.1,2.1-1.2,3.2-1.3c1.1-0.1,2.4,1.2,3.5,1.1
			c1.1-0.1,1.9-2.1,3-2.2c1.1-0.2,2.2,0,3.3-0.2c1.1-0.2,2.2-0.2,3.3-0.4c1.1-0.2,2.2-0.5,3.2-0.7c1.1-0.3,2.3-0.1,3.3-0.4
			c1.1-0.3,1.8-1.9,2.8-2.2c1.1-0.3,2.8,1.4,3.8,1c1.1-0.4,1.7-1.8,2.7-2.2c1.1-0.4,2.4-0.1,3.4-0.5c1-0.5,2.3-0.4,3.3-0.9
			c1-0.5,2-1.1,2.9-1.6c1-0.6,1.1-2.5,2-3.1c1-0.6,2.6-0.3,3.4-0.9c1-0.7,1.5-1.9,2.2-2.5c1-0.8,2.7-0.7,3.3-1.4
			c1.5-1.6,0.4-1.7,0.2-3.3c-0.2-1.6,0.4-1.6-0.1-3.2c-0.5-1.5,0.2-1.8-0.3-3.3c-0.5-1.5-1.5-1.2-2-2.7c-0.5-1.5-0.1-1.7-0.7-3.2
			c-0.5-1.5-0.5-1.5-1.1-3.1c-0.5-1.5-1.4-1.2-1.9-2.8c-0.5-1.5,0.7-2,0.2-3.5c-0.5-1.5-1.4-1.2-1.9-2.8c-0.5-1.5,0.7-2,0.1-3.5
			c-0.5-1.5-2.7-0.8-3.2-2.3c-0.5-1.5,1.1-2.1,0.6-3.6c-0.5-1.5-1-1.4-1.5-2.9c-0.5-1.5-1.8-1.1-2.3-2.6c-0.5-1.5,1.8-2.4,1.3-3.9
			c-0.5-1.5-2-1-2.6-2.5c-0.5-1.5,0.6-1.9,0-3.5c-0.5-1.5-2.3-0.9-2.9-2.4c-0.5-1.5-0.3-1.6-0.8-3.2c-0.5-1.5-0.3-1.6-0.8-3.2
			c-0.5-1.5,0.6-1.9,0-3.5c-0.5-1.5-0.8-1.4-1.4-3c-0.5-1.5-0.6-1.5-1.1-3.1c-0.5-1.5-0.4-1.6-1-3.1c-0.5-1.5-1.8-1.1-2.3-2.6
			c-0.5-1.5,0.4-1.9-0.1-3.4c-0.5-1.5-0.5-1.6-1-3.1c-0.5-1.5,0.6-1.9,0-3.5c-0.5-1.5-1.5-1.2-2.1-2.7c-0.5-1.5-1-1.4-1.6-2.9
			c-0.5-1.5,0.3-1.8-0.3-3.4c-0.5-1.5-1.3-1.3-1.8-2.8c-0.5-1.5,0.2-1.8-1.1-2.9c-1.3-1.1-1.5-0.3-3.1-0.7c-1.6-0.3-1.7-0.1-3.3-0.4
			c-1.6-0.3-1.8,0.3-3.4,0c-1.6-0.3-1.6-0.6-3.2-1c-1.6-0.3-1.2-2.2-2.9-2.6c-1.6-0.3-1.6-0.5-3.2-0.9c-1.6-0.3-1.7,0.2-3.4-0.2
			c-1.6-0.3-1.8,0.3-3.4-0.1c-1.6-0.3-1.4-1.6-3-1.9c-1.6-0.3-1.8,0.7-3.5,0.3c-1.6-0.3-1.8,0.3-3.4,0c-1.6-0.3-1.7-0.1-3.3-0.5
			c-1.6-0.3-1.5-1.2-3.1-1.6c-1.6-0.3-1.5-1.1-3.1-1.4c-1.6-0.3-1.6-0.3-3.3-0.7c-1.6-0.3-1.6-0.5-3.2-0.8c-1.6-0.3-2-0.4-3.6,0.2
			c-1.5,0.6,0.1,2.2-0.8,3.5c-0.9,1.3-1.3,1-2.2,2.4c-0.9,1.3-0.5,1.6-1.4,2.9c-0.9,1.3-2.4,0.3-3.3,1.6c-0.9,1.3,0.2,2-0.7,3.3
			c-0.9,1.3-0.5,1.6-1.3,2.9c-0.9,1.3-1,1.3-1.9,2.6c-0.9,1.3-2.3,0.4-3.2,1.7c-0.9,1.3,0.8,2.5-0.1,3.8c-0.9,1.3-2.5,0.3-3.3,1.6
			c-0.9,1.3,0.2,2.1-0.6,3.4c-0.9,1.3-2.4,0.3-3.2,1.7c-0.9,1.3,0.8,2.4-0.1,3.8c-0.9,1.3-2.7,0.1-3.6,1.4c-0.9,1.3,0.8,2.4-0.1,3.8
			c-0.9,1.3-1,1.3-1.8,2.6c-0.9,1.3-1.7,0.8-2.6,2.1c-0.9,1.3-1.6,1.1-2.2,2.5c-0.6,1.5-0.5,1.7-0.9,3.4c-0.4,1.6-0.1,1.7-0.5,3.3
			c-0.4,1.6,1.3,2,1,3.6c-0.4,1.6-0.9,1.5-1.3,3.1c-0.4,1.6-1.5,1.4-1.8,3c-0.4,1.6,0.5,1.8,0.2,3.4c-0.4,1.6-1,1.5-1.3,3.1
			c-0.4,1.6,0.5,1.8,0.1,3.4c-0.4,1.6-0.8,1.5-1.2,3.2c-0.4,1.6-1.5,1.4-1.9,3c-0.4,1.6,1.2,2,0.8,3.6c-0.4,1.6-0.5,1.6-0.9,3.2
			c-0.4,1.6,0.1,1.7-0.2,3.4c-0.4,1.6-0.6,1.6-1,3.2c-0.4,1.6-1.3,1.4-1.7,3c-0.4,1.6-0.1,1.7-0.4,3.3c-0.4,1.6,0.9,2.1,0.2,3.6
			C9.4,136,7.9,135.5,7.8,137.2z"/>
	</g>
	<rect x="0" y="0" class="st1" width="154" height="149.1"/>
	<path class="st2" d="M77,54.5c0.8,0,1.5-0.9,2.3-0.9s1.4,0.9,2.2,1c0.7,0.1,1.4,0.4,2.2,0.5s1.4,0.5,2.1,0.7
		c0.7,0.2,1.4,0.3,2.2,0.6c0.7,0.3,1.4,0.5,2.1,0.7s1.5,0.3,2.2,0.6s1.2,0.9,1.9,1.2s1.9-0.3,2.6,0.1c0.7,0.4,1.3,0.7,1.9,1.1
		c0.6,0.4,0.7,1.5,1.3,1.9c0.6,0.4,1.1,0.9,1.7,1.4s2,0,2.5,0.5c0.6,0.5,0.8,1.3,1.3,1.8c0.6,0.5,0.4,1.6,1,2.1
		c0.6,0.6,2.1,0.1,2.6,0.6s1.1,1,1.6,1.6c0.5,0.6,0,1.9,0.5,2.4s1.8,0.4,2.3,1c0.5,0.6,0.3,1.6,0.7,2.1c0.4,0.6,1.3,0.9,1.7,1.5
		c0.4,0.6,0.6,1.3,1,1.9c0.4,0.6,0.6,1.3,1,1.9c0.4,0.6,1.1,1,1.4,1.7c0.4,0.6,0.1,1.6,0.5,2.1c0.4,0.6,1.4,0.9,1.8,1.5
		c0.3,0.6,0.7,1.3,1,1.9c0.3,0.6,1.1,1,1.5,1.7c0.3,0.6-0.4,1.8-0.1,2.4s1.8,0.8,2.1,1.5c0.3,0.6,0.3,1.5,0.6,2
		c0.3,0.6,0.2,1.5,0.5,2.1c0.3,0.6,1,1.1,1.3,1.8c0.3,0.6-0.2,1.6,0,2.2c0.3,0.6,0.3,1.4,0.6,2c0.3,0.6,1.1,1.1,1.4,1.8
		c0.2,0.6,0.5,1.3,0.7,2c0.3,0.6,0.3,1.4,0.5,2c0.2,0.6,0.5,1.3,0.7,2c0.2,0.6,0.2,1.4,0.4,2.1s0.9,1.2,1.1,1.9
		c0.2,0.6,0.3,1.4,0.4,2.1c0.2,0.6-0.7,1.6-0.5,2.3s1.1,1.2,1.2,1.9c0.2,0.6,0.2,1.4,0.4,2.1s0.9,1.3,1,2s0.4,1.4,0.5,2.1
		s-1.1,1.6-0.9,2.3s0.3,1.4,0.4,2.1c0.1,0.7,1.3,1.3,1.4,1.9c0.1,0.7,0.4,1.4,0.5,2c0.1,0.7-0.8,1.5-0.8,2.2c0.1,0.7,0.6,1.4,0.7,2
		c0.1,0.7,0.1,1.4,0.2,2.1c0.1,0.7,0.7,1.4,0.8,2.1c0.1,0.7-0.2,1.5-0.1,2.1c0.1,0.7,0.1,1.2,0.1,1.9c0.5-0.6,0.8-0.9,1.2-1.6
		c0.4-0.6,0.4-1.4,0.8-2c0.4-0.6,1.8-0.6,2.2-1.2c0.4-0.6,0.9-1.2,1.3-1.9c0.4-0.6-0.6-1.9-0.2-2.5c0.3-0.6,1-1.1,1.3-1.8
		c0.3-0.6,1.1-1.1,1.4-1.8c0.3-0.6,0.4-1.4,0.7-2c0.3-0.6,0.7-1.3,0.9-1.9c0.3-0.6,0.1-1.5,0.3-2.1c0.3-0.6,1-1.2,1.2-1.9
		s-0.6-1.6-0.4-2.3c0.2-0.7,0.8-1.3,0.9-1.9c0.2-0.7,0.1-1.4,0.2-2.1c0.2-0.7,1.3-1.2,1.4-1.9c0.1-0.7-0.8-1.6-0.7-2.2
		c0.1-0.7,1-1.3,1.1-2c0.1-0.7,0.6-1.4,0.7-2.1c0.1-0.7,0.1-1.5,0.2-2.1c0.1-0.7,0-1.4,0-2.1s0.2-1.5,0.2-2.1c0-0.6-0.4-1.5-0.4-2.1
		c0-0.7,0.6-1.5,0.6-2.1c0-0.7-0.9-1.4-0.9-2.1s0.5-1.5,0.5-2.1c0-0.7,0.1-1.4,0-2.1s-0.2-1.4-0.2-2.1c-0.1-0.7-0.8-1.4-0.9-2
		c-0.1-0.7,0.1-1.5,0-2.1s-0.9-1.3-1-2c-0.1-0.7,0.8-1.5,0.6-2.2c-0.1-0.7,0-1.5-0.1-2.1c-0.1-0.7-1.7-1.1-1.8-1.9
		c-0.1-0.7,0.2-1.5,0.1-2.1c-0.2-0.6-0.7-1.3-0.8-2c-0.2-0.7-0.2-1.4-0.3-2.1c-0.2-0.6,0.5-1.6,0.3-2.2s-0.3-1.4-0.5-2
		c-0.2-0.6-0.2-1.5-0.4-2.1s-1.3-1.1-1.5-1.8c-0.2-0.6-0.7-1.3-0.9-1.9c-0.2-0.6,0.1-1.5-0.1-2.1c-0.2-0.6-0.6-1.3-0.8-1.9
		c-0.3-0.6-0.9-1.2-1.2-1.9s-0.5-1.3-0.8-1.9c-0.3-0.6-0.9-1.2-1.2-1.9s-0.4-1.4-0.8-2c-0.3-0.6,0.2-1.7-0.1-2.2
		c-0.3-0.6-0.6-1.3-0.9-1.9c-0.3-0.6-0.9-1.2-1.2-1.8c-0.3-0.6-0.4-1.4-0.8-2c-0.3-0.6-0.7-1.3-1.1-1.9c-0.4-0.6-1.1-1.1-1.4-1.7
		s-1-1.1-1.4-1.7c-0.4-0.6-0.8-1.2-1.2-1.9s-0.1-1.6-0.5-2.2c-0.4-0.6-1.1-1-1.5-1.7c-0.4-0.6-0.4-1.5-0.8-2
		c-0.4-0.6-1.4-0.8-1.9-1.4c-0.4-0.6-0.2-1.6-0.6-2.1c-0.4-0.6-1.8-0.6-2.3-1.1c-0.5-0.6-0.8-1.2-1.3-1.8c-0.5-0.6-0.5-1.4-1-1.9
		c-0.5-0.6-0.9-1.1-1.4-1.7s-1.6-0.6-2.1-1c-0.5-0.6-0.5-1.5-1.1-1.9c-0.5-0.6-0.7-1.3-1.3-1.9c-0.5-0.5-1.6-0.5-2.2-0.9
		c-0.6-0.5-0.9-1.1-1.5-1.6c-0.5-0.5-1.6-0.5-2.2-0.9c-0.6-0.5-0.4-1.8-0.9-2.2c-0.6-0.5-1.1-0.9-1.7-1.4c-0.6-0.4-1.4-0.6-2-1
		c-0.6-0.4-1.6-0.3-2.3-0.6c-0.6-0.4-1.1-1-1.7-1.4c-0.6-0.4-1.2-0.9-1.8-1.3S99.4,7.2,98.8,7c-0.7-0.3-1.2-0.8-1.9-1.1
		c-0.7-0.3-1-1.3-1.7-1.6C94.5,4,93.7,4,93,3.7c-0.7-0.9-1.4-0.9-2.2-1.2c-0.7-0.3-1.5-0.2-2.2-0.4s-1.2-1.1-2-1.3s-1.7,0.6-2.4,0.5
		c-0.7-0.1-1.3-0.9-2.1-1c-0.8-0.1-1.5-0.2-2.3-0.3s-1.5,0.6-2.3,0.5C76.7,0.5,76,0,75.2,0s-1.5,0-2.3,0s-1.5,0-2.3,0
		s-1.5,0-2.3,0.1s-1.2,1.5-2,1.6c-0.8,0.2-1.8-0.9-2.5-0.7s-1.4,0.6-2.1,0.7c-0.7,0.2-1.5,0.2-2.3,0.5c-0.7,0.3-1.2,1-1.9,1.4
		s-1.2,0.8-1.9,1.2C54.9,5,53.9,4.6,53.2,5c-0.7,0.3-0.9,1.4-1.6,1.7c-0.7,0.3-1.1,0.7-1.7,1.1c-0.6,0.4-1.1,0.9-1.8,1.3
		c-0.6,0.4-1.9-0.1-2.5,0.3s-1.2,0.8-1.8,1.3c-0.6,0.4-0.7,1.4-1.3,1.9c-0.6,0.5-1,1.1-1.5,1.6c-0.6,0.5-1,1-1.5,1.5
		c-0.6,0.5-1.9,0.2-2.4,0.6s-0.7,1.4-1.2,1.9s-1.2,0.9-1.7,1.5s-0.4,1.6-0.9,2.1c-0.5,0.6-1.7,0.5-2.2,0.9c-0.5,0.6-0.6,1.4-1.1,1.9
		c-0.5,0.6-0.9,1.1-1.4,1.7c-0.5,0.6-0.9,1.1-1.4,1.7c-0.4,0.6-0.9,1.1-1.3,1.7c-0.4,0.6-1.5,0.7-1.9,1.4c-0.4,0.6-0.2,1.6-0.7,2.1
		c-0.4,0.6-1.5,0.8-1.9,1.4c-0.4,0.6-0.5,1.4-0.8,2c-0.4,0.6,0,1.6-0.4,2.2s-1,1.1-1.3,1.7c-0.4,0.6-0.9,1.1-1.3,1.8
		c-0.3,0.6-1,1.1-1.3,1.8s-0.8,1.2-1.1,1.9c-0.3,0.6-0.4,1.4-0.7,2s-1.3,1-1.5,1.7c-0.3,0.6-0.1,1.5-0.3,2.1s-0.5,1.4-0.8,2
		s-1,1.1-1.3,1.9c-0.3,0.6,0.3,1.6,0,2.2S9.9,59,9.7,59.6c-0.3,0.6-1.3,1.1-1.5,1.8c-0.3,0.6,0.5,1.7,0.3,2.3
		c-0.3,0.6-1.6,1-1.9,1.7s0.8,1.7,0.6,2.4c-0.2,0.6-1.5,1-1.7,1.8c-0.2,0.6,0.7,1.7,0.5,2.3c-0.2,0.6-0.5,1.3-0.7,2
		c-0.2,0.6-1.6,1.1-1.7,1.8c-0.2,0.6,0.6,1.4,0.4,2.1c-0.2,0.6-1.1,1.2-1.3,1.9c-0.2,0.7,0.7,1.6,0.5,2.2c-0.1,0.7-1.3,1.2-1.4,1.9
		c-0.1,0.6,0,1.5-0.1,2.1c-0.1,0.7,0,1.5-0.1,2.1s-0.4,1.4-0.5,2.1C1,91,0.6,91.7,0.5,92.4s0.3,1.5,0.3,2.1
		c-0.1,0.7-0.1,1.4-0.2,2.1c0,0.7-0.7,1.4-0.7,2c0,0.7,0.4,1.5,0.4,2.1c0,0.7-0.1,1.4-0.2,2.1c0,0.7,0.2,1.4,0.2,2.1
		s-0.4,1.5-0.4,2.1c0,0.7,0.6,1.4,0.6,2.1s0.2,1.4,0.3,2.1s0.3,1.4,0.3,2.1c0.1,0.7-0.5,1.5-0.4,2.2s0.6,1.4,0.7,2.1
		c0.1,0.7-0.2,1.5-0.1,2.1c0.1,0.6,0.5,1.4,0.7,2c0.2,0.6,0.3,1.4,0.5,2.1s0.8,1.3,1,1.9c0.2,0.6,0.3,1.4,0.5,2
		c0.2,0.6,0.5,1.3,0.8,2c0.3,0.6,0.7,1.3,0.9,1.9c0.3,0.6,0,1.5,0.3,2.1c0.3,0.6,1,1.1,1.3,1.8c0.3,0.6,0.4,1.4,0.8,2
		c0.3,0.6,0.4,1.4,0.8,2c0.3,0.6,0.5,1.4,0.8,2c0.4,0.6,1.3,0.9,1.6,1.6c0.3,0.6,0,1.7,0.4,2.3c0.4,0.6,1.2,0.9,1.6,1.6
		c0.4,0.6,1,0.6,1.5,1.2c0.1-0.7-0.1-1.1-0.1-1.9c0.1-0.7-0.3-1.5-0.2-2.1c0.1-0.6,0.3-1.4,0.3-2.1c0.1-0.7,0.8-1.4,0.8-2
		c0-0.6-0.4-1.5-0.3-2.1c0.1-0.7,0.9-1.3,1-2c0.1-0.7,0.2-1.4,0.3-2.1c0.1-0.7,0.6-1.4,0.7-2c0.1-0.7,0.1-1.4,0.3-2.1
		c0.1-0.7-0.4-1.5-0.3-2.2c0.2-0.7,1-1.3,1.2-1.9c0.2-0.7-0.8-1.6-0.7-2.3c0.2-0.6,1.3-1.2,1.4-1.9s-0.6-1.6-0.4-2.2
		c0.2-0.6,1.6-1.1,1.8-1.8c0.2-0.6-0.7-1.6-0.5-2.3s0.5-1.4,0.7-2s0.3-1.4,0.5-2c0.2-0.6,0.6-1.3,0.8-2c0.2-0.6,0.7-1.3,0.9-1.9
		c0.2-0.6,0.2-1.5,0.4-2.1c0.3-0.6,1.3-1.1,1.6-1.8c0.3-0.6-0.4-1.7-0.2-2.3c0.3-0.6,0.7-1.3,0.9-1.9c0.3-0.6,1.4-1,1.7-1.7
		c0.3-0.6,0.6-1.3,0.9-1.9c0.3-0.6,0.6-1.3,0.9-1.9c0.3-0.6-0.4-1.8-0.1-2.3c0.3-0.6,0.4-1.4,0.7-2c0.3-0.6,0.6-1.3,0.9-1.9
		s1.2-1,1.5-1.7c0.3-0.6,0.5-1.4,0.9-1.9c0.4-0.6,1.1-1,1.5-1.7c0.4-0.6,1.3-0.9,1.7-1.6s0.7-1.3,1.1-1.9c0.4-0.6,0.1-1.7,0.5-2.2
		c0.4-0.6,0.9-1.2,1.3-1.8c0.4-0.6,1.1-1,1.6-1.6s0.7-1.4,1.1-1.9c0.5-0.6,1.9-0.4,2.4-0.9s0.7-1.4,1.2-1.9c0.5-0.5,1.1-0.9,1.7-1.5
		s0.8-1.2,1.4-1.7c0.6-0.5,1.3-0.7,1.9-1.2c0.6-0.5,1.3-0.7,1.9-1.1c0.6-0.4,0.4-1.9,1-2.3c0.6-0.4,1.6-0.3,2.3-0.7
		c0.6-0.4,1-1.3,1.6-1.6c0.6-0.4,1.9,0.3,2.5-0.1c0.7-0.3,1.1-1,1.8-1.3c0.7-0.3,1.3-0.6,2.1-0.9c0.7-0.3,1.6-0.1,2.3-0.3
		c0.7-0.2,1.4-0.4,2.1-0.6c0.7-0.2,1.4-0.6,2.1-0.7s1.4-0.6,2.2-0.6c0.8-0.1,1.5-0.6,2.2-0.6C75.5,53.3,76.3,54.4,77,54.5L77,54.5z"
		/>
	<path class="st3" d="M98.3,32.9L96,33.6l-2.3,0.8l-2.2,0.9l-2.1,1.2l-2,1.3l-2.1,1.3l-0.9-1.9l-0.9-1.9l-0.9-1.9l-1.2-1.8l-0.8-1.9
		l-1.1-1.8l-0.9-1.9l-2.3,0.1l-1.4,1.5l-1,1.9l-1,1.8l-1.2,1.7l-0.9,1.9l-1.3,1.7l-0.8,1.9l-1.1,1.8l-2-0.9l-1.9-0.9l-2.1-0.6
		l-2-0.6l-1.8-0.9l-2.2-0.4L54,37.1l0.9,1.7l0.8,1.7l0.8,1.7l0.9,1.7l0.6,1.8l1,1.6l1.3,1.5l1.3,1.4l1.6,0.1l2-0.6l2.2-0.3l2.1-0.6
		l2.5-0.3l2.5-0.2l2.5,0.1l2.1,0.3l2.1,0.2l2.1,0.3l2.1,0.3l2.1,0.4l2,0.6l2,0.6l1.5-0.8l0.2-0.1l0.6-1.6l0.7-1.6l0.9-2l0.8-2
		l1.1-2.1l0.8-2.2l0.1-0.2l0.9-1.9l0.5-1.9L98.3,32.9z"/>
	<path class="st2" d="M59,89.5c2.1,0,3.8-1.6,3.8-3.5S61,82.4,59,82.4s-3.8,1.6-3.8,3.5C55.2,87.9,56.9,89.5,59,89.5z"/>
	<path class="st2" d="M95.5,89.5c2.1,0,3.8-1.6,3.8-3.5s-1.7-3.5-3.8-3.5s-3.8,1.6-3.8,3.5C91.7,87.9,93.4,89.5,95.5,89.5z"/>
	<path class="st2" d="M64.8,97.7H89l-7.6-7.3c-2.5-2.4-6.6-2.4-9.1,0L64.8,97.7z"/>
	<path class="st3" d="M64.8,97.7l7.5,3.2c2.5,1,6.6,1,9.1,0l7.5-3.2H64.8z"/>
	<path class="st4" d="M34.8,214.6c0.1,0.1,0.1,0.1,0.2,0.2c0,0.2-0.1,1-0.1,1.2c-0.1,0.7,0,1.4-0.9,1.6c-0.6,0.1-1.2-0.1-1.8-0.1
		c-0.6,0-1.4-0.1-2-0.3c-1.2-0.4-2.5-1.1-3.2-2.2c-0.8-1.1-1-2.4-0.9-3.7c0-1,0.4-2.1,1.1-2.9c0.9-1,1.8-1.9,3.1-2.4
		c0.7-0.3,1.5-0.5,2.3-0.5c0.4,0,0.8,0,1.2,0.1c0.3,0.1,0.8,0.1,1,0.4c0.1,0.2,0,0.6,0,0.7c0,0.6,0,1.1,0,1.6
		c-0.1,0.6-0.9,0.4-1.4,0.6c-0.5,0.2-1,0.5-1.4,0.8c-0.7,0.6-1.1,1.7-0.9,2.7c0.1,0.5,0.2,0.9,0.6,1.2c0.2,0.2,0.5,0.3,0.8,0.4
		c0.5,0.2,1.1,0.4,1.6,0.5C34,214.5,34.6,214.5,34.8,214.6L34.8,214.6z"/>
	<path class="st4" d="M69.8,214.6c0.1,0.1,0.1,0.1,0.2,0.2c0,0.2-0.1,1-0.1,1.2c-0.1,0.7-0.1,1.4-0.9,1.6c-0.6,0.1-1.2-0.1-1.8-0.1
		c-0.6,0-1.4-0.1-2-0.3c-1.2-0.4-2.5-1.1-3.2-2.2c-0.8-1.1-1-2.4-0.9-3.7c0-1,0.4-2.1,1.1-2.9c0.9-1,1.8-1.9,3.1-2.4
		c0.7-0.3,1.5-0.5,2.3-0.5c0.4,0,0.8,0,1.2,0.1c0.3,0.1,0.8,0.1,1,0.4c0.1,0.2,0,0.6,0,0.7c0,0.6,0,1.1,0,1.6
		c-0.1,0.6-0.9,0.4-1.4,0.6c-0.5,0.2-1,0.5-1.4,0.8c-0.7,0.6-1.1,1.7-0.9,2.7c0.1,0.5,0.2,0.9,0.6,1.2c0.2,0.2,0.5,0.3,0.8,0.4
		c0.5,0.2,1.1,0.4,1.6,0.5C69,214.5,69.6,214.5,69.8,214.6L69.8,214.6z"/>
	<path class="st4" d="M80.8,216.1c-0.1-0.3-0.4-0.6-0.4-0.7c-0.4-0.6-0.7-1.3-1.1-1.9c-0.2-0.3-0.4-0.6-0.6-0.9
		c-0.2-0.3-0.2-0.4,0.1-0.6c1.4-0.9,2.7-1.9,4.1-3c0.1-0.1,0.2-0.2,0.2-0.3c0-0.1-0.1-0.1-0.1-0.2c-0.6-0.5-1.2-0.9-1.8-1.4
		c-0.1-0.1-0.3-0.3-0.4-0.1c-1.2,0.8-2.3,1.8-3.5,2.7c-0.3,0.3-0.7,0.6-1,0.8c-0.3,0.3-0.5,0.4-0.6,0c-0.1-0.6,0-1,0-1.6
		c0-0.6,0.2-1.2,0.5-1.8c0-0.1,0-0.1,0-0.2c0-0.2-0.2-0.2-0.4-0.2c-0.3,0-0.6-0.1-0.9-0.1c-0.6,0-1.1,0-1.7-0.1
		c-0.3,0-0.4,0.3-0.4,0.6c-0.1,1.6-0.3,3.2-0.4,4.8c-0.1,0.8-0.1,1.6-0.2,2.4c0,0.5-0.1,0.9-0.1,1.5c0,0.5,0.1,0.5,0.5,0.5
		c1,0.1,2,0.3,3.1,0.2c0.1,0,0.3-1.4,0.3-1.5c0-0.2,0-1.2,0.3-1.1c0.1,0,0.1,0.1,0.2,0.2c0.4,0.6,0.8,1.4,1.2,2
		c0.2,0.3,0.3,0.6,0.7,0.6c0.4,0.1,0.8,0,1.2,0c0.3,0,0.7,0,1,0C80.9,216.7,80.9,216.4,80.8,216.1z"/>
	<path class="st4" d="M44.9,216.5c0,0,0-0.1,0-0.2c0.1-0.7,0.1-1.7,0-2.4c0-0.1,0-0.2-0.1-0.3c-0.1-0.1-0.3-0.1-0.5-0.1
		c-0.7,0.1-1.5-0.1-2.2-0.1c-0.3,0-0.6,0.1-0.7-0.3c-0.1-0.3,0-0.6,0-0.8c0-0.5,0-1,0-1.5c0-1,0-1.9,0.1-3c0-0.3,0-0.6,0-0.9
		c0-0.1,0-0.1,0-0.2c-0.1-0.1-0.2-0.1-0.3-0.2c-0.9,0-1.8,0-2.7,0c-0.2,0-0.4,0-0.5,0.2c-0.1,0.2,0,0.5,0,0.6
		c0.2,1.4,0.2,2.8,0.1,4.2c0,0.7-0.1,1.4-0.1,2.1c0,0.4,0,0.7,0.1,1c0,0.5,0,1.6,0.6,1.8c0.5,0.2,1.2-0.1,1.7-0.1
		c0.6,0,1.2,0.1,1.8,0.1c0.5,0,1,0.1,1.6,0.1c0.2,0,0.5,0.1,0.7,0C44.7,216.7,44.8,216.6,44.9,216.5L44.9,216.5z"/>
	<path class="st4" d="M127,216c0-0.5-0.3-1-0.4-1.4c-0.5-1.6-1-3.2-1.4-4.8c-0.3-1-0.6-1.9-1.2-2.9c-0.1-0.2-0.3-0.4-0.6-0.4
		c-0.1,0-0.2,0.1-0.3,0.2c-0.6,0.6-1.2,1.1-1.8,1.8c-0.7,0.7-1.4,1.4-2.1,2.2c-0.4,0.5-0.9,0.8-1.4,0.3c-1.2-1.1-2.1-2.7-3.4-3.7
		c-0.3-0.3-0.7-0.6-1.1-0.4c-0.2,0.1-0.4,0.4-0.4,0.6c-1.1,2.8-2,5.6-2.8,8.3c-0.1,0.2-0.1,0.4-0.1,0.6c1.5,0.2,3,0.2,4.5,0.1
		c-0.1-1.1,0.1-2.1,0.2-3.1c0.1-0.7,0.5-1,1.2-0.4c0.8,0.7,1.2,1.9,2,2.5c0.4,0.4,0.8,0.6,1.2,0.1c0.4-0.6,0.6-1.4,1.1-1.9
		c0.3-0.4,1.7-1.9,2.3-1.2c0.3,0.3,0.1,1.3,0.1,1.6c0,0.4,0,0.7,0,1.1c0,0.2-0.2,0.9-0.1,1.1c0.2,0.3,0.4,0.5,0.7,0.5
		c0.7,0,1.3-0.2,2-0.2c0.5,0,1.1,0.2,1.5-0.1C126.9,216.3,127,216.1,127,216L127,216z"/>
	<path class="st4" d="M107,208c-1.1-2.1-3.7-2.9-6-2.1s-3.5,2.7-3.8,4.8c-0.2,1.3-0.2,2.8,0.5,4c0.3,0.6,0.6,1,1.1,1.4
		c1.1,1.1,2.7,1.7,4.3,1.5c0.4,0,0.8-0.1,1.1-0.3c2-0.6,3.6-2.6,3.9-4.4C108.2,211.3,107.7,209.4,107,208L107,208z M104.7,212.9
		c-0.2,0.5-0.5,0.8-0.9,1.1c-0.7,0.5-1.8,0.3-2.5-0.2c-0.7-0.6-1-1.4-1-2.2c0-1,0.4-2.4,1.5-3c0.9-0.5,1.8-0.3,2.5,0.4
		c0.3,0.4,0.6,0.8,0.7,1.3C105.1,211.2,105,212.2,104.7,212.9L104.7,212.9z"/>
	<path class="st4" d="M58.3,206.7c-0.2-0.1-0.6-0.2-1-0.2c-0.6,0-1,0.1-0.9,0.6c0.1,0.6,0.2,3.1,0.2,3.7c0,0.4-0.1,0.8-0.2,1.2
		c-0.2,0.6-0.4,0.8-0.8,1.2c-0.2,0.2-1,0.4-1.2,0.4c-0.5,0-1.1,0-1.5-0.3c-1.5-0.7-2-4.3-2.1-5.6c-0.1-0.6,0-1.1-0.8-1.2
		c-0.5-0.1-1.8,0.1-1.9,0.2c-0.1,0.1,0,0.4,0,0.6c0.2,1.1,0.7,4.6,1.1,5.6c0.7,1.7,1.8,3.4,4,3.6c1.1,0.1,1.9,0.2,2.7-0.1
		c1.2-0.4,1.8-0.6,2.3-1.5c0.7-1.3,0.7-2.7,0.9-4C59,210.4,59,207.1,58.3,206.7L58.3,206.7z"/>
	<path class="st4" d="M92.8,207.5c-1.8-1.4-4.1-1.8-6.2-1.9l0,0c-0.3,0-0.4,0.1-0.4,0.4c-0.1,1-0.1,2-0.1,3.1c0,0.6,0,1,0,1.6
		c0,1.9-0.1,4.4-0.1,6.2c0,0.3,0,0.5,0.3,0.6c0.5,0.2,3,0.6,6.4-0.6c1-0.4,2.2-1.2,2.4-3.8C95.2,209.8,93.8,208.3,92.8,207.5z
		 M92,212.5c-0.1,0.6-0.2,1.3-0.7,1.8c-0.6,0.6-1.2,0.6-2,0.8c-0.2,0-0.5,0-0.6-0.2c-0.1-0.1,0-0.2,0-0.3c0.1-1.6-0.3-5.4-0.3-5.7
		c0.1-0.6,1.7,0.4,2,0.6c0.5,0.4,1.1,0.9,1.4,1.6C92.1,211.4,92.1,212.1,92,212.5L92,212.5z"/>
	<path class="st2" d="M26,181.8l1-0.6l1.9-0.6l0.7,1.2l0.6,1.1l-1.6,0.7l-1.2,0.3l-0.6-1.2L26,181.8L26,181.8z M40.3,176.5l2.3,0.7
		l1.3,0.9l-1.5,2.9l1.6,0.1l-0.4-0.5l1.4-1.9l0.9-1.8l2.3,1l0.9,0.8l-1.3,1.9l-0.4,0.5l2.6,0.1v1.8l-0.2,1.8l-2.5-0.2H47l-0.1,0.8
		v0.7l2.5,0.1v1.9l-0.2,1.3l-2.4-0.2v1v0.4l2.5,0.1v2.3l-0.1,0.8l-2.3-0.2v1.3l1.6,0.1l1.8,0.1v1.6l-0.2,1.7l-3.5-0.3l-2.8-0.1h-4.2
		l-1.6-0.3l0.2-6.3l-0.9,0.3l-2.1,0.3l-0.1-0.8h-0.9l-1.8,0.2l1.8,0.3l-0.2,0.6h2.4l1.3,0.1l0.1,1.7l-0.2,0.9l-1.5-0.1l0.6,0.5
		l1.2,1.1l-1.5,1.1l-1.6,0.4l-0.9-0.9l-1-1l-0.6-0.4l-1.3,1.5l-0.8,0.8l-2-0.5l-1.1-0.8l1.1-1.1l0.6-0.6L27,195l-0.2-1.3v-1.2
		l2.3-0.1h1l0.1-0.6l-0.8,0.1l-1.9,0.2l-0.5-0.9l-0.4-1.6l1.2-0.8l1.2-0.6l-1.1-0.6l-0.5-0.7l-0.4-1.1l0.8-0.5l2.1-1.2l1.3-0.6
		l-0.5-0.9l-0.7-0.9l1.3-0.7l1.4-0.5l-1.2,0.2l-3.9,0.6l-0.4-0.9l-0.2-1.9l2.5-0.3l3.6-0.6L36,176l0.8,1.4l0.5,1.6l-1.4,0.3l0.9,0.2
		l1.5,0.7l-0.8,1.8l-0.5,1l-0.7,1l-1.6-0.5l-1.2-0.6l0.3-0.5l-1,0.5h-0.1l0.5,0.4l0.8,1.1l-1.9,0.8l-1.2,0.7l0.6,0.4l3.4-1.9l1.3,1
		l0.7,1.3l-3.9,1.7l-1.8,0.8l2.2-0.2l0.8-0.1l-0.2-0.5l1.1-0.5l1.8-0.3l0.9,1.7l0.3,0.8L38,188v-3.1l-0.7-0.5l-0.7-0.7l1.5-2
		l1.4-2.9L40.3,176.5L40.3,176.5z M32.5,179.8l0.7,0.9l0.7,1.3l0,0l0.8-1.9l0.1-0.6l0,0L32.5,179.8z M41.7,185.8l1.5,0.1v-1.6h-0.1
		h-1.3v0.5L41.7,185.8L41.7,185.8z M41.6,190.2l1.5,0.1l0.1-1.5h-1.5L41.6,190.2z M41.5,193.3v1.5h1.4l0.1-1.4L41.5,193.3z"/>
	<path class="st2" d="M56,175.3l8.8-0.2l6.1-0.1h3.5l0.8,1.2l0.4,0.9l-0.1,0.7l-0.4,0.6l-1.1,1.1l-1.7-0.7h-0.1c0,0.4,0,0.6,0,1
		l-0.1,1.3l-4.4,0.1h-0.8v0.6c0.3,0,0.6,0.1,0.9,0.1l4.7,0.3h4.2l-0.3,1.3l-0.6,1.5l-4.2-0.4l-6.7-0.6l-5.9-0.8
		c-0.2,0-0.4-0.1-0.6-0.2l-0.4,1.3l-0.4,0.7l-1.4-0.3l-2.2-0.6l0.4-0.8l0.5-1.1l0.6-1.9l0.3-1.6l2,0.2l1.7,0.3l-0.3,1.4l2.1,0.4
		l1.7,0.3l0.1-1.8c0-0.6,0-1.2-0.1-1.8l-6.6,0.2l-0.1-1.6L56,175.3L56,175.3z M55,192.7l5.5-0.1l2.8-0.1c0-0.4,0-0.7,0-1.1l-4.9,0.2
		l0,0l0,0c-0.6,0-1.2,0-1.8,0l-0.1-1.9l-0.1-1.7l-0.1-1.9l2-0.3l2.1-0.1l0,0c0.4,0,0.8-0.1,1.2-0.1l1.6-0.1v-1.1h2.7h1.4
		c0,0.3,0,0.6,0,0.8l3.8-0.1l2.3,0.1l1,0.6v2.2v2.7l0.6-0.2l0.8,1.1l0.8,1.4l0.5,1.1l-1.2,0.5l-2.3,0.6c-0.1-0.3-0.2-0.6-0.4-0.7
		l-8.1,0.4l-4.5,0.2l-5.6,0.4v-1.5V192.7L55,192.7z M60.3,189.3h1.3c0.5,0,1.1,0,1.6-0.1l0,0v-0.9l-1.7,0.1c-0.4,0-0.9,0-1.3,0.1
		c0,0.2,0,0.5,0,0.6L60.3,189.3L60.3,189.3z M71.8,178.8l-1.2-0.4l0.3-0.4l0.1-0.3h-3.4c-0.2,0-0.5,0-0.7,0c0,0.4,0,0.7-0.1,1.1h1.1
		L71.8,178.8L71.8,178.8z M70.2,189c0-0.1,0-0.2,0-0.3v-0.6h-2.8H67c0,0.4,0,0.6,0,1L70.2,189L70.2,189z M71.9,192.2
		c-0.1-0.2-0.2-0.4-0.2-0.5l1.9-0.5h-1.4h-2l0,0h-1.7l-1.2,0.1v0.2l0.1,0.9L71.9,192.2L71.9,192.2z"/>
	<path class="st2" d="M83.7,185.8l2.2,0.1h2.6c0-0.7,0-1.5,0.1-2.1v-2.2h-1h-5.1l-0.2-1.5v-2.2h4l6.2,0.1l7.4,0.2v2.1l-0.3,1.6
		l-5.8-0.3h-1.1l-0.3,4.1v0.2l5.2,0.2v2l-0.1,1.6l-5.2-0.2l-0.1,2.2v1.9l3.5,0.1l5.1,0.2l-0.1,1.9l-0.3,1.7l-0.9-0.1l-5.1-0.2
		l-8-0.2l-6.3-0.1l-0.2-1.5l-0.1-1.7l2.5-0.2l5.7,0.1l0.2-2.4v-1.7h-4.4l-0.3-1.4L83.7,185.8L83.7,185.8z"/>
	<path class="st2" d="M105.5,177.2l1.4-0.1l2-0.2v0.2c3,0,6,0.1,9,0.1l7.1,0.3l2.1,0.3l0.9,0.6l-0.4,10.5l-0.4,7.3l-0.1,2.1
		l-1.5-0.2l-2.1-0.2l-4.5-0.1l-11.9-0.4h-0.7l-1.4,0.1l0.1-6.5L105.5,177.2L105.5,177.2z M116.1,180.6l1.7-0.1l1.5-0.1v0.5
		c0,0.6,0.1,1.2,0.1,1.9h1.7l-0.6-0.5l-1-0.6l0.7-0.8l0.7-0.7c-1.1-0.1-2.2-0.1-3.3-0.2c-3,0-6,0-9,0l-0.3,13.2c0,0.6,0,1.2,0,1.9
		l9,0.3l6.1,0.1c0-0.4,0.1-0.7,0.1-1.1l-0.8,0.6l-1,0.1l-1.3-0.1l-1.4-0.7c0-0.1-0.1-0.1-0.1-0.2l-1.3,1.2l-0.7-0.6l-0.8-0.8
		l-2.9,0.2l-1.6,0.1l-2.3,0.2l-0.1-1.1v-1.2l2.2-0.1h1.5l3.4-0.1l0.1,0.7l0.8-0.8c0.1-0.1,0.2-0.3,0.3-0.4c-0.1-0.4-0.2-0.7-0.3-1.1
		l-0.6-3.3c-0.1-0.5-0.1-0.9-0.1-1.3h-4.2l-2.8,0.1l-0.2-1v-1.7l5.2-0.1h1.8L116.1,180.6L116.1,180.6z M111.1,186.1l3.4,0.1l1.6,0.2
		l0.4,0.4l-0.1,1.7l-0.1,1.9l-0.1,0.9c-0.4,0-0.8-0.1-1.2-0.1l0,0h-1.5l-2.5-0.1l0,0c-0.2,0-0.4,0-0.5,0l-1.1-0.1l-0.2-1.2l0.1-1.7
		v-1.9l1-0.1L111.1,186.1L111.1,186.1L111.1,186.1z M113.5,189.4v-0.8l-0.6-0.1c-0.3,0-0.5,0-0.8,0v0.7v0.2h1H113.5z M120.8,186.1
		l1.8,0.6l1.2,0.7l-1.5,2.4l-1.2,1.9l0.4,0.5l0.2-0.1l0.2-0.6l0.3-1.3l1,0.8l0.7,0.3c0-1.5,0.1-3,0.2-4.4l0.2-6.7
		c-0.8-0.1-1.7-0.1-2.5-0.2l1.2,0.8l1,0.7l-0.8,0.8l-0.3,0.3h0.8v1.1l-0.1,1.5c-1.2,0-2.5-0.1-3.8-0.1c0.1,0.5,0.1,0.8,0.1,1.3
		l0.1,1.2L120.8,186.1L120.8,186.1z"/>
</g>
</svg>
