<?xml version="1.0" encoding="utf-8"?>
<!-- Generator: Adobe Illustrator 27.6.1, SVG Export Plug-In . SVG Version: 6.00 Build 0)  -->
<svg version="1.1" id="圖層_1" xmlns="http://www.w3.org/2000/svg" xmlns:xlink="http://www.w3.org/1999/xlink" x="0px" y="0px"
	 viewBox="0 0 1920 86.7" style="enable-background:new 0 0 1920 86.7;" xml:space="preserve">
<style type="text/css">
	.st0{clip-path:url(#SVGID_00000085934749364611460390000003996930159183818652_);fill:#FFC93D;}
</style>
<g>
	<defs>
		<rect id="SVGID_1_" x="-368.9" y="-270.2" width="2964.7" height="356.9"/>
	</defs>
	<clipPath id="SVGID_00000018217914462419552070000010227733802642951086_">
		<use xlink:href="#SVGID_1_"  style="overflow:visible;"/>
	</clipPath>
	<path style="clip-path:url(#SVGID_00000018217914462419552070000010227733802642951086_);fill:#FFC93D;" d="M1699.5,28.2
		c90.4-33.6,173-14,203,0c22.8,7.9,51.2,3.3,62.5,0v1351.1H-40.5V28.2c40.4,14.5,80.2,6.1,95,0c100.5-37.6,141-18.2,204,0
		c50.4,14.5,98.7,6.1,116.5,0c108-44.5,167.5-16.3,218.5,0c40.8,13,93.7,5.4,115,0c84.8-37.1,174.7-15.4,209,0
		c51.6,14.5,101.2,6.1,119.5,0c104-39.4,149.5-19.4,208,0c46.8,15.5,100.5,6.5,121.5,0c81-35.1,150.5-19.4,205,0
		C1615.1,43.8,1675,34.7,1699.5,28.2z"/>
</g>
</svg>
