<svg width="1920" height="1425" viewBox="0 0 1920 1425" fill="none" xmlns="http://www.w3.org/2000/svg">
<rect x="-42" y="1275" width="2133" height="150" fill="#FFC93D"/>
<path d="M1690 23.8918C1780.4 -9.66663 1863 9.90918 1893 23.8918C1915.8 31.7483 1944.17 27.1654 1955.5 23.8918V1375H-50V23.8918C-9.59998 38.4172 30.1666 29.9441 45 23.8918C145.5 -13.6737 186 5.73523 249 23.8918C299.4 38.4172 347.667 29.9441 365.5 23.8918C473.5 -20.5607 533 7.61353 584 23.8918C624.8 36.9146 677.667 29.318 699 23.8918C783.8 -13.1729 873.667 8.44824 908 23.8918C959.6 38.4172 1009.17 29.9441 1027.5 23.8918C1131.5 -15.552 1177 4.48303 1235.5 23.8918C1282.3 39.4189 1336 30.3615 1357 23.8918C1438 -11.1693 1507.5 4.48303 1562 23.8918C1605.6 39.4189 1665.5 30.3615 1690 23.8918Z" fill="#FFC93D"/>
</svg>
