<svg width="160" height="38" viewBox="0 0 160 38" fill="none" xmlns="http://www.w3.org/2000/svg">
<path d="M9.78141 1.4492L12.0499 3.05303L9.6061 4.33886L7.21909 6.85162L5.57625 10.5942L5.14636 17.386L6.29833 20.889L8.03476 22.7822L10.2143 23.8952L9.57327 25.5769L6.08888 24.54L3.76233 22.7024L1.77656 19.4398L1.78711 13.1245L3.31294 6.64766L6.55798 3.25976L9.78141 1.4492ZM15.6476 16.6037L18.9949 16.7894C20.5643 16.9123 22.1259 17.026 23.6798 17.1307C23.6811 17.1138 23.6902 17.1061 23.7071 17.1074L24.3686 16.1404L22.4954 15.9938L17.8259 15.781L17.6648 13.9347L17.6954 12.8929L23.5021 13.2201L24.6178 13.282C24.6479 13.1146 24.6689 12.9549 24.6808 12.8031C24.6887 12.7018 24.6973 12.5921 24.7066 12.474L22.9327 12.3606L20.4986 12.2209L20.3932 10.9647L20.4675 9.36605L24.1984 9.53081L24.9578 9.59027L24.9598 9.56496C24.9654 9.27675 24.9801 8.98077 25.0038 8.67701L22.3926 8.52351L18.7143 8.33739L18.6292 6.49701L18.5044 5.16289C19.7727 5.22823 21.0319 5.30135 22.282 5.38224C22.2224 5.27571 22.1629 5.16917 22.1033 5.06263L20.9982 2.91317L23.3085 2.35548L24.3662 2.1836L24.9703 3.24964L25.6113 4.49683L26.2681 5.54152L26.0596 5.6016C26.7009 5.65181 27.3421 5.70202 27.9834 5.75222L28.6643 4.8632L29.5426 3.40387L30.1693 2.23046L32.1274 2.9186L33.8984 3.71944L32.5189 5.7253L32.1368 6.05194L36.035 6.35714L35.7563 7.9653L35.5088 9.49949L29.5408 8.95583L28.9333 8.90826L28.858 9.87016L29.6427 9.9316L33.461 10.2815L33.3247 11.697L33.1105 13.132L29.3428 12.786C29.1066 12.7675 28.8703 12.749 28.6341 12.7306L28.5687 13.5659C28.9399 13.595 29.3118 13.6156 29.6844 13.6278L35.9815 14.1972L35.7344 15.4003L35.4731 17.1117L30.5723 16.6007C29.2897 16.5003 28.0072 16.3998 26.7247 16.2994L28.4451 17.0963L28.1875 17.4582C28.6094 17.4912 29.0228 17.5236 29.4279 17.5553L37.0198 18.1752L36.9615 19.5713L36.6673 21.0509L32.6212 20.6832L31.8365 20.6218L33.9654 21.7308L37.5501 23.4377L35.8713 25.0381L34.5516 25.9535L31.8857 24.5478L29.3368 22.9474L27.0256 21.2384L25.8333 20.2027L23.6209 21.7868L20.3686 23.315L16.8329 24.2351L15.4057 22.6208L14.936 21.4634L17.7238 20.6629L19.9353 19.7409C18.5671 19.6508 17.208 19.5529 15.8579 19.4472L15.694 18.2883L15.6476 16.6037ZM51.5664 15.4938L54.0471 15.688C54.7896 15.7462 55.5406 15.805 56.3 15.8644C56.3013 15.8475 56.3033 15.8222 56.3059 15.7885L56.4748 13.3058L53.1781 13.1241L53.1109 11.0559L53.2784 9.56639L56.0882 9.78637C56.2907 9.80223 56.4932 9.81808 56.6957 9.83394C56.7396 9.05635 56.7919 8.27942 56.8527 7.50315L56.9342 4.83536L59.2005 5.1656L60.9953 5.66268C60.8298 7.12688 60.6642 8.59108 60.4986 10.0553C60.6505 10.0672 60.8024 10.0791 60.9543 10.091L64.6207 10.429L64.3877 12.7538L64.0549 14.0776L61.1518 13.7484L60.1666 13.6458L59.9977 16.1285C60.3858 16.1588 60.7739 16.1892 61.1621 16.2196L65.4866 16.6091L65.2284 18.932L65.0379 20.0632L61.7298 19.7023C61.6961 19.6997 61.6708 19.6977 61.6539 19.6964L63.5314 22.3902L66.4205 25.8254L64.2825 27.1097L62.8328 27.7348L61.0521 25.4306L59.4799 23.0662C59.4456 23.505 59.4112 23.9438 59.3769 24.3825L59.2586 26.8692L59.215 27.4261L56.3198 26.9956L55.3817 26.6166C55.5043 25.2679 55.6269 23.9191 55.7494 22.5704L53.8577 24.6126L51.6116 26.627L50.4138 25.3362L49.0273 23.8524L51.2948 21.8906L53.9801 19.1465L54.0639 19.0512L51.5753 18.9582L51.6024 17.636L51.5664 15.4938ZM44.5465 9.51944L48.1469 9.72492L50.9701 10.0988L51.7543 10.4913L51.2232 17.2752L50.8891 20.891L48.8661 20.7071L46.2102 20.4737C46.2088 20.4906 46.2075 20.5075 46.2062 20.5244C45.6675 20.4652 45.1204 20.4054 44.5648 20.3449C44.4973 20.3396 44.4298 20.3343 44.3623 20.3291L42.7051 20.3521L42.7198 19.5128L43.068 14.0899L43.3994 9.53151L44.5385 9.62069L44.5465 9.51944ZM47.6595 17.2509L47.7051 16.6687L47.9786 13.1754C47.5385 13.158 47.0984 13.1405 46.6583 13.123L46.5132 15.3019C46.4825 15.9108 46.4434 16.5189 46.3958 17.1265C46.8177 17.1595 47.2389 17.201 47.6595 17.2509ZM73.5488 7.94443L75.5367 8.25287L77.4824 9.42395L76.7884 15.6858L76.6864 20.5677L77.2883 23.289L79.4053 24.5499L82.2398 23.804L84.0056 22.7198L85.1279 23.6736L86.3169 25.7277L83.3252 27.5055L79.6048 28.182L75.2112 27.0485L73.1232 24.4401L72.4685 20.4412L72.7656 15.3453L73.1998 11.1006L73.5488 7.94443ZM93.3187 12.0646L94.976 12.0415L97.2238 11.6317L96.7216 15.7692L96.6332 19.1751L97.9744 23.8389L99.3614 22.0628L100.06 23.5438L101.598 25.3706L99.654 27.4341L97.6227 28.9814L95.5942 28.5425L94.0015 25.4635L92.7813 20.5544L93.03 16.7282L93.3187 12.0646ZM103.108 14.8685L105.019 11.9364L107.246 13.4097L109.277 16.7522L110.712 19.8953L110.969 23.7612L110.226 26.097L108.272 25.3583L106.87 25.0448L107.129 24.0208L106.777 20.3768L105.358 17.0312L103.108 14.8685ZM116.935 27.5646L118.144 26.4368L120.411 26.1049L122.005 27.8597L121.676 29.4639L120.568 30.5997L117.819 30.5881L116.816 29.0834L116.935 27.5646ZM127.969 28.4285L129.178 27.3007L131.445 26.9688L133.04 28.7237L132.71 30.3278L131.603 31.4636L128.853 31.4521L127.85 29.9473L127.969 28.4285ZM139.004 29.2925L140.213 28.1646L142.48 27.8328L144.074 29.5876L143.745 31.1918L142.637 32.3275L139.888 32.316L138.885 30.8113L139.004 29.2925ZM150.271 12.5505L154.377 14.7566L157.16 18.8967L158.42 24.5983L157.679 29.5067L155.757 33.2274L152.65 35.5055L148.565 36.6119L148.259 34.3467L150.507 33.6058L152.341 32.2978L154.087 28.8689L154.582 23.8395L153.58 19.4059L151.876 16.4455L149.675 14.9489L150.271 12.5505Z" fill="white"/>
</svg>
