<svg width="207" height="121" viewBox="0 0 207 121" fill="none" xmlns="http://www.w3.org/2000/svg">
<g clip-path="url(#clip0_458_132383)">
<path d="M176.952 4.85404L195.113 3.54199L185.097 16.9203L200.945 17.1213L192.699 24.5941L207 27.445L199.22 40.3954L183.358 29.8939L176.952 4.85404Z" fill="#2B2B22"/>
<path d="M150.466 94.7021L148.003 113.254L146.933 113.326L147.754 94.3438L150.466 94.7021Z" fill="#EF5C3F"/>
<path d="M144.297 77.7515C144.297 82.0537 143.379 95.7438 147.946 97.8344C154.923 101.026 156.321 80.3317 158.619 78.6691L144.297 77.754V77.7515Z" fill="#0C0B0A"/>
<path d="M90.5918 68.4997C90.5918 68.4997 68.653 99.3238 52.8107 92.9157C24.0958 81.3005 59.0771 32.0922 73.5297 19.9744C101.56 -3.52395 186.57 1.96914 186.57 1.96914L182.303 13.5662L186.649 14.8783L185.046 23.3331L195.711 25.7742L188.399 34.9302L199.977 38.5932C199.977 38.5932 179.608 80.1019 144.524 84.9815C111.617 89.5595 90.5944 68.5022 90.5944 68.5022L90.5918 68.4997Z" fill="#2B2B22"/>
<path d="M80.9258 74.3923L73.841 72.789L75.2127 65.922L66.7588 66.1514L66.9879 56.5391H59.6766L60.3612 47.6125L53.001 45.4009C41.7781 63.7799 34.8941 85.6672 52.8132 92.9157C62.4071 96.7951 74.2322 87.0282 82.071 78.7151L80.9284 74.3923H80.9258Z" fill="#0C0B0A"/>
<path d="M88.2369 23.3513L85.2671 30.904L93.0365 34.5669L88.695 41.8902L99.8922 48.0689L94.4081 56.0804L100.577 62.0324L95.3732 72.4566C98.5283 74.774 103.173 77.7306 109.1 80.2567L114.057 68.67L110.173 61.1173L117.714 48.0715L111.545 41.8928L114.973 32.2805L109.031 24.4984L114.744 13.7417L110.706 5.65283C97.4011 8.09907 85.1076 11.8883 76.5791 17.683L88.2369 23.3539V23.3513Z" fill="#0C0B0A"/>
<path d="M169.813 11.45L165.243 21.2917L173.241 26.7848L171.414 38.4592L178.725 40.7482L179.639 53.794L188.092 52.8789L186.512 58.6478C195.278 48.1591 205.896 34.3684 205.896 34.3684L193.134 32.4815L200.455 21.1654L185.043 23.3332L195.851 10.0606L183.298 10.4808L187.063 0.00244141C187.063 0.00244141 177.788 1.40471 164.949 1.41502L169.808 11.4526L169.813 11.45Z" fill="#0C0B0A"/>
<path d="M96.4643 60.6586L89.6086 56.9957L95.3217 49.443L85.0381 43.7205L88.466 37.7686L80.6967 33.1906L83.8955 27.2387C83.8955 27.2387 77.4155 22.9494 73.213 20.2402C68.3594 24.4032 61.3467 32.5282 55.1807 41.9497L62.8754 43.0323L62.4173 53.789L69.5021 52.4151L69.044 63.1719L79.0985 62.2568L77.7269 70.2683L85.5683 74.8154C88.677 71.1886 90.5917 68.4974 90.5917 68.4974C90.5917 68.4974 91.1553 69.062 92.2464 69.9873L96.4643 60.6561V60.6586Z" fill="#0C0B0A"/>
<path d="M184.21 56.7688C184.21 55.6243 173.242 59.0578 173.242 59.0578L175.985 45.3238L165.017 43.4937L168.216 30.6773L159.533 21.7507L164.559 12.8241L159.715 1.44873C153.073 1.53637 145.636 1.78899 137.923 2.33804L146.277 14.4249L137.136 27.0144L147.875 36.1704L142.391 47.386L150.16 52.1934L146.277 65.9274L155.189 70.5054L153.598 82.8423C166.224 78.6252 176.541 69.91 184.207 61.3211V56.774L184.21 56.7688Z" fill="#0C0B0A"/>
<path d="M150.621 71.6448L142.167 68.4407L145.595 54.9361L136.912 50.1287L141.711 37.5392L132.8 27.9269L138.055 16.2551L131.685 2.84326C126.453 3.32271 121.165 3.94652 115.969 4.75592L120.002 13.5072L112.917 23.3489L119.544 31.5872L115.202 40.055L122.971 47.6077L113.601 60.6534L118.172 69.3506L112.472 81.5818C121.072 84.7214 131.927 86.7269 144.522 84.9741C146.097 84.755 147.641 84.4611 149.157 84.1028L150.621 71.6396V71.6448Z" fill="#0C0B0A"/>
<path d="M148.003 113.254L140.854 120.183L140.231 119.338L145.651 114.033L137.949 114.821L137.931 113.563L145.502 112.994L139.269 110.924L140.131 110.073L147.35 112.677L148.003 113.254Z" fill="#EF5C3F"/>
<path d="M120.583 113.713L113.431 120.641L112.811 119.793L118.231 114.491L110.528 115.28L110.508 114.022L118.082 113.452L111.849 111.38L112.711 110.532L119.929 113.135L120.583 113.713Z" fill="#EF5C3F"/>
<path d="M123.045 95.1585L120.582 113.713L119.512 113.782L120.333 94.8027L123.045 95.1585Z" fill="#EF5C3F"/>
<path d="M116.571 77.4443C116.571 81.7465 115.652 95.4367 120.22 97.5272C127.197 100.718 128.594 80.0246 130.892 78.362L116.571 77.4469V77.4443Z" fill="#0C0B0A"/>
<path d="M47.4032 88.8277C47.4032 88.8277 45.2569 101.469 47.6914 104.119C48.2164 104.691 53.7442 96.1278 53.7442 96.1278C53.7442 96.1278 54.9461 103.464 55.574 103.479C57.4269 103.531 60.7184 92.9778 60.7184 92.9778C60.7184 92.9778 60.9139 90.7481 56.5442 88.8999C51.0936 86.5928 47.4006 88.8277 47.4006 88.8277H47.4032Z" fill="#FFC022"/>
<path d="M42.3131 81.6593C42.3131 81.6593 41.8936 79.6358 42.5421 73.8772C43.4454 65.8502 45.1233 62.0352 45.1233 62.0352C45.1233 62.0352 42.0866 50.5335 36.6025 52.5931C34.1629 53.5082 35.2309 59.0013 35.2309 59.0013C35.2309 59.0013 32.032 58.0862 30.6604 63.5793C29.7674 67.1597 33.6302 72.047 33.6302 72.047C33.6302 72.047 28.9593 71.6295 31.803 77.7695C32.925 80.19 42.3131 81.6593 42.3131 81.6593Z" fill="#EF5C3F"/>
<path d="M35.1173 65.9274C35.2537 64.3704 37.0499 62.4165 36.5404 60.8622C36.1106 59.5501 34.6463 59.8388 33.7121 60.4497C30.9894 61.5762 32.06 66.9945 33.7945 68.7938C35.7581 70.8327 35.0272 66.9559 35.1173 65.9248V65.9274Z" fill="#ED7454"/>
<path d="M33.6949 73.6813C31.3144 73.2018 32.2229 76.4291 33.1853 77.3468C33.7953 77.9267 37.1459 80.0224 37.5577 78.4655C37.7841 77.6123 36.3095 77.2076 35.9055 76.6585C35.3677 75.9239 35.6301 75.3181 35.4217 74.4958C35.0151 72.8873 31.9835 72.944 31.9629 74.9031C31.9552 75.5888 32.7298 76.411 33.2883 76.2255L33.6949 73.6813Z" fill="#ED7454"/>
<path d="M52.7895 76.8802C53.6565 76.8802 54.3594 76.1762 54.3594 75.3078C54.3594 74.4393 53.6565 73.7354 52.7895 73.7354C51.9226 73.7354 51.2197 74.4393 51.2197 75.3078C51.2197 76.1762 51.9226 76.8802 52.7895 76.8802Z" fill="#564336"/>
<path d="M53.2964 75.9186C53.2964 76.3671 52.9335 76.7331 52.4831 76.7331C52.0328 76.7331 51.6699 76.3697 51.6699 75.9186C51.6699 75.4675 52.0328 75.104 52.4831 75.104C52.9335 75.104 53.2964 75.4675 53.2964 75.9186Z" fill="white"/>
<path d="M152.223 16.1983C152.223 16.1983 124.345 11.3909 111.549 20.5469C99.9713 28.8291 96.0108 50.3014 118.634 57.6246C141.255 64.9479 163.878 44.8083 163.878 44.8083L153.368 43.6638L162.965 35.4229L150.17 31.7599L157.71 28.3264L146.742 22.1477L152.226 16.1958L152.223 16.1983Z" fill="#5B5B4B"/>
<path d="M106.521 34.4328C107.996 34.407 109.707 34.0848 111.056 33.4661C111.501 33.2599 111.115 32.6026 110.672 32.8062C109.458 33.3656 107.847 33.6466 106.524 33.6698C106.032 33.6801 106.032 34.4431 106.524 34.4328H106.521Z" fill="#0C0B0A"/>
<path d="M110.637 28.481C112.248 28.4707 113.969 28.3212 115.4 27.5144C115.827 27.2721 115.444 26.6148 115.017 26.8545C113.707 27.5943 112.114 27.7077 110.639 27.718C110.148 27.7206 110.148 28.4836 110.639 28.481H110.637Z" fill="#0C0B0A"/>
<path d="M116.805 21.3845C118.72 21.3613 120.601 20.9462 122.518 20.9256C123.01 20.9205 123.01 20.1575 122.518 20.1626C120.604 20.1832 118.72 20.5983 116.805 20.6215C116.314 20.6266 116.314 21.3896 116.805 21.3845Z" fill="#0C0B0A"/>
<path d="M121.833 26.8778C123.514 26.8546 125.179 26.4474 126.859 26.6484C127.346 26.7077 127.341 25.9421 126.859 25.8854C125.176 25.6818 123.514 26.0891 121.833 26.1148C121.342 26.1226 121.342 26.8856 121.833 26.8778Z" fill="#0C0B0A"/>
<path d="M117.49 35.3482C119.435 35.3585 121.389 35.5492 123.303 35.1059C123.782 34.995 123.579 34.2604 123.1 34.3712C121.255 34.7991 119.361 34.5981 117.49 34.5877C116.998 34.5852 116.998 35.3482 117.49 35.3507V35.3482Z" fill="#0C0B0A"/>
<path d="M108.806 45.1897C110.52 45.1897 112.231 45.1769 113.935 44.9474C114.419 44.883 114.213 44.1458 113.732 44.2128C112.1 44.4319 110.448 44.4267 108.806 44.4267C108.315 44.4267 108.315 45.1897 108.806 45.1897Z" fill="#0C0B0A"/>
<path d="M115.891 52.2863C117.958 52.2657 119.993 51.8507 122.06 51.8275C122.551 51.8223 122.551 51.0593 122.06 51.0645C119.993 51.0851 117.958 51.5001 115.891 51.5233C115.4 51.5285 115.4 52.2915 115.891 52.2863Z" fill="#0C0B0A"/>
<path d="M128.56 54.7889C130.92 54.3197 133.295 53.9331 135.645 53.4149C136.124 53.3093 135.92 52.5746 135.442 52.6803C133.092 53.1958 130.717 53.5851 128.357 54.0542C127.876 54.1496 128.079 54.8842 128.56 54.7889Z" fill="#0C0B0A"/>
<path d="M122.976 44.9601C125.117 44.9395 127.23 44.5194 129.374 44.5013C129.865 44.4962 129.865 43.7332 129.374 43.7383C127.23 43.7564 125.117 44.1765 122.976 44.1971C122.485 44.2023 122.485 44.9653 122.976 44.9601Z" fill="#0C0B0A"/>
<path d="M137.599 45.6483C138.091 45.6483 138.091 44.8853 137.599 44.8853C137.108 44.8853 137.108 45.6483 137.599 45.6483Z" fill="#0C0B0A"/>
<path d="M137.599 45.6483C139.328 45.6251 141.035 45.2049 142.589 44.4522C143.032 44.2383 142.646 43.5809 142.206 43.7923C140.772 44.4857 139.19 44.8621 137.599 44.8853C137.108 44.893 137.108 45.656 137.599 45.6483Z" fill="#0C0B0A"/>
<path d="M129.603 39.238C131.479 39.0034 133.35 38.7559 135.187 38.31C135.663 38.194 135.463 37.4568 134.984 37.5754C133.211 38.0084 131.409 38.2507 129.6 38.4776C129.119 38.5368 129.114 39.3024 129.6 39.2406L129.603 39.238Z" fill="#0C0B0A"/>
<path d="M137.599 33.5152C139.357 33.5152 141.107 33.4946 142.854 33.2858C143.335 33.2291 143.341 32.4635 142.854 32.5228C141.107 32.7316 139.357 32.7522 137.599 32.7522C137.108 32.7522 137.108 33.5152 137.599 33.5152Z" fill="#0C0B0A"/>
<path d="M126.175 30.5403H129.603C130.095 30.5403 130.095 29.7773 129.603 29.7773H126.175C125.684 29.7773 125.684 30.5403 126.175 30.5403Z" fill="#0C0B0A"/>
<path d="M135.772 26.8777C137.637 26.8777 139.542 26.8958 141.356 26.406C141.83 26.2771 141.629 25.5425 141.153 25.6714C139.403 26.1431 137.568 26.1147 135.769 26.1147C135.278 26.1147 135.278 26.8777 135.769 26.8777H135.772Z" fill="#0C0B0A"/>
<path d="M128.46 22.3022C130.527 22.2919 132.578 22.0728 134.629 21.8434C135.113 21.7893 135.118 21.0263 134.629 21.0804C132.578 21.3072 130.524 21.5263 128.46 21.5392C127.969 21.5392 127.969 22.3048 128.46 22.3022Z" fill="#0C0B0A"/>
<path d="M134.858 18.1805C135.349 18.1805 135.349 17.4175 134.858 17.4175C134.366 17.4175 134.366 18.1805 134.858 18.1805Z" fill="#0C0B0A"/>
<path d="M134.984 18.1675C137.459 18.6418 140.02 18.6418 142.498 18.1675C142.98 18.0747 142.776 17.3401 142.295 17.4329C139.961 17.8814 137.521 17.8814 135.185 17.4329C134.706 17.3401 134.5 18.0773 134.981 18.1675H134.984Z" fill="#0C0B0A"/>
<path d="M144.125 26.4084C145.849 26.8724 147.658 26.8595 149.38 27.3235C149.856 27.4524 150.056 26.7151 149.583 26.5888C147.859 26.1248 146.05 26.1377 144.328 25.6738C143.852 25.5449 143.651 26.2821 144.125 26.4084Z" fill="#0C0B0A"/>
<path d="M146.511 37.6372C148.104 37.6166 149.823 37.3562 151.274 36.6705C151.717 36.4592 151.331 35.8019 150.891 36.0107C149.568 36.637 147.962 36.8561 146.513 36.8742C146.022 36.8819 146.022 37.6449 146.513 37.6372H146.511Z" fill="#0C0B0A"/>
<path d="M145.242 49.7521C146.65 49.502 148.003 49.0587 149.354 48.6076C149.818 48.4529 149.62 47.7157 149.151 47.8729C147.798 48.324 146.444 48.7674 145.039 49.0174C144.555 49.1025 144.761 49.8397 145.242 49.7521Z" fill="#0C0B0A"/>
<path d="M139.758 55.9335C141.418 55.6448 142.944 55.0674 144.266 54.0054C144.65 53.6961 144.107 53.1599 143.729 53.4666C142.514 54.4436 141.073 54.9359 139.554 55.1989C139.071 55.2839 139.276 56.0186 139.758 55.9335Z" fill="#0C0B0A"/>
<path d="M153.696 49.5253C155.13 49.2598 156.442 48.6257 157.809 48.1514C158.269 47.9916 158.071 47.2544 157.605 47.4168C156.239 47.8911 154.926 48.5252 153.493 48.7907C153.009 48.8783 153.215 49.6156 153.696 49.5253Z" fill="#0C0B0A"/>
<path d="M45.5788 113.687C44.184 114.708 43.744 116.736 41.855 116.906C38.2444 117.229 37.9614 111.398 34.2272 113.458C32.8762 114.205 32.4644 115.695 31.0696 116.62C29.1652 117.883 27.6417 116.937 26.602 115.303C24.7157 112.336 24.3786 108.444 19.3732 109.032C17.3684 109.266 15.8398 111.001 14.8799 112.769C14.028 114.337 14.0821 115.313 12.7773 116.631C11.102 118.319 9.66601 117.208 7.80796 116.618C6.79916 116.298 6.06829 116.174 5.35801 116.218C3.1371 115.912 0.249663 116.718 0.0257703 118.494C-0.298488 121.072 2.30072 120.077 3.69297 119.708C5.81866 119.144 6.72453 118.755 8.71382 119.708C10.4458 120.538 11.3799 121.771 13.2895 120.35C14.6431 119.345 15.1887 117.182 16.0894 115.811C22.3481 106.279 24.4841 123.936 31.4067 120.172C32.7938 119.417 33.7331 117.716 35.2155 117.136C37.7581 116.138 37.9845 118.113 39.5749 119.379C41.9219 121.25 48.3582 119.58 49.614 116.357C50.8339 113.228 47.5578 112.238 45.5763 113.687H45.5788Z" fill="#FFC022"/>
<path d="M47.1026 113.38C47.1026 113.8 46.7603 114.143 46.3409 114.143C45.9214 114.143 45.5791 113.8 45.5791 113.38C45.5791 112.96 45.9214 112.617 46.3409 112.617C46.7603 112.617 47.1026 112.96 47.1026 113.38Z" fill="#0C0B0A"/>
<path d="M49.1583 115.443C49.1583 115.863 48.8186 116.206 48.3965 116.206C47.9745 116.206 47.6348 115.863 47.6348 115.443C47.6348 115.023 47.977 114.68 48.3965 114.68C48.816 114.68 49.1583 115.023 49.1583 115.443Z" fill="#0C0B0A"/>
</g>
<defs>
<clipPath id="clip0_458_132383">
<rect width="207" height="121" fill="white"/>
</clipPath>
</defs>
</svg>
