<svg width="98" height="75" viewBox="0 0 98 75" fill="none" xmlns="http://www.w3.org/2000/svg">
<path d="M91.7825 33.6641L78.8312 73.0793C78.701 73.4766 78.4824 73.8397 78.1916 74.1415C77.9008 74.4434 77.5454 74.6763 77.1516 74.8229C76.7578 74.9696 76.3359 75.0263 75.9171 74.9888C75.4982 74.9512 75.0933 74.8204 74.7323 74.6061C74.6518 74.5574 65.7014 69.4345 49.9918 69.4345C34.2822 69.4345 25.3318 74.5574 25.2443 74.6096C24.8834 74.8219 24.4792 74.9509 24.0614 74.9872C23.6436 75.0234 23.223 74.966 22.8305 74.8191C22.4381 74.6722 22.0839 74.4396 21.794 74.1385C21.5042 73.8374 21.2861 73.4754 21.1559 73.0793L8.21154 33.6537C7.95073 32.8644 7.93063 32.0162 8.15377 31.2157C8.37692 30.4151 8.83333 29.698 9.46562 29.1545C10.0979 28.611 10.8778 28.2655 11.7073 28.1613C12.5367 28.0571 13.3786 28.1989 14.1271 28.569L31.6954 37.2638L46.3689 13.0366C46.7461 12.4152 47.2785 11.9011 47.9145 11.5443C48.5504 11.1875 49.2684 11 49.9988 11C50.7291 11 51.4471 11.1875 52.0831 11.5443C52.7191 11.9011 53.2514 12.4152 53.6286 13.0366L68.3021 37.2638L85.8774 28.569C86.6268 28.1984 87.4699 28.0568 88.3002 28.1619C89.1306 28.2671 89.9109 28.6144 90.5427 29.1599C91.1746 29.7055 91.6295 30.4248 91.8502 31.2271C92.0708 32.0294 92.0473 32.8786 91.7825 33.6676V33.6641Z" fill="#FFC93D"/>
<path d="M33.4102 61.7734C33.2227 62.0195 32.9766 62.1777 32.6719 62.248C32.5547 62.2832 32.4375 62.3008 32.3203 62.3008C32.1328 62.3008 31.9512 62.2598 31.7754 62.1777L31.6699 62.1426C31.4473 62.0488 31.3066 61.8848 31.248 61.6504C31.2363 61.5918 31.2305 61.5332 31.2305 61.4746C31.2305 61.2988 31.2891 61.1406 31.4062 61C31.7578 60.5664 32.0742 60.0801 32.3555 59.541C32.4961 59.2832 32.7012 59.0898 32.9707 58.9609C33.1348 58.8672 33.3105 58.8203 33.498 58.8203C33.5918 58.8203 33.6914 58.8379 33.7969 58.873L33.8496 58.8906C34.1191 58.9609 34.3184 59.1191 34.4473 59.3652C34.5059 59.4824 34.5352 59.6055 34.5352 59.7344C34.5352 59.8516 34.5059 59.9746 34.4473 60.1035C34.1426 60.7012 33.7969 61.2578 33.4102 61.7734ZM36.0645 60.209C36.0645 60.1621 36.0645 60.1211 36.0645 60.0859C36.0645 59.8633 36.1348 59.6641 36.2754 59.4883C36.4395 59.2656 36.6562 59.1426 36.9258 59.1191C36.9609 59.1191 37.002 59.1191 37.0488 59.1191C37.2832 59.1191 37.5 59.1895 37.6992 59.3301C37.9219 59.5059 38.0566 59.7285 38.1035 59.998C38.1621 60.3848 38.2148 60.7539 38.2617 61.1055C38.2617 61.1406 38.2617 61.1816 38.2617 61.2285C38.2617 61.4629 38.1797 61.6797 38.0156 61.8789C37.8398 62.1016 37.6055 62.2305 37.3125 62.2656H37.2422C37.1953 62.2773 37.1484 62.2832 37.1016 62.2832C36.8906 62.2832 36.6973 62.207 36.5215 62.0547C36.3105 61.8789 36.1934 61.6504 36.1699 61.3691C36.1465 60.9824 36.1113 60.5957 36.0645 60.209ZM39.8438 60.1738C39.8086 60.0801 39.791 59.9863 39.791 59.8926C39.791 59.7402 39.832 59.5879 39.9141 59.4355C40.0547 59.2129 40.2539 59.0781 40.5117 59.0312C40.582 59.0195 40.6523 59.0137 40.7227 59.0137C40.9453 59.0137 41.1562 59.0723 41.3555 59.1895C41.6133 59.3301 41.7891 59.541 41.8828 59.8223C42.0234 60.2207 42.1465 60.6016 42.252 60.9648C42.2754 61.0586 42.2871 61.1465 42.2871 61.2285C42.2871 61.4043 42.2344 61.5684 42.1289 61.7207C41.9766 61.9668 41.7598 62.1133 41.4785 62.1602L41.373 62.1953C41.3027 62.207 41.2324 62.2129 41.1621 62.2129C40.9629 62.2129 40.7754 62.1484 40.5996 62.0195C40.3652 61.8672 40.2188 61.6504 40.1602 61.3691C40.0664 60.959 39.9609 60.5605 39.8438 60.1738ZM43.6758 60.0156C43.5938 59.875 43.5527 59.7344 43.5527 59.5938C43.5527 59.5117 43.5645 59.4238 43.5879 59.3301C43.6699 59.0957 43.834 58.9375 44.0801 58.8555L44.168 58.8379C44.3086 58.791 44.4492 58.7676 44.5898 58.7676C44.7422 58.7676 44.8945 58.7969 45.0469 58.8555C45.3516 58.9492 45.5918 59.1191 45.7676 59.3652C46.2129 59.9863 46.5703 60.5254 46.8398 60.9824C46.9219 61.1113 46.9629 61.2461 46.9629 61.3867C46.9629 61.4922 46.9453 61.5977 46.9102 61.7031C46.8047 61.9492 46.623 62.1133 46.3652 62.1953L46.1367 62.2656C46.0195 62.3008 45.9023 62.3184 45.7852 62.3184C45.6328 62.3184 45.4746 62.2891 45.3105 62.2305C45.041 62.1133 44.8359 61.9199 44.6953 61.6504C44.4023 61.123 44.0625 60.5781 43.6758 60.0156ZM43.6582 50.084C43.6582 49.9902 43.6172 49.9434 43.5352 49.9434H42.7617C42.6797 49.9434 42.6328 49.9902 42.6211 50.084C42.5742 51.0801 42.498 51.8887 42.3926 52.5098C42.3809 52.6035 42.4102 52.6738 42.4805 52.7207C42.8789 53.0137 43.2422 53.3008 43.5703 53.582C43.582 53.6055 43.5996 53.6113 43.623 53.5996C43.6465 53.5879 43.6582 53.5703 43.6582 53.5469V50.084ZM45.7852 56.3418H45.9961C46.0898 56.3418 46.1602 56.3125 46.207 56.2539C46.2539 56.1719 46.2891 55.9844 46.3125 55.6914C46.3359 55.4453 46.3535 55.0293 46.3652 54.4434C46.3652 54.291 46.4355 54.1797 46.5762 54.1094C46.7168 54.0273 46.8574 54.0273 46.998 54.1094C47.1973 54.2148 47.3613 54.3613 47.4902 54.5488C47.5957 54.7246 47.6484 54.9121 47.6484 55.1113C47.6484 55.8262 47.5898 56.4004 47.4727 56.834C47.3906 57.2324 47.2266 57.543 46.9805 57.7656C46.7578 57.9414 46.4355 58.0293 46.0137 58.0293H45.2227C44.7305 58.0293 44.3438 57.8828 44.0625 57.5898C43.9102 57.4258 43.8047 57.209 43.7461 56.9395C43.6875 56.6582 43.6582 56.207 43.6582 55.5859V54.4082C43.6582 54.3848 43.6465 54.373 43.623 54.373C43.6113 54.3613 43.6055 54.3672 43.6055 54.3906L43.4121 54.7598C43.2949 54.9941 43.1133 55.1289 42.8672 55.1641C42.8086 55.1758 42.7559 55.1816 42.709 55.1816C42.5215 55.1816 42.3516 55.1113 42.1992 54.9707C42.1289 54.9121 42.0586 54.8594 41.9883 54.8125C41.9297 54.7539 41.8887 54.7656 41.8652 54.8477C41.5137 55.9609 40.998 56.8984 40.3184 57.6602C40.1543 57.8359 39.9551 57.9238 39.7207 57.9238C39.6973 57.9238 39.668 57.9238 39.6328 57.9238C39.3633 57.9004 39.1289 57.7832 38.9297 57.5723C38.8945 57.5371 38.8594 57.4961 38.8242 57.4492V57.4668C38.8242 57.4785 38.8125 57.4902 38.7891 57.502C36.3633 57.748 34.0605 57.9766 31.8809 58.1875C31.8457 58.1875 31.8164 58.1875 31.793 58.1875C31.5938 58.1875 31.4121 58.1172 31.248 57.9766C31.0488 57.8125 30.9492 57.5957 30.9492 57.3262C30.9492 57.1152 31.0195 56.9277 31.1602 56.7637C31.3125 56.5762 31.5117 56.4766 31.7578 56.4648C32.4727 56.418 33.1875 56.3652 33.9023 56.3066C33.9844 56.3066 34.0254 56.2598 34.0254 56.166V55.3398C34.0254 55.2461 33.9844 55.1992 33.9023 55.1992H32.127C31.9277 55.1992 31.752 55.1289 31.5996 54.9883C31.459 54.8359 31.3887 54.6602 31.3887 54.4609C31.3887 54.25 31.459 54.0742 31.5996 53.9336C31.752 53.7812 31.9277 53.7051 32.127 53.7051H33.9199C33.9902 53.7051 34.0254 53.6699 34.0254 53.5996C34.0254 53.3652 34.1074 53.166 34.2715 53.002C34.4473 52.8262 34.6523 52.7383 34.8867 52.7383H35.6777C35.7012 52.7383 35.7129 52.7324 35.7129 52.7207C35.7246 52.6973 35.7246 52.6797 35.7129 52.668C35.4668 52.4688 35.3438 52.0059 35.3438 51.2793V50.6816C35.3438 50.5879 35.3027 50.541 35.2207 50.541H34.5703C34.4883 50.541 34.4414 50.582 34.4297 50.6641C34.3242 51.3086 34.1074 51.8359 33.7793 52.2461C33.4512 52.6445 32.9355 52.9609 32.2324 53.1953C32.1504 53.2305 32.0625 53.248 31.9688 53.248C31.8633 53.248 31.752 53.2188 31.6348 53.1602C31.4355 53.0664 31.2715 52.9199 31.1426 52.7207C31.0488 52.5918 31.0254 52.4453 31.0723 52.2812C31.1309 52.1172 31.2363 52.0117 31.3887 51.9648C31.8105 51.8359 32.127 51.6719 32.3379 51.4727C32.5488 51.2617 32.6953 50.9922 32.7773 50.6641C32.7891 50.6406 32.7832 50.6172 32.7598 50.5938C32.7363 50.5586 32.707 50.541 32.6719 50.541H31.7402C31.541 50.541 31.3652 50.4707 31.2129 50.3301C31.0723 50.1777 31.002 50.002 31.002 49.8027C31.002 49.6035 31.0723 49.4336 31.2129 49.293C31.3652 49.1406 31.541 49.0645 31.7402 49.0645H33.9023C33.9844 49.0645 34.0254 49.0234 34.0254 48.9414V48.3086C34.0254 48.2266 33.9844 48.1855 33.9023 48.1855H32.3555C32.1562 48.1855 31.9863 48.1152 31.8457 47.9746C31.7051 47.834 31.6348 47.6641 31.6348 47.4648C31.6348 47.2656 31.7051 47.0957 31.8457 46.9551C31.9863 46.8145 32.1562 46.7441 32.3555 46.7441H33.9199C33.9902 46.7441 34.0254 46.709 34.0254 46.6387C34.0254 46.3926 34.1074 46.1875 34.2715 46.0234C34.4473 45.8594 34.6523 45.7773 34.8867 45.7773H35.0625C35.2969 45.7773 35.4961 45.8594 35.6602 46.0234C35.8359 46.1875 35.9238 46.3926 35.9238 46.6387C35.9238 46.709 35.959 46.7441 36.0293 46.7441H37.5938C37.793 46.7441 37.9629 46.8145 38.1035 46.9551C38.2441 47.0957 38.3145 47.2656 38.3145 47.4648C38.3145 47.6641 38.2441 47.834 38.1035 47.9746C37.9629 48.1152 37.793 48.1855 37.5938 48.1855H36.0469C35.9648 48.1855 35.9238 48.2266 35.9238 48.3086V48.9414C35.9238 49.0234 35.9648 49.0645 36.0469 49.0645H38.0859C38.2852 49.0645 38.4551 49.1406 38.5957 49.293C38.748 49.4336 38.8242 49.6035 38.8242 49.8027C38.8242 50.002 38.748 50.1777 38.5957 50.3301C38.4551 50.4707 38.2852 50.541 38.0859 50.541H36.9785C36.8848 50.541 36.8379 50.5879 36.8379 50.6816V51.2793C36.8379 51.4434 36.8496 51.5488 36.873 51.5957C36.9082 51.6309 36.9727 51.6484 37.0664 51.6484H37.4883C37.6055 51.6484 37.6816 51.5957 37.7168 51.4902C37.7637 51.3496 37.8516 51.2441 37.9805 51.1738C38.1211 51.0918 38.2617 51.0742 38.4023 51.1211C38.6016 51.1914 38.7539 51.3086 38.8594 51.4727C38.9766 51.6367 39.0117 51.8125 38.9648 52C38.8711 52.3516 38.7246 52.5918 38.5254 52.7207C38.3262 52.8496 38.0508 52.9141 37.6992 52.9141H36.8027C36.4863 52.9141 36.2344 52.8906 36.0469 52.8438C35.9648 52.8086 35.9238 52.8379 35.9238 52.9316V53.582C35.9238 53.6641 35.9648 53.7051 36.0469 53.7051H37.6289C37.8281 53.7051 37.998 53.7812 38.1387 53.9336C38.291 54.0742 38.3672 54.25 38.3672 54.4609C38.3672 54.6602 38.291 54.8359 38.1387 54.9883C37.998 55.1289 37.8281 55.1992 37.6289 55.1992H36.0469C35.9648 55.1992 35.9238 55.2461 35.9238 55.3398V56.0254C35.9238 56.1191 35.9648 56.1602 36.0469 56.1484C36.3281 56.125 36.7266 56.0898 37.2422 56.043C37.7578 55.9961 38.1152 55.9668 38.3145 55.9551C38.4434 55.9434 38.5547 55.9844 38.6484 56.0781C38.7539 56.1602 38.8066 56.2656 38.8066 56.3945C38.8066 56.4062 38.8125 56.418 38.8242 56.4297C38.8359 56.4297 38.8418 56.4238 38.8418 56.4121C39.498 55.6855 39.9727 54.7598 40.2656 53.6348C40.2891 53.5527 40.2656 53.4883 40.1953 53.4414C39.9844 53.2891 39.791 53.1543 39.6152 53.0371C39.4043 52.8965 39.2695 52.709 39.2109 52.4746C39.1875 52.3809 39.1758 52.293 39.1758 52.2109C39.1758 52.0586 39.2109 51.9121 39.2812 51.7715C39.4102 51.5488 39.5918 51.4023 39.8262 51.332C39.9082 51.3086 39.9902 51.2969 40.0723 51.2969C40.2129 51.2969 40.3535 51.3438 40.4941 51.4375C40.5176 51.4375 40.5293 51.4434 40.5293 51.4551C40.5527 51.4668 40.5762 51.4668 40.5996 51.4551C40.6348 51.4434 40.6523 51.4258 40.6523 51.4023C40.6992 50.9688 40.7285 50.5293 40.7402 50.084C40.7402 49.9902 40.6992 49.9434 40.6172 49.9434H40.1777C39.9199 49.9434 39.6973 49.8555 39.5098 49.6797C39.3223 49.4922 39.2285 49.2695 39.2285 49.0117C39.2285 48.7422 39.3223 48.5195 39.5098 48.3438C39.6973 48.1562 39.9199 48.0625 40.1777 48.0625H40.6699C40.752 48.0625 40.7988 48.0156 40.8105 47.9219C40.8223 47.4297 40.8281 47.0254 40.8281 46.709C40.8281 46.4512 40.9219 46.2285 41.1094 46.041C41.3086 45.8535 41.5371 45.7598 41.7949 45.7598C42.0645 45.7598 42.293 45.8535 42.4805 46.041C42.6562 46.2285 42.7441 46.4512 42.7441 46.709C42.7441 46.9785 42.7383 47.3828 42.7266 47.9219C42.7266 48.0156 42.7676 48.0625 42.8496 48.0625H44.5547C44.8359 48.0625 45.0762 48.1621 45.2754 48.3613C45.4863 48.5605 45.5918 48.8066 45.5918 49.0996V55.5508C45.5918 55.9727 45.6035 56.207 45.627 56.2539C45.6504 56.3125 45.7031 56.3418 45.7852 56.3418ZM68.1635 49.4863C68.2338 49.627 68.269 49.7734 68.269 49.9258C68.269 50.043 68.2455 50.166 68.1987 50.2949C68.0932 50.5645 67.9116 50.7695 67.6537 50.9102C67.5131 50.9688 67.3725 50.998 67.2319 50.998C67.1264 50.998 67.0151 50.9746 66.8979 50.9277C66.6401 50.834 66.4584 50.6582 66.353 50.4004C66.0483 49.709 65.6557 48.9707 65.1752 48.1855C65.0932 48.0449 65.0522 47.8984 65.0522 47.7461C65.0522 47.6641 65.0639 47.5762 65.0873 47.4824C65.1577 47.248 65.3041 47.0723 65.5268 46.9551C65.6909 46.8848 65.8549 46.8496 66.019 46.8496C66.1127 46.8496 66.2065 46.8613 66.3002 46.8848C66.5698 46.9551 66.7807 47.1074 66.933 47.3418C67.437 48.1035 67.8471 48.8184 68.1635 49.4863ZM54.0834 50.1016C54.06 50.125 54.0541 50.1484 54.0659 50.1719C54.0776 50.1953 54.0952 50.207 54.1186 50.207H57.5639C57.5991 50.207 57.6225 50.1953 57.6342 50.1719C57.6459 50.1367 57.6459 50.1074 57.6342 50.084C57.0366 49.252 56.4155 48.5195 55.7709 47.8867C55.7006 47.8164 55.642 47.8223 55.5952 47.9043C55.1616 48.666 54.6577 49.3984 54.0834 50.1016ZM56.4741 55.1113C56.3803 55.1113 56.3334 55.1582 56.3334 55.252V59.4707C56.3334 59.5527 56.3745 59.5879 56.4565 59.5762C56.808 59.5176 57.3354 59.4297 58.0385 59.3125C58.0854 59.3008 58.1323 59.2949 58.1791 59.2949C58.3666 59.2949 58.5307 59.3535 58.6713 59.4707C58.8823 59.6348 58.9877 59.8574 58.9877 60.1387C58.9877 60.3613 58.9116 60.5664 58.7592 60.7539C58.6069 60.9531 58.4018 61.0762 58.144 61.123C56.9252 61.3574 55.2729 61.6504 53.187 62.002C53.1284 62.0137 53.0698 62.0195 53.0112 62.0195C52.812 62.0195 52.6245 61.9609 52.4487 61.8438C52.226 61.6914 52.0854 61.4805 52.0268 61.2109C52.0151 61.1406 52.0092 61.0762 52.0092 61.0176C52.0092 60.8418 52.062 60.6719 52.1674 60.5078C52.3198 60.2969 52.5248 60.1738 52.7827 60.1387C52.9702 60.1035 53.2455 60.0625 53.6088 60.0156C53.9838 59.957 54.2299 59.9219 54.3471 59.9102C54.4409 59.8984 54.4877 59.8457 54.4877 59.752V55.252C54.4877 55.1582 54.4409 55.1113 54.3471 55.1113H52.9409C52.6948 55.1113 52.478 55.0234 52.2905 54.8477C52.1147 54.6719 52.0268 54.4609 52.0268 54.2148C52.0268 53.957 52.1147 53.7402 52.2905 53.5645C52.478 53.3887 52.6948 53.3008 52.9409 53.3008H54.3471C54.4409 53.3008 54.4877 53.2539 54.4877 53.1602V52.1055C54.4877 52.0234 54.4409 51.9824 54.3471 51.9824H53.3276C53.187 51.9824 53.0639 51.9355 52.9584 51.8418C52.8647 51.7363 52.8178 51.6191 52.8178 51.4902V51.4375C52.7358 51.5078 52.6655 51.502 52.6069 51.4199C52.4662 51.209 52.2963 50.998 52.0971 50.7871C51.9213 50.5879 51.8334 50.3594 51.8334 50.1016C51.8334 49.8555 51.9213 49.6387 52.0971 49.4512C52.894 48.6191 53.5678 47.6523 54.1186 46.5508C54.2358 46.3164 54.3998 46.1289 54.6108 45.9883C54.8334 45.8477 55.0737 45.7773 55.3315 45.7773C55.9174 45.7773 56.4213 45.959 56.8432 46.3223C57.5463 46.9434 58.144 47.5352 58.6362 48.0977C58.8471 48.3203 58.9526 48.5898 58.9526 48.9062C58.9526 49.2227 58.8588 49.498 58.6713 49.7324L58.2319 50.3301C58.1733 50.4004 58.144 50.4766 58.144 50.5586V50.9453C58.144 51.2266 58.0444 51.4727 57.8452 51.6836C57.6459 51.8828 57.3998 51.9824 57.1069 51.9824H56.4741C56.3803 51.9824 56.3334 52.0234 56.3334 52.1055V53.1602C56.3334 53.2539 56.3803 53.3008 56.4741 53.3008H57.7573C58.0151 53.3008 58.2319 53.3887 58.4077 53.5645C58.5834 53.7402 58.6713 53.957 58.6713 54.2148C58.6713 54.4609 58.5834 54.6719 58.4077 54.8477C58.2319 55.0234 58.0151 55.1113 57.7573 55.1113H56.4741ZM52.3256 56.8516C52.3139 56.793 52.308 56.7344 52.308 56.6758C52.308 56.5469 52.3432 56.4238 52.4135 56.3066C52.5073 56.1309 52.6479 56.0195 52.8354 55.9727C52.9057 55.9609 52.976 55.9551 53.0463 55.9551C53.1635 55.9551 53.2807 55.9902 53.3979 56.0605C53.5737 56.1543 53.6909 56.3008 53.7495 56.5C53.9018 57.0508 54.0248 57.5898 54.1186 58.1172C54.1303 58.1758 54.1362 58.2285 54.1362 58.2754C54.1362 58.4277 54.0893 58.5742 53.9955 58.7148C53.8666 58.9023 53.6967 59.0254 53.4858 59.084C53.2983 59.1426 53.1225 59.1133 52.9584 58.9961C52.7944 58.8789 52.6948 58.7207 52.6596 58.5215C52.5893 58.0059 52.478 57.4492 52.3256 56.8516ZM58.0209 58.4336C57.9623 58.6094 57.8452 58.7383 57.6694 58.8203C57.5053 58.9023 57.3354 58.9199 57.1596 58.873C56.9838 58.8145 56.8491 58.7031 56.7553 58.5391C56.6967 58.4336 56.6674 58.3281 56.6674 58.2227C56.6674 58.1641 56.6791 58.0996 56.7026 58.0293C56.8432 57.502 56.9604 56.9805 57.0541 56.4648C57.0893 56.2422 57.2006 56.0664 57.3881 55.9375C57.517 55.8555 57.6577 55.8145 57.81 55.8145C57.8686 55.8145 57.9272 55.8203 57.9858 55.832C58.2084 55.8906 58.3725 56.0137 58.478 56.2012C58.5483 56.3301 58.5834 56.459 58.5834 56.5879C58.5834 56.6582 58.5717 56.7344 58.5483 56.8164C58.2436 57.7422 58.0678 58.2812 58.0209 58.4336ZM61.6596 57.2383C61.6596 57.3203 61.7065 57.3613 61.8002 57.3613H65.5268C65.6088 57.3613 65.6498 57.3203 65.6498 57.2383V56.2715C65.6498 56.1895 65.6088 56.1484 65.5268 56.1484H61.8002C61.7065 56.1484 61.6596 56.1895 61.6596 56.2715V57.2383ZM65.6498 53.4062C65.6498 53.3242 65.6088 53.2832 65.5268 53.2832H61.8002C61.7065 53.2832 61.6596 53.3242 61.6596 53.4062V54.2676C61.6596 54.3496 61.7065 54.3906 61.8002 54.3906H65.5268C65.6088 54.3906 65.6498 54.3496 65.6498 54.2676V53.4062ZM66.6694 51.4023C66.9623 51.4023 67.2084 51.5078 67.4077 51.7188C67.6069 51.918 67.7065 52.1582 67.7065 52.4395V60.2793C67.7065 60.7949 67.6479 61.1992 67.5307 61.4922C67.4135 61.7969 67.1967 62.0312 66.8803 62.1953C66.5053 62.3945 65.9487 62.5117 65.2104 62.5469C65.1987 62.5469 65.1811 62.5469 65.1577 62.5469C64.8998 62.5469 64.6596 62.459 64.437 62.2832C64.2143 62.0957 64.0561 61.8555 63.9623 61.5625C63.9506 61.5273 63.9389 61.4922 63.9272 61.457C63.9037 61.375 63.892 61.293 63.892 61.2109C63.892 61.082 63.933 60.9531 64.0151 60.8242C64.144 60.625 64.3256 60.5254 64.56 60.5254L64.894 60.543C64.976 60.543 65.0639 60.543 65.1577 60.543C65.2514 60.5312 65.31 60.5254 65.3334 60.5254C65.4506 60.5254 65.5327 60.5078 65.5795 60.4727C65.6264 60.4258 65.6498 60.3496 65.6498 60.2441V59.2598C65.6498 59.1777 65.6088 59.1367 65.5268 59.1367H61.8002C61.7065 59.1367 61.6596 59.1777 61.6596 59.2598V61.5273C61.6596 61.8086 61.56 62.0488 61.3608 62.248C61.1616 62.4473 60.9213 62.5469 60.6401 62.5469C60.3588 62.5469 60.1127 62.4473 59.9018 62.248C59.7026 62.0488 59.603 61.8086 59.603 61.5273V52C59.603 51.8359 59.6616 51.6953 59.7787 51.5781C59.8959 51.4609 60.0366 51.4023 60.2006 51.4023C60.2123 51.4023 60.2182 51.3965 60.2182 51.3848C60.2182 51.373 60.2182 51.3672 60.2182 51.3672C60.0307 51.2266 59.8022 51.0742 59.5327 50.9102C59.2983 50.7578 59.1518 50.5469 59.0932 50.2773C59.0815 50.207 59.0756 50.1309 59.0756 50.0488C59.0756 49.8613 59.1225 49.6855 59.2162 49.5215C59.5561 48.959 59.8432 48.3262 60.0776 47.623C60.1713 47.3535 60.3412 47.1484 60.5873 47.0078C60.7514 46.9023 60.9272 46.8496 61.1147 46.8496C61.185 46.8496 61.2612 46.8613 61.3432 46.8848C61.6127 46.9434 61.8178 47.0898 61.9584 47.3242C62.0405 47.4648 62.0815 47.6113 62.0815 47.7637C62.0815 47.8691 62.0639 47.9688 62.0287 48.0625C61.5834 49.3398 61.062 50.418 60.4643 51.2969C60.4409 51.3203 60.435 51.3438 60.4467 51.3672C60.4702 51.3906 60.4936 51.4023 60.517 51.4023H62.433C62.5151 51.4023 62.5561 51.3613 62.5561 51.2793V46.7969C62.5561 46.5039 62.6557 46.2578 62.8549 46.0586C63.0659 45.8594 63.312 45.7598 63.5932 45.7598C63.8862 45.7598 64.1323 45.8594 64.3315 46.0586C64.5307 46.2578 64.6303 46.5039 64.6303 46.7969V51.2793C64.6303 51.3613 64.6772 51.4023 64.7709 51.4023H66.6694Z" fill="#D9042B"/>
<circle cx="4" cy="23" r="4" fill="#FFC93D"/>
<circle cx="50" cy="4" r="4" fill="#FFC93D"/>
<circle cx="94" cy="23" r="4" fill="#FFC93D"/>
</svg>
