<svg width="60" height="76" viewBox="0 0 60 76" fill="none" xmlns="http://www.w3.org/2000/svg">
<path d="M59.4694 41.8143C59.6747 34.1185 58.8664 25.9603 56.9009 18.4092C55.9185 14.649 54.477 11.105 51.7558 8.05877C49.2553 5.25221 45.8558 2.34419 42.0252 1.22281C41.6971 1.12728 41.3684 1.05085 41.0335 0.984489C40.7263 0.882322 40.4011 0.791303 40.0724 0.714867C31.8961 -1.22112 24.1394 2.83937 18.7798 7.9915C13.9562 12.6303 10.1074 18.3836 6.70825 23.9609C-0.429874 35.6897 -2.94345 50.4154 5.09162 62.6676C12.2561 73.5914 27.4444 78.6529 39.8707 72.9768C52.7533 67.0954 59.1237 54.7845 59.4694 41.8143Z" fill="#F8D4A0"/>
</svg>
