<svg width="1440" height="95" viewBox="0 0 1440 95" fill="none" xmlns="http://www.w3.org/2000/svg">
<path d="M1430.47 54.8143C1430.67 47.1185 1429.87 38.9603 1427.9 31.4092C1426.92 27.649 1425.48 24.105 1422.76 21.0588C1420.26 18.2522 1416.86 15.3442 1413.03 14.2228C1412.7 14.1273 1412.37 14.0508 1412.03 13.9845C1411.73 13.8823 1411.4 13.7913 1411.07 13.7149C1402.9 11.7789 1395.14 15.8394 1389.78 20.9915C1384.96 25.6303 1381.11 31.3836 1377.71 36.9609C1370.57 48.6897 1368.06 63.4154 1376.09 75.6676C1383.26 86.5914 1398.44 91.6529 1410.87 85.9768C1423.75 80.0954 1430.12 67.7845 1430.47 54.8143Z" fill="white"/>
<path d="M759.469 54.8143C759.675 47.1185 758.866 38.9603 756.901 31.4092C755.918 27.649 754.477 24.105 751.756 21.0588C749.255 18.2522 745.856 15.3442 742.025 14.2228C741.697 14.1273 741.368 14.0508 741.033 13.9845C740.726 13.8823 740.401 13.7913 740.072 13.7149C731.896 11.7789 724.139 15.8394 718.78 20.9915C713.956 25.6303 710.107 31.3836 706.708 36.9609C699.57 48.6897 697.057 63.4154 705.092 75.6676C712.256 86.5914 727.444 91.6529 739.871 85.9768C752.753 80.0954 759.124 67.7845 759.469 54.8143Z" fill="white"/>
<path d="M1208.39 33.6442C1203.88 27.4073 1198.28 21.419 1192.13 16.616C1189.06 14.2266 1185.77 12.2877 1181.75 11.5218C1178.06 10.8122 1173.6 10.5682 1169.87 12.0051C1169.55 12.1287 1169.25 12.2677 1168.94 12.4185C1168.63 12.524 1168.32 12.6493 1168.01 12.7883C1160.34 16.2189 1156.65 24.157 1155.52 31.5056C1154.51 38.1208 1154.95 45.0288 1155.64 51.5238C1157.1 65.1764 1164.05 78.3992 1177.87 83.2478C1190.2 87.5704 1205.34 82.3615 1211.76 70.3028C1218.42 57.8039 1216 44.1555 1208.39 33.6442Z" fill="#F8D4A0"/>
<path d="M67.3914 33.6442C62.8782 27.4073 57.2791 21.419 51.1297 16.616C48.0647 14.2266 44.7664 12.2877 40.7542 11.5218C37.0629 10.8122 32.5959 10.5682 28.8722 12.0051C28.5536 12.1287 28.2461 12.2677 27.9398 12.4185C27.6337 12.524 27.3201 12.6493 27.0126 12.7883C19.3425 16.2189 15.6492 24.157 14.5231 31.5056C13.5107 38.1208 13.9498 45.0288 14.639 51.5238C16.0966 65.1764 23.048 78.3992 36.8744 83.2478C49.2022 87.5704 64.3406 82.3615 70.7608 70.3028C77.4188 57.8039 74.9978 44.1555 67.3914 33.6442Z" fill="#F8D4A0"/>
<path d="M526.212 55.4433C527.372 47.8327 527.584 39.6373 526.572 31.9004C526.065 28.0473 525.075 24.3516 522.753 20.9908C520.621 17.8952 517.609 14.5872 513.948 12.9984C513.634 12.8628 513.318 12.7461 512.994 12.6386C512.702 12.4991 512.39 12.3683 512.073 12.2516C504.201 9.31441 496 12.3793 490.042 16.8253C484.679 20.8286 480.145 26.0589 476.079 31.1704C467.538 41.9211 463.214 56.2203 469.664 69.3761C475.415 81.1057 489.856 88.0158 502.892 83.9281C516.405 79.6936 524.257 68.27 526.212 55.4433Z" fill="#F8D4A0"/>
</svg>
