<svg width="1920" height="1130" viewBox="0 0 1920 1130" fill="none" xmlns="http://www.w3.org/2000/svg">
<path d="M104.438 153.478C97.7836 120.997 86.4205 87.5641 70.7902 57.8067C62.9914 42.9925 53.4759 29.5323 39.0718 19.409C25.8285 10.0756 8.71037 1.19351 -8.47318 0.226317C-9.94464 0.145718 -11.3998 0.145718 -12.8712 0.194078C-14.261 0.0651182 -15.7161 0.000638539 -17.1712 0.000638539C-53.4022 -0.144441 -82.0142 24.4546 -99.492 51.2942C-115.22 75.458 -125.766 103.345 -134.595 130.056C-153.119 186.218 -149.293 250.44 -103.579 293.996C-62.8196 332.829 5.91458 339.244 52.5603 303.313C100.923 266.076 115.654 208.222 104.438 153.478Z" fill="#FEFAE3"/>
<path d="M756.438 153.478C749.784 120.997 738.421 87.5641 722.79 57.8067C714.991 42.9925 705.476 29.5323 691.072 19.409C677.829 10.0756 660.71 1.19351 643.527 0.226317C642.055 0.145718 640.6 0.145718 639.129 0.194078C637.739 0.0651182 636.284 0.000638539 634.829 0.000638539C598.598 -0.144441 569.986 24.4546 552.508 51.2942C536.78 75.458 526.234 103.345 517.405 130.056C498.881 186.218 502.707 250.44 548.421 293.996C589.18 332.829 657.915 339.244 704.56 303.313C752.923 266.076 767.654 208.222 756.438 153.478Z" fill="#FDF2E6"/>
<path d="M2060.44 153.478C2053.78 120.997 2042.42 87.5641 2026.79 57.8067C2018.99 42.9925 2009.48 29.5323 1995.07 19.409C1981.83 10.0756 1964.71 1.19351 1947.53 0.226317C1946.06 0.145718 1944.6 0.145718 1943.13 0.194078C1941.74 0.0651182 1940.28 0.000638539 1938.83 0.000638539C1902.6 -0.144441 1873.99 24.4546 1856.51 51.2942C1840.78 75.458 1830.23 103.345 1821.41 130.056C1802.88 186.218 1806.71 250.44 1852.42 293.996C1893.18 332.829 1961.91 339.244 2008.56 303.313C2056.92 266.076 2071.65 208.222 2060.44 153.478Z" fill="#FFF8ED"/>
<path d="M2076.44 956.478C2069.78 923.997 2058.42 890.564 2042.79 860.807C2034.99 845.992 2025.48 832.532 2011.07 822.409C1997.83 813.076 1980.71 804.194 1963.53 803.226C1962.06 803.146 1960.6 803.146 1959.13 803.194C1957.74 803.065 1956.28 803.001 1954.83 803.001C1918.6 802.856 1889.99 827.455 1872.51 854.294C1856.78 878.458 1846.23 906.345 1837.41 933.056C1818.88 989.218 1822.71 1053.44 1868.42 1097C1909.18 1135.83 1977.91 1142.24 2024.56 1106.31C2072.92 1069.08 2087.65 1011.22 2076.44 956.478Z" fill="#FEFAE3"/>
<path d="M1408.44 153.478C1401.78 120.997 1390.42 87.5641 1374.79 57.8067C1366.99 42.9925 1357.48 29.5323 1343.07 19.409C1329.83 10.0756 1312.71 1.19351 1295.53 0.226317C1294.06 0.145718 1292.6 0.145718 1291.13 0.194078C1289.74 0.0651182 1288.28 0.000638539 1286.83 0.000638539C1250.6 -0.144441 1221.99 24.4546 1204.51 51.2942C1188.78 75.458 1178.23 103.345 1169.41 130.056C1150.88 186.218 1154.71 250.44 1200.42 293.996C1241.18 332.829 1309.91 339.244 1356.56 303.313C1404.92 266.076 1419.65 208.222 1408.44 153.478Z" fill="#F7E9D6"/>
<path d="M397.438 545.478C390.784 512.997 379.421 479.564 363.79 449.807C355.991 434.992 346.476 421.532 332.072 411.409C318.829 402.076 301.71 393.194 284.527 392.226C283.055 392.146 281.6 392.146 280.129 392.194C278.739 392.065 277.284 392.001 275.829 392.001C239.598 391.856 210.986 416.455 193.508 443.294C177.78 467.458 167.234 495.345 158.405 522.056C139.881 578.218 143.707 642.44 189.421 685.996C230.18 724.829 298.915 731.244 345.56 695.313C393.923 658.076 408.654 600.222 397.438 545.478Z" fill="#FEFAE3"/>
<path d="M1049.44 545.478C1042.78 512.997 1031.42 479.564 1015.79 449.807C1007.99 434.992 998.476 421.532 984.072 411.409C970.829 402.076 953.71 393.194 936.527 392.226C935.055 392.146 933.6 392.146 932.129 392.194C930.739 392.065 929.284 392.001 927.829 392.001C891.598 391.856 862.986 416.455 845.508 443.294C829.78 467.458 819.234 495.345 810.405 522.056C791.881 578.218 795.707 642.44 841.421 685.996C882.18 724.829 950.915 731.244 997.56 695.313C1045.92 658.076 1060.65 600.222 1049.44 545.478Z" fill="#FFF8ED"/>
<path d="M1701.44 545.478C1694.78 512.997 1683.42 479.564 1667.79 449.807C1659.99 434.992 1650.48 421.532 1636.07 411.409C1622.83 402.076 1605.71 393.194 1588.53 392.226C1587.06 392.146 1585.6 392.146 1584.13 392.194C1582.74 392.065 1581.28 392.001 1579.83 392.001C1543.6 391.856 1514.99 416.455 1497.51 443.294C1481.78 467.458 1471.23 495.345 1462.41 522.056C1443.88 578.218 1447.71 642.44 1493.42 685.996C1534.18 724.829 1602.91 731.244 1649.56 695.313C1697.92 658.076 1712.65 600.222 1701.44 545.478Z" fill="#F7E9D6"/>
<path d="M84.4379 956.478C77.7836 923.997 66.4205 890.564 50.7902 860.807C42.9914 845.992 33.4759 832.532 19.0718 822.409C5.82852 813.076 -11.2896 804.194 -28.4732 803.226C-29.9446 803.146 -31.3998 803.146 -32.8712 803.194C-34.261 803.065 -35.7161 803.001 -37.1712 803.001C-73.4022 802.856 -102.014 827.455 -119.492 854.294C-135.22 878.458 -145.766 906.345 -154.595 933.056C-173.119 989.218 -169.293 1053.44 -123.579 1097C-82.8196 1135.83 -14.0854 1142.24 32.5603 1106.31C80.9228 1069.08 95.6538 1011.22 84.4379 956.478Z" fill="#FDF2E6"/>
<path d="M1412.44 956.478C1405.78 923.997 1394.42 890.564 1378.79 860.807C1370.99 845.992 1361.48 832.532 1347.07 822.409C1333.83 813.076 1316.71 804.194 1299.53 803.226C1298.06 803.146 1296.6 803.146 1295.13 803.194C1293.74 803.065 1292.28 803.001 1290.83 803.001C1254.6 802.856 1225.99 827.455 1208.51 854.294C1192.78 878.458 1182.23 906.345 1173.41 933.056C1154.88 989.218 1158.71 1053.44 1204.42 1097C1245.18 1135.83 1313.91 1142.24 1360.56 1106.31C1408.92 1069.08 1423.65 1011.22 1412.44 956.478Z" fill="#FFF8ED"/>
<path d="M748.438 956.478C741.784 923.997 730.421 890.564 714.79 860.807C706.991 845.992 697.476 832.532 683.072 822.409C669.829 813.076 652.71 804.194 635.527 803.226C634.055 803.146 632.6 803.146 631.129 803.194C629.739 803.065 628.284 803.001 626.829 803.001C590.598 802.856 561.986 827.455 544.508 854.294C528.78 878.458 518.234 906.345 509.405 933.056C490.881 989.218 494.707 1053.44 540.421 1097C581.18 1135.83 649.915 1142.24 696.56 1106.31C744.923 1069.08 759.654 1011.22 748.438 956.478Z" fill="#F7E9D6"/>
</svg>
