<svg width="100" height="69" viewBox="0 0 100 69" fill="none" xmlns="http://www.w3.org/2000/svg">
<g clip-path="url(#clip0_1005_68)">
<path d="M38.414 35.4191C45.7131 64.755 14.3181 75.1203 6.24007 44.9791C5.97146 43.9661 7.18792 43.175 8.02408 43.8093C24.011 55.8782 17.9326 46.6195 18.2355 32.6274C18.2514 31.8211 18.2571 31.4071 18.2803 30.8534C18.8924 12.2227 25.4703 38.1923 28.8739 46.1717C29.1614 46.8476 30.0451 47.0534 30.6197 46.5641C33.6521 43.9798 34.5659 39.1887 36.2888 35.2895C36.7215 34.3093 38.1579 34.3941 38.4117 35.4143L38.414 35.4191Z" fill="#EF5C3F"/>
</g>
<g clip-path="url(#clip1_1005_68)">
<path d="M93.1443 29.438C76.3807 54.5947 47.5709 38.375 64.4048 12.1002C64.9725 11.2193 66.3767 11.5853 66.4711 12.6306C68.3214 32.576 71.0692 21.8465 81.6141 12.6446C82.2207 12.1131 82.5305 11.8384 82.9553 11.4826C97.1365 -0.615713 82.3751 21.7402 78.7709 29.631C78.465 30.2988 78.9082 31.0906 79.657 31.1856C83.6096 31.6857 87.766 29.1335 91.8083 27.7801C92.8242 27.4396 93.7292 28.5582 93.1462 29.4331L93.1443 29.438Z" fill="#EF5C3F"/>
</g>
<defs>
<clipPath id="clip0_1005_68">
<rect width="33.8521" height="38.2201" fill="white" transform="translate(0 33.8623) rotate(-26.0429)"/>
</clipPath>
<clipPath id="clip1_1005_68">
<rect width="33.8521" height="38.2201" fill="white" transform="translate(68.417) rotate(21.6072)"/>
</clipPath>
</defs>
</svg>
