<svg width="90" height="48" viewBox="0 0 90 48" fill="none" xmlns="http://www.w3.org/2000/svg">
<g clip-path="url(#clip0_1005_69)">
<path d="M34.7315 26.21C27.0263 55.4419 -5.48531 49.4352 1.92407 19.1227C2.17559 18.1053 3.62259 17.9966 4.05076 18.9548C12.2656 37.2238 11.3876 26.183 18.3808 14.0601C18.7824 13.3607 18.9865 13.0004 19.273 12.5261C28.7676 -3.51534 22.0487 22.4181 21.1965 31.0511C21.1235 31.782 21.7994 32.3874 22.5386 32.2346C26.44 31.4266 29.5449 27.6651 32.9303 25.0746C33.781 24.4232 34.9997 25.1881 34.7317 26.2047L34.7315 26.21Z" fill="#EF5C3F"/>
</g>
<g clip-path="url(#clip1_1005_69)">
<path d="M83.1443 29.438C66.3807 54.5947 37.5709 38.375 54.4048 12.1002C54.9725 11.2193 56.3767 11.5853 56.4711 12.6306C58.3214 32.576 61.0692 21.8465 71.6141 12.6446C72.2207 12.1131 72.5305 11.8384 72.9553 11.4826C87.1365 -0.615714 72.3751 21.7402 68.7709 29.631C68.465 30.2988 68.9082 31.0906 69.657 31.1856C73.6096 31.6857 77.766 29.1335 81.8083 27.7801C82.8242 27.4396 83.7292 28.5582 83.1462 29.4331L83.1443 29.438Z" fill="#EF5C3F"/>
</g>
<defs>
<clipPath id="clip0_1005_69">
<rect width="33.8521" height="38.2201" fill="white" transform="translate(1.79785 6.375) rotate(2.69576)"/>
</clipPath>
<clipPath id="clip1_1005_69">
<rect width="33.8521" height="38.2201" fill="white" transform="translate(58.417) rotate(21.6072)"/>
</clipPath>
</defs>
</svg>
