<svg width="81" height="88" viewBox="0 0 81 88" fill="none" xmlns="http://www.w3.org/2000/svg">
<g clip-path="url(#clip0_1005_67)">
<path d="M34.7315 67.21C27.0263 96.4419 -5.48531 90.4352 1.92407 60.1227C2.17559 59.1053 3.62259 58.9966 4.05076 59.9548C12.2656 78.2238 11.3876 67.183 18.3808 55.0601C18.7824 54.3607 18.9865 54.0004 19.273 53.5261C28.7676 37.4847 22.0487 63.4181 21.1965 72.0511C21.1235 72.782 21.7994 73.3874 22.5386 73.2346C26.44 72.4266 29.5449 68.6651 32.9303 66.0746C33.781 65.4232 34.9997 66.1881 34.7317 67.2047L34.7315 67.21Z" fill="#EF5C3F"/>
</g>
<g clip-path="url(#clip1_1005_67)">
<path d="M73.8889 17.3168C77.3277 47.3509 44.8548 53.5634 40.7479 22.6299C40.6127 21.5907 41.9214 20.9638 42.6684 21.701C56.9579 35.7385 52.1296 25.7706 54.2418 11.9356C54.362 11.1381 54.4213 10.7283 54.5159 10.1824C57.5355 -8.21219 60.6951 18.3905 63.0367 26.7434C63.2342 27.4509 64.0839 27.7695 64.717 27.3586C68.0585 25.1887 69.5851 20.5564 71.7984 16.9131C72.3543 15.9972 73.7677 16.2672 73.8872 17.3117L73.8889 17.3168Z" fill="#EF5C3F"/>
</g>
<defs>
<clipPath id="clip0_1005_67">
<rect width="33.8521" height="38.2201" fill="white" transform="translate(1.79785 47.375) rotate(2.69576)"/>
</clipPath>
<clipPath id="clip1_1005_67">
<rect width="33.8521" height="38.2201" fill="white" transform="translate(36 10.7988) rotate(-18.6025)"/>
</clipPath>
</defs>
</svg>
