<svg width="95" height="76" viewBox="0 0 95 76" fill="none" xmlns="http://www.w3.org/2000/svg">
<g clip-path="url(#clip0_1038_72)">
<path d="M38.2045 16.949C43.3879 46.7316 11.3323 54.8262 5.42946 24.1847C5.23393 23.1551 6.50383 22.453 7.29251 23.1454C22.3759 36.3262 16.9748 26.6567 18.2771 12.7221C18.3506 11.9189 18.3859 11.5064 18.4486 10.9558C20.3908 -7.58346 25.0956 18.7899 27.9201 26.9921C28.1586 27.6869 29.0253 27.9553 29.6335 27.5083C32.8428 25.1474 34.0967 20.4339 36.0939 16.6678C36.5955 15.7211 38.0222 15.9083 38.2025 16.944L38.2045 16.949Z" fill="#EF5C3F"/>
</g>
<g clip-path="url(#clip1_1038_72)">
<path d="M84.0096 40.3574C94.5903 68.6756 64.5743 82.5363 53.1283 53.5064C52.7464 52.5305 53.8653 51.6064 54.768 52.1418C72.0212 62.3186 64.9314 53.8095 63.6447 39.8734C63.569 39.0705 63.5277 38.6585 63.4878 38.1058C61.9819 19.526 71.4642 44.5814 75.7512 52.123C76.1135 52.762 77.0149 52.8662 77.5303 52.3148C80.2498 49.4031 80.6141 44.5393 81.8834 40.4698C82.2021 39.4468 83.6388 39.368 84.0068 40.3529L84.0096 40.3574Z" fill="#EF5C3F"/>
</g>
<defs>
<clipPath id="clip0_1038_72">
<rect width="33.8521" height="38.2201" fill="white" transform="translate(0 12.6504) rotate(-21.9439)"/>
</clipPath>
<clipPath id="clip1_1038_72">
<rect width="33.8521" height="38.2201" fill="white" transform="translate(45.667 43.1694) rotate(-32.5584)"/>
</clipPath>
</defs>
</svg>
