<svg width="103" height="78" viewBox="0 0 103 78" fill="none" xmlns="http://www.w3.org/2000/svg">
<path d="M102.249 27.6219L86.443 75.6592C86.284 76.1434 86.0172 76.5858 85.6624 76.9537C85.3075 77.3216 84.8737 77.6054 84.3932 77.7842C83.9126 77.963 83.3977 78.032 82.8865 77.9863C82.3754 77.9406 81.8812 77.7812 81.4406 77.52C81.3424 77.4606 70.4192 71.217 51.2471 71.217C32.075 71.217 21.1518 77.4606 21.045 77.5242C20.6046 77.7829 20.1113 77.9402 19.6014 77.9844C19.0916 78.0285 18.5783 77.9585 18.0993 77.7795C17.6204 77.6005 17.1881 77.317 16.8343 76.95C16.4806 76.583 16.2144 76.1419 16.0555 75.6592L0.258164 27.6092C-0.0601306 26.6473 -0.084658 25.6135 0.187667 24.6378C0.459991 23.6622 1.01701 22.7882 1.78865 22.1258C2.56029 21.4635 3.5121 21.0423 4.52436 20.9153C5.53662 20.7883 6.56411 20.9612 7.47761 21.4122L28.9181 32.0089L46.8257 2.4821C47.2861 1.72475 47.9358 1.09827 48.7119 0.663392C49.4881 0.228516 50.3643 0 51.2557 0C52.147 0 53.0232 0.228516 53.7994 0.663392C54.5755 1.09827 55.2252 1.72475 55.6856 2.4821L73.5932 32.0089L95.0422 21.4122C95.9568 20.9605 96.9857 20.7879 97.999 20.9161C99.0124 21.0443 99.9647 21.4676 100.736 22.1324C101.507 22.7973 102.062 23.674 102.331 24.6518C102.601 25.6295 102.572 26.6645 102.249 27.6261V27.6219Z" fill="#D9042B"/>
<path d="M38.9912 58C38.7308 58 38.512 57.9115 38.335 57.7344C38.1579 57.5469 38.0693 57.3281 38.0693 57.0781V48.25C38.0693 48.1667 38.0277 48.125 37.9443 48.125H35.6631C35.4027 48.125 35.1839 48.0365 35.0068 47.8594C34.8298 47.6823 34.7412 47.4635 34.7412 47.2031V47.0781C34.7412 46.8281 34.8298 46.6146 35.0068 46.4375C35.1839 46.25 35.4027 46.1562 35.6631 46.1562H42.8662C43.1266 46.1562 43.3454 46.25 43.5225 46.4375C43.6995 46.6146 43.7881 46.8281 43.7881 47.0781V47.2031C43.7881 47.4635 43.6995 47.6823 43.5225 47.8594C43.3454 48.0365 43.1266 48.125 42.8662 48.125H40.5537C40.4704 48.125 40.4287 48.1667 40.4287 48.25V57.0781C40.4287 57.3281 40.3402 57.5469 40.1631 57.7344C39.986 57.9115 39.7673 58 39.5068 58H38.9912ZM55.9481 56.5469C54.9793 57.6615 53.7033 58.2188 52.12 58.2188C50.5366 58.2188 49.2554 57.6615 48.2762 56.5469C47.3075 55.4323 46.8231 53.9271 46.8231 52.0312C46.8231 50.1354 47.3075 48.6458 48.2762 47.5625C49.245 46.4792 50.5262 45.9375 52.12 45.9375C53.7137 45.9375 54.995 46.4792 55.9637 47.5625C56.9325 48.6458 57.4168 50.1354 57.4168 52.0312C57.4168 53.9271 56.9273 55.4323 55.9481 56.5469ZM50.0262 55.0469C50.547 55.7969 51.245 56.1719 52.12 56.1719C53.0054 56.1719 53.7085 55.7969 54.2293 55.0469C54.7502 54.2969 55.0106 53.2917 55.0106 52.0312C55.0106 50.7708 54.7502 49.7812 54.2293 49.0625C53.7085 48.3333 53.0054 47.9688 52.12 47.9688C51.2345 47.9688 50.5314 48.3333 50.0106 49.0625C49.5002 49.7812 49.245 50.7708 49.245 52.0312C49.245 53.2917 49.5054 54.2969 50.0262 55.0469ZM62.8112 58C62.5612 58 62.3425 57.9115 62.155 57.7344C61.9779 57.5469 61.8893 57.3281 61.8893 57.0781V47.0781C61.8893 46.8281 61.9779 46.6146 62.155 46.4375C62.3425 46.25 62.5612 46.1562 62.8112 46.1562H65.78C68.8737 46.1562 70.4206 47.3958 70.4206 49.875C70.4206 50.7396 70.2123 51.474 69.7956 52.0781C69.3789 52.6823 68.832 53.1198 68.155 53.3906C67.4883 53.6615 66.7175 53.7969 65.8425 53.7969H64.3737C64.3008 53.7969 64.2643 53.8333 64.2643 53.9062V57.0781C64.2643 57.3281 64.1706 57.5469 63.9831 57.7344C63.806 57.9115 63.5925 58 63.3425 58H62.8112ZM64.2643 51.7969C64.2643 51.8802 64.3008 51.9219 64.3737 51.9219H65.6862C67.2904 51.9219 68.0925 51.2396 68.0925 49.875C68.0925 49.2083 67.8893 48.7344 67.4831 48.4531C67.0768 48.1719 66.4518 48.0312 65.6081 48.0312H64.3737C64.3008 48.0312 64.2643 48.0729 64.2643 48.1562V51.7969Z" fill="white"/>
<path d="M46.998 35.6676L51.4434 31.3414C51.4963 31.2901 51.5536 31.2536 51.6154 31.232C51.6771 31.2105 51.7433 31.1999 51.8138 31.2002C51.8844 31.2002 51.9506 31.211 52.0123 31.2326C52.074 31.2541 52.1314 31.2904 52.1843 31.3414L56.6429 35.6676C56.7664 35.7874 56.8281 35.9372 56.8281 36.1169C56.8281 36.2966 56.762 36.4507 56.6297 36.5791C56.4974 36.7074 56.343 36.7716 56.1666 36.7716C55.9902 36.7716 55.8359 36.7074 55.7035 36.5791L51.8138 32.8049L47.9241 36.5791C47.8006 36.6989 47.6484 36.7588 47.4674 36.7588C47.2864 36.7588 47.13 36.6946 46.998 36.5662C46.8657 36.4379 46.7996 36.2881 46.7996 36.1169C46.7996 35.9458 46.8657 35.796 46.998 35.6676Z" fill="white" stroke="white" stroke-width="0.5"/>
</svg>
