<svg width="366" height="146" viewBox="0 0 366 146" fill="none" xmlns="http://www.w3.org/2000/svg">
<path d="M6.48189 96.4376L27.5336 93.8232L33.381 93.2479L33.3545 92.979L32.8629 89.3618C29.5695 89.6859 26.2761 90.0099 22.9221 90.4078L11.9798 91.6203L11.2667 87.8213L10.04 81.5613L20.0755 80.0988C19.8551 79.238 19.628 78.31 19.4076 77.4493L17.7668 73.8774L21.9361 72.1096C15.833 72.8458 9.73653 73.6493 3.63347 74.3856L3.02064 70.9162L2.13 64.6231L23.424 61.7134L30.3469 61.0322L30.0106 56.9247C23.6387 57.6874 17.1929 58.3895 10.8144 59.085L10.358 54.4462L8.72694 48.9048L27.9705 46.5362L28.777 46.4569L28.605 44.7089L27.7586 40.2443L36.1601 39.4176L41.2198 39.8022C41.3918 41.5502 41.4965 43.3047 41.6619 44.9854L45.0225 44.6548L63.0419 42.9496L63.0808 48.1725L63.5219 54.0346L59.2478 54.0479L42.566 55.5535C42.6983 56.8981 42.824 58.1754 43.0301 59.5806L52.0905 58.5534L70.9893 57.5084L71.2277 64.0692L71.0935 68.2231L61.6518 68.1339C58.7616 68.4183 55.8649 68.6354 52.9748 68.9198C53.1092 68.9066 53.2503 68.9606 53.3847 68.9473L59.013 70.9729L55.7111 76.7282C59.421 76.4989 63.0571 76.209 66.6998 75.9864L66.6669 79.7908L66.5219 86.593L46.843 87.9863L45.4988 88.1185L45.8891 92.085L54.1561 91.2716L72.8003 89.7086L73.2832 94.6163L73.1678 99.6507L53.0251 101.158L46.9088 101.759L47.6365 109.154L41.0904 109.527L34.713 109.544L34.2057 103.009L22.7797 104.133L7.8377 106.079L6.97245 100.734L6.56233 96.5655L6.48189 96.4376ZM42.2356 77.7147L44.3266 72.7574L45.2994 69.5392L42.5437 69.8104L29.4506 71.2344L30.4357 72.9702L32.221 78.7001L42.3028 77.7081L42.2356 77.7147Z" fill="#C2A16C"/>
<path d="M106.588 71.4012L109.897 73.4278L111.45 74.7789V73.4278L117.461 72.9549L123.067 72.6172V72.8874C129.483 72.8874 135.831 72.8874 142.315 72.8198L152.715 73.5629L156.025 74.914V84.3039L155.755 102.543L151.297 102.003H143.328C143.328 102.003 143.328 102.003 143.328 101.868H135.831C131.847 101.8 127.929 101.733 124.012 101.733H118.677H111.856C111.721 95.9905 111.653 90.3836 111.518 84.7092L109.087 87.3438L105.372 84.1012L102.738 81.9395L102.873 92.14L103.143 101.935H98.551L91.9999 100.922L92.2701 91.1267L92.135 85.1145V84.8443L89.0283 87.5464L84.4358 83.4932L81.7344 79.44L86.3269 75.1842L91.5272 68.8342L94.2962 65.1863L96.5924 60.3901H91.7973L85.1787 60.3225L84.7735 54.9183L84.9086 49.7842L90.5817 49.4465H100.442L107.871 49.9193L109.357 55.3236L110.573 60.0523L106.79 67.348L101.32 75.1842L102.333 75.6571C102.333 75.6571 102.873 75.1842 103.143 74.914L106.453 71.4012H106.588ZM91.1895 33.3013L99.6316 34.9901L106.655 37.422L104.427 42.556L102.198 47.2848L96.1197 45.0555L89.1634 43.7044L90.0414 38.5029L91.122 33.3013H91.1895ZM110.978 35.2603L122.121 34.5172L133.805 34.247H141.234L153.256 35.0577V39.989L152.85 45.1231L142.315 44.6502L132.995 44.38L125.228 44.2449L111.991 45.0555L111.653 39.4486L110.843 35.2603H110.978ZM118.069 48.163H143.53L149.474 49.0411L152.513 51.3379L152.378 61.8762L151.972 70.0502L146.164 69.9151L139.411 69.7799C138.127 69.6448 136.912 69.6448 135.696 69.6448L115.57 69.9151H114.625V68.1587L114.152 58.9714L114.017 48.7034L118.069 48.5683V48.2981V48.163ZM127.727 84.7092V82.2773C126.241 82.2773 124.823 82.4124 123.472 82.4124C123.472 83.1555 123.472 83.8985 123.404 84.7092H127.727ZM127.727 94.3693V91.6671H123.54L123.675 94.3693H127.727ZM139.748 62.1464V57.6879L132.86 57.2826H125.836C125.836 57.8906 125.836 58.5661 125.903 59.2417C126.038 60.1874 126.106 61.1331 126.173 62.0789H136.439H139.748V62.1464ZM138.33 84.6416C140.018 84.6416 141.707 84.5741 143.328 84.5741C143.328 83.7634 143.193 82.9528 143.193 82.1422H138.398V84.7092L138.33 84.6416ZM138.6 94.3693C140.221 94.3693 141.842 94.3693 143.53 94.3017V91.6671H138.533C138.533 92.5453 138.533 93.4911 138.6 94.3693Z" fill="#C2A16C"/>
<path d="M169.412 48.3316L175.737 48.3677C177.102 48.333 178.4 48.2899 179.632 48.2385L180.693 45.7155L183.84 31.879L189.035 33.3406L194.85 35.2875L192.664 45.2269L191.795 47.8419L196.092 47.7626L206.764 47.3171L206.376 54.2803L206.046 59.685C204.957 59.686 203.943 59.6283 202.921 59.6376L201.945 64.758L201.929 64.8921C204.634 65.0237 207.273 65.1469 209.912 65.2702L215.291 65.8015C215.055 64.4108 214.811 63.0872 214.491 61.8223C214.173 61.6466 213.93 61.4122 213.62 61.1695L220.164 53.9493L221.921 51.3083L214.482 50.3851L209.246 50.348L208.579 44.7515L208.314 38.6603L224.676 40.0781L230.85 40.2316L234.699 45.4062L237.744 50.4811L231.025 58.5645L226.498 64.3333C226.658 65.2381 226.809 66.2099 227.036 67.123L230.789 67.5888L242.267 69.4216L240.873 74.6262L239.94 81.0453L229.694 79.161C229.09 79.0862 228.554 79.0196 227.959 78.8778L228.123 84.1396L226.709 95.5362L221.646 101.238L214.996 103.817L206.994 101.394L200.951 96.9004L203.049 92.0555L205.156 87.1435L210.638 90.6827L213.478 91.3756L215.821 88.3989L216.359 81.3183L216.356 77.5059L212.335 77.0068L200.288 76.4648L199.94 70.4994C199.94 70.4994 199.965 70.2983 199.914 70.1559L198.803 73.0811L193.917 81.188L192.888 82.3536L194.85 84.6393L199.186 89.738L194.238 93.4125L190.622 97.3204L185.382 91.837L184.669 90.9998L175.361 98.5577L172.24 93.5416L169.715 89.212L176.721 82.6617L174.08 80.3599L171.84 76.4742L170.512 70.7274L175.11 59.9982L170.26 60.1451L169.376 55.2024L169.37 48.6668L169.412 48.3316ZM192.064 59.3794L189.007 59.3403L187.985 59.3496C187.742 60.2045 187.425 61.1181 187.116 61.9647L182.842 70.0793L185.324 73.1102L189.833 65.8416L192.056 59.4465L192.064 59.3794Z" fill="#C2A16C"/>
<path d="M260.266 29.104H287.55L306.326 29.1716L316.996 29.4418L319.225 33.6976L320.238 36.9402L319.901 39.3045L318.685 41.6013L315.105 45.1816L309.905 42.6146C309.905 42.6146 309.635 42.4795 309.5 42.4795L309.365 45.7896L309.027 50.113L295.587 49.9779H293.224V51.937L296.06 52.2747L310.648 53.6258L323.548 53.9635L322.467 58.4896L320.441 63.6236L307.541 62.205L286.875 59.9082L268.64 56.7332C268.032 56.5981 267.492 56.3955 266.884 56.1928L265.398 60.5162L264.183 62.8806L259.996 61.6646L253.377 59.3002L254.593 56.5981L256.078 52.7476L258.037 46.2625L259.05 41.0609L265.061 41.8715L270.194 43.0875L269.113 47.8838L275.529 49.3699L280.729 50.3157L281.135 44.371C281.135 42.3444 281.135 40.3178 281.067 38.2912L260.738 38.4263L260.468 32.9545L260.198 29.104H260.266ZM255.741 88.1454H272.625L281.337 88.0779C281.337 86.7944 281.337 85.5784 281.405 84.3624L266.344 84.4975H266.209C264.385 84.4975 262.494 84.4976 260.603 84.43L260.333 77.8773L260.063 72.0678V65.6502L266.074 64.9072L272.557 64.772V64.9072L276.339 64.772H281.405V60.9891L289.712 61.3268L293.899 61.597C293.899 62.6103 293.764 63.5561 293.764 64.5018H305.65L312.607 65.0423L315.781 66.9337L315.646 74.3646L315.511 83.6194L317.267 83.1465L319.63 86.997L321.994 91.7257L323.48 95.5763L319.833 96.9273L312.607 98.6161C312.269 97.738 311.864 96.8598 311.594 95.9816L286.537 96.5895L272.625 96.9949L255.673 97.2651V92.3337L255.741 88.0779V88.1454ZM272.355 76.9316H276.474C278.163 76.9316 279.851 76.9316 281.54 76.864V73.6215H276.339C274.989 73.7566 273.705 73.7566 272.355 73.7566C272.355 74.4997 272.355 75.2428 272.287 75.9859V76.9316H272.355ZM308.825 42.2093L305.245 40.7231L306.191 39.4396L306.528 38.4939L295.925 38.2237H293.629C293.494 39.5747 293.426 40.8582 293.291 42.0742H308.825V42.2093ZM302.949 76.7965C302.949 76.7965 302.949 76.121 303.016 75.7832L303.151 73.6215L294.574 73.4864H293.359V76.7965H302.881H302.949ZM308.014 87.5374C307.744 86.9295 307.541 86.389 307.271 85.8486L313.147 84.2949H308.825L302.679 84.1598L297.276 84.0922H293.561V87.8752L308.014 87.5374Z" fill="#C2A16C"/>
<path d="M100.116 140.393C100.252 140.482 100.358 140.601 100.404 140.781C100.479 141.049 100.192 142.586 100.146 143.064C100.04 144.392 100.055 145.63 98.4814 145.899C97.3614 146.078 96.2566 145.764 95.1366 145.809C93.9712 145.854 92.6696 145.585 91.5647 145.257C89.2945 144.601 87.0999 143.123 85.7832 141.169C84.4059 139.094 84.0275 136.737 84.0729 134.29C84.1032 132.35 84.7691 130.44 86.0405 128.918C87.6145 127.052 89.355 125.441 91.7009 124.56C93.0177 124.068 94.4253 123.784 95.8328 123.77C96.5442 123.77 97.2404 123.814 97.9366 123.949C98.4209 124.038 99.4047 124.113 99.7074 124.575C99.9495 124.919 99.7376 125.605 99.7074 126.023C99.6771 126.993 99.7528 128.007 99.6317 128.977C99.4803 130.141 97.9214 129.664 97.0133 129.932C96.075 130.216 95.1971 130.738 94.4858 131.41C93.169 132.663 92.5182 134.543 92.7604 136.334C92.8663 137.155 93.1842 137.975 93.8047 138.542C94.1982 138.9 94.6825 139.124 95.182 139.303C96.1355 139.661 97.1344 139.975 98.1485 140.139C98.6177 140.214 99.6014 140.094 100.101 140.408L100.116 140.393Z" fill="#C2A16C"/>
<path d="M159.687 140.393C159.813 140.482 159.911 140.601 159.954 140.781C160.024 141.049 159.757 142.586 159.715 143.064C159.616 144.392 159.63 145.63 158.169 145.899C157.129 146.078 156.103 145.764 155.063 145.809C153.981 145.854 152.772 145.585 151.746 145.257C149.638 144.601 147.6 143.123 146.378 141.169C145.099 139.094 144.747 136.737 144.789 134.29C144.818 132.35 145.436 130.44 146.616 128.918C148.078 127.052 149.694 125.441 151.873 124.56C153.095 124.068 154.402 123.784 155.709 123.77C156.37 123.77 157.016 123.814 157.663 123.949C158.113 124.038 159.026 124.113 159.307 124.575C159.532 124.919 159.335 125.605 159.307 126.023C159.279 126.993 159.349 128.007 159.237 128.977C159.096 130.141 157.649 129.664 156.806 129.932C155.934 130.216 155.119 130.738 154.459 131.41C153.236 132.663 152.632 134.543 152.856 136.334C152.955 137.155 153.25 137.975 153.826 138.542C154.192 138.9 154.641 139.124 155.105 139.303C155.99 139.661 156.918 139.975 157.86 140.139C158.295 140.214 159.209 140.094 159.673 140.408L159.687 140.393Z" fill="#C2A16C"/>
<path d="M178.101 143.658C177.874 143.042 177.434 142.354 177.334 142.149C176.653 140.918 175.985 139.688 175.304 138.457C174.963 137.842 174.622 137.227 174.295 136.612C173.997 136.055 173.883 135.821 174.423 135.41C176.908 133.521 179.365 131.587 181.808 129.639C181.978 129.492 182.177 129.302 182.149 129.082C182.12 128.936 182.007 128.833 181.893 128.731C180.828 127.779 179.734 126.87 178.641 125.962C178.4 125.772 178.158 125.508 177.917 125.699C175.815 127.412 173.713 129.126 171.625 130.84C171 131.353 170.432 131.866 169.893 132.466C169.438 132.964 169.012 133.272 168.856 132.422C168.671 131.426 168.827 130.371 168.87 129.375C168.927 128.116 169.31 127.046 169.694 125.86C169.722 125.757 169.751 125.655 169.736 125.552C169.694 125.274 169.353 125.186 169.083 125.157C168.529 125.113 167.961 125.054 167.393 125.039C166.385 125.01 165.376 124.966 164.368 124.937C163.899 124.922 163.686 125.493 163.658 125.977C163.417 129.112 163.161 132.246 162.919 135.381C162.792 136.949 162.678 138.516 162.55 140.083C162.479 141.021 162.38 141.958 162.309 142.881C162.252 143.716 162.536 143.731 163.232 143.76C165.092 143.877 166.896 144.214 168.785 144.156C168.998 144.156 169.381 141.475 169.41 141.182C169.467 140.816 169.339 138.867 169.935 139.043C170.091 139.087 170.191 139.248 170.29 139.38C171.1 140.669 171.668 142.09 172.435 143.394C172.776 143.965 173.06 144.639 173.727 144.742C174.451 144.859 175.19 144.712 175.914 144.683C176.511 144.654 177.107 144.683 177.704 144.742C178.371 144.815 178.328 144.258 178.101 143.658Z" fill="#C2A16C"/>
<path d="M116.585 144.382C116.619 144.309 116.63 144.207 116.653 144.091C116.844 142.561 116.754 140.857 116.63 139.327C116.619 139.109 116.585 138.876 116.473 138.716C116.293 138.453 115.978 138.483 115.708 138.512C114.537 138.628 113.288 138.366 112.107 138.337C111.679 138.337 111.105 138.468 110.959 137.783C110.858 137.288 110.936 136.749 110.925 136.239C110.903 135.249 110.903 134.273 110.903 133.282C110.903 131.345 110.959 129.422 111.06 127.499C111.094 126.873 111.128 126.247 111.105 125.62C111.105 125.504 111.094 125.373 111.038 125.271C110.936 125.038 110.689 125.008 110.486 124.994C108.99 124.907 107.493 124.921 106.008 125.023C105.693 125.038 105.333 125.11 105.175 125.46C105.029 125.81 105.096 126.349 105.153 126.727C105.546 129.393 105.423 132.132 105.31 134.841C105.254 136.21 105.198 137.594 105.209 138.963C105.209 139.648 105.243 140.333 105.299 141.003C105.378 141.993 105.299 144.12 106.233 144.455C107.088 144.746 108.191 144.324 109.08 144.324C110.081 144.324 111.083 144.426 112.073 144.528C112.939 144.615 113.806 144.703 114.672 144.717C115.077 144.717 115.482 144.819 115.876 144.775C116.236 144.746 116.461 144.688 116.563 144.382H116.585Z" fill="#C2A16C"/>
<path d="M256.865 143.32C256.937 142.464 256.405 141.38 256.219 140.632C255.4 137.485 254.582 134.339 253.764 131.178C253.261 129.253 252.744 127.298 251.739 125.618C251.524 125.252 251.193 124.87 250.791 124.946C250.562 124.992 250.389 125.175 250.231 125.359C249.226 126.489 248.135 127.558 247.173 128.734C245.981 130.185 244.718 131.529 243.626 133.087C243.023 133.942 242.133 134.66 241.185 133.652C239.132 131.483 237.596 128.505 235.399 126.489C234.853 125.985 234.121 125.481 233.475 125.832C233.073 126.061 232.872 126.55 232.714 127.008C230.876 132.354 229.268 137.776 227.918 143.274C227.818 143.656 227.703 143.915 227.688 144.312C230.273 144.648 232.886 144.694 235.471 144.419C235.342 142.312 235.629 140.311 235.815 138.234C235.945 136.722 236.691 136.264 237.811 137.577C239.118 139.104 239.821 141.12 241.286 142.525C242.047 143.259 242.736 143.778 243.411 142.77C244.172 141.624 244.502 140.143 245.335 138.997C245.924 138.188 248.221 135.408 249.269 136.584C249.743 137.119 249.47 139.074 249.47 139.715C249.47 140.418 249.427 141.105 249.384 141.808C249.355 142.189 248.996 143.579 249.169 143.885C249.456 144.389 249.858 144.786 250.418 144.786C251.567 144.801 252.687 144.45 253.821 144.419C254.611 144.404 255.688 144.694 256.391 144.205C256.707 143.976 256.851 143.671 256.879 143.304L256.865 143.32Z" fill="#C2A16C"/>
<path d="M222.407 128.15C220.503 124.309 216.194 122.903 212.19 124.295C208.27 125.659 206.213 129.319 205.685 133.245C205.351 135.708 205.407 138.325 206.477 140.566C206.936 141.526 207.575 142.403 208.284 143.183C210.216 145.285 212.871 146.203 215.582 145.897C216.235 145.827 216.889 145.674 217.528 145.466C220.906 144.352 223.686 140.677 224.103 137.198C224.451 134.302 223.672 130.767 222.379 128.164L222.407 128.15ZM218.557 137.323C218.251 138.144 217.764 138.938 217.042 139.425C215.777 140.274 213.97 140.009 212.816 139.021C211.662 138.033 211.106 136.46 211.092 134.943C211.064 133.036 211.718 130.461 213.566 129.5C215.109 128.693 216.652 128.93 217.806 130.252C218.39 130.906 218.751 131.755 218.946 132.66C219.28 134.219 219.085 135.959 218.571 137.323H218.557Z" fill="#C2A16C"/>
<path d="M138.943 125.315C138.545 125.054 137.975 124.993 137.285 124.946C136.344 124.885 135.681 125.085 135.787 126.221C135.893 127.342 136.185 132.395 136.145 133.516C136.105 134.284 136.052 135.068 135.853 135.805C135.588 136.803 135.283 137.479 134.607 138.201C134.315 138.508 133.043 138.999 132.764 138.984C131.916 138.953 131.04 138.923 130.298 138.462C127.964 137.049 127.142 130.199 126.943 127.388C126.851 126.129 126.904 125.254 125.657 125.085C124.835 124.977 122.754 125.269 122.674 125.53C122.581 125.791 122.595 126.313 122.621 126.59C122.886 128.725 123.669 135.528 124.371 137.556C125.498 140.812 127.315 144.252 130.709 144.605C132.419 144.774 133.785 144.959 134.978 144.482C136.941 143.73 137.882 143.208 138.651 141.518C139.805 138.953 139.844 136.266 140.083 133.685C140.189 132.472 140.096 126.052 138.956 125.315H138.943Z" fill="#C2A16C"/>
<path d="M198.032 127.332C194.766 124.832 190.636 124.161 186.698 123.775C186.684 123.775 186.657 123.775 186.643 123.775C186.108 123.733 185.957 123.918 185.929 124.49C185.806 126.361 185.751 128.246 185.792 130.132C185.806 131.103 185.847 132.074 185.874 133.06C185.943 136.445 185.723 141.102 185.655 144.501C185.655 145.058 185.6 145.416 186.149 145.587C186.986 145.873 191.583 146.673 197.689 144.359C199.417 143.702 201.695 142.073 201.97 137.331C202.299 131.446 199.898 128.746 198.032 127.332ZM196.632 136.602C196.467 137.831 196.207 138.974 195.287 139.802C194.217 140.759 193.106 141.073 191.72 141.259C191.349 141.316 190.896 141.316 190.718 140.988C190.622 140.816 190.636 140.616 190.649 140.43C190.842 137.531 190.046 130.46 190.183 129.875C190.444 128.775 193.27 130.489 193.778 130.86C194.711 131.546 195.836 132.603 196.316 133.703C196.701 134.603 196.755 135.631 196.618 136.617L196.632 136.602Z" fill="#C2A16C"/>
<path d="M280.047 131.755C279.192 131.12 278.304 130.419 277.979 129.418C277.876 129.084 277.842 128.684 278.047 128.383C278.167 128.2 278.372 128.083 278.577 127.999C279.62 127.549 280.884 127.849 281.824 128.483C282.764 129.118 283.465 130.019 284.148 130.92C285.122 132.205 286.387 133.524 287.105 134.942C285.345 135.793 281.465 132.756 280.064 131.738L280.047 131.755Z" fill="#C2A16C"/>
<path d="M294.266 131.755C295.12 131.137 296.009 130.42 296.334 129.435C296.436 129.101 296.471 128.701 296.265 128.4C296.146 128.217 295.941 128.1 295.736 128.017C294.693 127.566 293.429 127.866 292.489 128.501C291.549 129.135 290.848 130.036 290.165 130.937C289.19 132.222 287.926 133.541 287.208 134.959C288.968 135.811 292.848 132.773 294.249 131.755H294.266Z" fill="#C2A16C"/>
<path d="M280.047 138.414C279.192 139.031 278.304 139.749 277.979 140.733C277.876 141.067 277.842 141.468 278.047 141.768C278.167 141.952 278.372 142.069 278.577 142.152C279.62 142.603 280.884 142.302 281.824 141.668C282.764 141.034 283.465 140.133 284.148 139.231C285.122 137.946 286.387 136.628 287.105 135.209C285.345 134.358 281.465 137.396 280.064 138.414H280.047Z" fill="#C2A16C"/>
<path d="M294.266 138.414C295.12 139.031 296.009 139.749 296.334 140.733C296.436 141.067 296.471 141.468 296.265 141.768C296.146 141.952 295.941 142.069 295.736 142.152C294.693 142.603 293.429 142.302 292.489 141.668C291.549 141.034 290.848 140.133 290.165 139.231C289.19 137.946 287.926 136.628 287.208 135.209C288.968 134.358 292.848 137.396 294.249 138.414H294.266Z" fill="#C2A16C"/>
<path d="M289.242 142.253C289.361 143.288 289.447 144.406 288.934 145.324C288.763 145.641 288.49 145.925 288.114 145.991C287.891 146.025 287.669 145.958 287.464 145.874C286.422 145.441 285.772 144.339 285.601 143.237C285.413 142.136 285.619 141.018 285.824 139.916C286.114 138.347 286.217 136.545 286.781 135.06C288.626 135.727 289.019 140.567 289.242 142.253Z" fill="#C2A16C"/>
<path d="M289.242 128.684C289.361 127.65 289.447 126.531 288.934 125.613C288.763 125.296 288.49 125.013 288.114 124.946C287.891 124.912 287.669 124.979 287.464 125.063C286.422 125.497 285.772 126.598 285.601 127.7C285.413 128.801 285.619 129.919 285.824 131.021C286.114 132.59 286.217 134.392 286.781 135.878C288.626 135.21 289.019 130.37 289.242 128.684Z" fill="#C2A16C"/>
<path d="M11.4902 6.81759C10.6357 6.18339 9.74706 5.48242 9.42236 4.48104C9.31982 4.14725 9.28564 3.7467 9.49071 3.44629C9.61034 3.2627 9.81542 3.14587 10.0205 3.06243C11.063 2.61181 12.3276 2.91222 13.2675 3.54642C14.2074 4.18063 14.9081 5.08187 15.5917 5.98311C16.5658 7.26821 17.8304 8.58669 18.5482 10.0053C16.788 10.8565 12.9086 7.81897 11.5073 6.8009L11.4902 6.81759Z" fill="#C2A16C"/>
<path d="M25.7094 6.81799C26.5638 6.20048 27.4525 5.48282 27.7772 4.49813C27.8797 4.16434 27.9139 3.76379 27.7088 3.46338C27.5892 3.27979 27.3841 3.16296 27.1791 3.07952C26.1366 2.6289 24.872 2.92931 23.932 3.56351C22.9921 4.19772 22.2914 5.09896 21.6079 6.0002C20.6338 7.2853 19.3691 8.60379 18.6514 10.0224C20.4116 10.8736 24.2909 7.83606 25.6923 6.81799H25.7094Z" fill="#C2A16C"/>
<path d="M11.4902 13.4766C10.6357 14.0941 9.74706 14.8118 9.42236 15.7964C9.31982 16.1302 9.28564 16.5308 9.49071 16.8312C9.61034 17.0148 9.81542 17.1316 10.0205 17.2151C11.063 17.6657 12.3276 17.3653 13.2675 16.7311C14.2074 16.0969 14.9081 15.1956 15.5917 14.2944C16.5658 13.0093 17.8304 11.6908 18.5482 10.2722C16.788 9.42101 12.9086 12.4585 11.5073 13.4766H11.4902Z" fill="#C2A16C"/>
<path d="M25.7094 13.4766C26.5638 14.0941 27.4525 14.8118 27.7772 15.7964C27.8797 16.1302 27.9139 16.5308 27.7088 16.8312C27.5892 17.0148 27.3841 17.1316 27.1791 17.2151C26.1366 17.6657 24.872 17.3653 23.932 16.7311C22.9921 16.0969 22.2914 15.1956 21.6079 14.2944C20.6338 13.0093 19.3691 11.6908 18.6514 10.2722C20.4116 9.42101 24.2909 12.4585 25.6923 13.4766H25.7094Z" fill="#C2A16C"/>
<path d="M20.6849 17.3158C20.8045 18.3506 20.89 19.4688 20.3773 20.3867C20.2064 20.7038 19.9329 20.9875 19.557 21.0543C19.3348 21.0877 19.1126 21.0209 18.9076 20.9374C17.8651 20.5035 17.2157 19.402 17.0448 18.3005C16.8568 17.199 17.0619 16.0808 17.267 14.9792C17.5575 13.4104 17.66 11.6079 18.224 10.1226C20.0697 10.7901 20.4627 15.6301 20.6849 17.3158Z" fill="#C2A16C"/>
<path d="M20.6849 3.74726C20.8045 2.7125 20.89 1.59429 20.3773 0.676364C20.2064 0.35926 19.9329 0.0755366 19.557 0.00877809C19.3348 -0.0246012 19.1126 0.0421574 18.9076 0.125606C17.8651 0.559536 17.2157 1.66105 17.0448 2.76257C16.8568 3.86408 17.0619 4.98229 17.267 6.08381C17.5575 7.65263 17.66 9.45511 18.224 10.9405C20.0697 10.2729 20.4627 5.43291 20.6849 3.74726Z" fill="#C2A16C"/>
<path d="M305.919 110.457C314.849 107.793 323.231 103.954 330.756 98.7727C338.308 93.6361 344.914 87.21 350.59 79.8614C346.441 88.2375 339.805 95.3594 332.077 100.686C324.309 105.988 315.239 109.607 305.919 110.457Z" fill="#C2A16C"/>
<path d="M326.378 82.984C319.23 89.1755 315.357 98.9371 316.256 108.359C325.256 103.678 329.456 92.6677 326.346 82.9911L326.378 82.984Z" fill="#C2A16C"/>
<path d="M344.373 72.5478C339.538 78.3163 337.712 86.4689 339.601 93.7732C346.103 88.9845 348.035 79.7998 344.373 72.5478Z" fill="#C2A16C"/>
<path d="M347.355 99.9764C340.793 97.8839 333.242 99.119 327.73 103.22C334.062 107.061 342.521 105.526 347.355 99.9764Z" fill="#C2A16C"/>
<path d="M365.378 80.0502C357.861 79.1085 349.975 81.9981 344.838 87.5469C352.462 90.3986 361.274 87.0541 365.378 80.0502Z" fill="#C2A16C"/>
</svg>
