<svg width="364" height="142" viewBox="0 0 364 142" fill="none" xmlns="http://www.w3.org/2000/svg">
<path d="M56.1531 97.5969L47.8349 98.3426L20.3589 101.51L13.2395 102.793L7.24247 103.891L4.63208 82.9899L0.11787 44.6981C1.36625 44.4335 2.62157 44.2345 3.81045 44.0426L3.77579 43.7143C5.56951 43.5249 7.28987 43.2768 9.08359 43.0874C10.4648 42.8088 11.853 42.5958 13.1678 42.3242L13.1956 42.5868C21.1538 41.6135 29.1121 40.6403 37.0703 39.667L54.6506 38.2087L61.9017 38.1731L64.9179 39.3815L67.5382 68.6458L69.5565 90.937L70.117 97.5162L65.1593 97.6415L56.1669 97.7282L56.1531 97.5969ZM28.309 66.7478L26.8529 52.9608C22.615 53.5412 18.503 54.0418 14.398 54.6081L15.8124 68.0012L28.3021 66.6822L28.309 66.7478ZM30.7773 90.12C30.3682 86.2465 29.9522 82.3074 29.6096 78.4269L29.4986 77.3764L17.0229 78.8268L18.1045 89.0685L18.5147 91.6806L30.7109 90.127L30.7773 90.12ZM42.6552 88.7328L55.2777 87.3997L54.2786 74.7594L41.2575 76.1346C41.4308 77.7759 41.6181 79.5485 41.7388 81.3281L42.6621 88.7985L42.6552 88.7328ZM40.2741 65.5506L45.1902 65.0314C47.8476 64.7507 50.498 64.4044 53.1554 64.1238L51.7548 50.862C47.4822 51.1141 43.2027 51.3005 38.9896 51.4799L40.3336 65.4779L40.2741 65.5506Z" fill="#94C667"/>
<path d="M88.0234 30.0059L93.4517 29.6036H93.8489V29.4694H97.0264L98.9462 29.3353L126.882 29H143.696L150.449 29.4694L154.023 31.0118V61.3235L153.891 85.3984L153.626 96.7988L146.94 96.6647H126.088H100.005L93.2531 97L88.6854 96.6647L88.1558 79.7653L88.0234 30.0059ZM138.003 80.6371L142.372 82.1124L142.041 38.9921L127.412 38.0532L98.88 38.7909L99.211 79.6312L103.58 78.1558L108.81 75.9428L110.663 74.7357H108.479L103.051 74.8698L102.455 68.5661V61.1223L109.406 60.6529L127.147 60.5187L135.289 60.854L138.533 61.7929L138.864 67.8955L138.136 74.4674L138.599 74.8028L141.777 78.0888L138.07 80.6371H138.003ZM123.44 82.5819L123.704 87.8797H117.813L112.716 87.4103L113.047 82.6489L108.545 85.2643L102.984 87.6114L100.8 84.5937L99.2772 80.9053V83.3195L99.6744 88.6844L121.52 88.8185L134.693 88.4832L132.84 87.6114L125.558 83.9231L123.572 82.5819H123.44ZM112.716 38.9921L120.262 38.7239L125.293 39.2603V42.2781H138.202L138.599 46.3688L137.871 49.9231L127.544 49.5878H125.161V51.8008H132.575L141.313 52.069L141.446 56.1598L140.718 59.3787L128.14 58.9763L116.687 58.8422L100.138 59.1775L99.6744 56.7633L99.542 52.2702L110.663 51.8008H113.179V49.7889L102.389 50.0572L101.991 47.4418V42.9487L113.113 42.4793V41.8757L112.716 39.1262V38.9921ZM126.22 69.1026V68.6331L126.088 67.2248L120.726 67.0907L113.642 67.2248V68.7002V69.1696H119.666L126.154 69.1026H126.22ZM128.603 76.5464L130.258 75.6746L131.715 74.6686L125.757 74.5345L124.764 74.4674L127.081 75.8087L128.603 76.6134V76.5464ZM142.306 82.5819L139.658 87.2091L138.467 88.4162H141.975L142.306 82.5819Z" fill="#94C667"/>
<path d="M167.435 44.3316L173.76 44.3677C175.125 44.333 176.424 44.2899 177.655 44.2385L178.717 41.7155L181.863 27.879L187.058 29.3406L192.873 31.2875L190.687 41.2269L189.818 43.8419L194.115 43.7626L204.787 43.3171L204.399 50.2803L204.069 55.685C202.98 55.686 201.966 55.6283 200.944 55.6376L199.969 60.758L199.952 60.8921C202.658 61.0237 205.297 61.1469 207.936 61.2702L213.314 61.8015C213.078 60.4108 212.834 59.0872 212.515 57.8223C212.196 57.6466 211.953 57.4122 211.643 57.1695L218.188 49.9493L219.945 47.3083L212.505 46.3851L207.269 46.348L206.603 40.7515L206.338 34.6603L222.699 36.0781L228.873 36.2316L232.723 41.4062L235.768 46.4811L229.048 54.5645L224.521 60.3333C224.681 61.2381 224.833 62.2099 225.06 63.123L228.813 63.5888L240.291 65.4216L238.896 70.6262L237.964 77.0453L227.717 75.161C227.114 75.0862 226.578 75.0196 225.983 74.8778L226.146 80.1396L224.732 91.5362L219.669 97.2385L213.02 99.8169L205.018 97.3943L198.974 92.9004L201.073 88.0555L203.179 83.1435L208.661 86.6827L211.501 87.3756L213.844 84.3989L214.383 77.3183L214.38 73.5059L210.358 73.0068L198.312 72.4648L197.963 66.4994C197.963 66.4994 197.988 66.2983 197.938 66.1559L196.826 69.0811L191.941 77.188L190.912 78.3536L192.874 80.6393L197.209 85.738L192.261 89.4125L188.646 93.3204L183.406 87.837L182.693 86.9998L173.384 94.5577L170.264 89.5416L167.738 85.212L174.744 78.6617L172.104 76.3599L169.864 72.4742L168.535 66.7274L173.133 55.9982L168.283 56.1451L167.399 51.2024L167.394 44.6668L167.435 44.3316ZM190.088 55.3794L187.03 55.3403L186.008 55.3496C185.766 56.2045 185.448 57.1181 185.139 57.9647L180.865 66.0793L183.348 69.1102L187.857 61.8416L190.079 55.4465L190.088 55.3794Z" fill="#94C667"/>
<path d="M258.289 25.104H285.574L304.349 25.1716L315.02 25.4418L317.249 29.6976L318.262 32.9402L317.924 35.3045L316.708 37.6013L313.129 41.1816L307.929 38.6146C307.929 38.6146 307.658 38.4795 307.523 38.4795L307.388 41.7896L307.051 46.113L293.611 45.9779H291.247V47.937L294.084 48.2747L308.671 49.6258L321.571 49.9635L320.49 54.4896L318.464 59.6236L305.565 58.205L284.899 55.9082L266.664 52.7332C266.056 52.5981 265.516 52.3955 264.908 52.1928L263.422 56.5162L262.206 58.8806L258.019 57.6646L251.4 55.3002L252.616 52.5981L254.102 48.7476L256.06 42.2625L257.073 37.0609L263.084 37.8715L268.217 39.0875L267.136 43.8838L273.552 45.3699L278.753 46.3157L279.158 40.371C279.158 38.3444 279.158 36.3178 279.09 34.2912L258.762 34.4263L258.492 28.9545L258.222 25.104H258.289ZM253.764 84.1454H270.648L279.361 84.0779C279.361 82.7944 279.361 81.5784 279.428 80.3624L264.367 80.4975H264.232C262.409 80.4975 260.518 80.4976 258.627 80.43L258.357 73.8773L258.087 68.0678V61.6502L264.097 60.9072L270.581 60.772V60.9072L274.363 60.772H279.428V56.9891L287.735 57.3268L291.922 57.597C291.922 58.6103 291.787 59.5561 291.787 60.5018H303.674L310.63 61.0423L313.804 62.9337L313.669 70.3646L313.534 79.6194L315.29 79.1465L317.654 82.997L320.018 87.7257L321.503 91.5763L317.856 92.9273L310.63 94.6161C310.292 93.738 309.887 92.8598 309.617 91.9816L284.561 92.5895L270.648 92.9949L253.697 93.2651V88.3337L253.764 84.0779V84.1454ZM270.378 72.9316H274.498C276.186 72.9316 277.875 72.9316 279.563 72.864V69.6215H274.363C273.012 69.7566 271.729 69.7566 270.378 69.7566C270.378 70.4997 270.378 71.2428 270.311 71.9859V72.9316H270.378ZM306.848 38.2093L303.269 36.7231L304.214 35.4396L304.552 34.4939L293.948 34.2237H291.652C291.517 35.5747 291.45 36.8582 291.315 38.0742H306.848V38.2093ZM300.972 72.7965C300.972 72.7965 300.972 72.121 301.04 71.7832L301.175 69.6215L292.598 69.4864H291.382V72.7965H300.905H300.972ZM306.038 83.5374C305.767 82.9295 305.565 82.389 305.295 81.8486L311.17 80.2949H306.848L300.702 80.1598L295.299 80.0922H291.585V83.8752L306.038 83.5374Z" fill="#94C667"/>
<path d="M98.1395 136.393C98.2757 136.482 98.3816 136.601 98.427 136.781C98.5027 137.049 98.2151 138.586 98.1697 139.064C98.0638 140.392 98.0789 141.63 96.5049 141.899C95.3849 142.078 94.28 141.764 93.16 141.809C91.9946 141.854 90.693 141.585 89.5882 141.257C87.3179 140.601 85.1233 139.123 83.8066 137.169C82.4293 135.094 82.0509 132.737 82.0963 130.29C82.1266 128.35 82.7925 126.44 84.0639 124.918C85.6379 123.052 87.3785 121.441 89.7244 120.56C91.0411 120.068 92.4487 119.784 93.8562 119.77C94.5676 119.77 95.2638 119.814 95.96 119.949C96.4443 120.038 97.4281 120.113 97.7308 120.575C97.973 120.919 97.7611 121.605 97.7308 122.023C97.7005 122.993 97.7762 124.007 97.6551 124.977C97.5038 126.141 95.9449 125.664 95.0368 125.932C94.0984 126.216 93.2206 126.738 92.5092 127.41C91.1925 128.663 90.5417 130.543 90.7838 132.334C90.8898 133.155 91.2076 133.975 91.8282 134.542C92.2217 134.9 92.706 135.124 93.2054 135.303C94.1589 135.661 95.1579 135.975 96.1719 136.139C96.6411 136.214 97.6249 136.094 98.1243 136.408L98.1395 136.393Z" fill="#94C667"/>
<path d="M157.71 136.393C157.837 136.482 157.935 136.601 157.977 136.781C158.047 137.049 157.78 138.586 157.738 139.064C157.64 140.392 157.654 141.63 156.192 141.899C155.152 142.078 154.126 141.764 153.086 141.809C152.004 141.854 150.796 141.585 149.77 141.257C147.661 140.601 145.624 139.123 144.401 137.169C143.122 135.094 142.771 132.737 142.813 130.29C142.841 128.35 143.459 126.44 144.64 124.918C146.102 123.052 147.718 121.441 149.896 120.56C151.119 120.068 152.426 119.784 153.733 119.77C154.393 119.77 155.04 119.814 155.686 119.949C156.136 120.038 157.05 120.113 157.331 120.575C157.555 120.919 157.359 121.605 157.331 122.023C157.302 122.993 157.373 124.007 157.26 124.977C157.12 126.141 155.672 125.664 154.829 125.932C153.958 126.216 153.143 126.738 152.482 127.41C151.259 128.663 150.655 130.543 150.88 132.334C150.978 133.155 151.273 133.975 151.85 134.542C152.215 134.9 152.665 135.124 153.128 135.303C154.014 135.661 154.941 135.975 155.883 136.139C156.319 136.214 157.232 136.094 157.696 136.408L157.71 136.393Z" fill="#94C667"/>
<path d="M176.125 139.658C175.897 139.042 175.457 138.354 175.358 138.149C174.676 136.918 174.009 135.688 173.327 134.457C172.986 133.842 172.645 133.227 172.319 132.612C172.02 132.055 171.907 131.821 172.446 131.41C174.932 129.521 177.389 127.587 179.831 125.639C180.002 125.492 180.201 125.302 180.172 125.082C180.144 124.936 180.03 124.833 179.917 124.731C178.851 123.779 177.758 122.87 176.664 121.962C176.423 121.772 176.182 121.508 175.94 121.699C173.838 123.412 171.736 125.126 169.649 126.84C169.024 127.353 168.456 127.866 167.916 128.466C167.462 128.964 167.036 129.272 166.879 128.422C166.695 127.426 166.851 126.371 166.894 125.375C166.95 124.116 167.334 123.046 167.717 121.86C167.746 121.757 167.774 121.655 167.76 121.552C167.717 121.274 167.376 121.186 167.107 121.157C166.553 121.113 165.985 121.054 165.417 121.039C164.408 121.01 163.4 120.966 162.392 120.937C161.923 120.922 161.71 121.493 161.681 121.977C161.44 125.112 161.184 128.246 160.943 131.381C160.815 132.949 160.702 134.516 160.574 136.083C160.503 137.021 160.403 137.958 160.332 138.881C160.275 139.716 160.559 139.731 161.255 139.76C163.116 139.877 164.919 140.214 166.808 140.156C167.021 140.156 167.405 137.475 167.433 137.182C167.49 136.816 167.362 134.867 167.959 135.043C168.115 135.087 168.214 135.248 168.314 135.38C169.123 136.669 169.691 138.09 170.458 139.394C170.799 139.965 171.083 140.639 171.751 140.742C172.475 140.859 173.213 140.712 173.938 140.683C174.534 140.654 175.131 140.683 175.727 140.742C176.395 140.815 176.352 140.258 176.125 139.658Z" fill="#94C667"/>
<path d="M114.609 140.382C114.642 140.309 114.654 140.207 114.676 140.091C114.867 138.561 114.777 136.857 114.654 135.327C114.642 135.109 114.609 134.876 114.496 134.716C114.316 134.453 114.001 134.483 113.731 134.512C112.561 134.628 111.312 134.366 110.13 134.337C109.702 134.337 109.129 134.468 108.982 133.783C108.881 133.288 108.96 132.749 108.949 132.239C108.926 131.249 108.926 130.273 108.926 129.282C108.926 127.345 108.982 125.422 109.084 123.499C109.117 122.873 109.151 122.247 109.129 121.62C109.129 121.504 109.117 121.373 109.061 121.271C108.96 121.038 108.712 121.008 108.51 120.994C107.013 120.907 105.517 120.921 104.031 121.023C103.716 121.038 103.356 121.11 103.198 121.46C103.052 121.81 103.12 122.349 103.176 122.727C103.57 125.393 103.446 128.132 103.333 130.841C103.277 132.21 103.221 133.594 103.232 134.963C103.232 135.648 103.266 136.333 103.322 137.003C103.401 137.993 103.322 140.12 104.256 140.455C105.111 140.746 106.214 140.324 107.103 140.324C108.105 140.324 109.106 140.426 110.096 140.528C110.963 140.615 111.829 140.703 112.696 140.717C113.101 140.717 113.506 140.819 113.9 140.775C114.26 140.746 114.485 140.688 114.586 140.382H114.609Z" fill="#94C667"/>
<path d="M254.888 139.32C254.96 138.464 254.429 137.38 254.242 136.632C253.424 133.485 252.605 130.339 251.787 127.178C251.284 125.253 250.767 123.298 249.762 121.618C249.547 121.252 249.217 120.87 248.815 120.946C248.585 120.992 248.413 121.175 248.255 121.359C247.25 122.489 246.158 123.558 245.196 124.734C244.005 126.185 242.741 127.529 241.65 129.087C241.047 129.942 240.157 130.66 239.209 129.652C237.156 127.483 235.619 124.505 233.422 122.489C232.877 121.985 232.145 121.481 231.498 121.832C231.096 122.061 230.895 122.55 230.737 123.008C228.9 128.354 227.291 133.776 225.942 139.274C225.841 139.656 225.726 139.915 225.712 140.312C228.296 140.648 230.91 140.694 233.494 140.419C233.365 138.312 233.652 136.311 233.839 134.234C233.968 132.722 234.715 132.264 235.835 133.577C237.141 135.104 237.845 137.12 239.309 138.525C240.07 139.259 240.76 139.778 241.434 138.77C242.195 137.624 242.526 136.143 243.359 134.997C243.947 134.188 246.245 131.408 247.293 132.584C247.767 133.119 247.494 135.074 247.494 135.715C247.494 136.418 247.451 137.105 247.408 137.808C247.379 138.189 247.02 139.579 247.192 139.885C247.479 140.389 247.881 140.786 248.441 140.786C249.59 140.801 250.71 140.45 251.844 140.419C252.634 140.404 253.711 140.694 254.415 140.205C254.73 139.976 254.874 139.671 254.903 139.304L254.888 139.32Z" fill="#94C667"/>
<path d="M220.431 124.15C218.526 120.309 214.217 118.903 210.214 120.295C206.294 121.659 204.236 125.319 203.708 129.245C203.374 131.708 203.43 134.325 204.5 136.566C204.959 137.526 205.599 138.403 206.308 139.183C208.24 141.285 210.895 142.203 213.605 141.897C214.259 141.827 214.912 141.674 215.552 141.466C218.929 140.352 221.71 136.677 222.127 133.198C222.474 130.302 221.696 126.767 220.403 124.164L220.431 124.15ZM216.58 133.323C216.274 134.144 215.788 134.938 215.065 135.425C213.8 136.274 211.993 136.009 210.839 135.021C209.685 134.033 209.129 132.46 209.115 130.943C209.088 129.036 209.741 126.461 211.59 125.5C213.133 124.693 214.676 124.93 215.83 126.252C216.413 126.906 216.775 127.755 216.969 128.66C217.303 130.219 217.108 131.959 216.594 133.323H216.58Z" fill="#94C667"/>
<path d="M136.966 121.315C136.568 121.054 135.998 120.993 135.309 120.946C134.367 120.885 133.704 121.085 133.811 122.221C133.917 123.342 134.208 128.395 134.169 129.516C134.129 130.284 134.076 131.068 133.877 131.805C133.612 132.803 133.307 133.479 132.631 134.201C132.339 134.508 131.066 134.999 130.788 134.984C129.939 134.953 129.064 134.923 128.321 134.462C125.988 133.049 125.166 126.199 124.967 123.388C124.874 122.129 124.927 121.254 123.681 121.085C122.859 120.977 120.777 121.269 120.698 121.53C120.605 121.791 120.618 122.313 120.645 122.59C120.91 124.725 121.692 131.528 122.395 133.556C123.522 136.812 125.338 140.252 128.732 140.605C130.443 140.774 131.808 140.959 133.002 140.482C134.964 139.73 135.905 139.208 136.674 137.518C137.828 134.953 137.868 132.266 138.106 129.685C138.212 128.472 138.12 122.052 136.979 121.315H136.966Z" fill="#94C667"/>
<path d="M196.055 123.332C192.789 120.832 188.659 120.161 184.721 119.775C184.707 119.775 184.68 119.775 184.666 119.775C184.131 119.733 183.98 119.918 183.953 120.49C183.829 122.361 183.774 124.246 183.816 126.132C183.829 127.103 183.87 128.074 183.898 129.06C183.966 132.445 183.747 137.102 183.678 140.501C183.678 141.058 183.623 141.416 184.172 141.587C185.009 141.873 189.606 142.673 195.712 140.359C197.441 139.702 199.719 138.073 199.993 133.331C200.322 127.446 197.921 124.746 196.055 123.332ZM194.655 132.602C194.491 133.831 194.23 134.974 193.311 135.802C192.24 136.759 191.129 137.073 189.743 137.259C189.373 137.316 188.92 137.316 188.741 136.988C188.645 136.816 188.659 136.616 188.673 136.43C188.865 133.531 188.069 126.46 188.206 125.875C188.467 124.775 191.294 126.489 191.801 126.86C192.734 127.546 193.86 128.603 194.34 129.703C194.724 130.603 194.779 131.631 194.642 132.617L194.655 132.602Z" fill="#94C667"/>
<path d="M278.069 127.755C277.215 127.12 276.326 126.419 276.001 125.418C275.899 125.084 275.865 124.684 276.07 124.383C276.189 124.2 276.395 124.083 276.6 123.999C277.642 123.549 278.907 123.849 279.847 124.483C280.787 125.118 281.487 126.019 282.171 126.92C283.145 128.205 284.41 129.524 285.127 130.942C283.367 131.793 279.488 128.756 278.086 127.738L278.069 127.755Z" fill="#94C667"/>
<path d="M292.288 127.755C293.143 127.137 294.032 126.42 294.356 125.435C294.459 125.101 294.493 124.701 294.288 124.4C294.168 124.217 293.963 124.1 293.758 124.017C292.716 123.566 291.451 123.866 290.511 124.501C289.571 125.135 288.871 126.036 288.187 126.937C287.213 128.222 285.948 129.541 285.23 130.959C286.991 131.811 290.87 128.773 292.271 127.755H292.288Z" fill="#94C667"/>
<path d="M278.069 134.414C277.215 135.031 276.326 135.749 276.001 136.733C275.899 137.067 275.865 137.468 276.07 137.768C276.189 137.952 276.395 138.069 276.6 138.152C277.642 138.603 278.907 138.302 279.847 137.668C280.787 137.034 281.487 136.133 282.171 135.231C283.145 133.946 284.41 132.628 285.127 131.209C283.367 130.358 279.488 133.396 278.086 134.414H278.069Z" fill="#94C667"/>
<path d="M292.288 134.414C293.143 135.031 294.032 135.749 294.356 136.733C294.459 137.067 294.493 137.468 294.288 137.768C294.168 137.952 293.963 138.069 293.758 138.152C292.716 138.603 291.451 138.302 290.511 137.668C289.571 137.034 288.871 136.133 288.187 135.231C287.213 133.946 285.948 132.628 285.23 131.209C286.991 130.358 290.87 133.396 292.271 134.414H292.288Z" fill="#94C667"/>
<path d="M287.264 138.253C287.384 139.288 287.469 140.406 286.956 141.324C286.785 141.641 286.512 141.925 286.136 141.991C285.914 142.025 285.692 141.958 285.487 141.874C284.444 141.441 283.795 140.339 283.624 139.237C283.436 138.136 283.641 137.018 283.846 135.916C284.137 134.347 284.239 132.545 284.803 131.06C286.649 131.727 287.042 136.567 287.264 138.253Z" fill="#94C667"/>
<path d="M287.264 124.684C287.384 123.65 287.469 122.531 286.956 121.613C286.785 121.296 286.512 121.013 286.136 120.946C285.914 120.912 285.692 120.979 285.487 121.063C284.444 121.497 283.795 122.598 283.624 123.7C283.436 124.801 283.641 125.919 283.846 127.021C284.137 128.59 284.239 130.392 284.803 131.878C286.649 131.21 287.042 126.37 287.264 124.684Z" fill="#94C667"/>
<path d="M4.51363 6.81759C3.65915 6.18339 2.7705 5.48242 2.44579 4.48104C2.34326 4.14725 2.30908 3.7467 2.51415 3.44629C2.63378 3.2627 2.83885 3.14587 3.04393 3.06243C4.08639 2.61181 5.35102 2.91222 6.29095 3.54642C7.23088 4.18063 7.93155 5.08187 8.61513 5.98311C9.58924 7.26821 10.8539 8.58669 11.5716 10.0053C9.8114 10.8565 5.93207 7.81897 4.53072 6.8009L4.51363 6.81759Z" fill="#94C667"/>
<path d="M18.7328 6.81799C19.5873 6.20048 20.4759 5.48282 20.8006 4.49813C20.9032 4.16434 20.9374 3.76379 20.7323 3.46338C20.6127 3.27979 20.4076 3.16296 20.2025 3.07952C19.16 2.6289 17.8954 2.92931 16.9555 3.56351C16.0156 4.19772 15.3149 5.09896 14.6313 6.0002C13.6572 7.2853 12.3926 8.60379 11.6748 10.0224C13.435 10.8736 17.3144 7.83606 18.7157 6.81799H18.7328Z" fill="#94C667"/>
<path d="M4.51363 13.4766C3.65915 14.0941 2.7705 14.8118 2.44579 15.7964C2.34326 16.1302 2.30908 16.5308 2.51415 16.8312C2.63378 17.0148 2.83885 17.1316 3.04393 17.2151C4.08639 17.6657 5.35102 17.3653 6.29095 16.7311C7.23088 16.0969 7.93155 15.1956 8.61513 14.2944C9.58924 13.0093 10.8539 11.6908 11.5716 10.2722C9.8114 9.42101 5.93207 12.4585 4.53072 13.4766H4.51363Z" fill="#94C667"/>
<path d="M18.7328 13.4766C19.5873 14.0941 20.4759 14.8118 20.8006 15.7964C20.9032 16.1302 20.9374 16.5308 20.7323 16.8312C20.6127 17.0148 20.4076 17.1316 20.2025 17.2151C19.16 17.6657 17.8954 17.3653 16.9555 16.7311C16.0156 16.0969 15.3149 15.1956 14.6313 14.2944C13.6572 13.0093 12.3926 11.6908 11.6748 10.2722C13.435 9.42101 17.3144 12.4585 18.7157 13.4766H18.7328Z" fill="#94C667"/>
<path d="M13.7083 17.3158C13.8279 18.3506 13.9134 19.4688 13.4007 20.3867C13.2298 20.7038 12.9564 20.9875 12.5804 21.0543C12.3582 21.0877 12.1361 21.0209 11.931 20.9374C10.8885 20.5035 10.2391 19.402 10.0682 18.3005C9.88025 17.199 10.0853 16.0808 10.2904 14.9792C10.5809 13.4104 10.6835 11.6079 11.2474 10.1226C13.0931 10.7901 13.4862 15.6301 13.7083 17.3158Z" fill="#94C667"/>
<path d="M13.7083 3.74726C13.8279 2.7125 13.9134 1.59429 13.4007 0.676364C13.2298 0.35926 12.9564 0.0755366 12.5804 0.00877809C12.3582 -0.0246012 12.1361 0.0421574 11.931 0.125606C10.8885 0.559536 10.2391 1.66105 10.0682 2.76257C9.88025 3.86408 10.0853 4.98229 10.2904 6.08381C10.5809 7.65263 10.6835 9.45511 11.2474 10.9405C13.0931 10.2729 13.4862 5.43291 13.7083 3.74726Z" fill="#94C667"/>
<path d="M303.942 106.457C312.873 103.793 321.254 99.954 328.779 94.7727C336.331 89.6361 342.938 83.21 348.614 75.8614C344.464 84.2375 337.828 91.3594 330.1 96.686C322.333 101.988 313.263 105.607 303.942 106.457Z" fill="#94C667"/>
<path d="M324.401 78.984C317.254 85.1755 313.381 94.9371 314.279 104.359C323.28 99.678 327.479 88.6677 324.369 78.9911L324.401 78.984Z" fill="#94C667"/>
<path d="M342.397 68.5478C337.562 74.3163 335.735 82.4689 337.624 89.7732C344.126 84.9845 346.058 75.7998 342.397 68.5478Z" fill="#94C667"/>
<path d="M345.378 95.9764C338.816 93.8839 331.265 95.119 325.754 99.2197C332.085 103.061 340.545 101.526 345.378 95.9764Z" fill="#94C667"/>
<path d="M363.401 76.0502C355.885 75.1085 347.998 77.9981 342.861 83.5469C350.486 86.3986 359.298 83.0541 363.401 76.0502Z" fill="#94C667"/>
</svg>
