<svg width="602" height="260" viewBox="0 0 602 260" fill="none" xmlns="http://www.w3.org/2000/svg">
<g clip-path="url(#clip0_982_142)">
<path d="M569.862 91.5736C569.862 91.5736 582.353 85.4897 581.822 86.547C581.29 87.6042 576.507 98.7148 576.507 98.7148L591.656 93.4254L588.466 105.327L601.487 100.301L595.374 113.526L573.049 108.499L569.859 91.5705L569.862 91.5736Z" fill="#F4644D"/>
<path d="M546.541 228.656L533.075 232.007L532.898 233.769L544.947 230.947L530.065 239.411L530.774 240.468C530.774 240.468 546.898 231.651 546.721 232.18C546.544 232.709 541.938 240.997 541.938 240.997L544.062 240.821L548.892 230.696L546.541 228.653V228.656Z" fill="#F4644D"/>
<path d="M499.413 227.775L479.039 229.185L478.862 230.774L495.692 230.597L475.495 234.829L475.672 236.592L495.869 233.064L491.971 238.706L493.744 238.885L501.895 230.069L499.413 227.775Z" fill="#F4644D"/>
<path d="M536.418 204.296L546.749 231.355L548.893 230.699L541.093 201.584L536.418 204.296Z" fill="#F4644D"/>
<path d="M494.099 198.502L499.413 230.242H501.895L499.059 198.502H494.099Z" fill="#F4644D"/>
<path d="M447.144 102.227C428.01 106.459 411 135.023 411 135.023L420.567 132.909L413.125 143.135H427.653L421.984 150.895C421.984 150.895 444.662 152.657 457.774 144.192C470.885 135.728 447.144 102.227 447.144 102.227Z" fill="#F4644D"/>
<path d="M467.639 8.57565C470.413 7.46274 473.09 6.28492 476.15 6.84755C478.79 7.3329 481.08 8.89407 482.791 10.9066C484.298 12.6749 485.099 14.7245 485.556 16.9657C485.932 18.8144 486.444 21.5874 485.301 23.2691C484.978 23.7421 485.748 24.1811 486.065 23.7143C487.289 21.912 486.842 19.1761 486.494 17.179C486.059 14.675 485.164 12.4925 483.58 10.483C481.844 8.28506 479.374 6.6868 476.638 6.04997C473.351 5.2833 470.4 6.52605 467.403 7.72551C466.881 7.93573 467.108 8.78896 467.639 8.57565Z" fill="#C64234"/>
<path d="M473.504 3.47786C472.156 0.587394 468.44 2.94923 467.869 5.18741C468.102 3.61388 467.248 -0.779009 464.676 0.1175C462.747 0.791427 463.39 2.88122 464.309 4.44856C462.911 3.03579 460.52 2.33095 459.19 3.56442C456.413 6.14265 460.252 8.90946 462.703 8.22008C460.461 9.44737 458.016 12.6222 461.455 13.9237C462.737 14.4091 464.359 13.9052 465.396 12.9994C466.303 12.208 466.446 11.6144 466.462 10.7087C466.707 12.9809 468.36 15.6766 471.112 13.9268C474.585 11.7226 470.5 9.53084 468.956 8.09952C471.012 7.50287 474.842 6.3405 473.504 3.47477V3.47786Z" fill="#FFC93D"/>
<path d="M467.344 7.53382C467.344 8.65291 466.63 9.56179 465.751 9.56179C464.872 9.56179 464.157 8.65291 464.157 7.53382C464.157 6.41473 464.872 5.50586 465.751 5.50586C466.63 5.50586 467.344 6.41473 467.344 7.53382Z" fill="#FFA21A"/>
<path d="M508.62 64.1437C507.962 60.8761 506.806 57.1324 505.437 53.9544C503.564 49.6141 502.501 45.1439 499.059 41.7403C496.264 38.9765 493.055 36.5776 489.669 34.5527C488.352 33.7644 486.833 33.1709 485.727 32.0889C484.811 31.1893 484.168 30.0455 483.149 29.1768C480.615 27.019 473.576 24.4593 473.545 24.6386L468.584 23.2289C459.706 22.3046 470.1 35.2205 471.942 37.335C477.393 43.5889 484.417 48.6805 490.197 54.65C494.142 58.7214 498.18 63.1328 503.352 65.6801C505.757 66.8641 509.397 67.9739 508.624 64.1406L508.62 64.1437Z" fill="#D38318"/>
<path d="M483.997 26.0481C469.985 22.9289 449.835 40.6797 441.473 68.014C431.551 100.458 430.132 147.717 462.027 166.407C489.806 182.687 539.633 191.448 566.564 167.112C585.848 149.689 602 105.043 602 105.043L593.849 106.805L597.394 98.3407L580.384 103.63C580.384 103.63 587.115 92.3434 586.053 92.6989C584.99 93.0513 571.879 95.1689 571.879 95.1689L576.84 84.5901C576.84 84.5901 554.515 101.871 503.486 89.8795C495.434 87.9876 493.03 74.5059 497.109 66.2519C507.384 45.4436 500.153 29.6434 483.997 26.0481Z" fill="#C64234"/>
<path d="M475.849 76.8339C475.849 76.8339 485.416 69.0745 485.77 70.1317C486.124 71.189 493.567 83.533 493.567 83.533L495.89 80.559C494.632 75.8292 494.996 70.1781 497.111 65.8996C507.386 45.0913 500.155 29.2911 484 25.6958C470.056 22.5921 450.039 40.1513 441.605 67.2567L443.603 72.6018L454.59 66.2551L459.196 75.7766L468.409 69.0776L475.852 76.837L475.849 76.8339Z" fill="#F4644D"/>
<path d="M457.479 40.7262C457.479 40.7262 459.765 39.6967 462.191 37.3596C464.617 35.0225 465.297 32.2063 465.297 32.2063C465.297 32.2063 455.205 28.2431 453.906 29.6187C452.608 30.9944 457.482 40.7262 457.482 40.7262H457.479Z" fill="#FFC93D"/>
<path d="M476.073 36.7568C476.073 36.7568 477.44 40.6953 479.785 42.4203C482.13 44.1422 485.063 43.4065 485.063 43.4065L476.073 36.7599V36.7568Z" fill="#564336"/>
<path d="M489.887 107.528C480.577 115.158 479.819 137.197 494.533 149.528C509.245 161.86 543.317 161.474 543.317 161.474C543.317 161.474 534.411 152.227 535.573 152.227C536.735 152.227 546.414 151.071 546.414 151.071L535.961 144.907L549.511 137.2L539.832 131.419L550.673 129.107C550.673 129.107 538.285 117.548 526.668 110.611C509.577 100.406 496.469 102.134 489.887 107.528Z" fill="#F4644D"/>
<path d="M502.958 166.41L479.925 165.001C482.882 170.095 483.435 178.269 485.153 184.121C486.6 189.046 490.123 202.057 496.581 202.744C509.481 204.116 497.801 169.894 502.958 166.41Z" fill="#C64234"/>
<path d="M540.956 172.275L517.907 173.406C521.411 178.142 522.868 186.208 525.226 191.834C527.21 196.57 532.159 209.112 538.651 209.087C551.626 209.035 536.215 176.303 540.956 172.275Z" fill="#C64234"/>
<path d="M466.99 23.1979C466.99 23.1979 483.227 28.0514 492.449 37.2328C505.374 50.0962 508.9 66.0788 508.9 66.0788L506.943 47.3665C506.943 47.3665 518.178 30.2277 509.294 21.6367C495.586 8.38382 481.093 23.1948 481.093 23.1948H466.99V23.1979Z" fill="#FFC93D"/>
<path d="M497.285 26.9324C490.355 21.4946 484.083 20.6321 484.083 20.6321L481.089 23.1979C481.089 23.1979 487.186 24.6385 493.209 29.931C499.232 35.2204 506.939 47.3666 506.939 47.3666L509.154 43.3323C509.154 43.3323 506.495 34.1632 497.282 26.9324H497.285Z" fill="#C64234"/>
<path d="M489.177 129.518C490.547 131.209 492.585 132.284 493.893 134.012C494.231 134.461 495.002 134.022 494.657 133.567C493.296 131.771 491.224 130.646 489.805 128.893C489.448 128.451 488.823 129.079 489.177 129.518Z" fill="#C64234"/>
<path d="M488.398 119.551C489.836 121.699 492.169 122.995 494.225 124.469C494.691 124.803 495.132 124.036 494.672 123.709C492.746 122.327 490.507 121.115 489.162 119.106C488.848 118.636 488.078 119.075 488.398 119.551Z" fill="#C64234"/>
<path d="M492.679 112.895C493.25 112.895 493.25 112.014 492.679 112.014C492.107 112.014 492.107 112.895 492.679 112.895Z" fill="#C64234"/>
<path d="M492.455 112.833C494.635 113.937 496.655 115.325 498.941 116.227C499.472 116.438 499.702 115.584 499.177 115.377C496.968 114.506 495.014 113.139 492.905 112.073C492.396 111.816 491.949 112.577 492.458 112.833H492.455Z" fill="#C64234"/>
<path d="M505.967 107.955C506.538 107.955 506.538 107.074 505.967 107.074C505.395 107.074 505.395 107.955 505.967 107.955Z" fill="#C64234"/>
<path d="M505.744 107.896C508.322 109 510.885 110.184 513.646 110.762C514.202 110.88 514.441 110.029 513.882 109.912C511.195 109.349 508.701 108.209 506.191 107.136C505.672 106.913 505.222 107.674 505.744 107.896Z" fill="#C64234"/>
<path d="M509.111 117.594C511.297 118.939 513.962 119.532 515.932 121.229C516.36 121.6 516.991 120.979 516.559 120.605C514.522 118.849 511.822 118.225 509.561 116.833C509.073 116.534 508.629 117.297 509.114 117.594H509.111Z" fill="#C64234"/>
<path d="M507.163 128.352C509.179 129.601 511.468 130.42 513.276 131.987C513.705 132.358 514.336 131.737 513.904 131.363C512.034 129.743 509.698 128.884 507.614 127.592C507.126 127.289 506.682 128.052 507.166 128.352H507.163Z" fill="#C64234"/>
<path d="M503.087 140.517C505.557 142.007 508.411 143.076 510.263 145.386C510.62 145.831 511.241 145.203 510.89 144.761C508.992 142.393 506.069 141.283 503.537 139.756C503.047 139.459 502.603 140.223 503.09 140.517H503.087Z" fill="#C64234"/>
<path d="M496.797 145.738C498.617 147.352 500.577 148.792 502.466 150.323C502.904 150.678 503.535 150.06 503.093 149.698C501.205 148.168 499.242 146.727 497.425 145.114C496.999 144.737 496.372 145.358 496.797 145.738Z" fill="#C64234"/>
<path d="M517.308 153.275C517.879 153.275 517.879 152.394 517.308 152.394C516.736 152.394 516.736 153.275 517.308 153.275Z" fill="#C64234"/>
<path d="M517.084 153.213C519.932 154.762 523.216 155.158 526.12 156.564C526.632 156.812 527.08 156.051 526.567 155.804C523.66 154.4 520.376 153.998 517.531 152.453C517.031 152.181 516.584 152.941 517.084 153.213Z" fill="#C64234"/>
<path d="M526.226 148.675C527.928 149.355 529.609 150.079 531.364 150.613C531.91 150.78 532.143 149.93 531.6 149.763C529.845 149.225 528.161 148.505 526.462 147.825C525.931 147.612 525.704 148.465 526.226 148.675Z" fill="#C64234"/>
<path d="M519.849 139.503C521.691 140.05 523.545 140.541 525.458 140.752C526.027 140.814 526.021 139.932 525.458 139.871C523.626 139.67 521.846 139.175 520.085 138.653C519.535 138.489 519.302 139.342 519.849 139.503Z" fill="#C64234"/>
<path d="M532.606 137.564C534.305 137.969 535.874 138.751 537.461 139.459C537.977 139.688 538.431 138.931 537.909 138.699C536.253 137.963 534.613 137.138 532.842 136.714C532.286 136.581 532.05 137.431 532.606 137.564Z" fill="#C64234"/>
<path d="M521.974 127.162C524.807 127.938 527.45 129.255 530.42 129.471C530.988 129.511 530.985 128.63 530.42 128.59C527.54 128.38 524.956 127.066 522.21 126.315C521.657 126.163 521.424 127.014 521.974 127.165V127.162Z" fill="#C64234"/>
<path d="M525.281 115.891C525.853 115.891 525.853 115.01 525.281 115.01C524.71 115.01 524.71 115.891 525.281 115.891Z" fill="#C64234"/>
<path d="M525.058 115.832C528.845 117.869 532.902 119.436 536.309 122.11C536.753 122.457 537.384 121.838 536.937 121.486C533.461 118.759 529.367 117.149 525.509 115.068C525.006 114.796 524.558 115.56 525.061 115.829L525.058 115.832Z" fill="#C64234"/>
<path d="M444.513 79.6717C444.261 82.5436 444.233 85.4372 443.73 88.2812C443.634 88.8377 444.485 89.0757 444.584 88.5162C445.1 85.5917 445.137 82.624 445.398 79.6717C445.448 79.1059 444.563 79.109 444.513 79.6717Z" fill="#F4644D"/>
<path d="M453.814 80.4632C454.068 83.366 454.078 86.2781 454.081 89.1902C454.081 89.759 454.966 89.759 454.966 89.1902C454.966 86.2781 454.954 83.366 454.699 80.4632C454.649 79.9005 453.764 79.8974 453.814 80.4632Z" fill="#F4644D"/>
<path d="M470.04 87.4588C471.071 89.9938 472.388 92.4329 472.963 95.1286C473.081 95.6851 473.935 95.4501 473.817 94.8937C473.243 92.198 471.925 89.7588 470.894 87.2239C470.683 86.7045 469.826 86.9302 470.04 87.4588Z" fill="#F4644D"/>
<path d="M479.505 84.3427C480.076 84.3427 480.076 83.4617 479.505 83.4617C478.933 83.4617 478.933 84.3427 479.505 84.3427Z" fill="#F4644D"/>
<path d="M479.191 84.213C480.396 85.7432 481.344 87.4651 482.31 89.1499C482.593 89.6446 483.36 89.1994 483.074 88.7048C482.068 86.9519 481.07 85.1837 479.816 83.5916C479.465 83.1433 478.84 83.774 479.188 84.2161L479.191 84.213Z" fill="#F4644D"/>
<path d="M458.082 108.354C458.936 111.161 459.927 113.928 460.473 116.818C460.579 117.378 461.433 117.14 461.328 116.583C460.781 113.696 459.79 110.926 458.936 108.119C458.771 107.575 457.917 107.807 458.082 108.354Z" fill="#F4644D"/>
<path d="M445.312 110.351C445.33 113.597 445.855 116.796 446.389 119.99C446.483 120.549 447.337 120.311 447.244 119.755C446.722 116.639 446.215 113.516 446.197 110.351C446.194 109.782 445.308 109.782 445.312 110.351Z" fill="#F4644D"/>
<path d="M454.937 141.256C456.584 143.454 458.109 145.738 459.454 148.131C459.733 148.626 460.497 148.183 460.218 147.686C458.873 145.293 457.348 143.005 455.701 140.81C455.363 140.359 454.596 140.798 454.937 141.256Z" fill="#F4644D"/>
<path d="M469.093 133.672C470.746 135.555 472.755 137.079 474.408 138.962C474.784 139.391 475.408 138.764 475.035 138.337C473.383 136.455 471.373 134.931 469.721 133.048C469.345 132.618 468.72 133.246 469.093 133.672Z" fill="#F4644D"/>
<path d="M476.532 106.431C477.613 107.745 478.927 108.811 480.253 109.868C480.694 110.221 481.325 109.6 480.881 109.244C479.554 108.187 478.24 107.12 477.159 105.806C476.796 105.367 476.175 105.995 476.532 106.431Z" fill="#F4644D"/>
<path d="M495.934 97.7037C497.313 98.8012 498.698 99.8739 500.276 100.681C500.783 100.94 501.233 100.18 500.724 99.9203C499.214 99.1474 497.881 98.1304 496.561 97.0793C496.12 96.7269 495.49 97.3482 495.934 97.7037Z" fill="#F4644D"/>
<path d="M518.346 96.7147C521.141 98.3284 524.437 98.6159 527.605 98.6252C528.177 98.6252 528.177 97.7441 527.605 97.7441C524.592 97.7349 521.455 97.4876 518.793 95.9542C518.299 95.6698 517.852 96.4303 518.346 96.7147Z" fill="#F4644D"/>
<path d="M535.579 108.147C536.151 108.147 536.151 107.266 535.579 107.266C535.008 107.266 535.008 108.147 535.579 108.147Z" fill="#F4644D"/>
<path d="M535.579 108.147C538.949 108.131 542.264 107.612 545.531 106.808C546.084 106.672 545.851 105.822 545.295 105.958C542.102 106.743 538.875 107.247 535.579 107.265C535.008 107.265 535.008 108.15 535.579 108.147Z" fill="#F4644D"/>
<path d="M554.182 99.1536C556.738 99.1289 559.254 98.6281 561.739 98.0809C562.298 97.9572 562.059 97.1071 561.503 97.2308C559.093 97.7625 556.657 98.2509 554.179 98.2726C553.607 98.2788 553.607 99.1598 554.179 99.1536H554.182Z" fill="#F4644D"/>
<path d="M549.132 120.314C551.576 120.011 553.866 119.031 556.307 118.728C556.866 118.657 556.872 117.776 556.307 117.847C553.862 118.15 551.573 119.13 549.132 119.433C548.573 119.504 548.566 120.385 549.132 120.314Z" fill="#F4644D"/>
<path d="M485.305 150.864C487.168 152.437 488.765 154.311 490.355 156.153C490.728 156.586 491.353 155.958 490.983 155.529C489.396 153.686 487.799 151.813 485.932 150.239C485.5 149.874 484.87 150.496 485.305 150.864Z" fill="#F4644D"/>
<path d="M472.547 156.419C474.435 158.002 476.619 159.192 478.393 160.914C478.803 161.313 479.427 160.688 479.02 160.289C477.243 158.564 475.063 157.374 473.174 155.794C472.739 155.43 472.109 156.051 472.547 156.419Z" fill="#F4644D"/>
<path d="M464.309 161.18C466.021 162.834 468.139 163.894 470.351 164.732C470.885 164.936 471.115 164.083 470.587 163.882C468.521 163.099 466.533 162.104 464.937 160.555C464.527 160.16 463.899 160.781 464.309 161.18Z" fill="#F4644D"/>
<path d="M509.418 175.31C512.21 176.117 515.143 176.374 518.041 176.383C518.612 176.383 518.612 175.502 518.041 175.502C515.217 175.493 512.375 175.249 509.654 174.46C509.104 174.303 508.871 175.153 509.418 175.31Z" fill="#F4644D"/>
<path d="M493.207 171.344C494.893 171.623 496.558 171.845 498.226 171.344C498.773 171.181 498.54 170.33 497.99 170.494C496.471 170.949 494.977 170.748 493.443 170.494C492.884 170.402 492.644 171.252 493.207 171.344Z" fill="#F4644D"/>
<path d="M507.557 163.675C510.129 164.228 512.751 164.472 515.382 164.485C515.953 164.485 515.953 163.607 515.382 163.603C512.828 163.591 510.29 163.362 507.793 162.824C507.237 162.704 506.998 163.554 507.557 163.675Z" fill="#F4644D"/>
<path d="M539.301 174.797C543.199 175.029 546.989 173.771 550.579 172.401C551.107 172.2 550.878 171.347 550.343 171.551C546.821 172.893 543.121 174.142 539.301 173.916C538.729 173.882 538.732 174.763 539.301 174.797Z" fill="#F4644D"/>
<path d="M559.811 164.355C561.765 161.931 564.663 160.555 566.986 158.537C567.418 158.162 566.787 157.541 566.359 157.912C564.032 159.934 561.14 161.303 559.183 163.73C558.829 164.169 559.454 164.797 559.811 164.355Z" fill="#F4644D"/>
<path d="M547.802 159.192C548.373 159.192 548.373 158.311 547.802 158.311C547.23 158.311 547.23 159.192 547.802 159.192Z" fill="#F4644D"/>
<path d="M547.92 159.177C550.026 158.614 551.815 157.414 553.607 156.224C554.08 155.909 553.635 155.145 553.16 155.464C551.433 156.614 549.715 157.785 547.684 158.33C547.134 158.478 547.367 159.328 547.92 159.18V159.177Z" fill="#F4644D"/>
<path d="M552.545 144.851C554.297 143.964 555.903 142.851 557.419 141.608C557.86 141.246 557.229 140.625 556.791 140.983C555.334 142.18 553.781 143.234 552.098 144.087C551.588 144.344 552.036 145.107 552.545 144.848V144.851Z" fill="#F4644D"/>
<path d="M568.648 146.013C570.819 142.838 574.136 140.538 575.823 137.02C576.068 136.51 575.304 136.062 575.059 136.575C573.375 140.084 570.052 142.396 567.883 145.568C567.56 146.041 568.328 146.48 568.648 146.013Z" fill="#F4644D"/>
<path d="M564.063 130.235C566.445 128.358 568.322 125.993 570.176 123.622C570.524 123.18 569.9 122.55 569.549 122.998C567.694 125.369 565.818 127.734 563.436 129.61C562.988 129.963 563.619 130.581 564.063 130.235Z" fill="#F4644D"/>
<path d="M565.657 118.07C567.07 116.398 568.623 114.852 570.173 113.309C570.577 112.907 569.953 112.283 569.546 112.685C567.996 114.227 566.443 115.773 565.029 117.446C564.663 117.878 565.287 118.506 565.657 118.07Z" fill="#F4644D"/>
<path d="M581.07 121.77C582.651 120.413 583.719 118.636 584.859 116.92C585.176 116.444 584.409 116.002 584.095 116.475C582.996 118.132 581.97 119.835 580.445 121.146C580.01 121.517 580.641 122.138 581.073 121.77H581.07Z" fill="#F4644D"/>
<path d="M562.112 107.822C563.405 107.17 564.616 106.381 565.657 105.374C566.067 104.975 565.439 104.353 565.029 104.749C564.041 105.707 562.889 106.443 561.665 107.061C561.156 107.318 561.603 108.079 562.112 107.822Z" fill="#F4644D"/>
<path d="M591.967 118.07C593.023 116.991 593.834 115.708 594.89 114.632C595.287 114.224 594.663 113.603 594.262 114.008C593.206 115.087 592.395 116.37 591.339 117.446C590.942 117.854 591.566 118.475 591.967 118.07Z" fill="#F4644D"/>
<path d="M425.249 123.162C426.935 121.99 428.004 120.076 430.191 119.767C430.753 119.687 430.514 118.84 429.954 118.917C427.64 119.242 426.572 121.168 424.798 122.401C424.332 122.723 424.776 123.489 425.245 123.162H425.249Z" fill="#C64234"/>
<path d="M429.587 128.649C430.715 127.527 431.855 126.386 433.218 125.545C433.703 125.245 433.259 124.482 432.771 124.785C431.342 125.666 430.143 126.85 428.96 128.028C428.556 128.429 429.18 129.054 429.587 128.652V128.649Z" fill="#C64234"/>
<path d="M416.519 131.422C417.091 131.422 417.091 130.541 416.519 130.541C415.948 130.541 415.948 131.422 416.519 131.422Z" fill="#C64234"/>
<path d="M417.098 131.029C417.939 130.207 418.884 129.518 419.931 128.983C420.44 128.723 419.99 127.963 419.483 128.222C418.371 128.791 417.362 129.536 416.47 130.408C416.063 130.807 416.688 131.431 417.098 131.032V131.029Z" fill="#C64234"/>
<path d="M421.036 139.092C421.608 139.092 421.608 138.21 421.036 138.21C420.465 138.21 420.465 139.092 421.036 139.092Z" fill="#C64234"/>
<path d="M421.526 138.767C422.294 138.257 423.08 137.753 423.741 137.11C424.151 136.714 423.524 136.09 423.114 136.486C422.505 137.076 421.781 137.537 421.076 138.003C420.604 138.316 421.045 139.082 421.523 138.764L421.526 138.767Z" fill="#C64234"/>
<path d="M434.324 146.233C434.896 146.233 434.896 145.352 434.324 145.352C433.753 145.352 433.753 146.233 434.324 146.233Z" fill="#C64234"/>
<path d="M434.442 146.217C436.685 145.618 438.611 144.301 440.661 143.262C441.17 143.005 440.723 142.245 440.214 142.501C438.235 143.503 436.371 144.789 434.206 145.367C433.656 145.515 433.889 146.366 434.442 146.217Z" fill="#C64234"/>
<path d="M435.346 138.504C437.328 137.632 439.086 136.365 440.751 134.995C441.192 134.634 440.562 134.012 440.124 134.371C438.518 135.691 436.809 136.897 434.899 137.741C434.377 137.969 434.828 138.73 435.346 138.501V138.504Z" fill="#C64234"/>
<path d="M433.218 117.609C435.11 116.521 436.912 115.272 438.959 114.481C439.487 114.277 439.257 113.424 438.722 113.631C436.601 114.45 434.731 115.721 432.771 116.849C432.277 117.133 432.721 117.894 433.218 117.609Z" fill="#C64234"/>
</g>
<g clip-path="url(#clip1_982_142)">
<path d="M385.17 216.979L383.64 233.802L382.682 233.91L382.721 216.757L385.17 216.979Z" fill="#EF5C3F"/>
<path d="M353.888 220.157L352.358 236.979L351.399 237.088L351.439 219.935L353.888 220.157Z" fill="#EF5C3F"/>
<path d="M383.668 232.441L388.555 231.524L388.804 232.207L384.717 233.426L390.352 234.297L390.176 235.51L384.269 234.627L387.943 237.737L386.582 238.096L382.682 233.91L383.668 232.441Z" fill="#EF5C3F"/>
<path d="M352.328 235.345L357.215 234.428L357.459 235.117L353.371 236.33L359.007 237.201L358.831 238.414L352.929 237.532L356.597 240.641L355.237 241L351.342 236.814L352.328 235.345Z" fill="#EF5C3F"/>
<path d="M405.779 173.663C403.346 163.287 394.372 159.033 383.668 159.58C379.224 159.808 376.349 161.482 373.214 164.734C372.018 165.975 369.529 168.686 368.033 171.499C352.125 166.083 325.706 168.248 325.706 168.248L326.783 174.478L318.965 174.751L319.776 180.44L316 181.255L325.706 201.836C333.524 212.668 344.987 221.318 355.362 222.361C368.197 223.648 385.84 222.452 394.979 212.127C403.505 202.497 408.795 186.545 405.779 173.669V173.663Z" fill="#FFC022"/>
<path d="M404.361 181.596C407.213 181.733 411.192 180.64 410.988 179.41C410.784 178.18 406.238 174.387 405.194 174.945C403.284 175.964 401.691 181.471 404.361 181.596Z" fill="#EF5C3F"/>
<path d="M392.127 172.991C392.127 173.868 391.419 174.58 390.546 174.58C389.673 174.58 388.964 173.868 388.964 172.991C388.964 172.114 389.673 171.403 390.546 171.403C391.419 171.403 392.127 172.114 392.127 172.991Z" fill="#564336"/>
<path d="M405.472 170.958C405.472 171.835 404.763 172.547 403.89 172.547C403.017 172.547 402.309 171.835 402.309 170.958C402.309 170.081 403.017 169.369 403.89 169.369C404.763 169.369 405.472 170.081 405.472 170.958Z" fill="#564336"/>
<path d="M393.108 157.957V152L389.871 157.416L385.29 156.334L387.444 160.668L393.647 162.832L395.534 157.689L393.108 157.957Z" fill="#FFC022"/>
<path d="M337.492 204.667C338.252 204.382 360.867 208.197 368.48 202.873C378.305 196.01 375.488 181.454 367.284 178.749C359.087 176.044 338.808 186.534 338.808 186.534L340.916 190.657L335.514 194.706C336.716 194.837 340.684 198.55 340.684 198.55L337.487 204.661L337.492 204.667Z" fill="#FFA21A"/>
<path d="M380.976 190.458L382.863 198.043L388.527 191.813L385.828 190.999L383.674 193.977L383.13 190.458H380.976Z" fill="#FFA21A"/>
<path d="M395.534 201.289L401.198 194.518L399.038 193.709L395.806 196.688L395.534 192.354L392.297 191.813L395.534 201.289Z" fill="#FFA21A"/>
<path d="M385.828 201.563L386.367 211.58L393.107 203.727L390.681 202.645L387.716 206.164L388.527 201.563H385.828Z" fill="#FFA21A"/>
</g>
<path d="M65.4694 219.814C65.6747 212.119 64.8664 203.96 62.9009 196.409C61.9185 192.649 60.477 189.105 57.7558 186.059C55.2553 183.252 51.8558 180.344 48.0252 179.223C47.6971 179.127 47.3684 179.051 47.0335 178.984C46.7263 178.882 46.4011 178.791 46.0724 178.715C37.8961 176.779 30.1394 180.839 24.7798 185.991C19.9562 190.63 16.1074 196.384 12.7082 201.961C5.57013 213.69 3.05655 228.415 11.0916 240.668C18.2561 251.591 33.4444 256.653 45.8707 250.977C58.7533 245.095 65.1237 232.785 65.4694 219.814Z" fill="white"/>
<path d="M241.391 198.644C236.878 192.407 231.279 186.419 225.13 181.616C222.065 179.227 218.766 177.288 214.754 176.522C211.063 175.812 206.596 175.568 202.872 177.005C202.554 177.129 202.246 177.268 201.94 177.418C201.634 177.524 201.32 177.649 201.013 177.788C193.342 181.219 189.649 189.157 188.523 196.506C187.511 203.121 187.95 210.029 188.639 216.524C190.097 230.176 197.048 243.399 210.874 248.248C223.202 252.57 238.341 247.362 244.761 235.303C251.419 222.804 248.998 209.156 241.391 198.644Z" fill="#F8D4A0"/>
<defs>
<clipPath id="clip0_982_142">
<rect width="191" height="241" fill="white" transform="translate(411)"/>
</clipPath>
<clipPath id="clip1_982_142">
<rect width="95" height="89" fill="white" transform="translate(316 152)"/>
</clipPath>
</defs>
</svg>
