<svg width="371" height="146" viewBox="0 0 371 146" fill="none" xmlns="http://www.w3.org/2000/svg">
<path d="M13.0172 42.3417L19.5239 43.6834L24.6581 45.2618L21.4688 55.6458L18.5708 61.904L18.2416 62.481L22.2102 62.7283L25.1553 86.5686L19.3377 86.4827L14.966 86.7546L14.4775 81.7193L13.1314 70.8228L11.5516 73.1634L7.39637 70.3244L2.8308 66.8655L6.26242 61.1448L8.87201 55.7939L11.3755 49.5845L13.0254 42.4077L13.0172 42.3417ZM13.427 89.4254L18.8084 90.3028L24.8716 91.297L23.9292 97.7159L21.9674 104.529L20.0479 110.063L15.3739 108.428L9.59949 105.99L12.2201 97.4861L13.427 89.4254ZM26.4677 89.0884L32.4763 86.9382L37.2593 86.2132L38.3236 90.5069L40.6937 95.6449L43.8134 98.746L49.0307 99.3755L52.9758 98.3517L55.3598 97.1186L54.8775 94.2951L60.2282 92.7625L65.2904 92.1372L67.2978 98.661L66.9148 104.206L60.4701 107.148L52.2267 109.038L41.7581 109.124L34.5211 106.733L29.991 100.319L26.6237 89.2703L26.4677 89.0884ZM42.3383 39.256L48.475 40.8446L52.9192 42.24L52.0856 46.2988L59.7119 45.3567L69.1871 44.2533L70.2831 49.8839L70.8542 54.5067L61.2067 55.2962L63.4247 55.9609L68.6894 58.5958L64.8782 66.1066L63.6608 67.598L66.7162 69.0979L75.9491 72.5165L70.906 79.2408L68.5867 81.5388L60.258 77.8743L55.667 75.2902L51.5227 78.484L44.8553 82.3248L42.2121 79.2989L38.9134 74.2085L44.4051 71.1164L47.1433 68.9679L46.3304 68.3308L42.6526 64.4941L41.5172 66.1094L37.3456 63.1382L35.1041 61.2026C35.4223 63.7781 35.6747 66.3618 35.9847 68.8713L37.6897 82.6736L32.9893 82.9861L27.689 83.3056L26.2777 71.8807L24.017 54.6606L30.2463 53.757L34.4035 54.4503L34.7869 57.5541L37.4282 53.5402L40.2446 46.6217L42.478 39.3058L42.3383 39.256ZM42.9286 86.7198L47.3516 84.1619L52.2507 82.2158L54.9011 86.3806L57.288 91.1143L52.4465 92.9863L47.3665 95.0889L45.0535 90.4131L42.8628 86.7279L42.9286 86.7198ZM53.8137 61.9085L56.0182 59.2225L57.4512 55.6931C56.465 55.8149 55.5364 55.8625 54.616 55.9762C52.8573 56.3276 51.0328 56.6871 49.2083 57.0466L53.6001 61.8008C53.6001 61.8008 53.7561 61.9827 53.8957 62.0324L53.8137 61.9085ZM62.9534 86.7268L67.5248 83.7484L71.2246 81.28L74.9351 85.3808L77.4458 89.4958L79.7343 93.9735L75.4101 96.2509L70.2394 98.6999L67.3026 93.2966L62.9616 86.7929L62.9534 86.7268Z" fill="#F88757"/>
<path d="M93.5869 53.1167L98.1738 55.7627L107.414 60.1945L103.957 66.6109L102.096 69.2568L95.8471 66.0156L89 63.1712L91.5926 58.0778L93.5204 53.1829L93.5869 53.1167ZM90.4625 99.0895L89.9307 92.6731L89.133 88.9027L96.246 89.2996L99.2374 84.2724L102.761 70.9105L109.275 73.6226L113.796 74.5486L111.536 85.6615L109.009 93.4669L104.888 98.7588L99.6363 102L93.9193 100.479L90.396 99.1556L90.4625 99.0895ZM96.9107 36.249L104.29 39.4903L111.403 42.9961L108.677 48.0233L106.417 52.5214L99.038 48.5525L92.5897 46.1712L95.2488 40.3502L96.9772 36.249H96.9107ZM116.388 76.7315L122.371 76.4669C124.033 76.3346 125.695 76.2685 127.291 76.1362V75.607H129.085V70.249L113.131 71.109L112.333 65.751L112.067 60.856L118.782 60.2607L124.632 59.8638H128.886V57.6809C128.753 55.895 128.62 54.0428 128.487 52.2568C128.487 52.2568 128.354 52.2568 128.354 52.323L118.449 53.3813L117.253 48.5525L116.654 42.7977L125.895 41.0117L136.398 38.035L147.101 34L150.69 40.1518L153.349 44.7159L142.048 49.0817L134.47 50.8677C136.73 51.1984 138.991 51.463 141.251 51.7276V59.4008C142.58 59.4008 143.976 59.3346 145.372 59.3346L159 59.5992L158.734 66.3463V70.9767L150.89 70.1829C147.699 70.1829 144.442 70.1167 141.251 70.1167C141.251 71.9027 141.251 73.6226 141.317 75.4086H145.106L153.682 76.4008L155.809 77.7237L155.942 91.3502L155.676 101.405H148.297L142.78 101.537V101.14C142.181 101.14 141.65 101.14 141.051 101.206L128.487 101.471V101.603L121.241 101.868H116.654L116.521 99.5525L116.123 86.6537L116.255 76.5992L116.388 76.7315ZM143.112 92.3424V86.6537L128.155 86.7199L128.288 91.284V92.2101L141.583 92.4747L143.046 92.3424H143.112Z" fill="#F88757"/>
<path d="M173.77 48.3316L180.095 48.3677C181.46 48.333 182.759 48.2899 183.99 48.2385L185.052 45.7155L188.198 31.879L193.393 33.3406L199.208 35.2875L197.022 45.2269L196.153 47.8419L200.45 47.7626L211.122 47.3171L210.734 54.2803L210.404 59.685C209.315 59.686 208.301 59.6283 207.279 59.6376L206.304 64.758L206.287 64.8921C208.993 65.0237 211.632 65.1469 214.271 65.2702L219.649 65.8015C219.413 64.4108 219.169 63.0872 218.85 61.8223C218.531 61.6466 218.288 61.4122 217.978 61.1695L224.523 53.9493L226.279 51.3083L218.84 50.3851L213.604 50.348L212.938 44.7515L212.673 38.6603L229.034 40.0781L235.208 40.2316L239.058 45.4062L242.103 50.4811L235.383 58.5645L230.856 64.3333C231.016 65.2381 231.168 66.2099 231.395 67.123L235.148 67.5888L246.626 69.4216L245.231 74.6262L244.299 81.0453L234.052 79.161C233.449 79.0862 232.913 79.0196 232.318 78.8778L232.481 84.1396L231.067 95.5362L226.004 101.238L219.355 103.817L211.353 101.394L205.309 96.9004L207.408 92.0555L209.514 87.1435L214.996 90.6827L217.836 91.3756L220.179 88.3989L220.718 81.3183L220.714 77.5059L216.693 77.0068L204.647 76.4648L204.298 70.4994C204.298 70.4994 204.323 70.2983 204.273 70.1559L203.161 73.0811L198.276 81.188L197.247 82.3536L199.209 84.6393L203.544 89.738L198.596 93.4125L194.981 97.3204L189.741 91.837L189.028 90.9998L179.719 98.5577L176.599 93.5416L174.073 89.212L181.079 82.6617L178.439 80.3599L176.199 76.4742L174.87 70.7274L179.468 59.9982L174.618 60.1451L173.734 55.2024L173.729 48.6668L173.77 48.3316ZM196.423 59.3794L193.365 59.3403L192.343 59.3496C192.101 60.2045 191.783 61.1181 191.474 61.9647L187.2 70.0793L189.683 73.1102L194.192 65.8416L196.414 59.4465L196.423 59.3794Z" fill="#F88757"/>
<path d="M265.889 29.104H293.174L311.949 29.1716L322.62 29.4418L324.848 33.6976L325.861 36.9402L325.524 39.3045L324.308 41.6013L320.728 45.1816L315.528 42.6146C315.528 42.6146 315.258 42.4795 315.123 42.4795L314.988 45.7896L314.65 50.113L301.21 49.9779H298.847V51.937L301.683 52.2747L316.271 53.6258L329.171 53.9635L328.09 58.4896L326.064 63.6236L313.164 62.205L292.498 59.9082L274.263 56.7332C273.655 56.5981 273.115 56.3955 272.507 56.1928L271.022 60.5162L269.806 62.8806L265.619 61.6646L259 59.3002L260.216 56.5981L261.701 52.7476L263.66 46.2625L264.673 41.0609L270.684 41.8715L275.817 43.0875L274.736 47.8838L281.152 49.3699L286.352 50.3157L286.758 44.371C286.758 42.3444 286.758 40.3178 286.69 38.2912L266.361 38.4263L266.091 32.9545L265.821 29.104H265.889ZM261.364 88.1454H278.248L286.96 88.0779C286.96 86.7944 286.96 85.5784 287.028 84.3624L271.967 84.4975H271.832C270.008 84.4975 268.117 84.4976 266.226 84.43L265.956 77.8773L265.686 72.0678V65.6502L271.697 64.9072L278.18 64.772V64.9072L281.962 64.772H287.028V60.9891L295.335 61.3268L299.522 61.597C299.522 62.6103 299.387 63.5561 299.387 64.5018H311.273L318.23 65.0423L321.404 66.9337L321.269 74.3646L321.134 83.6194L322.89 83.1465L325.253 86.997L327.617 91.7257L329.103 95.5763L325.456 96.9273L318.23 98.6161C317.892 97.738 317.487 96.8598 317.217 95.9816L292.16 96.5895L278.248 96.9949L261.296 97.2651V92.3337L261.364 88.0779V88.1454ZM277.978 76.9316H282.098C283.786 76.9316 285.474 76.9316 287.163 76.864V73.6215H281.962C280.612 73.7566 279.329 73.7566 277.978 73.7566C277.978 74.4997 277.978 75.2428 277.91 75.9859V76.9316H277.978ZM314.448 42.2093L310.868 40.7231L311.814 39.4396L312.151 38.4939L301.548 38.2237H299.252C299.117 39.5747 299.049 40.8582 298.914 42.0742H314.448V42.2093ZM308.572 76.7965C308.572 76.7965 308.572 76.121 308.639 75.7832L308.775 73.6215L300.197 73.4864H298.982V76.7965H308.504H308.572ZM313.637 87.5374C313.367 86.9295 313.164 86.389 312.894 85.8486L318.77 84.2949H314.448L308.302 84.1598L302.899 84.0922H299.184V87.8752L313.637 87.5374Z" fill="#F88757"/>
<path d="M105.116 140.393C105.252 140.482 105.358 140.601 105.404 140.781C105.479 141.049 105.192 142.586 105.146 143.064C105.04 144.392 105.055 145.63 103.481 145.899C102.361 146.078 101.257 145.764 100.137 145.809C98.9712 145.854 97.6696 145.585 96.5647 145.257C94.2945 144.601 92.0999 143.123 90.7832 141.169C89.4059 139.094 89.0275 136.737 89.0729 134.29C89.1032 132.35 89.7691 130.44 91.0405 128.918C92.6145 127.052 94.355 125.441 96.7009 124.56C98.0177 124.068 99.4253 123.784 100.833 123.77C101.544 123.77 102.24 123.814 102.937 123.949C103.421 124.038 104.405 124.113 104.707 124.575C104.95 124.919 104.738 125.605 104.707 126.023C104.677 126.993 104.753 128.007 104.632 128.977C104.48 130.141 102.921 129.664 102.013 129.932C101.075 130.216 100.197 130.738 99.4858 131.41C98.169 132.663 97.5182 134.543 97.7604 136.334C97.8663 137.155 98.1842 137.975 98.8047 138.542C99.1982 138.9 99.6825 139.124 100.182 139.303C101.136 139.661 102.134 139.975 103.148 140.139C103.618 140.214 104.601 140.094 105.101 140.408L105.116 140.393Z" fill="#F88757"/>
<path d="M164.687 140.393C164.813 140.482 164.911 140.601 164.954 140.781C165.024 141.049 164.757 142.586 164.715 143.064C164.616 144.392 164.63 145.63 163.169 145.899C162.129 146.078 161.103 145.764 160.063 145.809C158.981 145.854 157.772 145.585 156.746 145.257C154.638 144.601 152.6 143.123 151.378 141.169C150.099 139.094 149.747 136.737 149.789 134.29C149.818 132.35 150.436 130.44 151.616 128.918C153.078 127.052 154.694 125.441 156.873 124.56C158.095 124.068 159.402 123.784 160.709 123.77C161.37 123.77 162.016 123.814 162.663 123.949C163.113 124.038 164.026 124.113 164.307 124.575C164.532 124.919 164.335 125.605 164.307 126.023C164.279 126.993 164.349 128.007 164.237 128.977C164.096 130.141 162.649 129.664 161.806 129.932C160.934 130.216 160.119 130.738 159.459 131.41C158.236 132.663 157.632 134.543 157.856 136.334C157.955 137.155 158.25 137.975 158.826 138.542C159.192 138.9 159.641 139.124 160.105 139.303C160.99 139.661 161.918 139.975 162.86 140.139C163.295 140.214 164.209 140.094 164.673 140.408L164.687 140.393Z" fill="#F88757"/>
<path d="M183.101 143.658C182.874 143.042 182.434 142.354 182.334 142.149C181.653 140.918 180.985 139.688 180.304 138.457C179.963 137.842 179.622 137.227 179.295 136.612C178.997 136.055 178.883 135.821 179.423 135.41C181.908 133.521 184.365 131.587 186.808 129.639C186.978 129.492 187.177 129.302 187.149 129.082C187.12 128.936 187.007 128.833 186.893 128.731C185.828 127.779 184.734 126.87 183.641 125.962C183.4 125.772 183.158 125.508 182.917 125.699C180.815 127.412 178.713 129.126 176.625 130.84C176 131.353 175.432 131.866 174.893 132.466C174.438 132.964 174.012 133.272 173.856 132.422C173.671 131.426 173.827 130.371 173.87 129.375C173.927 128.116 174.31 127.046 174.694 125.86C174.722 125.757 174.751 125.655 174.736 125.552C174.694 125.274 174.353 125.186 174.083 125.157C173.529 125.113 172.961 125.054 172.393 125.039C171.385 125.01 170.376 124.966 169.368 124.937C168.899 124.922 168.686 125.493 168.658 125.977C168.417 129.112 168.161 132.246 167.919 135.381C167.792 136.949 167.678 138.516 167.55 140.083C167.479 141.021 167.38 141.958 167.309 142.881C167.252 143.716 167.536 143.731 168.232 143.76C170.092 143.877 171.896 144.214 173.785 144.156C173.998 144.156 174.381 141.475 174.41 141.182C174.467 140.816 174.339 138.867 174.935 139.043C175.091 139.087 175.191 139.248 175.29 139.38C176.1 140.669 176.668 142.09 177.435 143.394C177.776 143.965 178.06 144.639 178.727 144.742C179.451 144.859 180.19 144.712 180.914 144.683C181.511 144.654 182.107 144.683 182.704 144.742C183.371 144.815 183.328 144.258 183.101 143.658Z" fill="#F88757"/>
<path d="M121.585 144.382C121.619 144.309 121.63 144.207 121.653 144.091C121.844 142.561 121.754 140.857 121.63 139.327C121.619 139.109 121.585 138.876 121.473 138.716C121.293 138.453 120.978 138.483 120.708 138.512C119.537 138.628 118.288 138.366 117.107 138.337C116.679 138.337 116.105 138.468 115.959 137.783C115.858 137.288 115.936 136.749 115.925 136.239C115.903 135.249 115.903 134.273 115.903 133.282C115.903 131.345 115.959 129.422 116.06 127.499C116.094 126.873 116.128 126.247 116.105 125.62C116.105 125.504 116.094 125.373 116.038 125.271C115.936 125.038 115.689 125.008 115.486 124.994C113.99 124.907 112.493 124.921 111.008 125.023C110.693 125.038 110.333 125.11 110.175 125.46C110.029 125.81 110.096 126.349 110.153 126.727C110.546 129.393 110.423 132.132 110.31 134.841C110.254 136.21 110.198 137.594 110.209 138.963C110.209 139.648 110.243 140.333 110.299 141.003C110.378 141.993 110.299 144.12 111.233 144.455C112.088 144.746 113.191 144.324 114.08 144.324C115.081 144.324 116.083 144.426 117.073 144.528C117.939 144.615 118.806 144.703 119.672 144.717C120.077 144.717 120.482 144.819 120.876 144.775C121.236 144.746 121.461 144.688 121.563 144.382H121.585Z" fill="#F88757"/>
<path d="M261.865 143.32C261.937 142.464 261.405 141.38 261.219 140.632C260.4 137.485 259.582 134.339 258.764 131.178C258.261 129.253 257.744 127.298 256.739 125.618C256.524 125.252 256.193 124.87 255.791 124.946C255.562 124.992 255.389 125.175 255.231 125.359C254.226 126.489 253.135 127.558 252.173 128.734C250.981 130.185 249.718 131.529 248.626 133.087C248.023 133.942 247.133 134.66 246.185 133.652C244.132 131.483 242.596 128.505 240.399 126.489C239.853 125.985 239.121 125.481 238.475 125.832C238.073 126.061 237.872 126.55 237.714 127.008C235.876 132.354 234.268 137.776 232.918 143.274C232.818 143.656 232.703 143.915 232.688 144.312C235.273 144.648 237.886 144.694 240.471 144.419C240.342 142.312 240.629 140.311 240.815 138.234C240.945 136.722 241.691 136.264 242.811 137.577C244.118 139.104 244.821 141.12 246.286 142.525C247.047 143.259 247.736 143.778 248.411 142.77C249.172 141.624 249.502 140.143 250.335 138.997C250.924 138.188 253.221 135.408 254.269 136.584C254.743 137.119 254.47 139.074 254.47 139.715C254.47 140.418 254.427 141.105 254.384 141.808C254.355 142.189 253.996 143.579 254.169 143.885C254.456 144.389 254.858 144.786 255.418 144.786C256.567 144.801 257.687 144.45 258.821 144.419C259.611 144.404 260.688 144.694 261.391 144.205C261.707 143.976 261.851 143.671 261.879 143.304L261.865 143.32Z" fill="#F88757"/>
<path d="M227.407 128.15C225.503 124.309 221.194 122.903 217.19 124.295C213.27 125.659 211.213 129.319 210.685 133.245C210.351 135.708 210.407 138.325 211.477 140.566C211.936 141.526 212.575 142.403 213.284 143.183C215.216 145.285 217.871 146.203 220.582 145.897C221.235 145.827 221.889 145.674 222.528 145.466C225.906 144.352 228.686 140.677 229.103 137.198C229.451 134.302 228.672 130.767 227.379 128.164L227.407 128.15ZM223.557 137.323C223.251 138.144 222.764 138.938 222.042 139.425C220.777 140.274 218.97 140.009 217.816 139.021C216.662 138.033 216.106 136.46 216.092 134.943C216.064 133.036 216.718 130.461 218.566 129.5C220.109 128.693 221.652 128.93 222.806 130.252C223.39 130.906 223.751 131.755 223.946 132.66C224.28 134.219 224.085 135.959 223.571 137.323H223.557Z" fill="#F88757"/>
<path d="M143.943 125.315C143.545 125.054 142.975 124.993 142.285 124.946C141.344 124.885 140.681 125.085 140.787 126.221C140.893 127.342 141.185 132.395 141.145 133.516C141.105 134.284 141.052 135.068 140.853 135.805C140.588 136.803 140.283 137.479 139.607 138.201C139.315 138.508 138.043 138.999 137.764 138.984C136.916 138.953 136.04 138.923 135.298 138.462C132.964 137.049 132.142 130.199 131.943 127.388C131.851 126.129 131.904 125.254 130.657 125.085C129.835 124.977 127.754 125.269 127.674 125.53C127.581 125.791 127.595 126.313 127.621 126.59C127.886 128.725 128.669 135.528 129.371 137.556C130.498 140.812 132.315 144.252 135.709 144.605C137.419 144.774 138.785 144.959 139.978 144.482C141.941 143.73 142.882 143.208 143.651 141.518C144.805 138.953 144.844 136.266 145.083 133.685C145.189 132.472 145.096 126.052 143.956 125.315H143.943Z" fill="#F88757"/>
<path d="M203.032 127.332C199.766 124.832 195.636 124.161 191.698 123.775C191.684 123.775 191.657 123.775 191.643 123.775C191.108 123.733 190.957 123.918 190.929 124.49C190.806 126.361 190.751 128.246 190.792 130.132C190.806 131.103 190.847 132.074 190.874 133.06C190.943 136.445 190.723 141.102 190.655 144.501C190.655 145.058 190.6 145.416 191.149 145.587C191.986 145.873 196.583 146.673 202.689 144.359C204.417 143.702 206.695 142.073 206.97 137.331C207.299 131.446 204.898 128.746 203.032 127.332ZM201.632 136.602C201.467 137.831 201.207 138.974 200.287 139.802C199.217 140.759 198.106 141.073 196.72 141.259C196.349 141.316 195.896 141.316 195.718 140.988C195.622 140.816 195.636 140.616 195.649 140.43C195.842 137.531 195.046 130.46 195.183 129.875C195.444 128.775 198.27 130.489 198.778 130.86C199.711 131.546 200.836 132.603 201.316 133.703C201.701 134.603 201.755 135.631 201.618 136.617L201.632 136.602Z" fill="#F88757"/>
<path d="M285.046 131.755C284.191 131.12 283.303 130.419 282.978 129.418C282.875 129.084 282.841 128.684 283.046 128.383C283.166 128.2 283.371 128.083 283.576 127.999C284.619 127.549 285.883 127.849 286.823 128.483C287.763 129.118 288.464 130.019 289.147 130.92C290.121 132.205 291.386 133.524 292.104 134.942C290.344 135.793 286.464 132.756 285.063 131.738L285.046 131.755Z" fill="#F88757"/>
<path d="M299.265 131.755C300.12 131.137 301.008 130.42 301.333 129.435C301.435 129.101 301.47 128.701 301.265 128.4C301.145 128.217 300.94 128.1 300.735 128.017C299.692 127.566 298.428 127.866 297.488 128.501C296.548 129.135 295.847 130.036 295.164 130.937C294.189 132.222 292.925 133.541 292.207 134.959C293.967 135.811 297.847 132.773 299.248 131.755H299.265Z" fill="#F88757"/>
<path d="M285.046 138.414C284.191 139.031 283.303 139.749 282.978 140.733C282.875 141.067 282.841 141.468 283.046 141.768C283.166 141.952 283.371 142.069 283.576 142.152C284.619 142.603 285.883 142.302 286.823 141.668C287.763 141.034 288.464 140.133 289.147 139.231C290.121 137.946 291.386 136.628 292.104 135.209C290.344 134.358 286.464 137.396 285.063 138.414H285.046Z" fill="#F88757"/>
<path d="M299.265 138.414C300.12 139.031 301.008 139.749 301.333 140.733C301.435 141.067 301.47 141.468 301.265 141.768C301.145 141.952 300.94 142.069 300.735 142.152C299.692 142.603 298.428 142.302 297.488 141.668C296.548 141.034 295.847 140.133 295.164 139.231C294.189 137.946 292.925 136.628 292.207 135.209C293.967 134.358 297.847 137.396 299.248 138.414H299.265Z" fill="#F88757"/>
<path d="M294.241 142.253C294.36 143.288 294.446 144.406 293.933 145.324C293.762 145.641 293.489 145.925 293.113 145.991C292.89 146.025 292.668 145.958 292.463 145.874C291.421 145.441 290.771 144.339 290.6 143.237C290.412 142.136 290.618 141.018 290.823 139.916C291.113 138.347 291.216 136.545 291.78 135.06C293.625 135.727 294.018 140.567 294.241 142.253Z" fill="#F88757"/>
<path d="M294.241 128.684C294.36 127.65 294.446 126.531 293.933 125.613C293.762 125.296 293.489 125.013 293.113 124.946C292.89 124.912 292.668 124.979 292.463 125.063C291.421 125.497 290.771 126.598 290.6 127.7C290.412 128.801 290.618 129.919 290.823 131.021C291.113 132.59 291.216 134.392 291.78 135.878C293.625 135.21 294.018 130.37 294.241 128.684Z" fill="#F88757"/>
<path d="M16.4902 6.81759C15.6357 6.18339 14.7471 5.48242 14.4224 4.48104C14.3198 4.14725 14.2856 3.7467 14.4907 3.44629C14.6103 3.2627 14.8154 3.14587 15.0205 3.06243C16.063 2.61181 17.3276 2.91222 18.2675 3.54642C19.2074 4.18063 19.9081 5.08187 20.5917 5.98311C21.5658 7.26821 22.8304 8.58669 23.5482 10.0053C21.788 10.8565 17.9086 7.81897 16.5073 6.8009L16.4902 6.81759Z" fill="#F88757"/>
<path d="M30.7094 6.81799C31.5638 6.20048 32.4525 5.48282 32.7772 4.49813C32.8797 4.16434 32.9139 3.76379 32.7088 3.46338C32.5892 3.27979 32.3841 3.16296 32.1791 3.07952C31.1366 2.6289 29.872 2.92931 28.932 3.56351C27.9921 4.19772 27.2914 5.09896 26.6079 6.0002C25.6338 7.2853 24.3691 8.60379 23.6514 10.0224C25.4116 10.8736 29.2909 7.83606 30.6923 6.81799H30.7094Z" fill="#F88757"/>
<path d="M16.4902 13.4766C15.6357 14.0941 14.7471 14.8118 14.4224 15.7964C14.3198 16.1302 14.2856 16.5308 14.4907 16.8312C14.6103 17.0148 14.8154 17.1316 15.0205 17.2151C16.063 17.6657 17.3276 17.3653 18.2675 16.7311C19.2074 16.0969 19.9081 15.1956 20.5917 14.2944C21.5658 13.0093 22.8304 11.6908 23.5482 10.2722C21.788 9.42101 17.9086 12.4585 16.5073 13.4766H16.4902Z" fill="#F88757"/>
<path d="M30.7094 13.4766C31.5638 14.0941 32.4525 14.8118 32.7772 15.7964C32.8797 16.1302 32.9139 16.5308 32.7088 16.8312C32.5892 17.0148 32.3841 17.1316 32.1791 17.2151C31.1366 17.6657 29.872 17.3653 28.932 16.7311C27.9921 16.0969 27.2914 15.1956 26.6079 14.2944C25.6338 13.0093 24.3691 11.6908 23.6514 10.2722C25.4116 9.42101 29.2909 12.4585 30.6923 13.4766H30.7094Z" fill="#F88757"/>
<path d="M25.6849 17.3158C25.8045 18.3506 25.89 19.4688 25.3773 20.3867C25.2064 20.7038 24.9329 20.9875 24.557 21.0543C24.3348 21.0877 24.1126 21.0209 23.9076 20.9374C22.8651 20.5035 22.2157 19.402 22.0448 18.3005C21.8568 17.199 22.0619 16.0808 22.267 14.9792C22.5575 13.4104 22.66 11.6079 23.224 10.1226C25.0697 10.7901 25.4627 15.6301 25.6849 17.3158Z" fill="#F88757"/>
<path d="M25.6849 3.74726C25.8045 2.7125 25.89 1.59429 25.3773 0.676364C25.2064 0.35926 24.9329 0.0755366 24.557 0.00877809C24.3348 -0.0246012 24.1126 0.0421574 23.9076 0.125606C22.8651 0.559536 22.2157 1.66105 22.0448 2.76257C21.8568 3.86408 22.0619 4.98229 22.267 6.08381C22.5575 7.65263 22.66 9.45511 23.224 10.9405C25.0697 10.2729 25.4627 5.43291 25.6849 3.74726Z" fill="#F88757"/>
<path d="M310.919 110.457C319.849 107.793 328.231 103.954 335.756 98.7727C343.308 93.6361 349.914 87.21 355.59 79.8614C351.441 88.2375 344.805 95.3594 337.077 100.686C329.309 105.988 320.239 109.607 310.919 110.457Z" fill="#F88757"/>
<path d="M331.378 82.984C324.23 89.1755 320.357 98.9371 321.256 108.359C330.256 103.678 334.456 92.6677 331.346 82.9911L331.378 82.984Z" fill="#F88757"/>
<path d="M349.373 72.5478C344.538 78.3163 342.712 86.4689 344.601 93.7732C351.103 88.9845 353.035 79.7998 349.373 72.5478Z" fill="#F88757"/>
<path d="M352.355 99.9764C345.793 97.8839 338.242 99.119 332.73 103.22C339.062 107.061 347.521 105.526 352.355 99.9764Z" fill="#F88757"/>
<path d="M370.378 80.0502C362.861 79.1085 354.975 81.9981 349.838 87.5469C357.462 90.3986 366.274 87.0541 370.378 80.0502Z" fill="#F88757"/>
</svg>
