<?xml version="1.0" encoding="utf-8"?>
<!-- Generator: Adobe Illustrator 27.5.0, SVG Export Plug-In . SVG Version: 6.00 Build 0)  -->
<svg version="1.1" id="圖層_1" xmlns="http://www.w3.org/2000/svg" xmlns:xlink="http://www.w3.org/1999/xlink" x="0px" y="0px"
	 viewBox="0 0 154 218" style="enable-background:new 0 0 154 218;" xml:space="preserve">
<style type="text/css">
	.st0{fill:none;}
	.st1{fill:#FFFFFF;}
</style>
<g>
	<rect x="-0.1" y="0.1" class="st0" width="154" height="161"/>
	<path class="st1" d="M75.6,0.1c-0.8,0-1.5,1.1-2.2,1.2c-0.8,0.1-1.6-1.1-2.4-1c-0.7,0.1-1.4,1.3-2.1,1.4c-0.8,0.1-1.6-0.5-2.4-0.3
		c-0.7,0.2-1.4,0.7-2.1,0.9c-0.7,0.2-1.6,0-2.3,0.3c-0.7,0.2-1.3,0.9-2,1.2c-0.7,0.3-1.7-0.3-2.5,0c-0.7,0.3-0.9,1.8-1.5,2.1
		c-0.7,0.3-1.2,0.9-1.9,1.2c-0.7,0.4-1.9-0.3-2.6,0.1c-0.7,0.4-1,1.3-1.6,1.7c-0.7,0.4-1.3,0.8-1.9,1.2c-0.6,0.4-1.4,0.5-2.1,1
		c-0.6,0.4-0.7,1.6-1.3,2c-0.6,0.5-1.4,0.6-2,1.1c-0.6,0.5-1.2,0.9-1.8,1.4c-0.6,0.5-1.5,0.6-2.1,1.1c-0.6,0.5-0.5,1.6-1.1,2.2
		c-0.6,0.5-1.9,0.3-2.4,0.8c-0.5,0.5-0.7,1.4-1.3,2s-0.3,1.7-0.9,2.3c-0.5,0.6-1.8,0.4-2.3,1c-0.5,0.6-0.9,1.2-1.4,1.8
		c-0.5,0.6-0.7,1.4-1.2,2c-0.5,0.6-0.6,1.4-1.1,2c-0.4,0.6-1.4,0.9-1.8,1.5c-0.4,0.6-0.9,1.2-1.3,1.9c-0.4,0.6-0.7,1.4-1.1,2
		s-0.5,1.5-0.9,2.1c-0.4,0.7-0.9,1.2-1.3,1.9c-0.4,0.7-1.4,0.9-1.8,1.6c-0.4,0.6-0.4,1.5-0.8,2.1c-0.4,0.7-0.4,1.5-0.8,2.2
		c-0.3,0.7-0.5,1.4-0.9,2.1c-0.3,0.7-1.2,1.1-1.5,1.8c-0.3,0.7-0.5,1.4-0.8,2.1c-0.3,0.7-0.1,1.6-0.4,2.3c-0.3,0.7-1.9,0.8-2.2,1.5
		c-0.3,0.7,0.7,1.9,0.4,2.6c-0.3,0.7-0.9,1.3-1.1,2c-0.3,0.7-0.7,1.4-0.9,2c-0.3,0.7-1.3,1.1-1.5,1.9c-0.3,0.7,0.4,1.7,0.1,2.5
		c-0.3,0.7-1.2,1.2-1.4,1.9c-0.2,0.7-0.6,1.4-0.9,2.1c-0.2,0.7-0.3,1.5-0.5,2.2c-0.2,0.7,0.3,1.6,0.1,2.4c-0.2,0.8,0.1,1.6-0.1,2.3
		c-0.2,0.7-1.3,1.2-1.4,2c-0.2,0.8,0.4,1.7,0.3,2.4c-0.2,0.7-0.9,1.4-1.1,2.1c-0.2,0.7-0.7,1.4-0.9,2.1c-0.2,0.7-0.3,1.5-0.4,2.2
		c-0.1,0.8-0.4,1.5-0.5,2.2c-0.1,0.8,0.6,1.6,0.5,2.4C2.2,93.6,1,94.3,0.9,95c-0.1,0.8,0.1,1.5,0,2.3c-0.1,0.8,0.9,1.6,0.8,2.4
		c-0.1,0.8-0.8,1.4-0.8,2.2c0,0.8,0.7,1.5,0.6,2.3c0,0.8-1.6,1.4-1.7,2.2c0,0.8,0.4,1.5,0.4,2.3c0,0.8,1,1.5,1,2.3
		c0,0.8,0,1.5,0,2.2c0,0.8-0.5,1.5-0.5,2.3c0,0.8-0.5,1.6-0.5,2.3c0,0.8-0.2,1.6-0.2,2.3c0,0.8,0.5,1.5,0.6,2.3
		c0.1,0.8,0.6,1.5,0.7,2.2c0.1,0.8,0.5,1.5,0.6,2.2c0.1,0.8-0.2,1.6-0.1,2.3s0.1,1.5,0.2,2.3c0.1,0.8,0.1,1.5,0.3,2.3
		c0.2,0.8,1.1,1.3,1.3,2c0.2,0.8-0.4,1.7-0.2,2.4c0.2,0.7,0.9,1.3,1.2,2c0.2,0.7,0.2,1.5,0.5,2.3c0.3,0.7,1.3,1.1,1.6,1.8
		c0.3,0.7-0.5,1.8-0.2,2.5c0.3,0.7,1,1.2,1.3,1.9c0.3,0.7,0.8,1.3,1.2,2c0.3,0.7,0.1,1.7,0.5,2.3c0.3,0.7,1.3,1,1.7,1.7
		c0.4,0.7,0.1,1.7,0.5,2.4c0.4,0.7,1.5,0.9,1.9,1.5c0.4,0.6,0.7,1.3,1.2,1.9c0.1-0.8,0.3-1.4,0.3-2.2c0-0.8,0.5-1.5,0.6-2.2
		c0.1-0.8-0.4-1.6-0.3-2.3c0.1-0.8-0.4-1.6-0.3-2.3s1.4-1.4,1.4-2.1c0.1-0.8-1.1-1.7-1-2.4c0.1-0.8,0.8-1.4,0.9-2.2
		c0.1-0.8-0.3-1.6-0.2-2.3c0.1-0.8,0.3-1.5,0.4-2.2c0.1-0.7,0.3-1.5,0.5-2.2c0.1-0.8,0.3-1.5,0.4-2.2c0.2-0.7,1.4-1.3,1.5-2
		c0.2-0.8,0.2-1.5,0.4-2.2c0.2-0.7-0.4-1.6-0.3-2.4c0.2-0.8,0.3-1.5,0.5-2.2c0.2-0.8,1.2-1.3,1.4-2c0.2-0.8-0.4-1.7-0.2-2.4
		c0.2-0.7,0.8-1.4,1-2.1c0.2-0.8-0.4-1.7-0.2-2.5c0.2-0.7,0.4-1.5,0.7-2.2c0.2-0.7,0.6-1.4,0.8-2.1c0.2-0.7,1-1.3,1.3-2
		c0.3-0.7,1-1.2,1.3-2c0.3-0.7,0.6-1.4,0.9-2.1c0.3-0.7,0.4-1.5,0.7-2.2c0.3-0.7,0.2-1.6,0.5-2.3s0.3-1.5,0.6-2.2
		c0.3-0.7,0.7-1.4,1-2c0.3-0.7,0.4-1.5,0.8-2.2c0.3-0.7,0.6-1.4,0.9-2.1c0.3-0.7,1.3-1.1,1.6-1.7c0.3-0.7-0.1-1.8,0.3-2.4
		c0.4-0.7,0.8-1.4,1.2-2c0.4-0.6,1-1.2,1.4-1.9c0.4-0.6,0.7-1.4,1.1-2c0.4-0.6,1.6-0.8,2-1.4c0.4-0.6,0.7-1.4,1.2-2
		c0.4-0.6,0.9-1.3,1.3-1.9c0.5-0.6,0.8-1.3,1.3-1.9s0.7-1.4,1.2-2c0.5-0.6,1.4-0.8,1.9-1.4c0.5-0.6,0.8-1.4,1.3-1.9
		c0.5-0.5,1.5-0.6,2-1.2c0.5-0.5,0.6-1.6,1.2-2.1s1.8-0.3,2.4-0.7c0.6-0.5,1-1.1,1.6-1.6c0.6-0.5,1.1-1,1.8-1.4
		c0.6-0.4,1-1.2,1.7-1.6c0.6-0.4,1.5-0.4,2.2-0.8c0.7-0.3,1.6-0.1,2.3-0.4c0.7-0.3,1.2-1,1.9-1.3c0.7-0.3,1.4-0.5,2.1-0.7
		c0.7-0.2,1.2-1.3,2-1.4c0.7-0.2,1.5-0.6,2.2-0.7c0.7-0.1,1.7,0.9,2.4,0.8c0.7-0.1,1.4-1.3,2.1-1.4c0.8-0.1,1.5,0.7,2.3,0.7
		c0.8,0,1.5-0.4,2.3-0.3c0.8,0,1.5,0.3,2.3,0.4c0.8,0.1,1.6-0.1,2.3,0.1c0.8,0.2,1.2,1.4,2,1.6c0.7,0.2,1.6-0.3,2.4,0
		c0.7,0.3,1.3,0.9,2,1.1c0.7,0.3,1.6,0.2,2.3,0.5c0.7,0.3,1.3,0.9,2,1.2c0.7,0.3,1.7,0.2,2.3,0.5c0.7,0.4,1.1,1.1,1.8,1.5
		c0.6,0.4,1.4,0.7,2,1.2c0.6,0.4,0.6,1.7,1.2,2.2c0.6,0.5,1.7,0.4,2.2,0.9s0.4,1.8,1,2.3c0.5,0.5,1.7,0.4,2.3,0.9
		c0.5,0.5,0.9,1.2,1.4,1.8c0.5,0.6,0.4,1.6,0.9,2.2c0.5,0.6,1.9,0.4,2.4,1c0.5,0.6,1,1.2,1.5,1.8c0.5,0.6,0.4,1.6,0.9,2.2
		c0.4,0.6,0.7,1.3,1.2,2c0.4,0.6,0.7,1.4,1.1,2c0.4,0.6,1.4,0.9,1.8,1.6c0.4,0.6,0.3,1.5,0.8,2.2c0.4,0.7,1.7,0.8,2.1,1.4
		c0.4,0.7-0.3,1.9,0.1,2.6c0.4,0.7,1.8,0.8,2.1,1.4c0.3,0.7,0.5,1.4,0.8,2.1c0.3,0.7,0.3,1.5,0.6,2.2c0.3,0.7-0.1,1.7,0.2,2.4
		c0.3,0.7,1.6,0.9,1.9,1.6c0.3,0.7,0.6,1.4,0.9,2.1c0.3,0.7-0.1,1.7,0.2,2.4c0.3,0.7,1.2,1.2,1.5,1.9c0.3,0.7-0.5,1.8-0.2,2.5
		c0.3,0.7,0.5,1.4,0.8,2.1c0.3,0.7,0.5,1.4,0.8,2.1c0.2,0.7,0.8,1.3,1,2c0.2,0.7,0.5,1.4,0.7,2.1c0.2,0.7,0.7,1.4,0.9,2.1
		c0.2,0.7-0.2,1.6,0,2.4s1.2,1.3,1.4,2c0.2,0.7,0.3,1.5,0.5,2.2c0.2,0.8,0.2,1.5,0.3,2.3c0.2,0.8,0.1,1.5,0.3,2.3
		c0.2,0.8,0.4,1.5,0.5,2.2s-0.6,1.6-0.4,2.4c0.1,0.8,1.1,1.4,1.3,2.1c0.1,0.7-0.1,1.5,0,2.3c0.1,0.8,1,1.4,1.1,2.1
		c0.1,0.8-1.2,1.7-1.1,2.5c0.1,0.8,0.9,1.4,0.9,2.2c0.1,0.8-0.3,1.5-0.2,2.3c0.1,0.8,1.1,1.4,1.2,2.2c0.1,0.8-0.1,1.5,0,2.3
		c0.1,0.8-0.6,1.6-0.5,2.3c0.1,0.8,0.4,2,0.5,2.7c0.5-0.6,0.8-1.9,1.2-2.5c0.4-0.6,0.6-1.4,1-2c0.4-0.6,1.7-0.8,2-1.4
		c0.4-0.6,1-1.2,1.4-1.9c0.4-0.7,0.6-1.4,0.9-2.1c0.3-0.7,0.6-1.4,0.9-2.1c0.3-0.7,0.5-1.4,0.8-2.1c0.3-0.7,0.8-1.3,1.1-2
		c0.3-0.7,0.7-1.4,0.9-2.1c0.3-0.7-0.5-1.8-0.3-2.5c0.2-0.7,1.1-1.2,1.4-2c0.2-0.8-0.4-1.7-0.2-2.4c0.2-0.7,1.6-1.2,1.8-1.9
		c0.2-0.8,0.2-1.5,0.3-2.3c0.2-0.7-0.6-1.7-0.5-2.4c0.1-0.8,0.5-1.4,0.6-2.2c0.1-0.8-0.4-1.6-0.3-2.3c0.1-0.8,0.2-1.5,0.3-2.3
		c0.1-0.8,0.7-1.4,0.7-2.2c0.1-0.8-0.2-1.5-0.2-2.3c0-0.8,0.2-1.5,0.2-2.3c0-0.8-0.3-1.5-0.3-2.3c0-0.8,0.7-1.5,0.7-2.3
		c0-0.8-0.6-1.5-0.6-2.2c0-0.8,0.1-1.5,0.1-2.3c0-0.8-0.4-1.5-0.5-2.2c-0.1-0.8,0.8-1.6,0.8-2.3c-0.1-0.8-0.3-1.5-0.4-2.2
		c-0.1-0.8-0.6-1.4-0.7-2.2c-0.1-0.8-0.4-1.4-0.5-2.2c-0.1-0.8,0.8-1.6,0.6-2.4c-0.1-0.8-1.3-1.3-1.4-2c-0.1-0.7,1.1-1.7,1-2.5
		c-0.1-0.8-0.9-1.4-1-2.1c-0.2-0.7-0.8-1.4-0.9-2.1c-0.2-0.7-0.7-1.4-0.9-2.1c-0.2-0.7,0.3-1.6,0.1-2.4c-0.2-0.7-0.9-1.3-1.1-2
		c-0.2-0.7-0.3-1.5-0.5-2.2c-0.2-0.7-0.7-1.4-0.9-2.1c-0.2-0.7,0.8-1.8,0.5-2.6c-0.2-0.7-0.5-1.4-0.8-2.1c-0.2-0.7-0.3-1.5-0.5-2.2
		c-0.3-0.7-0.5-1.4-0.7-2.2c-0.3-0.7-1.5-1-1.8-1.7c-0.3-0.7-0.7-1.4-0.9-2c-0.3-0.7,0-1.6-0.3-2.3c-0.3-0.7-0.8-1.3-1.1-2
		c-0.3-0.7-0.9-1.3-1.2-2c-0.3-0.7,0.1-1.7-0.2-2.4c-0.3-0.7-1.1-1.1-1.5-1.8c-0.3-0.7-0.6-1.4-0.9-2.1c-0.3-0.7-1.3-1-1.6-1.7
		c-0.4-0.7,0-1.7-0.4-2.4c-0.4-0.7-1.5-0.9-1.9-1.5c-0.4-0.7-0.8-1.3-1.2-2c-0.4-0.7-0.5-1.5-0.9-2.1c-0.4-0.7-1.2-1-1.6-1.6
		c-0.4-0.6-0.8-1.3-1.3-1.9c-0.4-0.6-0.6-1.4-1-2c-0.4-0.6-0.9-1.2-1.4-1.8c-0.5-0.6-1-1.1-1.5-1.7c-0.5-0.6-1.1-1.1-1.5-1.6
		c-0.5-0.6-0.2-1.8-0.7-2.4c-0.5-0.6-0.8-1.4-1.3-1.9c-0.5-0.6-2-0.3-2.5-0.8c-0.5-0.6-0.9-1.3-1.4-1.8c-0.5-0.5-1.1-1-1.7-1.5
		c-0.5-0.5-0.5-1.7-1-2.2c-0.5-0.5-1.6-0.4-2.2-0.9s-0.9-1.3-1.5-1.7c-0.6-0.5-1.1-1-1.7-1.5c-0.6-0.5-1.3-0.8-1.9-1.2
		c-0.6-0.4-1.6-0.3-2.2-0.7c-0.6-0.4-1.1-1.1-1.7-1.5c-0.6-0.4-1.2-0.9-1.9-1.3c-0.7-0.3-1-1.3-1.7-1.7c-0.7-0.3-1.4-0.7-2-1
		c-0.7-0.3-1.7,0.1-2.4-0.2c-0.7-0.3-1.2-1-1.9-1.3c-0.7-0.3-1.3-1-2-1.2C91,2.1,90.3,2,89.5,1.8S87.9,2.2,87.1,2
		c-0.7-0.2-1.4-0.4-2.2-0.6S83.5,1,82.8,0.9C82,0.8,81.3,0,80.6,0c-0.8-0.1-1.5,0.3-2.3,0.2C77.5,0.1,76.4,0.1,75.6,0.1z M98.2,41
		c0,0,0.9,0.6,0.9,0.7c-0.3,0.8-1.7,1.2-2,2s0.5,2,0.2,2.8c-0.3,0.7-1.3,1.2-1.6,1.9s-0.2,1.6-0.5,2.3c-0.2,0.5-0.8,1-1,1.5
		S94,53.5,93.7,54c0,0-0.9-0.2-0.9-0.1c-0.2,0.7-0.4,1.9-1.1,1.6c-0.7-0.3-1.4-0.3-2.1-0.4s-1-1.5-1.7-1.7c-0.7-0.2-1.5,0.3-2.2,0.1
		c-0.7-0.1-1.4-0.3-2.1-0.4c-0.7-0.1-1.4-0.6-2.1-0.7c-0.7-0.1-1.5,0.7-2.2,0.7c-0.7,0-1.4-0.5-2.1-0.5c-0.9,0-1.7-0.1-2.5,0
		c-0.8,0.1-1.7-0.5-2.6-0.4c-0.9,0.1-1.5,1-2.4,1.2c-0.7,0.1-1.6-0.8-2.4-0.7c-0.7,0.1-1.4,0.7-2.1,0.9c-0.7,0.2-1.1,1.1-1.8,1.3
		c-0.3,0.4-1.2-0.4-1.7-0.8c-0.5-0.4-0.9-0.9-1.3-1.4s-1-0.9-1.3-1.5c-0.3-0.6-1-1-1.3-1.5c-0.3-0.6-0.1-1.5-0.4-2
		c-0.3-0.6-0.6-1.2-0.9-1.8c-0.3-0.6-0.8-1.1-1-1.7c-0.3-0.6-0.9-1.1-1.2-1.7c-0.3-0.6-0.4-1.3-0.6-1.9c-0.4-0.9,0.8-1.7,1.8-1.4
		c0.7,0.3,1.5,0.2,2.1,0.4c0.7,0.3,1.5,0.2,2.1,0.5c0.7,0.3,1.4,0.4,2.1,0.7c0.7,0.3,1.1,1.1,1.8,1.4c0.7,0.3,1.4,0.4,2.1,0.7
		c0.7,0.3,1.1,0,1.8,0.3c0.3-0.6,1.6-0.3,1.9-0.9c0.3-0.6-0.5-1.9-0.2-2.6c0.3-0.6,1-1.1,1.3-1.8c0.3-0.7,0.8-1.2,1.2-1.8
		c0.4-0.6,1.4-0.9,1.8-1.5c0.3-0.6-0.1-1.7,0.3-2.4c0.3-0.6,1.4-0.9,1.7-1.5c0.3-0.6,0.9-1.2,1.2-1.8c0.5-0.9,0.9-1,1.4-0.1
		c0.3,0.7,1.3,1,1.6,1.7c0.3,0.7,1.1,1.1,1.5,1.7c0.3,0.7-0.2,1.7,0.2,2.4c0.3,0.7,1.4,0.9,1.7,1.6c0.3,0.7,0.1,1.6,0.4,2.2
		c0.3,0.7,0.3,1.5,0.6,2.1c0.3,0.7,0.9,1.5,1.2,2.2c0.7-0.4,1.7-0.8,2.4-1.2c0.7-0.4,1-1.5,1.7-1.9c0.7-0.4,1.9,0.2,2.6-0.2
		c0.7-0.4,1.3-0.9,2-1.3c0.7-0.4,1-1.7,1.8-2c0.7-0.3,1.7-0.1,2.5-0.4c1.1-0.4,2.6,0.9,2.5,1.8c-0.1,0.7-1.8,1-2.1,1.7
		C98.6,39.8,98.5,40.4,98.2,41L98.2,41z"/>
	<path class="st1" d="M59.1,96.4c2.1,0,3.8-1.7,3.8-3.8c0-2.1-1.7-3.8-3.8-3.8s-3.8,1.7-3.8,3.8C55.4,94.7,57.1,96.4,59.1,96.4z"/>
	<path class="st1" d="M95.8,96.4c2.1,0,3.8-1.7,3.8-3.8c0-2.1-1.7-3.8-3.8-3.8s-3.8,1.7-3.8,3.8C92.1,94.7,93.8,96.4,95.8,96.4z"/>
	<path class="st1" d="M65,105.2h24.3l-7.6-7.8c-2.5-2.6-6.6-2.6-9.1,0L65,105.2z"/>
	<path class="st1" d="M65,105.2l7.6,3.5c2.5,1.1,6.6,1.1,9.1,0l7.6-3.5H65z"/>
	<path class="st1" d="M34.7,214.8c0.1,0.1,0.1,0.1,0.2,0.2c0,0.2-0.1,1.1-0.1,1.3c-0.1,0.8,0,1.5-0.9,1.7c-0.6,0.1-1.2-0.1-1.8-0.1
		c-0.6,0-1.4-0.1-2-0.3c-1.2-0.4-2.5-1.2-3.2-2.4c-0.8-1.2-1-2.6-0.9-4c0-1.1,0.4-2.3,1.1-3.1c0.9-1.1,1.8-2,3.1-2.6
		c0.7-0.3,1.5-0.5,2.3-0.5c0.4,0,0.8,0,1.2,0.1c0.3,0.1,0.8,0.1,1,0.4c0.1,0.2,0,0.6,0,0.8c0,0.6,0,1.2,0,1.7
		c-0.1,0.7-0.9,0.4-1.4,0.6c-0.5,0.2-1,0.5-1.4,0.9c-0.7,0.7-1.1,1.8-0.9,2.9c0.1,0.5,0.2,1,0.6,1.3c0.2,0.2,0.5,0.3,0.8,0.4
		c0.5,0.2,1.1,0.4,1.6,0.5C33.9,214.7,34.4,214.6,34.7,214.8L34.7,214.8z"/>
	<path class="st1" d="M69.7,214.8c0.1,0.1,0.1,0.1,0.2,0.2c0,0.2-0.1,1.1-0.1,1.3c-0.1,0.8-0.1,1.5-0.9,1.7
		c-0.6,0.1-1.2-0.1-1.8-0.1c-0.6,0-1.4-0.1-2-0.3c-1.2-0.4-2.5-1.2-3.2-2.4c-0.8-1.2-1-2.6-0.9-4c0-1.1,0.4-2.3,1.1-3.1
		c0.9-1.1,1.8-2,3.1-2.6c0.7-0.3,1.5-0.5,2.3-0.5c0.4,0,0.8,0,1.2,0.1c0.3,0.1,0.8,0.1,1,0.4c0.1,0.2,0,0.6,0,0.8c0,0.6,0,1.2,0,1.7
		c-0.1,0.7-0.9,0.4-1.4,0.6c-0.5,0.2-1,0.5-1.4,0.9c-0.7,0.7-1.1,1.8-0.9,2.9c0.1,0.5,0.2,1,0.6,1.3c0.2,0.2,0.5,0.3,0.8,0.4
		c0.5,0.2,1.1,0.4,1.6,0.5C68.9,214.7,69.4,214.6,69.7,214.8L69.7,214.8z"/>
	<path class="st1" d="M80.6,216.4c-0.1-0.3-0.4-0.7-0.4-0.8c-0.4-0.7-0.7-1.4-1.1-2c-0.2-0.3-0.4-0.7-0.6-1
		c-0.2-0.3-0.2-0.4,0.1-0.7c1.4-1,2.7-2.1,4.1-3.2c0.1-0.1,0.2-0.2,0.2-0.3c0-0.1-0.1-0.1-0.1-0.2c-0.6-0.5-1.2-1-1.8-1.5
		c-0.1-0.1-0.3-0.3-0.4-0.1c-1.2,0.9-2.3,1.9-3.5,2.9c-0.3,0.3-0.7,0.6-1,0.9c-0.3,0.3-0.5,0.4-0.6,0c-0.1-0.6,0-1.1,0-1.7
		c0-0.7,0.2-1.3,0.5-1.9c0-0.1,0-0.1,0-0.2c0-0.2-0.2-0.2-0.4-0.2c-0.3,0-0.6-0.1-0.9-0.1c-0.6,0-1.1,0-1.7-0.1
		c-0.3,0-0.4,0.3-0.4,0.6c-0.1,1.7-0.3,3.5-0.4,5.2c-0.1,0.9-0.1,1.7-0.2,2.6c0,0.5-0.1,1-0.1,1.6c0,0.5,0.1,0.5,0.5,0.5
		c1,0.1,2,0.3,3.1,0.2c0.1,0,0.3-1.5,0.3-1.6c0-0.2,0-1.3,0.3-1.2c0.1,0,0.1,0.1,0.2,0.2c0.4,0.7,0.8,1.5,1.2,2.2
		c0.2,0.3,0.3,0.7,0.7,0.7c0.4,0.1,0.8,0,1.2,0c0.3,0,0.7,0,1,0C80.8,217.1,80.8,216.8,80.6,216.4z"/>
	<path class="st1" d="M44.8,216.8c0,0,0-0.1,0-0.2c0.1-0.8,0.1-1.8,0-2.6c0-0.1,0-0.2-0.1-0.3c-0.1-0.1-0.3-0.1-0.5-0.1
		c-0.7,0.1-1.5-0.1-2.2-0.1c-0.3,0-0.6,0.1-0.7-0.3c-0.1-0.3,0-0.6,0-0.9c0-0.5,0-1.1,0-1.6c0-1.1,0-2.1,0.1-3.2c0-0.3,0-0.7,0-1
		c0-0.1,0-0.1,0-0.2c-0.1-0.1-0.2-0.1-0.3-0.2c-0.9,0-1.8,0-2.7,0c-0.2,0-0.4,0-0.5,0.2c-0.1,0.2,0,0.5,0,0.7c0.2,1.5,0.2,3,0.1,4.5
		c0,0.8-0.1,1.5-0.1,2.3c0,0.4,0,0.8,0.1,1.1c0,0.5,0,1.7,0.6,1.9c0.5,0.2,1.2-0.1,1.7-0.1c0.6,0,1.2,0.1,1.8,0.1
		c0.5,0,1,0.1,1.6,0.1c0.2,0,0.5,0.1,0.7,0C44.6,217,44.7,217,44.8,216.8L44.8,216.8z"/>
	<path class="st1" d="M126.9,216.2c0-0.5-0.3-1.1-0.4-1.5c-0.5-1.7-1-3.5-1.4-5.2c-0.3-1.1-0.6-2.1-1.2-3.1
		c-0.1-0.2-0.3-0.4-0.6-0.4c-0.1,0-0.2,0.1-0.3,0.2c-0.6,0.6-1.2,1.2-1.8,1.9c-0.7,0.8-1.4,1.5-2.1,2.4c-0.4,0.5-0.9,0.9-1.4,0.3
		c-1.2-1.2-2.1-2.9-3.4-4c-0.3-0.3-0.7-0.6-1.1-0.4c-0.2,0.1-0.4,0.4-0.4,0.7c-1.1,3-2,6-2.8,9c-0.1,0.2-0.1,0.4-0.1,0.6
		c1.5,0.2,3,0.2,4.5,0.1c-0.1-1.2,0.1-2.3,0.2-3.4c0.1-0.8,0.5-1.1,1.2-0.4c0.8,0.8,1.2,2,2,2.7c0.4,0.4,0.8,0.7,1.2,0.1
		c0.4-0.6,0.6-1.5,1.1-2.1c0.3-0.4,1.7-2,2.3-1.3c0.3,0.3,0.1,1.4,0.1,1.7c0,0.4,0,0.8,0,1.2c0,0.2-0.2,1-0.1,1.2
		c0.2,0.3,0.4,0.5,0.7,0.5c0.7,0,1.3-0.2,2-0.2c0.5,0,1.1,0.2,1.5-0.1C126.8,216.6,126.9,216.4,126.9,216.2L126.9,216.2z"/>
	<path class="st1" d="M106.8,207.6c-1.1-2.3-3.7-3.1-6-2.3c-2.3,0.8-3.5,2.9-3.8,5.2c-0.2,1.4-0.2,3,0.5,4.3
		c0.3,0.6,0.6,1.1,1.1,1.5c1.1,1.2,2.7,1.8,4.3,1.6c0.4,0,0.8-0.1,1.1-0.3c2-0.7,3.6-2.8,3.9-4.8C108,211.2,107.6,209.2,106.8,207.6
		L106.8,207.6z M104.6,213c-0.2,0.5-0.5,0.9-0.9,1.2c-0.7,0.5-1.8,0.3-2.5-0.2c-0.7-0.6-1-1.5-1-2.4c0-1.1,0.4-2.6,1.5-3.2
		c0.9-0.5,1.8-0.3,2.5,0.4c0.3,0.4,0.6,0.9,0.7,1.4C105,211.2,104.9,212.2,104.6,213L104.6,213z"/>
	<path class="st1" d="M58.2,206.3c-0.2-0.1-0.6-0.2-1-0.2c-0.6,0-1,0.1-0.9,0.7c0.1,0.6,0.2,3.4,0.2,4c0,0.4-0.1,0.9-0.2,1.3
		c-0.2,0.6-0.4,0.9-0.8,1.3c-0.2,0.2-1,0.4-1.2,0.4c-0.5,0-1.1,0-1.5-0.3c-1.5-0.8-2-4.6-2.1-6.1c-0.1-0.7,0-1.2-0.8-1.3
		c-0.5-0.1-1.8,0.1-1.9,0.2c-0.1,0.1,0,0.4,0,0.6c0.2,1.2,0.7,5,1.1,6.1c0.7,1.8,1.8,3.7,4,3.9c1.1,0.1,1.9,0.2,2.7-0.1
		c1.2-0.4,1.8-0.7,2.3-1.6c0.7-1.4,0.7-2.9,0.9-4.3C58.9,210.2,58.9,206.7,58.2,206.3L58.2,206.3z"/>
	<path class="st1" d="M92.7,207.1c-1.8-1.5-4.1-1.9-6.2-2.1c0,0,0,0,0,0c-0.3,0-0.4,0.1-0.4,0.4c-0.1,1.1-0.1,2.2-0.1,3.3
		c0,0.6,0,1.1,0,1.7c0,2-0.1,4.7-0.1,6.7c0,0.3,0,0.5,0.3,0.6c0.5,0.2,3,0.6,6.4-0.7c1-0.4,2.2-1.3,2.4-4.1
		C95.1,209.5,93.7,208,92.7,207.1z M91.9,212.6c-0.1,0.7-0.2,1.4-0.7,1.9c-0.6,0.6-1.2,0.7-2,0.9c-0.2,0-0.5,0-0.6-0.2
		c-0.1-0.1,0-0.2,0-0.3c0.1-1.7-0.3-5.8-0.3-6.2c0.1-0.6,1.7,0.4,2,0.6c0.5,0.4,1.1,1,1.4,1.7C92,211.4,92,212,91.9,212.6
		L91.9,212.6z"/>
	<path class="st1" d="M25.9,179.4l1-0.6l1.9-0.7l0.7,1.3l0.6,1.2l-1.6,0.8l-1.2,0.3l-0.6-1.3L25.9,179.4L25.9,179.4z M40.2,173.7
		l2.3,0.8l1.3,1l-1.5,3.1l1.6,0.1l-0.4-0.5l1.4-2l0.9-1.9l2.3,1.1l0.9,0.9l-1.3,2l-0.4,0.5l2.6,0.1v1.9l-0.2,1.9l-2.5-0.2l-0.3,0
		l-0.1,0.9l0,0.8l2.5,0.1v2l-0.2,1.4l-2.4-0.2l0,1.1l0,0.4l2.5,0.1l0,2.5l-0.1,0.9l-2.3-0.2v1.4l1.6,0.1l1.8,0.1l0,1.7l-0.2,1.8
		l-3.5-0.3l-2.8-0.1h-4.2l-1.6-0.3l0.2-6.8l-0.9,0.3l-2.1,0.3l-0.1-0.9l-0.9,0l-1.8,0.2l1.8,0.3l-0.2,0.7l2.4,0l1.3,0.1l0.1,1.8
		l-0.2,1l-1.5-0.1l0.6,0.5l1.2,1.2L36,196l-1.6,0.4l-0.9-1l-1-1.1l-0.6-0.4l-1.3,1.6l-0.8,0.9l-2-0.5l-1.1-0.9l1.1-1.2l0.6-0.7
		l-1.8,0.1l-0.2-1.4v-1.3l2.3-0.1h1l0.1-0.7l-0.8,0.1l-1.9,0.2l-0.5-1l-0.4-1.7l1.2-0.9l1.2-0.7l-1.1-0.6l-0.5-0.8l-0.4-1.2l0.8-0.5
		l2.1-1.3l1.3-0.7l-0.5-1l-0.7-1l1.3-0.8l1.4-0.5l-1.2,0.2l-3.9,0.6l-0.4-1l-0.2-2.1l2.5-0.3l3.6-0.7l3.1-0.9l0.8,1.5l0.5,1.7
		l-1.4,0.3l0.9,0.2l1.5,0.8l-0.8,1.9l-0.5,1.1l-0.7,1.1l-1.6-0.5l-1.2-0.7l0.3-0.5l-1,0.5l-0.1,0l0.5,0.4l0.8,1.2l-1.9,0.9l-1.2,0.8
		l0.6,0.4l3.4-2l1.3,1.1l0.7,1.4l-3.9,1.8l-1.8,0.9l2.2-0.2L34,187l-0.2-0.5l1.1-0.5l1.8-0.3l0.9,1.8l0.3,0.9l0.1-2.2l0-3.3
		l-0.7-0.5l-0.7-0.8l1.5-2.2l1.4-3.1L40.2,173.7L40.2,173.7z M32.4,177.2l0.7,1l0.7,1.4l0,0l0.8-2.1l0.1-0.7h0L32.4,177.2z
		 M41.6,183.6l1.5,0.1l0-1.7H43l-1.3,0l0,0.5L41.6,183.6L41.6,183.6z M41.4,188.4l1.5,0.1l0.1-1.6l-1.5,0L41.4,188.4z M41.4,191.7
		l0,1.6h1.4l0.1-1.5L41.4,191.7z"/>
	<path class="st1" d="M55.9,172.4l8.8-0.2l6.1-0.1h3.5l0.8,1.3l0.4,1l-0.1,0.8l-0.4,0.7l-1.1,1.2l-1.7-0.8c0,0-0.1,0-0.1,0
		c0,0.4,0,0.7,0,1.1l-0.1,1.4l-4.4,0.1l-0.8,0l0,0.6c0.3,0,0.6,0.1,0.9,0.1l4.7,0.3h4.2l-0.3,1.4l-0.6,1.6l-4.2-0.4l-6.7-0.6
		l-5.9-0.9c-0.2,0-0.4-0.1-0.6-0.2l-0.4,1.4l-0.4,0.8l-1.4-0.3l-2.2-0.7l0.4-0.9l0.5-1.2l0.6-2.1l0.3-1.7l2,0.2l1.7,0.3l-0.3,1.5
		l2.1,0.4l1.7,0.3l0.1-1.9c0-0.6,0-1.3-0.1-1.9l-6.6,0.2l-0.1-1.7L55.9,172.4L55.9,172.4z M54.9,191.1l5.5-0.1l2.8-0.1
		c0-0.4,0-0.8,0-1.2l-4.9,0.2h0h0c-0.6,0-1.2,0-1.8,0l-0.1-2.1l-0.1-1.8l-0.1-2l2-0.3l2.1-0.1v0c0.4,0,0.8-0.1,1.2-0.1l1.6-0.1
		l0-1.2l2.7,0l1.4,0c0,0.3,0,0.6,0,0.9l3.8-0.1l2.3,0.1l1,0.6v2.4l0,2.9l0.6-0.2l0.8,1.2l0.8,1.5l0.5,1.2l-1.2,0.5l-2.3,0.6
		c-0.1-0.3-0.2-0.6-0.4-0.8l-8.1,0.4l-4.5,0.2l-5.5,0.2l0-1.6L54.9,191.1L54.9,191.1z M60.2,187.4l1.3,0c0.5,0,1.1,0,1.6-0.1v0l0-1
		l-1.7,0.1c-0.4,0-0.9,0-1.3,0.1c0,0.2,0,0.5,0,0.7L60.2,187.4L60.2,187.4z M71.7,176.1l-1.2-0.4l0.3-0.4l0.1-0.3h-3.4
		c-0.2,0-0.5,0-0.7,0c0,0.4,0,0.8-0.1,1.2l1.1,0L71.7,176.1L71.7,176.1z M70.1,187.1c0-0.1,0-0.2,0-0.3l0-0.7l-2.8,0H67
		c0,0.4,0,0.7,0,1.1L70.1,187.1L70.1,187.1z M71.8,190.5c-0.1-0.2-0.2-0.4-0.2-0.5l1.9-0.5l-1.4,0h-2v0l-1.7,0l-1.2,0.1v0.2l0.1,1
		L71.8,190.5L71.8,190.5z"/>
	<path class="st1" d="M83.6,183.6l2.2,0.1h2.6c0-0.8,0-1.6,0.1-2.3l0-2.4l-1,0h-5.1l-0.2-1.6v-2.3l4,0l6.2,0.1l7.4,0.2v2.3l-0.3,1.7
		l-5.8-0.3l-1.1,0l-0.3,4.4v0.2l5.2,0.2l0,2.2l-0.1,1.7l-5.2-0.2l-0.1,2.4l0,2l3.5,0.1l5.1,0.2l-0.1,2.1l-0.3,1.8l-0.9-0.1l-5.1-0.2
		l-8-0.2l-6.3-0.1l-0.2-1.6l-0.1-1.8l2.5-0.2l5.7,0.1l0.2-2.6l0-1.8l-4.4,0l-0.3-1.5L83.6,183.6L83.6,183.6z"/>
	<path class="st1" d="M105.4,174.3l1.4-0.1l2-0.2v0.2c3,0,6,0.1,9,0.1l7.1,0.3l2.1,0.3l0.9,0.6l-0.4,11.3l-0.4,7.9l-0.1,2.3
		l-1.5-0.2l-2.1-0.2l-4.5-0.1l-11.9-0.4h-0.7l-1.4,0.1l0.1-7L105.4,174.3L105.4,174.3z M116,178.1l1.7-0.1l1.5-0.1l0,0.5
		c0,0.7,0.1,1.3,0.1,2l1.7,0l-0.6-0.5l-1-0.7l0.7-0.9l0.7-0.8c-1.1-0.1-2.2-0.1-3.3-0.2c-3,0-6,0-9,0l-0.3,14.3c0,0.7,0,1.3,0,2
		l9,0.3l6.1,0.1c0-0.4,0.1-0.8,0.1-1.2l-0.8,0.7l-1,0.1l-1.3-0.1l-1.4-0.8c0-0.1-0.1-0.1-0.1-0.2l-1.3,1.3l-0.7-0.6l-0.8-0.9
		l-2.9,0.2l-1.6,0.1l-2.3,0.2l-0.1-1.2l0-1.3l2.2-0.1l1.5,0l3.4-0.1l0.1,0.8l0.8-0.9c0.1-0.1,0.2-0.3,0.3-0.4
		c-0.1-0.4-0.2-0.8-0.3-1.2l-0.6-3.6c-0.1-0.5-0.1-1-0.1-1.4h-4.2l-2.8,0.1l-0.2-1.1l0-1.8l5.2-0.1l1.8,0L116,178.1L116,178.1z
		 M111,184l3.4,0.1l1.6,0.2l0.4,0.4l-0.1,1.8l-0.1,2.1l-0.1,1c-0.4,0-0.8-0.1-1.2-0.1v0l-1.5,0l-2.5-0.1v0c-0.2,0-0.4,0-0.5,0
		l-1.1-0.1l-0.2-1.3l0.1-1.8l0-2l1-0.1L111,184L111,184L111,184z M113.4,187.6l0-0.9l-0.6-0.1c-0.3,0-0.5,0-0.8,0l0,0.8l0,0.2l1,0
		L113.4,187.6z M120.6,184l1.8,0.7l1.2,0.8l-1.5,2.6l-1.2,2l0.4,0.5l0.2-0.1l0.2-0.6l0.3-1.4l1,0.9l0.7,0.3c0-1.6,0.1-3.2,0.2-4.7
		l0.2-7.2c-0.8-0.1-1.7-0.1-2.5-0.2l1.2,0.9l1,0.8l-0.8,0.9l-0.3,0.3h0.8l0,1.2l-0.1,1.6c-1.2,0-2.5-0.1-3.8-0.1
		c0.1,0.5,0.1,0.9,0.1,1.4l0.1,1.3L120.6,184L120.6,184z"/>
</g>
</svg>
