<svg width="161" height="75" viewBox="0 0 161 75" fill="none" xmlns="http://www.w3.org/2000/svg">
<g clip-path="url(#clip0_460_132801)">
<path d="M19.3281 40.9813C24.5331 48.1233 24.8478 58.9271 31.6603 65.093C39.7407 72.4074 52.6796 73.4579 62.8112 73.9634C84.0569 75.0233 107.458 77.0662 127.477 68.9994C130.995 67.5831 134.794 66.2111 137.309 63.1829C140.241 59.6515 141.529 54.401 143.225 50.2314C144.844 46.2504 146.854 41.5683 147.586 37.3381C148.512 31.9921 142.983 30.1332 138.539 29.6138L19.3281 40.9813Z" fill="#9E6E39"/>
<path d="M25.441 24.948C18.3862 29.9492 8.95199 31.4913 2.46101 38.0206C4.98767 37.7597 7.71356 37.6829 10.3263 37.9973C6.3325 40.6925 2.56741 43.6135 0 47.7669C10.0523 45.4002 21.5559 44.7107 31.8731 45.9732C28.0378 49.5326 24.2614 55.1231 22.4411 60.1617C24.4221 59.3976 26.4213 58.6173 28.4589 57.9324C31.6444 56.8609 41.948 54.0353 41.948 54.0353C41.948 54.0353 43.6483 59.8705 43.8996 62.13C46.0414 59.9171 48.6292 57.9417 50.986 55.9105C55.8401 59.6469 59.9154 63.8258 63.6782 68.6873C63.9771 66.097 63.891 63.4159 64.1469 60.8209C67.269 62.0531 68.324 65.6661 70.7216 67.7742C73.3004 65.5263 75.3131 62.3816 78.2065 60.4901C79.6963 62.9476 79.9634 66.1273 81.5392 68.5242C84.5594 67.0241 87.4483 64.3476 90.3395 62.4491C92.3726 61.1144 100.913 58.4146 98.4402 58.0233C97.6908 57.9045 103.697 60.3806 105.635 61.3264C108.348 62.6518 111.37 63.707 114.021 64.8857C114.447 62.9826 113.836 60.8092 113.614 59.0552C116.577 58.2143 128.135 59.7307 130.393 60.2292C133.037 60.8139 135.702 62.3793 138.319 62.6611C138.72 58.5753 134.361 56.374 132.097 53.9841C138.319 51.9738 144.982 52.7728 151.36 52.7378C149.159 49.6188 143.807 48.5542 140.488 46.9469C135.883 44.7153 131.418 43.0032 126.578 41.729C132.734 41.3726 139.064 41.6172 145.26 42.2066C150.006 42.6585 154.79 43.949 159.551 43.8768C157.55 40.5737 154.645 38.5937 151.722 36.4483C154.781 36.3854 158.22 37.9368 161 39.0013C155.446 31.9362 146.463 24.8362 137.479 23.5503C129.974 22.4765 121.248 22.0432 113.734 22.8678C102.921 24.0535 93.3507 28.3186 83.0606 31.3282C72.5464 34.4054 62.0526 31.7429 51.9505 28.7496C48.8669 27.8364 45.7833 27.6221 42.6386 27.1376C40.9519 26.8791 36.5053 26.9955 35.4344 25.7213L25.4387 24.9503L25.441 24.948Z" fill="#C1923E"/>
<path d="M133.655 35.959C139.025 34.5591 139.688 34.6336 145.249 35.011C142.337 32.3881 138.62 31.4703 135.385 29.9911C143.345 28.9452 150.943 30.4267 158.561 32.1994C158.251 27.7362 146.945 23.4618 143.594 22.0059C134.624 18.1041 124.268 15.7584 114.612 14.8593C98.1842 13.3312 82.1231 17.2702 67.1986 23.8508C67.4205 23.6318 67.7284 23.1403 67.9842 22.8748L68.0341 21.8195C64.844 21.6961 61.5453 20.4941 58.3463 19.9979C53.3065 19.2129 48.0041 20.4498 42.9848 19.5484C35.1558 18.1437 25.7351 16.9091 15.8005 22.3739C18.9634 22.4927 26.5819 25.1739 28.9885 28.1905C28.418 29.3971 23.8492 31.1861 19.4456 36.397C16.9325 39.3693 13.9078 42.3882 12.3818 45.9639C20.5663 42.0411 31.3816 39.728 40.3925 39.7933C37.8522 44.0072 35.758 48.8663 33.6909 53.3924C36.2515 52.7238 39.1948 51.5847 41.7781 50.5994C43.5191 49.9355 52.5684 45.067 54.5246 46.255C56.1864 47.266 55.677 55.9384 56.5758 58.2655C59.3854 56.4951 61.242 53.2503 63.7505 51.0746C66.1979 53.5973 66.2274 58.0675 68.7631 60.3899C70.3275 58.7663 71.095 56.3181 72.6278 54.7294C74.2058 53.0919 73.3523 53.2293 75.4895 53.7418C79.352 54.6665 83.6219 58.5473 87.0248 60.6438C89.5039 62.1719 91.906 64.1659 94.4485 65.475C96.0628 61.8504 94.5346 56.5394 94.1044 52.8286C99.4656 52.8286 105.703 54.6875 110.564 56.7607C109.176 54.9391 106.896 53.7511 105.517 51.82C112.156 51.3122 118.993 55.3747 125.525 55.9314C125.631 52.8822 119.224 49.8866 117.478 47.9415C121.972 47.1845 126.978 46.6138 131.692 46.4344C136.8 46.2387 142.315 47.6946 147.296 47.245C146.816 44.2424 135.715 38.0648 133.659 35.9684L133.655 35.959Z" fill="#E2AF47"/>
<path d="M43.8812 31.2537C42.0201 32.041 42.9733 34.4939 44.1257 35.4816C45.3211 36.5065 46.7542 36.9701 48.2281 37.2566C51.674 37.9251 55.0881 37.7225 58.2601 36.5834C59.0887 41.955 65.4484 43.7649 69.9334 44.6688C75.6048 45.8125 81.3962 45.4677 86.9431 44.2192C90.2871 43.4644 93.2484 42.2392 95.5374 39.6955C98.5236 41.354 108.254 41.3377 109.067 36.984C110.333 30.2148 96.2913 33.6483 93.4726 34.2959C82.1479 36.9002 71.3145 33.2989 60.6962 29.4647C57.2163 28.2068 53.3403 26.9815 49.5888 27.331C46.9263 27.5779 45.6358 29.0757 44.1981 31.1395C44.4947 30.8717 44.4381 30.6084 44.5581 30.273L43.8789 31.2514L43.8812 31.2537Z" fill="#BA9449"/>
<path d="M44.1393 0.712625C39.5138 3.01408 37.5079 12.0056 39.1086 21.6494C40.4376 29.6579 47.5693 38.5865 57.6284 34.8245C65.2446 31.9756 67.6897 24.9431 64.2597 16.4757C60.5988 7.4353 51.2279 -2.81643 44.1393 0.712625Z" fill="#EDE2CE"/>
<path d="M95.5375 35.1156C96.2846 29.8861 90.1831 23.1285 81.5277 19.073C74.3416 15.7046 63.155 16.7599 60.531 27.4379C58.5432 35.5209 62.8245 41.5518 71.5614 43.3897C80.8869 45.351 94.3942 43.1334 95.5375 35.1179V35.1156Z" fill="#FFF8EB"/>
<path d="M42.6108 45.7428C43.5889 44.6177 44.7368 43.7186 46.0409 43.0291C46.625 42.7193 46.111 41.8155 45.5269 42.1229C44.1527 42.8497 42.921 43.8141 41.8909 44.9998C41.4539 45.5029 42.1716 46.246 42.6108 45.7405V45.7428Z" fill="#BA9449"/>
<path d="M51.7942 42.8403C52.4372 41.8061 53.2613 40.9512 54.1601 40.1498C54.6582 39.7073 53.9337 38.9688 53.4402 39.4091C52.4734 40.2686 51.604 41.2004 50.9158 42.3115C50.5603 42.8822 51.4433 43.4087 51.7965 42.8403H51.7942Z" fill="#BA9449"/>
<path d="M48.3182 41.1307C48.8684 40.5716 49.482 40.0894 50.0842 39.5933C50.3015 39.4139 50.263 39.0366 50.0842 38.8525C49.8714 38.6336 49.5793 38.6755 49.3642 38.8525C48.7597 39.3487 48.1484 39.8309 47.5983 40.3899C47.1296 40.8651 47.8518 41.6059 48.3182 41.1307Z" fill="#BA9449"/>
<path d="M20.736 40.5714C21.5352 39.7491 22.3389 38.9571 23.3509 38.4167C23.9351 38.1045 23.4189 37.2007 22.837 37.5105C21.7525 38.0905 20.8741 38.9478 20.016 39.8283C19.5496 40.3058 20.2719 41.0489 20.736 40.569V40.5714Z" fill="#BA9449"/>
<path d="M27.8338 38.5563C28.8119 37.96 29.6337 37.1447 30.5507 36.4599C31.0759 36.0662 30.5688 35.1554 30.0367 35.5537C29.1221 36.2386 28.298 37.0562 27.3199 37.6502C26.7539 37.9949 27.2678 38.9011 27.8338 38.5563Z" fill="#BA9449"/>
<path d="M35.8194 36.935C36.5801 36.3038 37.4812 35.8868 38.2985 35.3394C38.8464 34.9713 38.337 34.0629 37.7845 34.4333C36.8902 35.0319 35.9348 35.5001 35.0994 36.192C34.5877 36.6159 35.3145 37.3543 35.8194 36.9327V36.935Z" fill="#BA9449"/>
<path d="M26.3552 34.2753C27.2834 33.8747 28.2434 33.5811 29.2079 33.297C29.8395 33.1106 29.5701 32.0996 28.9362 32.286C27.9694 32.5702 27.0117 32.866 26.0835 33.2643C25.4858 33.5206 25.7484 34.5362 26.3552 34.2753Z" fill="#BA9449"/>
<path d="M33.5549 30.9393C34.2115 30.9393 34.2115 29.8911 33.5549 29.8911C32.8984 29.8911 32.8984 30.9393 33.5549 30.9393Z" fill="#BA9449"/>
<path d="M34.0988 30.9396C35.3214 30.7998 36.5439 30.6601 37.7665 30.5203C38.4118 30.4457 38.4186 29.3975 37.7665 29.4721C36.5439 29.6118 35.3214 29.7516 34.0988 29.8914C33.4535 29.9659 33.4468 31.0141 34.0988 30.9396Z" fill="#BA9449"/>
<path d="M31.1094 24.9083C32.212 24.5263 33.3621 24.6404 34.5054 24.6474C35.162 24.6521 35.162 23.6038 34.5054 23.5992C33.2715 23.5899 32.0263 23.485 30.8377 23.8974C30.2196 24.1117 30.4845 25.125 31.1094 24.9083Z" fill="#BA9449"/>
<path d="M23.7718 22.1317C25.0079 21.971 26.2056 21.5936 27.4395 21.4329C28.0825 21.349 28.0893 20.3008 27.4395 20.3847C26.2033 20.5454 25.0057 20.9227 23.7718 21.0835C23.1288 21.1673 23.1197 22.2156 23.7718 22.1317Z" fill="#BA9449"/>
<path d="M33.8264 21.8524H35.4565C36.1131 21.8524 36.1131 20.8042 35.4565 20.8042H33.8264C33.1698 20.8042 33.1698 21.8524 33.8264 21.8524Z" fill="#BA9449"/>
<path d="M59.8814 52.223C59.9244 50.7112 60.5516 49.3252 60.95 47.888C61.1312 47.2358 60.1486 46.9609 59.9675 47.6085C59.5418 49.1436 58.9079 50.6041 58.8626 52.2207C58.8422 52.8962 59.8633 52.8962 59.8814 52.2207V52.223Z" fill="#BA9449"/>
<path d="M59.4034 45.3561C59.7634 44.6084 60.0781 43.8397 60.4901 43.1199C60.8229 42.5352 59.9422 42.0088 59.6094 42.5911C59.1974 43.3109 58.8827 44.0796 58.5227 44.8274C58.2329 45.4307 59.1113 45.9618 59.4034 45.3561Z" fill="#BA9449"/>
<path d="M68.5097 48.3074C68.5097 49.9869 68.4984 51.6641 68.3738 53.3389C68.324 54.0145 69.3428 54.0098 69.3927 53.3389C69.5172 51.6641 69.5285 49.9869 69.5285 48.3074C69.5285 47.6319 68.5097 47.6319 68.5097 48.3074Z" fill="#BA9449"/>
<path d="M76.2681 49.5165C77.1918 50.3365 78.0521 51.2217 78.8491 52.1721C79.2792 52.6845 79.9969 51.9391 79.569 51.4313C78.7721 50.4809 77.9117 49.5957 76.988 48.7758C76.4945 48.3355 75.77 49.074 76.2681 49.5165Z" fill="#BA9449"/>
<path d="M83.5559 46.7352C84.2125 46.7352 84.2125 45.687 83.5559 45.687C82.8993 45.687 82.8993 46.7352 83.5559 46.7352Z" fill="#BA9449"/>
<path d="M83.5718 46.9423C84.5114 47.6458 85.3491 48.475 86.2886 49.1785C86.8207 49.5768 87.3278 48.666 86.8026 48.2724C85.863 47.5689 85.0253 46.7396 84.0857 46.0361C83.5537 45.6378 83.0465 46.5486 83.5718 46.9423Z" fill="#BA9449"/>
<path d="M88.0884 56.507C88.9963 57.5669 89.9518 58.5849 90.7261 59.7566C91.0928 60.311 91.9781 59.7868 91.6068 59.2278C90.7826 57.9815 89.7752 56.896 88.8107 55.7663C88.376 55.2585 87.6583 56.0015 88.0907 56.507H88.0884Z" fill="#BA9449"/>
<path d="M90.9101 44.5666C91.7252 44.9859 92.5402 45.4052 93.3553 45.8245C93.9417 46.125 94.4579 45.2212 93.8692 44.9183C93.0542 44.499 92.2391 44.0797 91.4241 43.6604C90.8377 43.36 90.3215 44.2638 90.9101 44.5666Z" fill="#BA9449"/>
<path d="M98.4151 50.4969C99.0649 51.0373 99.6671 51.6337 100.317 52.1741C100.822 52.5957 101.549 51.8573 101.037 51.4333C100.387 50.8929 99.7849 50.2966 99.1351 49.7562C98.6279 49.3346 97.9035 50.073 98.4151 50.4969Z" fill="#BA9449"/>
<path d="M102.578 45.8964C103.235 45.8964 103.235 44.8481 102.578 44.8481C101.922 44.8481 101.922 45.8964 102.578 45.8964Z" fill="#BA9449"/>
<path d="M102.323 45.8243C103.319 46.5325 104.442 46.9797 105.57 47.4153C106.185 47.6529 106.45 46.6396 105.841 46.4043C104.793 45.999 103.765 45.5774 102.837 44.9205C102.294 44.5362 101.786 45.4446 102.323 45.8267V45.8243Z" fill="#BA9449"/>
<path d="M97.5663 45.265C98.1096 45.689 98.6123 46.1549 99.1964 46.5229C99.7579 46.877 100.27 45.9709 99.7103 45.6168C99.1285 45.2487 98.6236 44.7829 98.0802 44.3589C97.8583 44.1865 97.5097 44.3216 97.3829 44.5476C97.2289 44.8155 97.3444 45.0927 97.5663 45.265Z" fill="#BA9449"/>
<path d="M97.9601 41.9644C98.705 42.2556 99.4883 42.3884 100.269 42.5235C100.912 42.633 101.186 41.6243 100.541 41.5125C99.76 41.3774 98.9744 41.2446 98.2318 40.9535C97.616 40.7135 97.3533 41.7268 97.9601 41.9644Z" fill="#BA9449"/>
<path d="M106.792 43.8002C107.449 43.8002 107.449 42.752 106.792 42.752C106.136 42.752 106.136 43.8002 106.792 43.8002Z" fill="#BA9449"/>
<path d="M106.534 43.728C107.897 44.6877 109.382 45.4029 110.881 46.104C111.474 46.3812 111.993 45.4774 111.395 45.1979C109.896 44.4967 108.411 43.7793 107.048 42.8219C106.505 42.4399 105.995 43.3483 106.534 43.728Z" fill="#BA9449"/>
<path d="M115.534 50.7768C116.29 51.3918 117.087 51.9438 117.947 52.3957C118.531 52.7032 119.047 51.7971 118.461 51.4896C117.68 51.0796 116.942 50.5928 116.253 50.0337C115.744 49.6191 115.017 50.3552 115.534 50.7745V50.7768Z" fill="#BA9449"/>
<path d="M110.609 39.9544C111.897 40.6579 113.317 41.0049 114.671 41.5454C115.284 41.79 115.547 40.7767 114.942 40.5344C113.672 40.0289 112.332 39.7098 111.123 39.0506C110.543 38.7338 110.027 39.6399 110.609 39.9567V39.9544Z" fill="#BA9449"/>
<path d="M120.243 44.3403C121.597 44.6199 122.944 44.9064 124.318 45.0578C124.97 45.13 124.963 44.0818 124.318 44.0096C123.037 43.8675 121.776 43.5903 120.512 43.3294C119.872 43.1966 119.598 44.2076 120.241 44.3403H120.243Z" fill="#BA9449"/>
<path d="M114.943 31.778C116.276 31.7571 117.585 31.4938 118.882 31.2003C119.523 31.0559 119.251 30.0449 118.611 30.1894C117.399 30.4642 116.186 30.7112 114.941 30.7298C114.284 30.7391 114.284 31.7897 114.941 31.778H114.943Z" fill="#BA9449"/>
<path d="M124.726 32.0575C125.382 32.0575 125.382 31.0093 124.726 31.0093C124.069 31.0093 124.069 32.0575 124.726 32.0575Z" fill="#BA9449"/>
<path d="M125.269 32.0577C125.996 32.0507 126.716 31.9272 127.442 31.9179C128.099 31.9086 128.099 30.8604 127.442 30.8697C126.716 30.879 125.996 31.0025 125.269 31.0095C124.612 31.0164 124.612 32.0647 125.269 32.0577Z" fill="#BA9449"/>
<path d="M134.644 24.7875C135.3 24.7875 135.3 23.7393 134.644 23.7393C133.987 23.7393 133.987 24.7875 134.644 24.7875Z" fill="#BA9449"/>
<path d="M134.647 24.7689C136.272 25.0368 137.911 25.1998 139.537 25.4677C140.18 25.5749 140.456 24.5639 139.809 24.4568C138.183 24.1889 136.544 24.0258 134.918 23.7579C134.275 23.6508 133.999 24.6618 134.647 24.7689Z" fill="#BA9449"/>
<path d="M145.801 27.2312C146.243 27.5293 146.718 27.7716 147.16 28.0697C147.712 28.4401 148.222 27.534 147.674 27.1636C147.232 26.8654 146.757 26.6232 146.315 26.325C145.763 25.9546 145.254 26.8608 145.801 27.2312Z" fill="#BA9449"/>
<path d="M109.237 18.6168C109.821 18.4701 110.403 18.3652 111.003 18.3559C111.66 18.3466 111.66 17.2984 111.003 17.3077C110.313 17.317 109.634 17.4381 108.966 17.6058C108.327 17.7666 108.599 18.7775 109.237 18.6168Z" fill="#BA9449"/>
<path d="M117.39 20.0332C117.893 20.0425 118.384 20.1613 118.884 20.173C119.543 20.1869 119.541 19.1387 118.884 19.1247C118.384 19.1131 117.893 18.9943 117.39 18.985C116.733 18.9733 116.733 20.0239 117.39 20.0332Z" fill="#BA9449"/>
<path d="M101.22 17.3775C102.547 17.2215 103.835 16.8348 105.159 16.6787C105.805 16.6019 105.811 15.5536 105.159 15.6305C103.833 15.7866 102.544 16.1732 101.22 16.3293C100.575 16.4062 100.568 17.4544 101.22 17.3775Z" fill="#BA9449"/>
<path d="M45.0721 2.10583C43.5982 2.22929 42.6813 3.30315 41.8346 4.51211C41.4927 4.99896 40.9946 6.0239 40.8882 6.92538C40.8814 6.95333 40.8769 6.98129 40.8701 7.00691C40.6799 7.98526 40.4716 9.03349 41.1757 9.86975C41.6602 10.4451 42.5975 10.9716 43.3152 10.5756C44.1642 10.1074 44.0488 8.7726 44.2548 7.97128C44.5265 6.90674 44.9906 5.9051 45.6585 5.03856C46.709 3.67352 47.8637 1.87056 45.0721 2.10583Z" fill="#F2EAD7"/>
</g>
<defs>
<clipPath id="clip0_460_132801">
<rect width="161" height="75" fill="white"/>
</clipPath>
</defs>
</svg>
