<svg width="369" height="146" viewBox="0 0 369 146" fill="none" xmlns="http://www.w3.org/2000/svg">
<path d="M0.816296 50.7159L10.2417 49.523L23.8969 48.3713L30.7856 48.1218L30.8469 52.0294L30.714 59.203L24.9077 59.5601L19.6177 59.6747L15.8209 59.9949L18.169 60.7917L23.8087 61.6423L24.842 77.8695L26.4082 94.8475L26.3363 100.358L24.882 103.001L19.2535 104.669L12.5369 105.368L10.7937 100.608L7.72384 96.8213L12.7585 96.0651L14.5736 94.5193L14.2068 86.9899L12.624 69.8144C12.2242 66.6648 11.8854 63.4438 11.5522 60.2886L11.2858 60.3111L2.72632 61.431L1.66036 57.5418L0.555406 50.8042L0.816296 50.7159ZM38.809 95.5258L43.6217 96.9105L48.2512 97.7137L45.7036 103.3L43.8831 107.964L37.827 106.949L33.4473 105.926L35.734 101.223L38.8145 95.5916L38.809 95.5258ZM32.5845 55.9283L38.1798 55.4564C38.1798 55.4564 38.3685 55.3078 38.4351 55.3022L39.7506 52.6048C39.906 52.0612 40.0614 51.5175 40.2112 50.908L37.5468 51.1327L32.7175 51.938L31.4905 46.1391L30.5078 41.6461L42.0314 40.6741L61.6261 39.1541L71.5123 38.6518L71.84 42.5369L71.918 49.0295L52.2567 49.7594L51.0577 49.8605L49.7201 53.8861L57.78 53.2063L69.5812 53.1394L71.8017 54.0132L74.2788 83.3822L75.0008 91.9427L62.6778 92.9821L62.6556 92.7187L55.9057 93.0227L40.8794 94.6217L35.7504 95.0543L35.0841 91.1314L33.5733 71.6286L32.5123 55.868L32.5845 55.9283ZM61.4168 72.4635C58.8856 72.677 56.2766 72.7644 53.7343 72.8462L45.0971 73.8399C45.1638 74.6301 45.2249 75.3545 45.3526 76.0732L54.4116 75.3091C56.8152 75.1727 59.1466 74.9761 61.5445 74.7738L61.3502 72.4691L61.4168 72.4635ZM60.6448 64.1061L60.4504 61.8014L52.6236 62.0637C49.8926 62.294 47.2281 62.5187 44.4915 62.6832L44.7304 65.5148L53.2621 64.8615C55.7267 64.6536 58.1802 64.314 60.6448 64.1061ZM62.1333 82.5497L54.795 83.036L46.2022 83.7608L46.3911 85.9997C49.1332 85.901 51.8032 85.7421 54.5398 85.5776C57.1376 85.3585 59.7243 85.0077 62.2555 84.7942L62.0723 82.6212L62.1333 82.5497ZM70.5101 92.7857L74.3738 96.4389L79.1534 102.203L73.919 104.568L68.7956 106.658L65.8367 101.801L61.8232 97.1658L65.1647 95.425L70.4491 92.8572L70.5101 92.7857Z" fill="#FFC93D"/>
<path d="M109.552 65.2428L113.331 63.7803L119.166 62.5838L121.552 71.9566L122.812 78.4711L123.276 76.0781L124.536 65.5752L125.53 53.4769V48.026L120.293 48.0925L119.365 43.3728V36.9248L132.558 36.526L141.442 36.3931H150.326L153.773 41.8439L154.967 47.3613L153.177 54.6734L151.785 59.9913H154.503L157.088 60.1243L159.21 64.7774L160.204 71.7572L156.094 80.4653L152.05 86.448L153.376 87.6445L161 93.0954L157.884 98.4798L153.376 103L145.155 96.0867H145.088L139.122 102.535L134.547 98.8122L131.099 94.2254L137.331 87.4451L135.21 85.185L132.624 81.7283L130.834 90.1705L128.182 100.208L122.215 98.0809H122.149V98.4133L118.967 99.8093L113.597 100.607L113 96.4191L111.939 90.6358L110.613 86.1156L115.453 83.9884L118.569 83.2572L120.028 86.9798L120.558 88.974L121.155 87.0462L122.414 80.7977L118.967 81.7948L112.801 82.7255L112.536 80.0665L107.829 81.0636L96.9558 83.7225L92.4475 84.6532L90.989 80.9306L89.5304 74.8815L92.0497 69.4971L97.0221 63.9798L93.8398 60.7225L89.9282 57.2659L89 52.6792L92.3149 48.2254L98.0829 40.9133L103.519 34L109.95 37.7225L112.669 40.9133L107.166 46.4971L101.331 53.6098L103.917 55.9364L111.74 46.763L116.249 50.4191L119.431 54.6069L112.536 61.3208L104.514 69.763L102.657 72.3555L107.961 71.026L110.812 70.1619L109.619 65.1763L109.552 65.2428ZM90.5249 88.3757L94.4365 87.3121L98.1492 86.8468L99.0774 92.1648L99.8066 96.2197L100.403 101.538L95.4972 102.535H91.453L91.1215 97.6156L90.7238 93.5607L90.4586 88.4422L90.5249 88.3757ZM100.47 86.9798L103.519 85.5838L108.16 84.5867L109.088 88.7081L110.348 94.6243L111.343 100.341L107.166 101.405L102.459 101.803L101.928 96.552L101.464 92.1648L100.536 86.9133L100.47 86.9798ZM141.243 54.4075L142.171 48.159L131.762 47.8931H128.713L132.956 48.8237L137.133 50.8179L135.807 61.6532L135.011 66.9711L139.188 73.6185L143.431 78.4711L146.746 70.4942L141.84 70.3613L140.315 66.7717L139.055 61.5202L141.044 54.341L141.243 54.4075Z" fill="#FFC93D"/>
<path d="M172.412 48.3316L178.737 48.3677C180.102 48.333 181.4 48.2899 182.632 48.2385L183.693 45.7155L186.84 31.879L192.035 33.3406L197.85 35.2875L195.664 45.2269L194.795 47.8419L199.092 47.7626L209.764 47.3171L209.376 54.2803L209.046 59.685C207.957 59.686 206.943 59.6283 205.921 59.6376L204.945 64.758L204.929 64.8921C207.634 65.0237 210.273 65.1469 212.912 65.2702L218.291 65.8015C218.055 64.4108 217.811 63.0872 217.491 61.8223C217.173 61.6466 216.93 61.4122 216.62 61.1695L223.164 53.9493L224.921 51.3083L217.482 50.3851L212.246 50.348L211.579 44.7515L211.314 38.6603L227.676 40.0781L233.85 40.2316L237.699 45.4062L240.744 50.4811L234.025 58.5645L229.498 64.3333C229.658 65.2381 229.809 66.2099 230.036 67.123L233.789 67.5888L245.267 69.4216L243.873 74.6262L242.94 81.0453L232.694 79.161C232.09 79.0862 231.554 79.0196 230.959 78.8778L231.123 84.1396L229.709 95.5362L224.646 101.238L217.996 103.817L209.994 101.394L203.951 96.9004L206.049 92.0555L208.156 87.1435L213.638 90.6827L216.478 91.3756L218.821 88.3989L219.359 81.3183L219.356 77.5059L215.335 77.0068L203.288 76.4648L202.94 70.4994C202.94 70.4994 202.965 70.2983 202.914 70.1559L201.803 73.0811L196.917 81.188L195.888 82.3536L197.85 84.6393L202.186 89.738L197.238 93.4125L193.622 97.3204L188.382 91.837L187.669 90.9998L178.361 98.5577L175.24 93.5416L172.715 89.212L179.721 82.6617L177.08 80.3599L174.84 76.4742L173.512 70.7274L178.11 59.9982L173.26 60.1451L172.376 55.2024L172.37 48.6668L172.412 48.3316ZM195.064 59.3794L192.007 59.3403L190.985 59.3496C190.742 60.2045 190.425 61.1181 190.116 61.9647L185.842 70.0793L188.324 73.1102L192.833 65.8416L195.056 59.4465L195.064 59.3794Z" fill="#FFC93D"/>
<path d="M263.266 29.104H290.55L309.326 29.1716L319.996 29.4418L322.225 33.6976L323.238 36.9402L322.901 39.3045L321.685 41.6013L318.105 45.1816L312.905 42.6146C312.905 42.6146 312.635 42.4795 312.5 42.4795L312.365 45.7896L312.027 50.113L298.587 49.9779H296.224V51.937L299.06 52.2747L313.648 53.6258L326.548 53.9635L325.467 58.4896L323.441 63.6236L310.541 62.205L289.875 59.9082L271.64 56.7332C271.032 56.5981 270.492 56.3955 269.884 56.1928L268.398 60.5162L267.183 62.8806L262.996 61.6646L256.377 59.3002L257.593 56.5981L259.078 52.7476L261.037 46.2625L262.05 41.0609L268.061 41.8715L273.194 43.0875L272.113 47.8838L278.529 49.3699L283.729 50.3157L284.135 44.371C284.135 42.3444 284.135 40.3178 284.067 38.2912L263.738 38.4263L263.468 32.9545L263.198 29.104H263.266ZM258.741 88.1454H275.625L284.337 88.0779C284.337 86.7944 284.337 85.5784 284.405 84.3624L269.344 84.4975H269.209C267.385 84.4975 265.494 84.4976 263.603 84.43L263.333 77.8773L263.063 72.0678V65.6502L269.074 64.9072L275.557 64.772V64.9072L279.339 64.772H284.405V60.9891L292.712 61.3268L296.899 61.597C296.899 62.6103 296.764 63.5561 296.764 64.5018H308.65L315.607 65.0423L318.781 66.9337L318.646 74.3646L318.511 83.6194L320.267 83.1465L322.63 86.997L324.994 91.7257L326.48 95.5763L322.833 96.9273L315.607 98.6161C315.269 97.738 314.864 96.8598 314.594 95.9816L289.537 96.5895L275.625 96.9949L258.673 97.2651V92.3337L258.741 88.0779V88.1454ZM275.355 76.9316H279.474C281.163 76.9316 282.851 76.9316 284.54 76.864V73.6215H279.339C277.989 73.7566 276.705 73.7566 275.355 73.7566C275.355 74.4997 275.355 75.2428 275.287 75.9859V76.9316H275.355ZM311.825 42.2093L308.245 40.7231L309.191 39.4396L309.528 38.4939L298.925 38.2237H296.629C296.494 39.5747 296.426 40.8582 296.291 42.0742H311.825V42.2093ZM305.949 76.7965C305.949 76.7965 305.949 76.121 306.016 75.7832L306.151 73.6215L297.574 73.4864H296.359V76.7965H305.881H305.949ZM311.014 87.5374C310.744 86.9295 310.541 86.389 310.271 85.8486L316.147 84.2949H311.825L305.679 84.1598L300.276 84.0922H296.561V87.8752L311.014 87.5374Z" fill="#FFC93D"/>
<path d="M103.116 140.393C103.252 140.482 103.358 140.601 103.404 140.781C103.479 141.049 103.192 142.586 103.146 143.064C103.04 144.392 103.055 145.63 101.481 145.899C100.361 146.078 99.2566 145.764 98.1366 145.809C96.9712 145.854 95.6696 145.585 94.5647 145.257C92.2945 144.601 90.0999 143.123 88.7832 141.169C87.4059 139.094 87.0275 136.737 87.0729 134.29C87.1032 132.35 87.7691 130.44 89.0405 128.918C90.6145 127.052 92.355 125.441 94.7009 124.56C96.0177 124.068 97.4253 123.784 98.8328 123.77C99.5442 123.77 100.24 123.814 100.937 123.949C101.421 124.038 102.405 124.113 102.707 124.575C102.95 124.919 102.738 125.605 102.707 126.023C102.677 126.993 102.753 128.007 102.632 128.977C102.48 130.141 100.921 129.664 100.013 129.932C99.075 130.216 98.1971 130.738 97.4858 131.41C96.169 132.663 95.5182 134.543 95.7604 136.334C95.8663 137.155 96.1842 137.975 96.8047 138.542C97.1982 138.9 97.6825 139.124 98.182 139.303C99.1355 139.661 100.134 139.975 101.148 140.139C101.618 140.214 102.601 140.094 103.101 140.408L103.116 140.393Z" fill="#FFC93D"/>
<path d="M162.687 140.393C162.813 140.482 162.911 140.601 162.954 140.781C163.024 141.049 162.757 142.586 162.715 143.064C162.616 144.392 162.63 145.63 161.169 145.899C160.129 146.078 159.103 145.764 158.063 145.809C156.981 145.854 155.772 145.585 154.746 145.257C152.638 144.601 150.6 143.123 149.378 141.169C148.099 139.094 147.747 136.737 147.789 134.29C147.818 132.35 148.436 130.44 149.616 128.918C151.078 127.052 152.694 125.441 154.873 124.56C156.095 124.068 157.402 123.784 158.709 123.77C159.37 123.77 160.016 123.814 160.663 123.949C161.113 124.038 162.026 124.113 162.307 124.575C162.532 124.919 162.335 125.605 162.307 126.023C162.279 126.993 162.349 128.007 162.237 128.977C162.096 130.141 160.649 129.664 159.806 129.932C158.934 130.216 158.119 130.738 157.459 131.41C156.236 132.663 155.632 134.543 155.856 136.334C155.955 137.155 156.25 137.975 156.826 138.542C157.192 138.9 157.641 139.124 158.105 139.303C158.99 139.661 159.918 139.975 160.86 140.139C161.295 140.214 162.209 140.094 162.673 140.408L162.687 140.393Z" fill="#FFC93D"/>
<path d="M181.101 143.658C180.874 143.042 180.434 142.354 180.334 142.149C179.653 140.918 178.985 139.688 178.304 138.457C177.963 137.842 177.622 137.227 177.295 136.612C176.997 136.055 176.883 135.821 177.423 135.41C179.908 133.521 182.365 131.587 184.808 129.639C184.978 129.492 185.177 129.302 185.149 129.082C185.12 128.936 185.007 128.833 184.893 128.731C183.828 127.779 182.734 126.87 181.641 125.962C181.4 125.772 181.158 125.508 180.917 125.699C178.815 127.412 176.713 129.126 174.625 130.84C174 131.353 173.432 131.866 172.893 132.466C172.438 132.964 172.012 133.272 171.856 132.422C171.671 131.426 171.827 130.371 171.87 129.375C171.927 128.116 172.31 127.046 172.694 125.86C172.722 125.757 172.751 125.655 172.736 125.552C172.694 125.274 172.353 125.186 172.083 125.157C171.529 125.113 170.961 125.054 170.393 125.039C169.385 125.01 168.376 124.966 167.368 124.937C166.899 124.922 166.686 125.493 166.658 125.977C166.417 129.112 166.161 132.246 165.919 135.381C165.792 136.949 165.678 138.516 165.55 140.083C165.479 141.021 165.38 141.958 165.309 142.881C165.252 143.716 165.536 143.731 166.232 143.76C168.092 143.877 169.896 144.214 171.785 144.156C171.998 144.156 172.381 141.475 172.41 141.182C172.467 140.816 172.339 138.867 172.935 139.043C173.091 139.087 173.191 139.248 173.29 139.38C174.1 140.669 174.668 142.09 175.435 143.394C175.776 143.965 176.06 144.639 176.727 144.742C177.451 144.859 178.19 144.712 178.914 144.683C179.511 144.654 180.107 144.683 180.704 144.742C181.371 144.815 181.328 144.258 181.101 143.658Z" fill="#FFC93D"/>
<path d="M119.585 144.382C119.619 144.309 119.63 144.207 119.653 144.091C119.844 142.561 119.754 140.857 119.63 139.327C119.619 139.109 119.585 138.876 119.473 138.716C119.293 138.453 118.978 138.483 118.708 138.512C117.537 138.628 116.288 138.366 115.107 138.337C114.679 138.337 114.105 138.468 113.959 137.783C113.858 137.288 113.936 136.749 113.925 136.239C113.903 135.249 113.903 134.273 113.903 133.282C113.903 131.345 113.959 129.422 114.06 127.499C114.094 126.873 114.128 126.247 114.105 125.62C114.105 125.504 114.094 125.373 114.038 125.271C113.936 125.038 113.689 125.008 113.486 124.994C111.99 124.907 110.493 124.921 109.008 125.023C108.693 125.038 108.333 125.11 108.175 125.46C108.029 125.81 108.096 126.349 108.153 126.727C108.546 129.393 108.423 132.132 108.31 134.841C108.254 136.21 108.198 137.594 108.209 138.963C108.209 139.648 108.243 140.333 108.299 141.003C108.378 141.993 108.299 144.12 109.233 144.455C110.088 144.746 111.191 144.324 112.08 144.324C113.081 144.324 114.083 144.426 115.073 144.528C115.939 144.615 116.806 144.703 117.672 144.717C118.077 144.717 118.482 144.819 118.876 144.775C119.236 144.746 119.461 144.688 119.563 144.382H119.585Z" fill="#FFC93D"/>
<path d="M259.865 143.32C259.937 142.464 259.405 141.38 259.219 140.632C258.4 137.485 257.582 134.339 256.764 131.178C256.261 129.253 255.744 127.298 254.739 125.618C254.524 125.252 254.193 124.87 253.791 124.946C253.562 124.992 253.389 125.175 253.231 125.359C252.226 126.489 251.135 127.558 250.173 128.734C248.981 130.185 247.718 131.529 246.626 133.087C246.023 133.942 245.133 134.66 244.185 133.652C242.132 131.483 240.596 128.505 238.399 126.489C237.853 125.985 237.121 125.481 236.475 125.832C236.073 126.061 235.872 126.55 235.714 127.008C233.876 132.354 232.268 137.776 230.918 143.274C230.818 143.656 230.703 143.915 230.688 144.312C233.273 144.648 235.886 144.694 238.471 144.419C238.342 142.312 238.629 140.311 238.815 138.234C238.945 136.722 239.691 136.264 240.811 137.577C242.118 139.104 242.821 141.12 244.286 142.525C245.047 143.259 245.736 143.778 246.411 142.77C247.172 141.624 247.502 140.143 248.335 138.997C248.924 138.188 251.221 135.408 252.269 136.584C252.743 137.119 252.47 139.074 252.47 139.715C252.47 140.418 252.427 141.105 252.384 141.808C252.355 142.189 251.996 143.579 252.169 143.885C252.456 144.389 252.858 144.786 253.418 144.786C254.567 144.801 255.687 144.45 256.821 144.419C257.611 144.404 258.688 144.694 259.391 144.205C259.707 143.976 259.851 143.671 259.879 143.304L259.865 143.32Z" fill="#FFC93D"/>
<path d="M225.407 128.15C223.503 124.309 219.194 122.903 215.19 124.295C211.27 125.659 209.213 129.319 208.685 133.245C208.351 135.708 208.407 138.325 209.477 140.566C209.936 141.526 210.575 142.403 211.284 143.183C213.216 145.285 215.871 146.203 218.582 145.897C219.235 145.827 219.889 145.674 220.528 145.466C223.906 144.352 226.686 140.677 227.103 137.198C227.451 134.302 226.672 130.767 225.379 128.164L225.407 128.15ZM221.557 137.323C221.251 138.144 220.764 138.938 220.042 139.425C218.777 140.274 216.97 140.009 215.816 139.021C214.662 138.033 214.106 136.46 214.092 134.943C214.064 133.036 214.718 130.461 216.566 129.5C218.109 128.693 219.652 128.93 220.806 130.252C221.39 130.906 221.751 131.755 221.946 132.66C222.28 134.219 222.085 135.959 221.571 137.323H221.557Z" fill="#FFC93D"/>
<path d="M141.943 125.315C141.545 125.054 140.975 124.993 140.285 124.946C139.344 124.885 138.681 125.085 138.787 126.221C138.893 127.342 139.185 132.395 139.145 133.516C139.105 134.284 139.052 135.068 138.853 135.805C138.588 136.803 138.283 137.479 137.607 138.201C137.315 138.508 136.043 138.999 135.764 138.984C134.916 138.953 134.04 138.923 133.298 138.462C130.964 137.049 130.142 130.199 129.943 127.388C129.851 126.129 129.904 125.254 128.657 125.085C127.835 124.977 125.754 125.269 125.674 125.53C125.581 125.791 125.595 126.313 125.621 126.59C125.886 128.725 126.669 135.528 127.371 137.556C128.498 140.812 130.315 144.252 133.709 144.605C135.419 144.774 136.785 144.959 137.978 144.482C139.941 143.73 140.882 143.208 141.651 141.518C142.805 138.953 142.844 136.266 143.083 133.685C143.189 132.472 143.096 126.052 141.956 125.315H141.943Z" fill="#FFC93D"/>
<path d="M201.032 127.332C197.766 124.832 193.636 124.161 189.698 123.775C189.684 123.775 189.657 123.775 189.643 123.775C189.108 123.733 188.957 123.918 188.929 124.49C188.806 126.361 188.751 128.246 188.792 130.132C188.806 131.103 188.847 132.074 188.874 133.06C188.943 136.445 188.723 141.102 188.655 144.501C188.655 145.058 188.6 145.416 189.149 145.587C189.986 145.873 194.583 146.673 200.689 144.359C202.417 143.702 204.695 142.073 204.97 137.331C205.299 131.446 202.898 128.746 201.032 127.332ZM199.632 136.602C199.467 137.831 199.207 138.974 198.287 139.802C197.217 140.759 196.106 141.073 194.72 141.259C194.349 141.316 193.896 141.316 193.718 140.988C193.622 140.816 193.636 140.616 193.649 140.43C193.842 137.531 193.046 130.46 193.183 129.875C193.444 128.775 196.27 130.489 196.778 130.86C197.711 131.546 198.836 132.603 199.316 133.703C199.701 134.603 199.755 135.631 199.618 136.617L199.632 136.602Z" fill="#FFC93D"/>
<path d="M283.046 131.755C282.191 131.12 281.303 130.419 280.978 129.418C280.875 129.084 280.841 128.684 281.046 128.383C281.166 128.2 281.371 128.083 281.576 127.999C282.619 127.549 283.883 127.849 284.823 128.483C285.763 129.118 286.464 130.019 287.147 130.92C288.121 132.205 289.386 133.524 290.104 134.942C288.344 135.793 284.464 132.756 283.063 131.738L283.046 131.755Z" fill="#FFC93D"/>
<path d="M297.265 131.755C298.12 131.137 299.008 130.42 299.333 129.435C299.435 129.101 299.47 128.701 299.265 128.4C299.145 128.217 298.94 128.1 298.735 128.017C297.692 127.566 296.428 127.866 295.488 128.501C294.548 129.135 293.847 130.036 293.164 130.937C292.189 132.222 290.925 133.541 290.207 134.959C291.967 135.811 295.847 132.773 297.248 131.755H297.265Z" fill="#FFC93D"/>
<path d="M283.046 138.414C282.191 139.031 281.303 139.749 280.978 140.733C280.875 141.067 280.841 141.468 281.046 141.768C281.166 141.952 281.371 142.069 281.576 142.152C282.619 142.603 283.883 142.302 284.823 141.668C285.763 141.034 286.464 140.133 287.147 139.231C288.121 137.946 289.386 136.628 290.104 135.209C288.344 134.358 284.464 137.396 283.063 138.414H283.046Z" fill="#FFC93D"/>
<path d="M297.265 138.414C298.12 139.031 299.008 139.749 299.333 140.733C299.435 141.067 299.47 141.468 299.265 141.768C299.145 141.952 298.94 142.069 298.735 142.152C297.692 142.603 296.428 142.302 295.488 141.668C294.548 141.034 293.847 140.133 293.164 139.231C292.189 137.946 290.925 136.628 290.207 135.209C291.967 134.358 295.847 137.396 297.248 138.414H297.265Z" fill="#FFC93D"/>
<path d="M292.241 142.253C292.36 143.288 292.446 144.406 291.933 145.324C291.762 145.641 291.489 145.925 291.113 145.991C290.89 146.025 290.668 145.958 290.463 145.874C289.421 145.441 288.771 144.339 288.6 143.237C288.412 142.136 288.618 141.018 288.823 139.916C289.113 138.347 289.216 136.545 289.78 135.06C291.625 135.727 292.018 140.567 292.241 142.253Z" fill="#FFC93D"/>
<path d="M292.241 128.684C292.36 127.65 292.446 126.531 291.933 125.613C291.762 125.296 291.489 125.013 291.113 124.946C290.89 124.912 290.668 124.979 290.463 125.063C289.421 125.497 288.771 126.598 288.6 127.7C288.412 128.801 288.618 129.919 288.823 131.021C289.113 132.59 289.216 134.392 289.78 135.878C291.625 135.21 292.018 130.37 292.241 128.684Z" fill="#FFC93D"/>
<path d="M14.4902 6.81759C13.6357 6.18339 12.7471 5.48242 12.4224 4.48104C12.3198 4.14725 12.2856 3.7467 12.4907 3.44629C12.6103 3.2627 12.8154 3.14587 13.0205 3.06243C14.063 2.61181 15.3276 2.91222 16.2675 3.54642C17.2074 4.18063 17.9081 5.08187 18.5917 5.98311C19.5658 7.26821 20.8304 8.58669 21.5482 10.0053C19.788 10.8565 15.9086 7.81897 14.5073 6.8009L14.4902 6.81759Z" fill="#FFC93D"/>
<path d="M28.7094 6.81799C29.5638 6.20048 30.4525 5.48282 30.7772 4.49813C30.8797 4.16434 30.9139 3.76379 30.7088 3.46338C30.5892 3.27979 30.3841 3.16296 30.1791 3.07952C29.1366 2.6289 27.872 2.92931 26.932 3.56351C25.9921 4.19772 25.2914 5.09896 24.6079 6.0002C23.6338 7.2853 22.3691 8.60379 21.6514 10.0224C23.4116 10.8736 27.2909 7.83606 28.6923 6.81799H28.7094Z" fill="#FFC93D"/>
<path d="M14.4902 13.4766C13.6357 14.0941 12.7471 14.8118 12.4224 15.7964C12.3198 16.1302 12.2856 16.5308 12.4907 16.8312C12.6103 17.0148 12.8154 17.1316 13.0205 17.2151C14.063 17.6657 15.3276 17.3653 16.2675 16.7311C17.2074 16.0969 17.9081 15.1956 18.5917 14.2944C19.5658 13.0093 20.8304 11.6908 21.5482 10.2722C19.788 9.42101 15.9086 12.4585 14.5073 13.4766H14.4902Z" fill="#FFC93D"/>
<path d="M28.7094 13.4766C29.5638 14.0941 30.4525 14.8118 30.7772 15.7964C30.8797 16.1302 30.9139 16.5308 30.7088 16.8312C30.5892 17.0148 30.3841 17.1316 30.1791 17.2151C29.1366 17.6657 27.872 17.3653 26.932 16.7311C25.9921 16.0969 25.2914 15.1956 24.6079 14.2944C23.6338 13.0093 22.3691 11.6908 21.6514 10.2722C23.4116 9.42101 27.2909 12.4585 28.6923 13.4766H28.7094Z" fill="#FFC93D"/>
<path d="M23.6849 17.3158C23.8045 18.3506 23.89 19.4688 23.3773 20.3867C23.2064 20.7038 22.9329 20.9875 22.557 21.0543C22.3348 21.0877 22.1126 21.0209 21.9076 20.9374C20.8651 20.5035 20.2157 19.402 20.0448 18.3005C19.8568 17.199 20.0619 16.0808 20.267 14.9792C20.5575 13.4104 20.66 11.6079 21.224 10.1226C23.0697 10.7901 23.4627 15.6301 23.6849 17.3158Z" fill="#FFC93D"/>
<path d="M23.6849 3.74726C23.8045 2.7125 23.89 1.59429 23.3773 0.676364C23.2064 0.35926 22.9329 0.0755366 22.557 0.00877809C22.3348 -0.0246012 22.1126 0.0421574 21.9076 0.125606C20.8651 0.559536 20.2157 1.66105 20.0448 2.76257C19.8568 3.86408 20.0619 4.98229 20.267 6.08381C20.5575 7.65263 20.66 9.45511 21.224 10.9405C23.0697 10.2729 23.4627 5.43291 23.6849 3.74726Z" fill="#FFC93D"/>
<path d="M308.919 110.457C317.849 107.793 326.231 103.954 333.756 98.7727C341.308 93.6361 347.914 87.21 353.59 79.8614C349.441 88.2375 342.805 95.3594 335.077 100.686C327.309 105.988 318.239 109.607 308.919 110.457Z" fill="#FFC93D"/>
<path d="M329.378 82.984C322.23 89.1755 318.357 98.9371 319.256 108.359C328.256 103.678 332.456 92.6677 329.346 82.9911L329.378 82.984Z" fill="#FFC93D"/>
<path d="M347.373 72.5478C342.538 78.3163 340.712 86.4689 342.601 93.7732C349.103 88.9845 351.035 79.7998 347.373 72.5478Z" fill="#FFC93D"/>
<path d="M350.355 99.9764C343.793 97.8839 336.242 99.119 330.73 103.22C337.062 107.061 345.521 105.526 350.355 99.9764Z" fill="#FFC93D"/>
<path d="M368.378 80.0502C360.861 79.1085 352.975 81.9981 347.838 87.5469C355.462 90.3986 364.274 87.0541 368.378 80.0502Z" fill="#FFC93D"/>
</svg>
