<?xml version="1.0" encoding="utf-8"?>
<!-- Generator: Adobe Illustrator 27.5.0, SVG Export Plug-In . SVG Version: 6.00 Build 0)  -->
<svg version="1.1" id="圖層_1" xmlns="http://www.w3.org/2000/svg" xmlns:xlink="http://www.w3.org/1999/xlink" x="0px" y="0px"
	 viewBox="0 0 1920 864" style="enable-background:new 0 0 1920 864;" xml:space="preserve">
<style type="text/css">
	.st0{fill:#FFFFFF;}
</style>
<path class="st0" d="M1955.5,864V23.9c-11.3,3.3-39.7,7.9-62.5,0c-30-14-112.6-33.6-203,0c-24.5,6.5-84.4,15.5-128,0
	c-54.5-19.4-124-35.1-205,0c-21,6.5-74.7,15.5-121.5,0c-58.5-19.4-104-39.4-208,0c-18.3,6.1-67.9,14.5-119.5,0
	c-34.3-15.4-124.2-37.1-209,0c-21.3,5.4-74.2,13-115,0c-51-16.3-110.5-44.5-218.5,0c-17.8,6.1-66.1,14.5-116.5,0
	c-63-18.2-103.5-37.6-204,0c-14.8,6.1-54.6,14.5-95,0V864H1955.5z"/>
</svg>
