<svg width="66" height="24" viewBox="0 0 66 24" fill="none" xmlns="http://www.w3.org/2000/svg">
<path d="M2 10.5C1.17157 10.5 0.5 11.1716 0.5 12C0.5 12.8284 1.17157 13.5 2 13.5V10.5ZM65.0607 13.0607C65.6464 12.4749 65.6464 11.5251 65.0607 10.9393L55.5147 1.3934C54.9289 0.807611 53.9792 0.807611 53.3934 1.3934C52.8076 1.97919 52.8076 2.92893 53.3934 3.51472L61.8787 12L53.3934 20.4853C52.8076 21.0711 52.8076 22.0208 53.3934 22.6066C53.9792 23.1924 54.9289 23.1924 55.5147 22.6066L65.0607 13.0607ZM2 13.5H64V10.5H2V13.5Z" fill="#D74C38"/>
</svg>
