<svg width="60" height="72" viewBox="0 0 60 72" fill="none" xmlns="http://www.w3.org/2000/svg">
<g clip-path="url(#clip0_961_136)">
<path d="M30.7158 14.5727C31.7118 39.4443 4.66888 42.5696 3.17892 16.9188C3.13116 16.0572 4.24391 15.6221 4.81242 16.2729C15.6919 28.6693 12.3338 20.1904 14.9101 8.9584C15.0573 8.31085 15.131 7.97797 15.2419 7.53541C18.8407 -7.3854 19.8164 14.6515 21.2309 21.6529C21.35 22.2459 22.0283 22.5592 22.5733 22.2603C25.4491 20.6819 26.9845 16.9709 29.0237 14.114C29.5359 13.3957 30.6801 13.7035 30.7147 14.5684L30.7158 14.5727Z" fill="#EF5C3F"/>
</g>
<g clip-path="url(#clip1_961_136)">
<path d="M58.6128 55.2319C51.4941 79.0837 24.898 73.2755 31.802 48.5265C32.0361 47.6959 33.2298 47.6449 33.5567 48.4449C39.8312 63.6982 39.4024 54.5886 45.48 44.7979C45.8292 44.233 46.0067 43.942 46.2551 43.5593C54.4956 30.6102 48.2763 51.7738 47.3452 58.8558C47.2658 59.4554 47.8059 59.9716 48.4183 59.8655C51.6505 59.3043 54.3057 56.2913 57.1608 54.2495C57.8782 53.736 58.8608 54.398 58.6132 55.2275L58.6128 55.2319Z" fill="#EF5C3F"/>
</g>
<defs>
<clipPath id="clip0_961_136">
<rect width="27.8736" height="31.4702" fill="white" transform="translate(0 6.91504) rotate(-14.3643)"/>
</clipPath>
<clipPath id="clip1_961_136">
<rect width="27.8736" height="31.4702" fill="white" transform="translate(32.0371 38.0322) rotate(4.54718)"/>
</clipPath>
</defs>
</svg>
