<svg width="75" height="41" viewBox="0 0 75 41" fill="none" xmlns="http://www.w3.org/2000/svg">
<g clip-path="url(#clip0_961_137)">
<path d="M29.1547 22.1597C22.8102 46.2291 -3.95964 41.2832 2.14121 16.324C2.34831 15.4863 3.53976 15.3968 3.89232 16.1858C10.6564 31.2284 9.93342 22.1374 15.6916 12.1555C16.0223 11.5796 16.1903 11.283 16.4262 10.8925C24.244 -2.31602 18.7117 19.0374 18.01 26.1458C17.9499 26.7476 18.5065 27.2461 19.1151 27.1203C22.3275 26.455 24.884 23.3578 27.6716 21.2248C28.372 20.6884 29.3755 21.3183 29.1549 22.1553L29.1547 22.1597Z" fill="#EF5C3F"/>
</g>
<g clip-path="url(#clip1_961_137)">
<path d="M69.0177 24.8177C55.2147 45.5316 31.4929 32.1764 45.3538 10.5418C45.8212 9.81649 46.9774 10.1179 47.0552 10.9786C48.5787 27.4015 50.8412 18.5669 59.5238 10.9901C60.0233 10.5525 60.2784 10.3263 60.6281 10.0333C72.3049 0.0716379 60.1504 18.4794 57.1827 24.9766C56.9308 25.5265 57.2958 26.1784 57.9123 26.2567C61.1669 26.6684 64.5893 24.567 67.9177 23.4526C68.7542 23.1722 69.4994 24.0933 69.0193 24.8136L69.0177 24.8177Z" fill="#EF5C3F"/>
</g>
<defs>
<clipPath id="clip0_961_137">
<rect width="27.8736" height="31.4702" fill="white" transform="translate(2.03711 5.82764) rotate(2.69576)"/>
</clipPath>
<clipPath id="clip1_961_137">
<rect width="27.8736" height="31.4702" fill="white" transform="translate(48.6572 0.578613) rotate(21.6072)"/>
</clipPath>
</defs>
</svg>
