<svg width="71" height="67" viewBox="0 0 71 67" fill="none" xmlns="http://www.w3.org/2000/svg">
<g clip-path="url(#clip0_961_138)">
<path d="M38.3701 23.9691C51.8993 44.8628 75.7949 31.821 62.2199 10.0058C61.762 9.27441 60.602 9.56061 60.5129 10.4202C58.7733 26.8216 56.6273 17.958 48.0452 10.2676C47.5515 9.82344 47.2994 9.59394 46.9535 9.29636C35.4089 -0.818143 47.32 17.748 50.202 24.2837C50.4466 24.8368 50.0731 25.4839 49.4556 25.554C46.1959 25.9229 42.8014 23.7766 39.488 22.6186C38.6553 22.3272 37.898 23.2384 38.3686 23.965L38.3701 23.9691Z" fill="#EF5C3F"/>
</g>
<g clip-path="url(#clip1_961_138)">
<path d="M5.55456 51.2391C19.3576 71.953 43.0794 58.5978 29.2184 36.9632C28.751 36.2379 27.5949 36.5393 27.5171 37.4C25.9936 53.8229 23.731 44.9883 15.0485 37.4115C14.549 36.9739 14.2939 36.7477 13.9441 36.4547C2.26736 26.493 14.4218 44.9008 17.3895 51.398C17.6414 51.9479 17.2765 52.5998 16.6599 52.678C13.4053 53.0898 9.98297 50.9884 6.65456 49.874C5.81808 49.5936 5.07289 50.5147 5.55293 51.235L5.55456 51.2391Z" fill="#EF5C3F"/>
</g>
<defs>
<clipPath id="clip0_961_138">
<rect width="27.8736" height="31.4702" fill="white" transform="matrix(-0.934496 0.355973 0.355973 0.934496 59.0479 0)"/>
</clipPath>
<clipPath id="clip1_961_138">
<rect width="27.8736" height="31.4702" fill="white" transform="matrix(-0.92973 0.368241 0.368241 0.92973 25.915 27)"/>
</clipPath>
</defs>
</svg>
