<svg width="1920" height="3030" viewBox="0 0 1920 3030" fill="none" xmlns="http://www.w3.org/2000/svg">
<rect x="-100" y="1269" width="2158" height="1761" fill="#A3CB7E"/>
<mask id="mask0_425_108957" style="mask-type:alpha" maskUnits="userSpaceOnUse" x="-43" y="0" width="2006" height="1375">
<path d="M1697 23.8918C1787.4 -9.66663 1870 9.90918 1900 23.8918C1922.8 31.7483 1951.17 27.1654 1962.5 23.8918V1375H-43V23.8918C-2.59998 38.4172 37.1666 29.9441 52 23.8918C152.5 -13.6737 193 5.73523 256 23.8918C306.4 38.4172 354.667 29.9441 372.5 23.8918C480.5 -20.5607 540 7.61353 591 23.8918C631.8 36.9146 684.667 29.318 706 23.8918C790.8 -13.1729 880.667 8.44824 915 23.8918C966.6 38.4172 1016.17 29.9441 1034.5 23.8918C1138.5 -15.552 1184 4.48303 1242.5 23.8918C1289.3 39.4189 1343 30.3615 1364 23.8918C1445 -11.1693 1514.5 4.48303 1569 23.8918C1612.6 39.4189 1672.5 30.3615 1697 23.8918Z" fill="#D9D9D9"/>
</mask>
<g mask="url(#mask0_425_108957)">
<rect x="2025.5" y="1655.49" width="2132" height="1758.07" transform="rotate(180 2025.5 1655.49)" fill="#A3CB7E"/>
</g>
</svg>
