<svg width="277" height="288" viewBox="0 0 277 288" fill="none" xmlns="http://www.w3.org/2000/svg">
<g clip-path="url(#clip0_425_108730)">
<path d="M212.713 95.1542C212.753 92.3068 213.384 90.0482 214.308 87.447C215.749 83.3972 216.17 79.7934 216.17 75.4725L224.946 67.2266C228.046 72.9641 229.141 79.4366 229.202 86.0412C229.234 89.9376 227.636 104.677 221.817 97.3057C221.218 99.3324 218.846 101.302 216.705 101.273C213.131 101.224 212.678 97.9765 212.717 95.1506L212.713 95.1542Z" fill="#EF5C3F"/>
<path d="M170.939 62.449C168.435 59.1307 173.454 55.7517 176.515 55.4805C175.284 50.9918 180.946 48.7903 184.752 48.8367C183.753 43.3561 193.599 46.2427 195.953 47.2168C200.009 48.8938 204.222 51.7483 206.862 55.2628L192.771 72.8144C187.331 70.1954 182.761 68.7895 176.818 69.0893C174.696 69.1963 171.624 69.2605 169.905 67.9724C167.45 66.1384 168.228 63.2947 170.943 62.4454L170.939 62.449Z" fill="#EF5C3F"/>
<path d="M99.6005 268.365L101.502 288L103.528 287.522L102.151 272.561L112.767 283.65L114.412 281.781L103.71 271.187L115.778 276.075L115.564 273.688L101.327 268.333L99.6005 268.365Z" fill="#EF5C3F"/>
<path d="M107.922 232.63L99.4569 268.707L101.39 269.592L113.198 233.875L107.922 232.63Z" fill="#EF5C3F"/>
<path d="M131.153 266.77L133.058 286.405L135.081 285.927L133.704 270.966L144.32 282.055L145.965 280.182L135.266 269.592L147.331 274.48L147.117 272.093L132.88 266.734L131.153 266.77Z" fill="#EF5C3F"/>
<path d="M139.479 231.035L131.014 267.109L132.947 267.994L144.755 232.28L139.479 231.035Z" fill="#EF5C3F"/>
<path d="M162.517 206.811C159.934 212.699 157.925 218.333 154.554 223.835C151.947 228.091 148.996 235.809 143.931 237.665C129.911 242.803 142.732 208.485 144.434 204.149L162.517 206.808V206.811Z" fill="#EDE6D9"/>
<path d="M130.072 213.195C127.49 219.082 125.481 224.716 122.11 230.218C119.502 234.475 116.552 242.193 111.486 244.048C97.4668 249.186 110.288 214.868 111.989 210.533L130.072 213.195Z" fill="#EDE6D9"/>
<path d="M87.3138 138.753C87.3138 138.753 66.6268 115.118 50.795 112.867C-4.52365 104.995 0.0960464 158.256 0.0960464 158.256L14.2762 152.583L10.3771 178.827C10.3771 178.827 25.9771 170.67 25.9771 171.733C25.9771 172.797 24.2041 195.847 24.2041 195.847L35.9049 186.98L44.7698 207.193C44.7698 207.193 49.0256 177.76 61.4328 176.34C72.2846 175.098 81.2886 178.113 81.2886 178.113L87.3174 138.75L87.3138 138.753Z" fill="#FFC022"/>
<path d="M137.054 62.2954C137.054 62.2954 173.276 105.409 166.873 125.751C160.47 146.089 143.193 150.292 130.276 144.223C110.955 135.146 113.641 85.0707 113.641 85.0707L120.187 86.662L119.788 77.806C119.788 77.806 131.342 82.8049 131.25 81.6881C131.157 80.5713 127.729 69.1533 127.729 69.1533L138.959 76.9925L137.057 62.2954H137.054Z" fill="#D38318"/>
<path d="M202.185 139.463C202.185 139.463 202.895 173.153 190.841 189.463C178.944 205.566 165.431 217.458 122.06 217.833C80.9318 218.186 76.3228 178.116 76.3228 178.116L84.8308 136.27C84.8308 136.27 129.505 129.533 141.202 126.696C152.903 123.86 156.092 118.54 156.092 118.54L175.948 114.64L202.185 139.463Z" fill="#EDE6D9"/>
<path d="M202.539 146.553C202.539 146.553 201.829 109.316 207.501 99.0328C213.173 88.7495 224.032 81.5919 225.227 71.7261C226.647 60.0227 213.173 48.6761 196.154 56.8328C176.205 66.3953 150.064 124.566 150.064 124.566L165.664 121.02L166.017 133.076L174.882 126.693L177.008 141.586L190.125 134.493L202.535 146.549L202.539 146.553Z" fill="#FFC022"/>
<path d="M95.5905 83.7363C95.5905 83.7363 144.916 110.89 146.275 132.17C147.634 153.45 133.033 163.598 118.796 162.595C97.5026 161.093 81.9597 113.419 81.9597 113.419L88.6377 112.545L85.0704 104.428C85.0704 104.428 97.6524 104.924 97.1601 103.918C96.6714 102.908 89.3583 93.4951 89.3583 93.4951L102.657 96.7599L95.5869 83.7399L95.5905 83.7363Z" fill="#FFC022"/>
<path d="M224.878 67.2981C224.878 67.2981 219.637 66.1528 217.786 64.4615C213.708 60.7364 212.292 55.4199 212.292 55.4199C212.292 55.4199 222.22 39.2849 223.283 39.8166C224.346 40.3482 223.993 58.0782 223.993 58.0782C223.993 58.0782 237.998 57.0149 238.173 58.2566C238.351 59.4983 224.878 67.2981 224.878 67.2981Z" fill="#D38318"/>
<path d="M9.91797 139.481C9.7289 139.856 9.53982 140.227 9.35075 140.598C9.50415 140.202 9.69679 139.831 9.91797 139.481Z" fill="#5794FF"/>
<path d="M31.903 133.982C26.1881 133.683 13.5919 133.676 9.91393 139.481C12.1185 135.103 14.2732 130.504 18.29 127.267C22.7849 123.646 27.6222 122.036 33.2336 121.54C53.6031 119.742 74.6967 129.936 87.2109 144.619L85.3488 180.521C85.2882 178.184 79.6018 173.913 77.3865 172.475C73.8263 170.17 70.0663 168.643 65.9389 168.033C57.042 166.72 48.0487 173.81 40.4146 179.454C41.5027 175.555 39.8831 167.219 45.7193 161.111C48.4304 158.274 51.7552 157 54.7518 155.049C49.704 154.346 44.9559 153.896 39.6726 154.192C35.2955 154.438 28.5854 157.475 25.521 161.371C28.1787 150.735 35.3526 146.121 42.869 144.034C46.9357 142.903 50.817 142.535 55.0479 142.963C58.1835 143.281 61.1944 144.541 64.248 144.63C63.1493 143.766 62.0969 142.999 60.884 142.296C52.2404 137.269 41.6917 134.496 31.903 133.979V133.982Z" fill="#EDE6D9"/>
<path d="M208.215 63.0415C208.215 63.0415 208.3 68.4008 205.379 69.4249C201.833 70.6666 200.06 67.8299 200.06 67.8299C200.06 67.8299 202.717 68.3616 204.847 67.1199C206.973 65.8782 208.215 63.0415 208.215 63.0415Z" fill="#564336"/>
<path d="M190.731 47.8804C194.541 47.909 197.616 50.8027 201.034 51.9588L201.922 52.4012C201.34 52.9757 197.673 51.5627 196.696 51.4271C194.68 51.1524 192.704 51.0632 190.663 51.1595C189.739 51.2023 186.886 51.684 186.493 50.3674C185.969 48.6119 189.693 47.8733 190.731 47.8804Z" fill="#ED7454"/>
<path d="M179.494 52.8652C179.616 52.7332 179.758 52.619 179.915 52.5155C180.233 52.148 180.764 51.8518 181.267 51.6734C182.634 51.1882 185.02 50.9883 185.634 52.7367C186.297 54.6278 183.75 54.924 182.509 55.0596C181.253 55.1987 177.693 54.8562 179.498 52.8687L179.494 52.8652Z" fill="#ED7454"/>
<path d="M172.512 58.6956C172.962 58.064 173.711 57.7429 174.549 57.5859C176.269 56.6725 178.798 56.3977 179.765 58.1675C180.953 60.3405 177.953 61.4323 176.326 61.8855C174.417 62.4171 170.736 61.1897 172.512 58.6956Z" fill="#ED7454"/>
<path d="M227.535 77.4923C227.706 77.8563 227.678 78.3344 227.571 78.8411C227.56 78.8054 227.549 78.7662 227.535 78.7305V77.4888V77.4923Z" fill="#ED7454"/>
<path d="M223.108 92.7427C223.922 90.1094 225.62 87.7295 226.212 84.957C226.49 83.6547 226.618 82.3274 226.922 81.0357C227.061 80.4434 227.41 79.6085 227.574 78.8413C228.053 80.2935 227.628 82.6592 227.628 84.1614C227.628 86.5056 227.396 88.7892 227.1 91.0799C226.918 92.4929 226.561 95.2154 224.967 95.8219C223.13 96.5213 222.751 93.9023 223.108 92.7427Z" fill="#ED7454"/>
<path d="M140.421 136.744C139.828 135.199 139.076 133.719 138.337 132.241C138.084 131.731 138.847 131.282 139.104 131.795C139.878 133.344 140.656 134.896 141.277 136.512C141.484 137.048 140.624 137.276 140.421 136.748V136.744Z" fill="#D38318"/>
<path d="M139.583 127.449C138.573 125.901 137.838 124.17 136.64 122.75C136.272 122.315 136.897 121.687 137.268 122.122C138.52 123.606 139.297 125.383 140.35 127C140.664 127.481 139.897 127.924 139.586 127.446L139.583 127.449Z" fill="#D38318"/>
<path d="M130.964 125.591C130.05 124.488 129.194 123.343 128.306 122.222C127.953 121.78 128.577 121.148 128.934 121.594C129.826 122.715 130.682 123.86 131.592 124.963C131.952 125.398 131.331 126.029 130.964 125.591Z" fill="#D38318"/>
<path d="M135.395 146.335C134.093 144.691 132.537 143.253 131.424 141.458C131.121 140.969 131.888 140.527 132.191 141.012C133.262 142.742 134.767 144.123 136.023 145.711C136.372 146.154 135.752 146.785 135.395 146.339V146.335Z" fill="#D38318"/>
<path d="M126.976 153.497C125.506 152.384 124.118 151.181 122.809 149.882C122.402 149.479 123.03 148.851 123.437 149.254C124.689 150.5 126.016 151.666 127.425 152.73C127.875 153.069 127.436 153.839 126.979 153.497H126.976Z" fill="#D38318"/>
<path d="M114.833 154.671C113.174 153.197 111.526 151.713 109.87 150.239C109.442 149.857 110.07 149.233 110.498 149.611C112.157 151.085 113.805 152.569 115.46 154.043C115.888 154.424 115.261 155.049 114.833 154.671Z" fill="#D38318"/>
<path d="M102.422 144.03C100.945 142.171 99.5536 140.245 98.7616 137.982C98.5726 137.44 99.4287 137.212 99.6178 137.747C100.353 139.856 101.673 141.672 103.05 143.402C103.403 143.845 102.778 144.476 102.422 144.03Z" fill="#D38318"/>
<path d="M119.089 144.919C117.965 143.617 116.763 142.382 115.828 140.93C115.518 140.448 116.285 140.002 116.595 140.484C117.487 141.872 118.643 143.049 119.716 144.295C120.087 144.726 119.463 145.354 119.089 144.923V144.919Z" fill="#D38318"/>
<path d="M124.05 138.71C122.802 137.123 121.382 135.706 119.795 134.454C119.345 134.1 119.977 133.476 120.422 133.826C122.01 135.074 123.426 136.495 124.678 138.082C125.028 138.525 124.404 139.156 124.05 138.71Z" fill="#D38318"/>
<path d="M119.088 125.769C117.622 123.938 116.127 122.115 114.301 120.627C113.859 120.267 114.49 119.642 114.929 119.999C116.752 121.487 118.25 123.31 119.716 125.141C120.069 125.583 119.449 126.215 119.088 125.769Z" fill="#D38318"/>
<path d="M122.545 114.843C120.744 113.627 118.903 112.185 117.601 110.43C117.259 109.969 118.029 109.527 118.365 109.984C119.57 111.607 121.333 112.956 122.991 114.08C123.462 114.397 123.02 115.168 122.545 114.847V114.843Z" fill="#D38318"/>
<path d="M130.361 115.04C129.219 113.366 127.782 111.928 126.53 110.34C126.18 109.898 126.804 109.266 127.157 109.712C128.456 111.357 129.943 112.856 131.128 114.59C131.452 115.065 130.682 115.507 130.361 115.036V115.04Z" fill="#D38318"/>
<path d="M116.784 104.667C115.036 103.108 113.135 101.702 111.644 99.8786C111.283 99.4397 111.908 98.8081 112.271 99.2506C113.763 101.07 115.664 102.48 117.412 104.039C117.84 104.421 117.209 105.045 116.784 104.667Z" fill="#D38318"/>
<path d="M108.451 119.207C107.181 117.587 105.822 116.042 104.552 114.419C104.202 113.973 104.826 113.341 105.18 113.791C106.45 115.411 107.809 116.959 109.079 118.579C109.428 119.025 108.804 119.657 108.451 119.207Z" fill="#D38318"/>
<path d="M108.914 132.77C108.004 131.485 107.166 130.154 106.253 128.87C105.921 128.402 106.692 127.96 107.02 128.424C107.93 129.708 108.768 131.039 109.678 132.324C110.009 132.791 109.239 133.233 108.914 132.77Z" fill="#D38318"/>
<path d="M95.2191 128.056C94.5092 126.343 93.4497 124.805 92.7362 123.093C92.5186 122.565 93.3748 122.336 93.5924 122.857C94.3023 124.57 95.3618 126.108 96.0752 127.821C96.2928 128.349 95.4367 128.577 95.2191 128.056Z" fill="#D38318"/>
<path d="M98.1694 118.675C96.8887 117.02 95.6865 115.311 94.7305 113.445C94.4701 112.938 95.237 112.488 95.4974 112.999C96.4143 114.797 97.5629 116.456 98.7972 118.051C99.1433 118.497 98.519 119.129 98.1694 118.679V118.675Z" fill="#D38318"/>
<path d="M105.083 106.972C103.613 105.142 102.044 103.397 100.474 101.652C100.092 101.227 100.717 100.599 101.102 101.024C102.672 102.769 104.241 104.514 105.711 106.344C106.068 106.787 105.443 107.418 105.083 106.972Z" fill="#D38318"/>
<path d="M88.1271 120.074C87.9523 119.414 87.6526 118.815 87.1782 118.319C86.7822 117.908 87.4065 117.28 87.806 117.691C88.3875 118.294 88.7728 119.032 88.9833 119.835C89.1295 120.388 88.2734 120.624 88.1271 120.071V120.074Z" fill="#D38318"/>
<path d="M197.908 135.313C197.908 133.665 197.912 132.02 197.98 130.375C198.022 129.305 197.94 127.813 198.501 126.846C198.786 126.354 199.553 126.8 199.267 127.292C198.761 128.163 198.896 129.644 198.857 130.611C198.793 132.177 198.797 133.743 198.797 135.31C198.797 135.881 197.912 135.881 197.912 135.31L197.908 135.313Z" fill="#D38318"/>
<path d="M192.062 126.804C192.094 124.181 192.85 121.708 193.674 119.239C193.853 118.7 194.709 118.932 194.53 119.475C193.735 121.865 192.982 124.26 192.95 126.804C192.943 127.374 192.058 127.374 192.065 126.804H192.062Z" fill="#D38318"/>
<path d="M182.755 131.325C183.036 129.173 183.618 127.15 184.677 125.252C184.956 124.752 185.723 125.198 185.441 125.698C184.46 127.453 183.903 129.337 183.639 131.325C183.564 131.885 182.68 131.892 182.751 131.325H182.755Z" fill="#D38318"/>
<path d="M173.24 121.79C174.318 119.4 175.663 117.145 176.651 114.715C176.865 114.194 177.721 114.422 177.507 114.95C176.49 117.451 175.113 119.778 174.007 122.236C173.772 122.757 173.009 122.304 173.24 121.79Z" fill="#D38318"/>
<path d="M166.017 115.247C166.848 113.017 167.618 110.73 168.985 108.756C169.309 108.289 170.076 108.731 169.752 109.202C168.425 111.111 167.679 113.316 166.873 115.479C166.673 116.01 165.817 115.778 166.017 115.243V115.247Z" fill="#D38318"/>
<path d="M156.492 117.27C157.38 115.536 158.529 113.951 159.417 112.217C159.678 111.707 160.441 112.157 160.184 112.663C159.296 114.397 158.147 115.982 157.259 117.716C156.999 118.226 156.235 117.776 156.492 117.27Z" fill="#D38318"/>
<path d="M171.015 92.0112C169.135 94.2021 167.847 96.8032 166.563 99.3687C166.306 99.8789 165.542 99.4293 165.796 98.9227C167.116 96.2823 168.453 93.6383 170.387 91.3868C170.761 90.9515 171.382 91.5831 171.015 92.0148V92.0112Z" fill="#D38318"/>
<path d="M176.932 98.8331C175.748 100.635 174.774 102.562 173.408 104.242C173.047 104.685 172.423 104.053 172.78 103.614C174.096 101.998 175.027 100.121 176.169 98.3835C176.483 97.9089 177.25 98.3514 176.932 98.8295V98.8331Z" fill="#D38318"/>
<path d="M183.625 106.708C183.069 108.118 182.587 109.555 182.031 110.965C181.824 111.489 180.968 111.261 181.174 110.729C181.731 109.32 182.213 107.882 182.769 106.473C182.976 105.948 183.832 106.176 183.625 106.708Z" fill="#D38318"/>
<path d="M189.475 104.581C189.151 106.533 188.088 108.221 187.303 110.005C187.075 110.526 186.311 110.076 186.536 109.559C187.289 107.839 188.305 106.223 188.619 104.346C188.712 103.782 189.568 104.021 189.475 104.581Z" fill="#D38318"/>
<path d="M199.267 104.421C198.215 106.034 197.459 107.789 196.92 109.634C196.759 110.18 195.903 109.948 196.064 109.398C196.624 107.482 197.409 105.648 198.5 103.975C198.811 103.497 199.578 103.943 199.267 104.421Z" fill="#D38318"/>
<path d="M200.109 111.761C199.799 113.741 199.053 115.621 198.779 117.612C198.7 118.176 197.848 117.937 197.922 117.377C198.197 115.386 198.943 113.505 199.253 111.525C199.342 110.961 200.195 111.2 200.109 111.761Z" fill="#D38318"/>
<path d="M208.043 93.5166C207.209 95.1579 206.192 96.6851 205.05 98.1266C204.697 98.5762 204.073 97.9446 204.422 97.4986C205.514 96.1142 206.477 94.637 207.28 93.067C207.54 92.5567 208.304 93.0063 208.043 93.513V93.5166Z" fill="#D38318"/>
<path d="M200.794 92.5429C199.417 93.9309 198.208 95.4438 197.406 97.2386C197.174 97.7595 196.41 97.3099 196.642 96.7925C197.47 94.9336 198.743 93.3529 200.167 91.9149C200.57 91.5082 201.194 92.1362 200.794 92.5429Z" fill="#D38318"/>
<path d="M191.22 91.2119C189.757 92.6748 188.298 94.1484 186.964 95.7327C186.597 96.1716 185.972 95.54 186.336 95.1047C187.67 93.5205 189.126 92.0468 190.592 90.5839C190.995 90.1807 191.623 90.8051 191.22 91.2119Z" fill="#D38318"/>
<path d="M182.358 87.0266C180.799 87.8401 179.558 89.0568 178.459 90.4163C178.099 90.8623 177.474 90.2307 177.831 89.7883C178.976 88.3753 180.285 87.1086 181.909 86.263C182.415 85.999 182.865 86.7661 182.354 87.0301L182.358 87.0266Z" fill="#D38318"/>
<path d="M186.169 73.6603C184.66 74.8877 183.286 76.2757 181.913 77.6494C181.51 78.0526 180.882 77.4282 181.285 77.0214C182.659 75.6477 184.028 74.2597 185.541 73.0323C185.98 72.6755 186.611 73.2999 186.169 73.6603Z" fill="#D38318"/>
<path d="M176.508 82.7696C175.716 83.3191 175.231 84.1611 174.807 85.0032C174.55 85.5134 173.783 85.0639 174.043 84.5572C174.546 83.5653 175.135 82.6483 176.062 82.006C176.533 81.6777 176.976 82.4484 176.508 82.7731V82.7696Z" fill="#D38318"/>
<path d="M81.6673 143.41C79.2308 141.612 76.4804 140.288 73.9547 138.621C73.4803 138.307 73.9226 137.54 74.4007 137.854C76.9263 139.521 79.6732 140.841 82.1132 142.643C82.5663 142.978 82.1275 143.749 81.6673 143.41Z" fill="#FFA21A"/>
<path d="M77.9464 146.6C75.9309 145.176 73.7655 143.984 71.5645 142.875C71.0543 142.618 71.5038 141.854 72.0104 142.107C74.2114 143.214 76.3768 144.409 78.3923 145.829C78.8561 146.157 78.4137 146.924 77.9464 146.596V146.6Z" fill="#FFA21A"/>
<path d="M65.1825 139.685C63.1526 138.275 60.7804 137.483 58.5365 136.495C58.0157 136.266 58.4652 135.503 58.9824 135.727C61.2263 136.716 63.5986 137.508 65.6284 138.917C66.0957 139.242 65.6534 140.009 65.1825 139.685Z" fill="#FFA21A"/>
<path d="M68.7458 135.738C66.6803 135.139 64.6684 134.354 62.7919 133.301C62.2925 133.023 62.7384 132.256 63.2379 132.534C65.0501 133.551 66.9871 134.304 68.9813 134.882C69.5306 135.042 69.2952 135.895 68.7458 135.738Z" fill="#FFA21A"/>
<path d="M56.5133 133.08C54.7118 132.334 52.7997 132.006 50.9304 131.485C50.381 131.332 50.6129 130.475 51.1659 130.629C53.0351 131.15 54.9472 131.481 56.7487 132.224C57.2696 132.438 57.0412 133.298 56.5133 133.08Z" fill="#FFA21A"/>
<path d="M55.7146 128.028C53.0212 127.239 50.228 126.925 47.4705 126.433C46.9068 126.333 47.1458 125.477 47.7059 125.576C50.4599 126.069 53.2531 126.383 55.95 127.171C56.4994 127.332 56.2639 128.188 55.7146 128.028Z" fill="#FFA21A"/>
<path d="M44.281 131.485C41.4842 130.679 38.509 130.675 35.7729 129.623C35.2449 129.419 35.4732 128.563 36.0083 128.766C38.7445 129.815 41.7196 129.823 44.5164 130.629C45.0658 130.786 44.8304 131.642 44.281 131.485Z" fill="#FFA21A"/>
<path d="M37.7526 125.915C35.0022 125.933 32.316 126.426 29.6262 126.964C29.0697 127.075 28.8307 126.222 29.3907 126.108C32.1554 125.555 34.9237 125.048 37.7526 125.027C38.3234 125.023 38.3234 125.908 37.7526 125.912V125.915Z" fill="#FFA21A"/>
<path d="M25.0387 128.181C23.5225 129.63 21.5248 130.368 19.6306 131.175C19.1097 131.396 18.6603 130.632 19.1847 130.407C21.0004 129.633 22.9625 128.937 24.4144 127.553C24.8282 127.157 25.456 127.785 25.0422 128.181H25.0387Z" fill="#FFA21A"/>
<path d="M78.2106 151.652C76.2771 150.828 74.2937 150.121 72.1996 149.836C71.636 149.757 71.875 148.904 72.4351 148.979C74.604 149.279 76.6481 150.032 78.6565 150.885C79.1809 151.109 78.7279 151.873 78.2106 151.652Z" fill="#FFA21A"/>
<path d="M77.5181 157.015C75.0709 156.176 72.7878 154.928 70.3406 154.089C69.802 153.903 70.0338 153.047 70.5761 153.233C73.0233 154.071 75.3064 155.32 77.7536 156.159C78.2922 156.344 78.0604 157.2 77.5181 157.015Z" fill="#FFA21A"/>
<path d="M65.671 150.382C63.3665 150.125 61.0585 149.871 58.7575 149.582C58.1974 149.515 58.1903 148.626 58.7575 148.697C61.0585 148.983 63.3665 149.24 65.671 149.497C66.2311 149.557 66.2382 150.446 65.671 150.382Z" fill="#FFA21A"/>
<path d="M49.7179 146.924C46.9318 147.21 44.0244 147.606 41.4345 148.726C40.9137 148.951 40.4642 148.187 40.9886 147.959C43.7354 146.774 46.7641 146.339 49.7214 146.036C50.2886 145.979 50.2851 146.864 49.7214 146.921L49.7179 146.924Z" fill="#FFA21A"/>
<path d="M49.7174 151.449C48.2298 151.466 46.7779 151.72 45.3153 151.966C44.7553 152.059 44.5163 151.206 45.0799 151.11C46.621 150.849 48.1514 150.582 49.7174 150.56C50.2882 150.553 50.2882 151.441 49.7174 151.445V151.449Z" fill="#FFA21A"/>
<path d="M36.0083 152.23C34.849 152.533 33.7324 152.986 32.6586 153.514C32.1485 153.768 31.699 153.001 32.2127 152.751C33.3542 152.187 34.5422 151.698 35.7765 151.377C36.3294 151.231 36.5648 152.087 36.0119 152.233L36.0083 152.23Z" fill="#FFA21A"/>
<path d="M76.9866 163.666C74.2862 162.838 71.6998 161.582 68.8602 161.29C68.2966 161.233 68.293 160.344 68.8602 160.405C71.789 160.708 74.436 161.961 77.2221 162.813C77.7679 162.981 77.536 163.837 76.9866 163.67V163.666Z" fill="#FFA21A"/>
<path d="M68.3327 158.096C65.6108 158.086 62.8604 157.861 60.2063 158.614C59.6569 158.771 59.4215 157.914 59.9708 157.757C62.6998 156.983 65.5287 157.201 68.3327 157.208C68.9034 157.208 68.9034 158.096 68.3327 158.093V158.096Z" fill="#FFA21A"/>
<path d="M59.9387 162.867C57.6556 163.462 55.5223 164.504 53.2927 165.261C52.7505 165.446 52.5186 164.59 53.0573 164.404C55.2868 163.648 57.4201 162.606 59.7032 162.01C60.2561 161.867 60.4916 162.72 59.9387 162.867Z" fill="#FFA21A"/>
<path d="M50.5631 162.221C49.1469 163.662 47.9946 165.336 47.1741 167.184C46.9423 167.705 46.1788 167.256 46.4072 166.738C47.2562 164.826 48.4691 163.088 49.9317 161.597C50.3312 161.186 50.9591 161.814 50.5595 162.225L50.5631 162.221Z" fill="#FFA21A"/>
<path d="M75.1953 168.336C74.068 167.259 72.6625 166.606 71.1357 166.324C70.5756 166.221 70.8111 165.364 71.3711 165.468C73.0406 165.778 74.5889 166.531 75.8196 167.708C76.2334 168.104 75.6055 168.729 75.1917 168.336H75.1953Z" fill="#FFA21A"/>
<path d="M45.2441 172.593C44.734 173.118 44.3844 173.76 43.9848 174.367C43.6709 174.841 42.9039 174.399 43.2178 173.921C43.6602 173.254 44.0526 172.547 44.6163 171.969C45.0158 171.559 45.6437 172.187 45.2441 172.597V172.593Z" fill="#FFA21A"/>
<path d="M234.11 35.1136C234.253 34.8496 238.734 29.4118 240.214 27.8989C240.153 28.1844 241.409 36.8121 242.137 39.7094C243.535 36.7907 246.41 40.9582 246.139 42.8315C246.007 43.7449 245.526 45.2471 244.366 45.3613C241.662 45.6289 240.838 38.4534 240.471 36.1555C240.282 34.9709 240.021 33.772 239.911 32.5946C239.896 32.4483 239.843 32.2056 239.775 31.9202C238.305 33.772 236.871 35.8308 235.651 37.8611C236.037 40.4551 236.311 43.1062 236.95 45.6431C238.348 42.7244 241.224 46.892 240.952 48.7652C240.82 49.6787 240.335 51.1487 239.179 51.295C237.738 51.477 237.271 49.6894 236.914 48.6511C236.194 46.5459 235.648 44.3872 235.28 42.0893C235.091 40.9047 233.878 35.5418 234.114 35.1136H234.11Z" fill="#564336"/>
<path d="M254.137 33.4902C254.255 33.2726 257.947 28.7946 259.164 27.5493C259.114 27.7848 260.148 34.8925 260.747 37.2796C261.9 34.8746 264.268 38.3072 264.044 39.8522C263.937 40.605 263.541 41.8396 262.585 41.9359C260.355 42.1572 259.677 36.2448 259.374 34.3537C259.217 33.376 259.003 32.3912 258.914 31.4207C258.903 31.2994 258.857 31.0996 258.8 30.8641C257.587 32.3877 256.406 34.0861 255.4 35.7595C255.718 37.8968 255.946 40.0805 256.47 42.1714C257.622 39.7665 259.991 43.199 259.766 44.744C259.659 45.4969 259.26 46.7065 258.307 46.8278C257.119 46.9777 256.734 45.504 256.442 44.6477C255.846 42.9136 255.4 41.1367 255.097 39.242C254.94 38.2644 253.941 33.847 254.134 33.4938L254.137 33.4902Z" fill="#564336"/>
<path d="M268.846 4.88474C268.942 4.70634 271.974 1.02405 272.977 0C272.934 0.192678 273.787 6.03367 274.279 7.99613C275.224 6.0194 277.172 8.84178 276.99 10.1085C276.901 10.7293 276.576 11.7427 275.791 11.8211C273.961 12.0031 273.401 7.14336 273.155 5.59123C273.027 4.7884 272.852 3.97844 272.777 3.17919C272.766 3.07928 272.731 2.91515 272.684 2.72247C271.689 3.97487 270.719 5.37001 269.891 6.74373C270.151 8.49924 270.337 10.294 270.769 12.0138C271.714 10.0371 273.662 12.8595 273.48 14.1261C273.391 14.747 273.062 15.7389 272.281 15.8388C271.304 15.9637 270.99 14.7506 270.747 14.0476C270.258 12.624 269.891 11.161 269.641 9.60535C269.513 8.80253 268.692 5.17376 268.853 4.88118L268.846 4.88474Z" fill="#564336"/>
</g>
<defs>
<clipPath id="clip0_425_108730">
<rect width="277" height="288" fill="white" transform="matrix(-1 0 0 1 277 0)"/>
</clipPath>
</defs>
</svg>
