<svg width="287" height="338" viewBox="0 0 287 338" fill="none" xmlns="http://www.w3.org/2000/svg">
<g clip-path="url(#clip0_961_139)">
<path d="M18.0226 226.638C18.0226 226.638 9.26752 216.335 10.3569 216.199C11.4463 216.063 20.4649 215.215 20.4649 215.215L15.3859 203.341L30.4658 204.515L23.6171 193.975L37.7065 189.435L41.5642 209.246L18.0199 226.641L18.0226 226.638Z" fill="#D6CFC1"/>
<path d="M43.1877 184.577L111.81 180.453C111.81 180.453 121.751 138.354 134.519 129.805C142.684 124.336 167.296 124.32 169.622 145.157C171.25 159.726 176.885 220.466 161.674 238.714C137.625 267.568 101.067 269.358 75.1595 265.644C33.8786 259.726 14.0716 223.795 14.0716 223.795L21.5947 222.021L15.325 211.687L29.3142 210.773L23.7247 199.241L34.6852 200.652L29.5023 185.733L43.185 184.58L43.1877 184.577Z" fill="#EDE6D9"/>
<path d="M53.4871 222.764C53.4871 222.764 75.2929 203.518 94.4549 196.519C112.969 189.758 136.275 207.374 124.934 223.567C113.2 240.321 71.4333 242.48 71.4333 242.48L74.5601 232.083L60.9116 233.51L64.5147 222.498L53.4871 222.764Z" fill="#D6CFC1"/>
<path d="M127.986 137.29C127.986 137.29 131.71 131.877 143.571 129.227C154.87 126.703 159.672 129.718 159.672 129.718C159.672 129.718 157.848 116.313 151.834 115.687C144.548 114.929 144.413 118.282 144.413 118.282C144.413 118.282 142.403 115.474 138.251 117.661C134.098 119.848 133.93 122.928 133.93 122.928C133.93 122.928 130.559 122.515 128.143 125.319C125.728 128.123 127.979 137.291 127.979 137.291L127.986 137.29Z" fill="#EF5C3F"/>
<path d="M167.929 142.032C167.929 142.032 167.066 145.198 167.405 149.604C167.744 154.01 170.018 157.062 170.018 157.062C170.018 157.062 182.395 150.233 182.088 147.77C181.78 145.306 167.929 142.032 167.929 142.032Z" fill="#E8B618"/>
<path d="M154.504 140.372C154.637 141.43 153.89 142.395 152.837 142.527C151.785 142.658 150.824 141.907 150.692 140.848C150.559 139.79 151.306 138.825 152.359 138.694C153.411 138.562 154.372 139.314 154.504 140.372Z" fill="#564336"/>
<path d="M168.527 137.508C168.65 138.49 167.957 139.385 166.98 139.507C166.004 139.629 165.112 138.931 164.99 137.95C164.867 136.969 165.56 136.073 166.536 135.951C167.512 135.829 168.405 136.527 168.527 137.508Z" fill="#564336"/>
<path d="M131.412 124.91C130.883 125.136 130.527 125.468 130.261 125.851C128.467 127.262 127.722 129.71 129.288 131.97C130.347 130.567 130.272 129.495 132.168 128.705C133.288 128.24 135.051 127.745 134.891 126.144C134.72 124.453 132.669 124.378 131.412 124.91Z" fill="#ED7454"/>
<path d="M140.263 118.244C139.263 118.279 137.372 119.108 136.7 120.245C136.161 120.809 135.816 121.483 135.895 122.264C136.162 124.923 139.179 122.556 140.321 121.745C141.797 120.695 143.181 118.145 140.263 118.244Z" fill="#ED7454"/>
<path d="M128.452 177.971L133.787 172.509L131.512 170.919L129.778 173.635L129.013 170.813L126.356 171.145L128.452 177.971Z" fill="white"/>
<path d="M143.61 211.309L148.944 205.847L146.669 204.257L144.936 206.976L144.17 204.151L141.514 204.482L143.61 211.309Z" fill="white"/>
<path d="M141.724 171.312L144.901 182.592L151.048 172.808L147.481 172.348L146.062 175.568L144.588 171.257L141.724 171.312Z" fill="white"/>
<path d="M156.44 208.804L159.355 218.533L164.824 208.35L161.236 208.133L160.039 211.443L158.278 207.243L156.44 208.804Z" fill="white"/>
<path d="M161.147 190.059L165.223 199.356L169.415 188.576L165.826 188.803L165.042 192.234L162.783 188.28L161.147 190.059Z" fill="white"/>
<path d="M148.768 190.284L152.844 199.581L157.036 188.801L153.447 189.028L152.663 192.459L150.404 188.505L148.768 190.284Z" fill="white"/>
<path d="M133.375 186.578L137.448 195.875L141.64 185.096L138.054 185.322L137.267 188.753L135.009 184.803L133.375 186.578Z" fill="white"/>
<path d="M156.483 175.86L160.392 184.462L164.41 174.454L161.068 174.675L160.193 177.892L158.972 174.79L156.483 175.86Z" fill="white"/>
<path d="M146.644 222.691L146.815 232.145L154.472 224.581L151.319 223.444L149.241 226.04L149.35 222.709L146.644 222.691Z" fill="white"/>
<path d="M92.192 201.472L87.2419 208.344L96.4571 207.403L94.5152 205.143L91.7082 205.909L93.6469 203.168L92.192 201.472Z" fill="#F2EAD7"/>
<path d="M98.0175 211.584L91.4332 216.992L101.517 218.026L100.241 216.101L96.8706 215.688L99.1423 213.946L98.0175 211.584Z" fill="#F2EAD7"/>
<path d="M104.074 223.545L98.8675 228.366L107.525 229.578L106.4 227.216L102.875 227.238L105.404 225.881L104.074 223.545Z" fill="#F2EAD7"/>
<path d="M80.427 206.903L76.9316 212.135L83.1347 211.984L82.6477 209.752L80.4016 210.033L81.4492 208.443L80.427 206.903Z" fill="#F2EAD7"/>
<path d="M84.029 215.834L79.1812 220.191L88.2203 221.149L87.0955 218.787L83.8273 219.195L85.8425 217.066L84.029 215.834Z" fill="#F2EAD7"/>
<path d="M89.9829 225.305L85.1383 231.33L94.5329 231.825L93.3824 229.257L89.6788 229.514L91.9248 227.565L89.9829 225.305Z" fill="#F2EAD7"/>
<path d="M100.895 196.424L97.3994 201.656L104.089 202.069L102.99 199.914L100.946 200.169L101.763 198.399L100.895 196.424Z" fill="#F2EAD7"/>
<path d="M108.611 206.718L103.789 212.947L111.931 213.392L110.832 211.236L107.567 211.644L109.989 209.464L108.611 206.718Z" fill="#F2EAD7"/>
<path d="M114.946 217.601L109.486 223.703L118.012 223.887L116.862 221.323L113.799 221.705L115.612 219.601L114.946 217.601Z" fill="#F2EAD7"/>
</g>
<path d="M274.416 47.3323C267.998 22.6671 230.934 1.58858 206.773 13.4649C182.126 25.5744 163.744 54.7927 173.557 78.6676C177.314 87.8156 185.717 96.9237 196.027 103.83C195.428 113.38 194.706 124.82 194.578 125.625L211.227 111.739C224.481 116.792 238.637 117.583 249.587 110.757C274.455 95.2676 280.813 72.0019 274.395 47.3367L274.416 47.3323Z" fill="#F5F1E9"/>
<path d="M206.969 51.7964C206.105 51.3857 205.523 51.1309 205.224 51.0321L210.848 39.1947C210.972 39.297 211.255 39.4529 211.696 39.6625C212.143 39.8748 212.666 40.1089 213.265 40.3648L208.68 50.0147L210.506 50.8821C211.036 51.1336 211.467 51.3171 211.802 51.4327C211.107 52.7891 210.747 53.4938 210.722 53.5468L210.68 53.635C210.123 53.32 209.165 52.8399 207.807 52.1945L206.969 51.7964ZM221.152 55.9396C221.516 56.1128 221.786 56.1977 221.96 56.1942L221.991 56.2198L220.851 58.3919L214.245 55.253L219.848 43.4597C220.001 43.5469 220.173 43.6395 220.364 43.7376L220.973 44.0486C221.379 44.2559 221.824 44.4741 222.306 44.7032C223.652 45.343 224.995 45.9523 226.335 46.531C226.025 47.0178 225.664 47.6934 225.253 48.5578C225.209 48.6519 225.181 48.7253 225.17 48.7779L225.14 48.796C224.876 48.5625 224.462 48.3116 223.897 48.0434L221.119 46.7234L220.05 48.9727L222.141 49.9659C222.788 50.2732 223.184 50.4399 223.33 50.4661L222.322 52.6574C222.053 52.4939 221.696 52.306 221.249 52.0936L219.061 51.0544L217.553 54.2298L221.152 55.9396ZM228.949 62.3037C228.683 62.1344 227.965 61.7717 226.795 61.2157L226.513 61.0816L231.148 51.3259L229.401 50.4961C228.884 50.2503 228.565 50.1314 228.446 50.1397C228.327 50.1479 228.231 50.16 228.159 50.176L228.136 50.1546L229.209 47.8965L229.248 47.8826C229.412 48.0395 229.92 48.3205 230.772 48.7256L236.303 51.3532C236.82 51.599 237.139 51.7178 237.258 51.7096C237.377 51.7014 237.473 51.6893 237.546 51.6733L237.568 51.6946L236.495 53.9528L236.456 53.9666C236.293 53.8098 235.785 53.5288 234.932 53.1237L233.609 52.4951L228.949 62.3037ZM243.972 53.7535C243.744 54.4017 243.554 54.8846 243.403 55.2021C243.255 55.5138 243.099 55.811 242.936 56.0939C242.779 56.3795 242.627 56.6316 242.48 56.85C242.151 57.3139 241.906 57.5576 241.743 57.5813C241.359 57.6297 240.571 57.5073 239.377 57.2139L239.349 57.1358C239.748 56.8424 240.271 56.0136 240.919 54.6493C241.204 54.0495 241.434 53.5207 241.608 53.0629L243.972 53.7535ZM255.06 61.0648L253.661 63.5785L253.591 63.5668C253.466 62.7073 252.926 61.9319 251.971 61.2406C251.673 61.0194 251.37 60.8362 251.065 60.691C250.765 60.5485 250.493 60.452 250.251 60.4016C250.014 60.3539 249.795 60.3437 249.595 60.3711C249.171 60.4291 248.878 60.6287 248.716 60.9697C248.504 61.4167 248.485 61.8189 248.661 62.1765C248.886 62.6146 249.38 63.0837 250.144 63.5838C250.912 64.0779 251.497 64.5365 251.902 64.9593C252.306 65.3822 252.599 65.8131 252.78 66.2521C253.123 67.0781 253.059 67.985 252.59 68.973C251.975 70.2667 251.014 71.0315 249.705 71.2675C248.585 71.4706 247.39 71.2704 246.12 70.667C245.097 70.1809 244.177 69.5063 243.362 68.6432C243.094 68.3574 242.877 68.0705 242.711 67.7827L244.208 64.8826L244.256 64.8729C244.387 66.4778 245.285 67.6755 246.949 68.4662C248.131 69.0277 249.049 69.1141 249.702 68.7253C249.923 68.5927 250.09 68.4088 250.202 68.1736C250.316 67.9325 250.372 67.7173 250.368 67.5281C250.367 67.333 250.305 67.1377 250.181 66.9422C249.947 66.5567 249.444 66.1343 248.675 65.6751C247.906 65.2159 247.316 64.7589 246.905 64.3042C246.494 63.8494 246.209 63.3936 246.052 62.9366C245.767 62.1095 245.865 61.1902 246.345 60.1787C246.843 59.132 247.613 58.4598 248.655 58.1622C249.715 57.8584 250.877 58.0068 252.141 58.6075C253.411 59.211 254.384 60.0301 255.06 61.0648ZM207.549 71.0791C207.343 71.2259 207.059 71.6786 206.699 72.4372L205.399 75.1716C205.006 76.0008 204.234 76.5172 203.085 76.7209C201.892 76.94 200.652 76.7436 199.364 76.1318C197.577 75.2825 196.418 74.0434 195.887 72.4145C195.366 70.8554 195.5 69.2467 196.288 67.5884C197.126 65.8242 198.348 64.6027 199.953 63.9239C201.752 63.1568 203.677 63.2607 205.73 64.2358C207.1 64.8867 208.059 65.6668 208.607 66.576L207.23 69.1111L207.151 69.0952C207.116 68.6387 206.85 68.1519 206.353 67.6348C205.88 67.1434 205.326 66.7469 204.691 66.4451C204.062 66.1462 203.461 65.9835 202.89 65.9572C202.325 65.9336 201.789 66.0288 201.284 66.2429C200.23 66.6718 199.406 67.5096 198.814 68.7562C198.297 69.8441 198.188 70.8627 198.487 71.8118C198.788 72.7551 199.421 73.4559 200.386 73.914C201.45 74.4197 202.299 74.4842 202.932 74.1074C203.133 73.9869 203.287 73.8149 203.393 73.5914L204.089 72.1272L202.951 71.5866C202.339 71.296 201.982 71.1911 201.879 71.2718L201.857 71.2504L202.871 68.9105C203.013 69.0357 203.669 69.3764 204.84 69.9323L205.881 70.4268C206.527 70.7342 207.078 70.9415 207.531 71.0488L207.549 71.0791ZM209.621 79.0261C209.329 78.2603 209.198 77.4446 209.227 76.5791C209.262 75.7164 209.482 74.8587 209.887 74.0061C210.295 73.1475 210.824 72.4045 211.476 71.7769C212.127 71.1493 212.859 70.6716 213.67 70.3436C214.482 70.0157 215.348 69.8614 216.269 69.8807C217.192 69.8942 218.124 70.1244 219.065 70.5714C220.688 71.3425 221.812 72.5037 222.438 74.0549C223.106 75.713 222.999 77.4712 222.116 79.3294C221.261 81.1289 219.938 82.3349 218.148 82.9475C217.046 83.325 215.909 83.4046 214.737 83.1865C214.161 83.0787 213.529 82.8614 212.841 82.5345C212.159 82.2104 211.523 81.7354 210.934 81.1095C210.351 80.4864 209.913 79.792 209.621 79.0261ZM212.398 75.0476C212.138 75.5945 211.99 76.1406 211.955 76.6858C211.919 77.2311 211.985 77.7453 212.152 78.2282C212.51 79.249 213.23 80.0164 214.312 80.5305C215.341 81.0194 216.325 81.0797 217.264 80.7113C218.226 80.325 218.989 79.5379 219.554 78.3501C220.085 77.2328 220.225 76.1569 219.974 75.1223C219.701 74.0124 218.997 73.1879 217.862 72.6487C216.763 72.1262 215.697 72.1171 214.664 72.6213C213.698 73.0921 212.943 73.9009 212.398 75.0476ZM227.17 85.028C226.886 84.8502 226.38 84.5881 225.651 84.2417L224.945 83.9064L229.026 75.2714L229.812 75.688L230.006 75.7802C230.688 76.1043 231.135 76.2875 231.345 76.3299L227.17 85.028ZM226.661 86.2351C226.498 86.518 226.307 86.8887 226.089 87.3474C225.874 87.8002 225.729 88.1351 225.655 88.3521L223.318 87.2416C223.538 86.8993 223.732 86.5518 223.9 86.199C224.07 85.8402 224.217 85.4849 224.341 85.133L226.661 86.2351Z" fill="#D74C38"/>
<defs>
<clipPath id="clip0_961_139">
<rect width="179" height="205" fill="white" transform="translate(0 134.188) rotate(-7.12043)"/>
</clipPath>
</defs>
</svg>
