<?xml version="1.0" encoding="utf-8"?>
<!-- Generator: Adobe Illustrator 27.5.0, SVG Export Plug-In . SVG Version: 6.00 Build 0)  -->
<svg version="1.1" id="圖層_1" xmlns="http://www.w3.org/2000/svg" xmlns:xlink="http://www.w3.org/1999/xlink" x="0px" y="0px"
	 viewBox="0 0 154 218" style="enable-background:new 0 0 154 218;" xml:space="preserve">
<style type="text/css">
	.st0{fill:none;}
	.st1{fill:#D74C38;}
	.st2{fill:#FFC93D;}
	.st3{fill:#C2A16C;}
</style>
<rect class="st0" width="154" height="161"/>
<path class="st1" d="M77,58.8c0.8,0,1.5-1,2.3-1c0.8,0,1.4,1,2.2,1.1c0.7,0.1,1.4,0.4,2.2,0.5s1.4,0.5,2.1,0.8
	c0.7,0.2,1.4,0.3,2.2,0.6c0.7,0.3,1.4,0.5,2.1,0.8c0.7,0.3,1.5,0.3,2.2,0.6c0.7,0.3,1.2,1,1.9,1.3s1.9-0.3,2.6,0.1
	c0.7,0.4,1.3,0.8,1.9,1.2c0.6,0.4,0.7,1.6,1.3,2.1c0.6,0.4,1.1,1,1.7,1.5c0.6,0.5,2,0,2.5,0.5c0.6,0.5,0.8,1.4,1.3,1.9
	c0.6,0.5,0.4,1.7,1,2.3c0.6,0.6,2.1,0.1,2.6,0.7c0.5,0.6,1.1,1.1,1.6,1.7c0.5,0.6,0,2,0.5,2.6c0.5,0.6,1.8,0.4,2.3,1.1
	c0.5,0.6,0.3,1.7,0.7,2.3c0.4,0.6,1.3,1,1.7,1.6c0.4,0.6,0.6,1.4,1,2.1c0.4,0.6,0.6,1.4,1,2.1c0.4,0.7,1.1,1.1,1.4,1.8
	c0.4,0.7,0.1,1.7,0.5,2.3c0.4,0.7,1.4,1,1.8,1.6c0.3,0.7,0.7,1.4,1,2c0.3,0.7,1.1,1.1,1.5,1.8c0.3,0.7-0.4,1.9-0.1,2.6
	c0.3,0.7,1.8,0.9,2.1,1.6c0.3,0.7,0.3,1.6,0.6,2.2c0.3,0.7,0.2,1.6,0.5,2.3c0.3,0.7,1,1.2,1.3,1.9c0.3,0.7-0.2,1.7,0,2.4
	c0.3,0.7,0.3,1.5,0.6,2.2c0.3,0.7,1.1,1.2,1.4,1.9c0.2,0.7,0.5,1.4,0.7,2.2c0.3,0.7,0.3,1.5,0.5,2.2c0.2,0.7,0.5,1.4,0.7,2.2
	c0.2,0.7,0.2,1.5,0.4,2.3c0.2,0.8,0.9,1.3,1.1,2.1c0.2,0.7,0.3,1.5,0.4,2.3c0.2,0.7-0.7,1.7-0.5,2.5c0.2,0.8,1.1,1.3,1.2,2.1
	c0.2,0.7,0.2,1.5,0.4,2.3s0.9,1.4,1,2.2s0.4,1.5,0.5,2.3c0.1,0.8-1.1,1.7-0.9,2.5s0.3,1.5,0.4,2.3c0.1,0.8,1.3,1.4,1.4,2.1
	c0.1,0.8,0.4,1.5,0.5,2.2c0.1,0.8-0.8,1.6-0.8,2.4c0.1,0.8,0.6,1.5,0.7,2.2c0.1,0.8,0.1,1.5,0.2,2.3c0.1,0.8,0.7,1.5,0.8,2.3
	c0.1,0.8-0.2,1.6-0.1,2.3c0.1,0.8,0.1,1.3,0.1,2.1c0.5-0.6,0.8-1,1.2-1.7c0.4-0.6,0.4-1.5,0.8-2.2c0.4-0.7,1.8-0.7,2.2-1.3
	c0.4-0.7,0.9-1.3,1.3-2c0.4-0.7-0.6-2-0.2-2.7c0.3-0.7,1-1.2,1.3-1.9c0.3-0.7,1.1-1.2,1.4-1.9c0.3-0.7,0.4-1.5,0.7-2.2
	s0.7-1.4,0.9-2.1c0.3-0.7,0.1-1.6,0.3-2.3c0.3-0.7,1-1.3,1.2-2s-0.6-1.7-0.4-2.5c0.2-0.8,0.8-1.4,0.9-2.1c0.2-0.8,0.1-1.5,0.2-2.3
	c0.2-0.8,1.3-1.3,1.4-2.1c0.1-0.8-0.8-1.7-0.7-2.4c0.1-0.8,1-1.4,1.1-2.2s0.6-1.5,0.7-2.3c0.1-0.8,0.1-1.6,0.2-2.3
	c0.1-0.8,0-1.5,0-2.3c0-0.8,0.2-1.6,0.2-2.3s-0.4-1.6-0.4-2.3c0-0.8,0.6-1.6,0.6-2.3c0-0.8-0.9-1.5-0.9-2.3c0-0.8,0.5-1.6,0.5-2.3
	c0-0.8,0.1-1.5,0-2.3c-0.1-0.8-0.2-1.5-0.2-2.3c-0.1-0.8-0.8-1.5-0.9-2.2c-0.1-0.8,0.1-1.6,0-2.3c-0.1-0.7-0.9-1.4-1-2.2
	c-0.1-0.8,0.8-1.6,0.6-2.4c-0.1-0.8,0-1.6-0.1-2.3c-0.1-0.8-1.7-1.2-1.8-2c-0.1-0.8,0.2-1.6,0.1-2.3c-0.2-0.7-0.7-1.4-0.8-2.2
	c-0.2-0.8-0.2-1.5-0.3-2.3c-0.2-0.7,0.5-1.7,0.3-2.4c-0.2-0.7-0.3-1.5-0.5-2.2c-0.2-0.7-0.2-1.6-0.4-2.3c-0.2-0.7-1.3-1.2-1.5-1.9
	c-0.2-0.7-0.7-1.4-0.9-2.1c-0.2-0.7,0.1-1.6-0.1-2.3c-0.2-0.7-0.6-1.4-0.8-2.1c-0.3-0.7-0.9-1.3-1.2-2c-0.3-0.7-0.5-1.4-0.8-2.1
	c-0.3-0.7-0.9-1.3-1.2-2c-0.3-0.7-0.4-1.5-0.8-2.2c-0.3-0.7,0.2-1.8-0.1-2.4c-0.3-0.7-0.6-1.4-0.9-2.1c-0.3-0.7-0.9-1.3-1.2-1.9
	c-0.3-0.7-0.4-1.5-0.8-2.2c-0.3-0.7-0.7-1.4-1.1-2c-0.4-0.7-1.1-1.2-1.4-1.8s-1-1.2-1.4-1.8c-0.4-0.7-0.8-1.3-1.2-2
	c-0.4-0.7-0.1-1.7-0.5-2.4c-0.4-0.7-1.1-1.1-1.5-1.8c-0.4-0.6-0.4-1.6-0.8-2.2c-0.4-0.6-1.4-0.9-1.9-1.5c-0.4-0.6-0.2-1.7-0.6-2.3
	c-0.4-0.6-1.8-0.6-2.3-1.2c-0.5-0.6-0.8-1.3-1.3-1.9c-0.5-0.6-0.5-1.5-1-2.1c-0.5-0.6-0.9-1.2-1.4-1.8c-0.5-0.6-1.6-0.6-2.1-1.1
	c-0.5-0.6-0.5-1.6-1.1-2.1c-0.5-0.6-0.7-1.4-1.3-2c-0.5-0.5-1.6-0.5-2.2-1c-0.6-0.5-0.9-1.2-1.5-1.7c-0.5-0.5-1.6-0.5-2.2-1
	c-0.6-0.5-0.4-1.9-0.9-2.4c-0.6-0.5-1.1-1-1.7-1.5c-0.6-0.4-1.4-0.7-2-1.1c-0.6-0.4-1.6-0.3-2.3-0.7c-0.6-0.4-1.1-1.1-1.7-1.5
	c-0.6-0.4-1.2-1-1.8-1.4s-1.8,0.1-2.4-0.2c-0.7-0.3-1.2-0.9-1.9-1.2c-0.7-0.3-1-1.4-1.7-1.7c-0.7-0.3-1.5-0.3-2.2-0.6
	C92.3,3,91.6,3,90.8,2.7c-0.7-0.3-1.5-0.2-2.2-0.4c-0.7-0.2-1.2-1.2-2-1.4c-0.8-0.2-1.7,0.6-2.4,0.5c-0.7-0.1-1.3-1-2.1-1.1
	c-0.8-0.1-1.5-0.2-2.3-0.3c-0.8-0.1-1.5,0.6-2.3,0.5c-0.8,0-1.5-0.5-2.3-0.5s-1.5,0-2.3,0c-0.8,0-1.5,0-2.3,0s-1.5,0-2.3,0.1
	c-0.8,0.1-1.2,1.6-2,1.7c-0.8,0.2-1.8-1-2.5-0.8c-0.7,0.2-1.4,0.6-2.1,0.8c-0.7,0.2-1.5,0.2-2.3,0.5c-0.7,0.3-1.2,1.1-1.9,1.5
	s-1.2,0.9-1.9,1.3c-0.7,0.3-1.7-0.1-2.4,0.3c-0.7,0.3-0.9,1.5-1.6,1.8S50.5,8,49.9,8.4c-0.6,0.4-1.1,1-1.8,1.4
	c-0.6,0.4-1.9-0.1-2.5,0.3c-0.6,0.4-1.2,0.9-1.8,1.4c-0.6,0.4-0.7,1.5-1.3,2c-0.6,0.5-1,1.2-1.5,1.7c-0.6,0.5-1,1.1-1.5,1.6
	c-0.6,0.5-1.9,0.2-2.4,0.7c-0.5,0.5-0.7,1.5-1.2,2s-1.2,1-1.7,1.6c-0.5,0.6-0.4,1.7-0.9,2.3c-0.5,0.6-1.7,0.5-2.2,1
	c-0.5,0.6-0.6,1.5-1.1,2.1c-0.5,0.6-0.9,1.2-1.4,1.8c-0.5,0.6-0.9,1.2-1.4,1.8c-0.4,0.6-0.9,1.2-1.3,1.8c-0.4,0.6-1.5,0.8-1.9,1.5
	c-0.4,0.6-0.2,1.7-0.7,2.3c-0.4,0.6-1.5,0.9-1.9,1.5c-0.4,0.6-0.5,1.5-0.8,2.2c-0.4,0.7,0,1.7-0.4,2.4c-0.4,0.7-1,1.2-1.3,1.8
	c-0.4,0.7-0.9,1.2-1.3,1.9c-0.3,0.7-1,1.2-1.3,1.9c-0.3,0.7-0.8,1.3-1.1,2c-0.3,0.7-0.4,1.5-0.7,2.2c-0.3,0.7-1.3,1.1-1.5,1.8
	c-0.3,0.7-0.1,1.6-0.3,2.3s-0.5,1.5-0.8,2.2c-0.3,0.7-1,1.2-1.3,2c-0.3,0.7,0.3,1.7,0,2.4c-0.3,0.7-0.7,1.4-0.9,2.1
	c-0.3,0.7-1.3,1.2-1.5,1.9c-0.3,0.7,0.5,1.8,0.3,2.5c-0.3,0.7-1.6,1.1-1.9,1.8c-0.3,0.7,0.8,1.8,0.6,2.6c-0.2,0.7-1.5,1.1-1.7,1.9
	c-0.2,0.7,0.7,1.8,0.5,2.5c-0.2,0.7-0.5,1.4-0.7,2.2c-0.2,0.7-1.6,1.2-1.7,1.9C3.4,82.3,4.2,83.2,4,84c-0.2,0.7-1.1,1.3-1.3,2.1
	c-0.2,0.8,0.7,1.7,0.5,2.4c-0.1,0.8-1.3,1.3-1.4,2.1c-0.1,0.7,0,1.6-0.1,2.3c-0.1,0.8,0,1.6-0.1,2.3c-0.1,0.7-0.4,1.5-0.5,2.3
	c-0.1,0.8-0.5,1.5-0.6,2.3c-0.1,0.8,0.3,1.6,0.3,2.3c-0.1,0.8-0.1,1.5-0.2,2.3c0,0.8-0.7,1.5-0.7,2.2c0,0.8,0.4,1.6,0.4,2.3
	c0,0.8-0.1,1.5-0.2,2.3c0,0.8,0.2,1.5,0.2,2.3s-0.4,1.6-0.4,2.3c0,0.8,0.6,1.5,0.6,2.3s0.2,1.5,0.3,2.3c0.1,0.8,0.3,1.5,0.3,2.3
	c0.1,0.8-0.5,1.6-0.4,2.4c0.1,0.8,0.6,1.5,0.7,2.3c0.1,0.8-0.2,1.6-0.1,2.3c0.1,0.7,0.5,1.5,0.7,2.2c0.2,0.7,0.3,1.5,0.5,2.3
	s0.8,1.4,1,2.1c0.2,0.7,0.3,1.5,0.5,2.2c0.2,0.7,0.5,1.4,0.8,2.2c0.3,0.7,0.7,1.4,0.9,2.1c0.3,0.7,0,1.6,0.3,2.3
	c0.3,0.7,1,1.2,1.3,1.9c0.3,0.7,0.4,1.5,0.8,2.2c0.3,0.7,0.4,1.5,0.8,2.2c0.3,0.7,0.5,1.5,0.8,2.2c0.4,0.7,1.3,1,1.6,1.7
	s0,1.8,0.4,2.5c0.4,0.7,1.2,1,1.6,1.7c0.4,0.6,1,0.7,1.5,1.3c0.1-0.8-0.1-1.2-0.1-2c0.1-0.8-0.3-1.6-0.2-2.3s0.3-1.5,0.3-2.3
	c0.1-0.8,0.8-1.5,0.8-2.2s-0.4-1.6-0.3-2.3c0.1-0.8,0.9-1.4,1-2.2c0.1-0.8,0.2-1.5,0.3-2.3c0.1-0.8,0.6-1.5,0.7-2.2
	c0.1-0.8,0.1-1.5,0.3-2.3c0.1-0.8-0.4-1.6-0.3-2.4c0.2-0.8,1-1.4,1.2-2.1c0.2-0.8-0.8-1.7-0.7-2.5c0.2-0.7,1.3-1.3,1.4-2
	s-0.6-1.7-0.4-2.4c0.2-0.7,1.6-1.2,1.8-1.9c0.2-0.7-0.7-1.7-0.5-2.5c0.2-0.8,0.5-1.5,0.7-2.2c0.2-0.7,0.3-1.5,0.5-2.2
	c0.2-0.7,0.6-1.4,0.8-2.2c0.2-0.7,0.7-1.4,0.9-2.1c0.2-0.7,0.2-1.6,0.4-2.3c0.3-0.7,1.3-1.2,1.6-1.9c0.3-0.7-0.4-1.8-0.2-2.5
	c0.3-0.7,0.7-1.4,0.9-2.1c0.3-0.7,1.4-1.1,1.7-1.8c0.3-0.7,0.6-1.4,0.9-2.1c0.3-0.7,0.6-1.4,0.9-2.1c0.3-0.7-0.4-1.9-0.1-2.5
	c0.3-0.7,0.4-1.5,0.7-2.2c0.3-0.7,0.6-1.4,0.9-2.1c0.3-0.7,1.2-1.1,1.5-1.8c0.3-0.7,0.5-1.5,0.9-2.1c0.4-0.7,1.1-1.1,1.5-1.8
	c0.4-0.7,1.3-1,1.7-1.7c0.4-0.7,0.7-1.4,1.1-2c0.4-0.6,0.1-1.8,0.5-2.4c0.4-0.6,0.9-1.3,1.3-1.9c0.4-0.6,1.1-1.1,1.6-1.7
	c0.5-0.6,0.7-1.5,1.1-2c0.5-0.6,1.9-0.4,2.4-1c0.5-0.6,0.7-1.5,1.2-2c0.5-0.5,1.1-1,1.7-1.6s0.8-1.3,1.4-1.8
	c0.6-0.5,1.3-0.8,1.9-1.3c0.6-0.5,1.3-0.8,1.9-1.2c0.6-0.4,0.4-2,1-2.5c0.6-0.4,1.6-0.3,2.3-0.8c0.6-0.4,1-1.4,1.6-1.7
	c0.6-0.4,1.9,0.3,2.5-0.1c0.7-0.3,1.1-1.1,1.8-1.4c0.7-0.3,1.3-0.7,2.1-1c0.7-0.3,1.6-0.1,2.3-0.3c0.7-0.2,1.4-0.4,2.1-0.6
	c0.7-0.2,1.4-0.6,2.1-0.8c0.7-0.2,1.4-0.6,2.2-0.7c0.8-0.1,1.5-0.6,2.2-0.7C75.5,57.6,76.3,58.7,77,58.8L77,58.8z"/>
<path class="st2" d="M98.3,35.5L96,36.3l-2.3,0.9l-2.2,1l-2.1,1.3l-2,1.4l-2.1,1.4l-0.9-2.1l-0.9-2l-0.9-2l-1.2-1.9l-0.8-2.1
	l-1.1-1.9l-0.9-2l-2.3,0.1L74.9,30l-1,2l-1,1.9l-1.2,1.8l-0.9,2l-1.3,1.8l-0.8,2l-1.1,1.9l-2-1l-1.9-1l-2.1-0.7l-2-0.7L57.8,39
	l-2.2-0.4L54,40.1l0.9,1.8l0.8,1.8l0.8,1.8l0.9,1.8l0.6,1.9l1,1.7l1.3,1.6l1.3,1.5l1.6,0.1l2-0.7l2.2-0.3l2.1-0.6l2.5-0.3l2.5-0.2
	l2.5,0.1l2.1,0.3l2.1,0.2l2.1,0.3l2.1,0.3l2.1,0.4l2,0.6l2,0.6l1.5-0.9l0.2-0.1l0.6-1.7l0.7-1.7l0.9-2.2l0.8-2.2l1.1-2.3l0.8-2.4
	l0.1-0.2l0.9-2l0.5-2.1L98.3,35.5z"/>
<path class="st1" d="M59,96.6c2.1,0,3.8-1.7,3.8-3.8S61,89,59,89s-3.8,1.7-3.8,3.8S56.9,96.6,59,96.6z"/>
<path class="st1" d="M95.5,96.6c2.1,0,3.8-1.7,3.8-3.8S97.6,89,95.5,89c-2.1,0-3.8,1.7-3.8,3.8S93.4,96.6,95.5,96.6z"/>
<path class="st1" d="M64.8,105.5H89l-7.6-7.9c-2.5-2.6-6.6-2.6-9.1,0L64.8,105.5z"/>
<path class="st2" d="M64.8,105.5l7.5,3.5c2.5,1.1,6.6,1.1,9.1,0l7.5-3.5H64.8z"/>
<path class="st3" d="M34.8,214.7c0.1,0.1,0.1,0.1,0.2,0.2c0,0.2-0.1,1.1-0.1,1.3c-0.1,0.8,0,1.5-0.9,1.7c-0.6,0.1-1.2-0.1-1.8-0.1
	c-0.6,0-1.4-0.1-2-0.3c-1.2-0.4-2.5-1.2-3.2-2.4c-0.8-1.2-1-2.6-0.9-4c0-1.1,0.4-2.3,1.1-3.1c0.9-1.1,1.8-2,3.1-2.6
	c0.7-0.3,1.5-0.5,2.3-0.5c0.4,0,0.8,0,1.2,0.1c0.3,0.1,0.8,0.1,1,0.4c0.1,0.2,0,0.6,0,0.8c0,0.6,0,1.2,0,1.7
	c-0.1,0.7-0.9,0.4-1.4,0.6c-0.5,0.2-1,0.5-1.4,0.9c-0.7,0.7-1.1,1.8-0.9,2.9c0.1,0.5,0.2,1,0.6,1.3c0.2,0.2,0.5,0.3,0.8,0.4
	c0.5,0.2,1.1,0.4,1.6,0.5C34,214.6,34.6,214.6,34.8,214.7L34.8,214.7z"/>
<path class="st3" d="M69.8,214.7c0.1,0.1,0.1,0.1,0.2,0.2c0,0.2-0.1,1.1-0.1,1.3c-0.1,0.8-0.1,1.5-0.9,1.7c-0.6,0.1-1.2-0.1-1.8-0.1
	c-0.6,0-1.4-0.1-2-0.3c-1.2-0.4-2.5-1.2-3.2-2.4c-0.8-1.2-1-2.6-0.9-4c0-1.1,0.4-2.3,1.1-3.1c0.9-1.1,1.8-2,3.1-2.6
	c0.7-0.3,1.5-0.5,2.3-0.5c0.4,0,0.8,0,1.2,0.1c0.3,0.1,0.8,0.1,1,0.4c0.1,0.2,0,0.6,0,0.8c0,0.6,0,1.2,0,1.7
	c-0.1,0.7-0.9,0.4-1.4,0.6c-0.5,0.2-1,0.5-1.4,0.9c-0.7,0.7-1.1,1.8-0.9,2.9c0.1,0.5,0.2,1,0.6,1.3c0.2,0.2,0.5,0.3,0.8,0.4
	c0.5,0.2,1.1,0.4,1.6,0.5C69,214.6,69.6,214.6,69.8,214.7L69.8,214.7z"/>
<path class="st3" d="M80.8,216.4c-0.1-0.3-0.4-0.7-0.4-0.8c-0.4-0.7-0.7-1.4-1.1-2c-0.2-0.3-0.4-0.7-0.6-1c-0.2-0.3-0.2-0.4,0.1-0.7
	c1.4-1,2.7-2.1,4.1-3.2c0.1-0.1,0.2-0.2,0.2-0.3c0-0.1-0.1-0.1-0.1-0.2c-0.6-0.5-1.2-1-1.8-1.5c-0.1-0.1-0.3-0.3-0.4-0.1
	c-1.2,0.9-2.3,1.9-3.5,2.9c-0.3,0.3-0.7,0.6-1,0.9c-0.3,0.3-0.5,0.4-0.6,0c-0.1-0.6,0-1.1,0-1.7c0-0.7,0.2-1.3,0.5-1.9
	c0-0.1,0-0.1,0-0.2c0-0.2-0.2-0.2-0.4-0.2c-0.3,0-0.6-0.1-0.9-0.1c-0.6,0-1.1,0-1.7-0.1c-0.3,0-0.4,0.3-0.4,0.6
	c-0.1,1.7-0.3,3.5-0.4,5.2c-0.1,0.9-0.1,1.7-0.2,2.6c0,0.5-0.1,1-0.1,1.6c0,0.5,0.1,0.5,0.5,0.5c1,0.1,2,0.3,3.1,0.2
	c0.1,0,0.3-1.5,0.3-1.6c0-0.2,0-1.3,0.3-1.2c0.1,0,0.1,0.1,0.2,0.2c0.4,0.7,0.8,1.5,1.2,2.2c0.2,0.3,0.3,0.7,0.7,0.7
	c0.4,0.1,0.8,0,1.2,0c0.3,0,0.7,0,1,0C80.9,217,80.9,216.7,80.8,216.4z"/>
<path class="st3" d="M44.9,216.8c0,0,0-0.1,0-0.2c0.1-0.8,0.1-1.8,0-2.6c0-0.1,0-0.2-0.1-0.3c-0.1-0.1-0.3-0.1-0.5-0.1
	c-0.7,0.1-1.5-0.1-2.2-0.1c-0.3,0-0.6,0.1-0.7-0.3c-0.1-0.3,0-0.6,0-0.9c0-0.5,0-1.1,0-1.6c0-1.1,0-2.1,0.1-3.2c0-0.3,0-0.7,0-1
	c0-0.1,0-0.1,0-0.2c-0.1-0.1-0.2-0.1-0.3-0.2c-0.9,0-1.8,0-2.7,0c-0.2,0-0.4,0-0.5,0.2c-0.1,0.2,0,0.5,0,0.7c0.2,1.5,0.2,3,0.1,4.5
	c0,0.8-0.1,1.5-0.1,2.3c0,0.4,0,0.8,0.1,1.1c0,0.5,0,1.7,0.6,1.9c0.5,0.2,1.2-0.1,1.7-0.1c0.6,0,1.2,0.1,1.8,0.1
	c0.5,0,1,0.1,1.6,0.1c0.2,0,0.5,0.1,0.7,0C44.7,217,44.8,216.9,44.9,216.8L44.9,216.8z"/>
<path class="st3" d="M127,216.2c0-0.5-0.3-1.1-0.4-1.5c-0.5-1.7-1-3.5-1.4-5.2c-0.3-1.1-0.6-2.1-1.2-3.1c-0.1-0.2-0.3-0.4-0.6-0.4
	c-0.1,0-0.2,0.1-0.3,0.2c-0.6,0.6-1.2,1.2-1.8,1.9c-0.7,0.8-1.4,1.5-2.1,2.4c-0.4,0.5-0.9,0.9-1.4,0.3c-1.2-1.2-2.1-2.9-3.4-4
	c-0.3-0.3-0.7-0.6-1.1-0.4c-0.2,0.1-0.4,0.4-0.4,0.7c-1.1,3-2,6-2.8,9c-0.1,0.2-0.1,0.4-0.1,0.6c1.5,0.2,3,0.2,4.5,0.1
	c-0.1-1.2,0.1-2.3,0.2-3.4c0.1-0.8,0.5-1.1,1.2-0.4c0.8,0.8,1.2,2,2,2.7c0.4,0.4,0.8,0.7,1.2,0.1c0.4-0.6,0.6-1.5,1.1-2.1
	c0.3-0.4,1.7-2,2.3-1.3c0.3,0.3,0.1,1.4,0.1,1.7c0,0.4,0,0.8,0,1.2c0,0.2-0.2,1-0.1,1.2c0.2,0.3,0.4,0.5,0.7,0.5
	c0.7,0,1.3-0.2,2-0.2c0.5,0,1.1,0.2,1.5-0.1C126.9,216.6,127,216.4,127,216.2L127,216.2z"/>
<path class="st3" d="M107,207.6c-1.1-2.3-3.7-3.1-6-2.3c-2.3,0.8-3.5,2.9-3.8,5.2c-0.2,1.4-0.2,3,0.5,4.3c0.3,0.6,0.6,1.1,1.1,1.5
	c1.1,1.2,2.7,1.8,4.3,1.6c0.4,0,0.8-0.1,1.1-0.3c2-0.7,3.6-2.8,3.9-4.8C108.2,211.2,107.7,209.1,107,207.6L107,207.6z M104.7,212.9
	c-0.2,0.5-0.5,0.9-0.9,1.2c-0.7,0.5-1.8,0.3-2.5-0.2c-0.7-0.6-1-1.5-1-2.4c0-1.1,0.4-2.6,1.5-3.2c0.9-0.5,1.8-0.3,2.5,0.4
	c0.3,0.4,0.6,0.9,0.7,1.4C105.1,211.1,105,212.1,104.7,212.9L104.7,212.9z"/>
<path class="st3" d="M58.3,206.2c-0.2-0.1-0.6-0.2-1-0.2c-0.6,0-1,0.1-0.9,0.7c0.1,0.6,0.2,3.4,0.2,4c0,0.4-0.1,0.9-0.2,1.3
	c-0.2,0.6-0.4,0.9-0.8,1.3c-0.2,0.2-1,0.4-1.2,0.4c-0.5,0-1.1,0-1.5-0.3c-1.5-0.8-2-4.6-2.1-6.1c-0.1-0.7,0-1.2-0.8-1.3
	c-0.5-0.1-1.8,0.1-1.9,0.2c-0.1,0.1,0,0.4,0,0.6c0.2,1.2,0.7,5,1.1,6.1c0.7,1.8,1.8,3.7,4,3.9c1.1,0.1,1.9,0.2,2.7-0.1
	c1.2-0.4,1.8-0.7,2.3-1.6c0.7-1.4,0.7-2.9,0.9-4.3C59,210.2,59,206.6,58.3,206.2L58.3,206.2z"/>
<path class="st3" d="M92.8,207.1c-1.8-1.5-4.1-1.9-6.2-2.1c0,0,0,0,0,0c-0.3,0-0.4,0.1-0.4,0.4c-0.1,1.1-0.1,2.2-0.1,3.3
	c0,0.6,0,1.1,0,1.7c0,2-0.1,4.7-0.1,6.7c0,0.3,0,0.5,0.3,0.6c0.5,0.2,3,0.6,6.4-0.7c1-0.4,2.2-1.3,2.4-4.1
	C95.2,209.5,93.8,207.9,92.8,207.1z M92,212.5c-0.1,0.7-0.2,1.4-0.7,1.9c-0.6,0.6-1.2,0.7-2,0.9c-0.2,0-0.5,0-0.6-0.2
	c-0.1-0.1,0-0.2,0-0.3c0.1-1.7-0.3-5.8-0.3-6.2c0.1-0.6,1.7,0.4,2,0.6c0.5,0.4,1.1,1,1.4,1.7C92.1,211.3,92.1,212,92,212.5L92,212.5
	z"/>
<path class="st1" d="M26,179.3l1-0.6l1.9-0.7l0.7,1.3l0.6,1.2l-1.6,0.8l-1.2,0.3l-0.6-1.3L26,179.3L26,179.3z M40.3,173.6l2.3,0.8
	l1.3,1l-1.5,3.1l1.6,0.1l-0.4-0.5l1.4-2l0.9-1.9l2.3,1.1l0.9,0.9l-1.3,2l-0.4,0.5l2.6,0.1v1.9l-0.2,1.9l-2.5-0.2l-0.3,0l-0.1,0.9
	l0,0.8l2.5,0.1v2l-0.2,1.4l-2.4-0.2l0,1.1l0,0.4l2.5,0.1l0,2.5l-0.1,0.9l-2.3-0.2v1.4l1.6,0.1l1.8,0.1l0,1.7l-0.2,1.8l-3.5-0.3
	l-2.8-0.1h-4.2l-1.6-0.3l0.2-6.8l-0.9,0.3l-2.1,0.3l-0.1-0.9l-0.9,0l-1.8,0.2l1.8,0.3l-0.2,0.7l2.4,0l1.3,0.1l0.1,1.8l-0.2,1
	l-1.5-0.1l0.6,0.5l1.2,1.2l-1.5,1.2l-1.6,0.4l-0.9-1l-1-1.1l-0.6-0.4l-1.3,1.6l-0.8,0.9l-2-0.5l-1.1-0.9l1.1-1.2l0.6-0.7l-1.8,0.1
	l-0.2-1.4v-1.3l2.3-0.1h1l0.1-0.7l-0.8,0.1l-1.9,0.2l-0.5-1l-0.4-1.7l1.2-0.9l1.2-0.7l-1.1-0.6l-0.5-0.8l-0.4-1.2l0.8-0.5l2.1-1.3
	l1.3-0.7l-0.5-1l-0.7-1l1.3-0.8l1.4-0.5l-1.2,0.2l-3.9,0.6l-0.4-1l-0.2-2.1l2.5-0.3l3.6-0.7L36,173l0.8,1.5l0.5,1.7l-1.4,0.3
	l0.9,0.2l1.5,0.8l-0.8,1.9l-0.5,1.1l-0.7,1.1l-1.6-0.5l-1.2-0.7l0.3-0.5l-1,0.5l-0.1,0l0.5,0.4l0.8,1.2l-1.9,0.9l-1.2,0.8l0.6,0.4
	l3.4-2l1.3,1.1l0.7,1.4l-3.9,1.8l-1.8,0.9l2.2-0.2l0.8-0.1l-0.2-0.5l1.1-0.5l1.8-0.3l0.9,1.8l0.3,0.9L38,186l0-3.3l-0.7-0.5
	l-0.7-0.8l1.5-2.2l1.4-3.1L40.3,173.6L40.3,173.6z M32.5,177.2l0.7,1l0.7,1.4l0,0l0.8-2.1l0.1-0.7h0L32.5,177.2z M41.7,183.6
	l1.5,0.1l0-1.7h-0.1l-1.3,0l0,0.5L41.7,183.6L41.7,183.6z M41.6,188.4l1.5,0.1l0.1-1.6l-1.5,0L41.6,188.4z M41.5,191.7l0,1.6h1.4
	l0.1-1.5L41.5,191.7z"/>
<path class="st1" d="M56,172.3l8.8-0.2l6.1-0.1h3.5l0.8,1.3l0.4,1l-0.1,0.8l-0.4,0.7l-1.1,1.2l-1.7-0.8c0,0-0.1,0-0.1,0
	c0,0.4,0,0.7,0,1.1l-0.1,1.4l-4.4,0.1l-0.8,0l0,0.6c0.3,0,0.6,0.1,0.9,0.1l4.7,0.3h4.2l-0.3,1.4l-0.6,1.6l-4.2-0.4l-6.7-0.6
	l-5.9-0.9c-0.2,0-0.4-0.1-0.6-0.2l-0.4,1.4l-0.4,0.8l-1.4-0.3L54,182l0.4-0.9l0.5-1.2l0.6-2.1l0.3-1.7l2,0.2l1.7,0.3l-0.3,1.5
	l2.1,0.4l1.7,0.3l0.1-1.9c0-0.6,0-1.3-0.1-1.9l-6.6,0.2l-0.1-1.7L56,172.3L56,172.3z M55,191.1l5.5-0.1l2.8-0.1c0-0.4,0-0.8,0-1.2
	l-4.9,0.2h0h0c-0.6,0-1.2,0-1.8,0l-0.1-2.1l-0.1-1.8l-0.1-2l2-0.3l2.1-0.1v0c0.4,0,0.8-0.1,1.2-0.1l1.6-0.1l0-1.2l2.7,0l1.4,0
	c0,0.3,0,0.6,0,0.9l3.8-0.1l2.3,0.1l1,0.6v2.4l0,2.9l0.6-0.2l0.8,1.2l0.8,1.5l0.5,1.2l-1.2,0.5l-2.3,0.6c-0.1-0.3-0.2-0.6-0.4-0.8
	l-8.1,0.4l-4.5,0.2L55,194l0-1.6L55,191.1L55,191.1z M60.3,187.4l1.3,0c0.5,0,1.1,0,1.6-0.1v0l0-1l-1.7,0.1c-0.4,0-0.9,0-1.3,0.1
	c0,0.2,0,0.5,0,0.7L60.3,187.4L60.3,187.4z M71.8,176.1l-1.2-0.4l0.3-0.4l0.1-0.3h-3.4c-0.2,0-0.5,0-0.7,0c0,0.4,0,0.8-0.1,1.2
	l1.1,0L71.8,176.1L71.8,176.1z M70.2,187.1c0-0.1,0-0.2,0-0.3l0-0.7l-2.8,0h-0.4c0,0.4,0,0.7,0,1.1L70.2,187.1L70.2,187.1z
	 M71.9,190.5c-0.1-0.2-0.2-0.4-0.2-0.5l1.9-0.5l-1.4,0h-2v0l-1.7,0l-1.2,0.1v0.2l0.1,1L71.9,190.5L71.9,190.5z"/>
<path class="st1" d="M83.7,183.6l2.2,0.1h2.6c0-0.8,0-1.6,0.1-2.3l0-2.4l-1,0h-5.1l-0.2-1.6V175l4,0l6.2,0.1l7.4,0.2v2.3l-0.3,1.7
	l-5.8-0.3l-1.1,0l-0.3,4.4v0.2l5.2,0.2l0,2.2l-0.1,1.7l-5.2-0.2l-0.1,2.4l0,2l3.5,0.1l5.1,0.2l-0.1,2.1l-0.3,1.8l-0.9-0.1l-5.1-0.2
	l-8-0.2l-6.3-0.1l-0.2-1.6l-0.1-1.8l2.5-0.2l5.7,0.1l0.2-2.6l0-1.8l-4.4,0l-0.3-1.5L83.7,183.6L83.7,183.6z"/>
<path class="st1" d="M105.5,174.3l1.4-0.1l2-0.2v0.2c3,0,6,0.1,9,0.1l7.1,0.3l2.1,0.3l0.9,0.6l-0.4,11.3l-0.4,7.9l-0.1,2.3l-1.5-0.2
	l-2.1-0.2l-4.5-0.1l-11.9-0.4h-0.7l-1.4,0.1l0.1-7L105.5,174.3L105.5,174.3z M116.1,178l1.7-0.1l1.5-0.1l0,0.5c0,0.7,0.1,1.3,0.1,2
	l1.7,0l-0.6-0.5l-1-0.7l0.7-0.9l0.7-0.8c-1.1-0.1-2.2-0.1-3.3-0.2c-3,0-6,0-9,0l-0.3,14.3c0,0.7,0,1.3,0,2l9,0.3l6.1,0.1
	c0-0.4,0.1-0.8,0.1-1.2l-0.8,0.7l-1,0.1l-1.3-0.1l-1.4-0.8c0-0.1-0.1-0.1-0.1-0.2l-1.3,1.3l-0.7-0.6l-0.8-0.9l-2.9,0.2l-1.6,0.1
	l-2.3,0.2l-0.1-1.2l0-1.3l2.2-0.1l1.5,0l3.4-0.1l0.1,0.8l0.8-0.9c0.1-0.1,0.2-0.3,0.3-0.4c-0.1-0.4-0.2-0.8-0.3-1.2l-0.6-3.6
	c-0.1-0.5-0.1-1-0.1-1.4h-4.2l-2.8,0.1l-0.2-1.1l0-1.8l5.2-0.1l1.8,0L116.1,178L116.1,178z M111.1,184l3.4,0.1l1.6,0.2l0.4,0.4
	l-0.1,1.8l-0.1,2.1l-0.1,1c-0.4,0-0.8-0.1-1.2-0.1v0l-1.5,0l-2.5-0.1v0c-0.2,0-0.4,0-0.5,0l-1.1-0.1l-0.2-1.3l0.1-1.8l0-2l1-0.1
	L111.1,184L111.1,184L111.1,184z M113.5,187.5l0-0.9l-0.6-0.1c-0.3,0-0.5,0-0.8,0l0,0.8l0,0.2l1,0L113.5,187.5z M120.8,184l1.8,0.7
	l1.2,0.8l-1.5,2.6l-1.2,2l0.4,0.5l0.2-0.1l0.2-0.6l0.3-1.4l1,0.9l0.7,0.3c0-1.6,0.1-3.2,0.2-4.7l0.2-7.2c-0.8-0.1-1.7-0.1-2.5-0.2
	l1.2,0.9l1,0.8l-0.8,0.9l-0.3,0.3h0.8l0,1.2l-0.1,1.6c-1.2,0-2.5-0.1-3.8-0.1c0.1,0.5,0.1,0.9,0.1,1.4l0.1,1.3L120.8,184L120.8,184z
	"/>
</svg>
