<svg width="673" height="672" viewBox="0 0 673 672" fill="none" xmlns="http://www.w3.org/2000/svg">
<path d="M1013.6 587.553L555.384 493.305C555.384 493.305 528.139 199.166 450.219 129.039C400.393 84.1837 234.668 60.2668 199.353 198.836C174.655 295.729 79.4224 700.781 164.649 838.819C299.387 1057.09 543.882 1104.55 721.851 1104.51C1005.42 1104.45 1172.69 880.77 1172.69 880.77L1123.7 861.505L1175.67 797.723L1082.32 778.018L1130.84 705.488L1055.7 704.423L1104.67 608.608L1013.62 587.579L1013.6 587.553Z" fill="white"/>
<path d="M491.359 182.982C491.359 182.982 471.383 142.793 394.009 113.41C320.302 85.4259 285.121 101.154 285.121 101.154C285.121 101.154 310.044 12.3225 351.135 13.907C400.915 15.8323 398.658 38.6238 398.658 38.6238C398.658 38.6238 414.842 21.5963 440.743 40.3927C466.643 59.189 464.874 80.1634 464.874 80.1634C464.874 80.1634 487.962 80.6327 501.586 101.92C515.209 123.207 491.399 182.993 491.399 182.993L491.359 182.982Z" fill="#EF5C3F"/>
<path d="M213.678 179.349C213.678 179.349 216.504 201.581 210.066 231.031C203.627 260.481 185.436 278.91 185.436 278.91C185.436 278.91 108.528 220.787 112.924 204.434C117.32 188.08 213.678 179.349 213.678 179.349Z" fill="#FFC93D"/>
</svg>
