<svg width="577" height="1106" viewBox="0 0 577 1106" fill="none" xmlns="http://www.w3.org/2000/svg">
<path d="M-285.098 567.449L62.9096 444.839C62.9096 444.839 52.7725 212.07 106.171 148.943C140.316 108.567 267.267 72.1694 309.67 176.683C339.324 249.762 457.023 556.118 405.17 673.095C323.2 858.062 137.207 921.272 -1.87232 940.255C-223.477 970.505 -378.088 813.584 -378.088 813.584L-341.864 793.294L-389.289 749.004L-318.45 723.632L-364.113 672.137L-305.508 663.276L-354.014 593.633L-285.107 567.471L-285.098 567.449Z" fill="#FAF7F2"/>
<path d="M79.787 195.493C79.787 195.493 91.103 161.953 148.428 130.724C203.037 100.98 232.21 109.512 232.21 109.512C232.21 109.512 203.243 42.7567 171.301 48.3853C132.605 55.2088 136.805 72.7782 136.805 72.7782C136.805 72.7782 122.338 61.2012 104.106 78.6572C85.8745 96.1131 89.498 112.315 89.498 112.315C89.498 112.315 71.5054 115.148 63.1339 133.239C54.7624 151.33 79.7565 195.506 79.7565 195.506L79.787 195.493Z" fill="#EF5C3F"/>
<path d="M296.395 162.984C296.395 162.984 296.561 180.66 304.739 202.986C312.917 225.312 329.102 237.77 329.102 237.77C329.102 237.77 382.992 184.131 377.81 171.822C372.627 159.512 296.395 162.984 296.395 162.984Z" fill="#FFC93D"/>
</svg>
