<svg width="107" height="108" viewBox="0 0 107 108" fill="none" xmlns="http://www.w3.org/2000/svg">
<path d="M75.918 27.591C78.9283 26.1066 81.2802 23.1567 84.4035 21.6218C87.8278 19.9416 93.5976 17.7244 97.3732 17.9834C96.9718 19.3857 96.031 20.8448 95.3035 22.0702C97.4421 22.2218 99.6372 22.0324 101.782 22.146C101.519 23.9715 99.932 25.8855 98.8407 27.3888C100.653 27.4457 102.315 26.8709 104.178 26.9782C102.942 29.1701 100.572 32.8779 100.754 35.4488C102.303 35.133 103.57 33.6612 105.037 33.3138C105.476 37.0027 103.074 41.8854 101.456 45.0184C99.0665 49.6422 95.153 53.4448 91.158 56.6662C90.2862 57.3737 87.3448 58.9212 87.8842 60.0077L75.918 27.5783V27.591Z" fill="#FFA21A"/>
<path d="M25.6697 37.6657C25.6697 37.6657 22.6217 35.2528 13.923 36.3519C8.95586 36.9772 0 41.8283 0 41.8283L5.43749 42.9211C7.39423 42.7 0.652248 50.1536 0.652248 50.1536L6.74198 51.4675L3.91349 55.409L10.2227 59.1358L7.17473 62.4204C7.17473 62.4204 24.5785 70.3098 30.8877 65.4903C36.4882 61.214 25.6697 37.6657 25.6697 37.6657Z" fill="#FFA21A"/>
<path d="M44.2715 85.4001L45.3251 104.028L46.3787 104.179L46.9808 85.2485L44.2715 85.4001Z" fill="#EF5C3F"/>
<path d="M84.9932 76.8289L101.782 84.712L102.416 83.8466L86.1409 74.3528L84.9932 76.8289Z" fill="#EF5C3F"/>
<path d="M85.72 32.2018C80.4832 24.5714 71.5901 21.1225 71.5901 21.1225C71.5901 21.1225 66.6229 8.8936 57.5542 6.3417C41.9441 1.94535 30.0657 13.3657 31.5019 28.6014C24.9982 34.021 20.6708 40.6976 20.4012 50.2231C20.1064 60.6012 22.013 73.5944 29.7584 81.1996C41.9692 93.1822 61.6935 92.1463 76.3941 86.0444C104.968 74.1819 92.2989 41.7904 85.7263 32.2081L85.72 32.2018Z" fill="#FFC022"/>
<path d="M38.9783 13.5365L34.7324 7.79467L37.216 8.02207L36.2313 0L40.8598 4.20685L43.5629 1.65495L45.482 8.12945L38.9783 13.5365Z" fill="#FFC022"/>
<path d="M63.1554 8.74207C63.306 9.67692 62.6788 10.5549 61.7506 10.7065C60.8224 10.8581 59.9507 10.2265 59.8001 9.29161C59.6496 8.35675 60.2768 7.47875 61.205 7.32715C62.1332 7.17555 63.0049 7.80721 63.1554 8.74207Z" fill="#564336"/>
<path d="M47.0304 18.0592C47.181 18.9941 46.5538 19.8721 45.6256 20.0237C44.6974 20.1753 43.8257 19.5436 43.6751 18.6087C43.5246 17.6739 44.1518 16.7959 45.08 16.6443C46.0082 16.4927 46.8799 17.1243 47.0304 18.0592Z" fill="#564336"/>
<path d="M56.0243 18.2359C57.9748 19.7266 61.3239 20.9078 61.7754 19.9351C62.227 18.9623 60.8472 14.0417 59.8438 13.928C57.9999 13.7132 54.1993 16.84 56.0306 18.2422L56.0243 18.2359Z" fill="#EF5C3F"/>
<path d="M37.3408 104.811L37.6168 105.607L44.71 103.226V107.988L45.82 107.831L46.3782 104.18L49.1628 106.877L49.9969 106.239L46.2402 101.318L37.3408 104.811Z" fill="#EF5C3F"/>
<path d="M100.296 83.8779L99.1167 91.4767L100.409 91.9505L101.719 85.7602L105.758 87.7247L106.398 86.5182L102.416 83.8463L107 80.8333L106.592 79.9426L100.942 82.6714L100.296 83.8779Z" fill="#EF5C3F"/>
<path d="M30.7124 41.9927L36.0056 49.0672L39.4864 41.342L36.2189 41.879L35.1213 44.8414L34.0113 41.6452L30.7124 41.9927Z" fill="#FFA21A"/>
<path d="M43.1362 40.7358L48.4295 47.8167L51.9102 40.0852L48.6427 40.6284L47.5452 43.5909L46.4351 40.3947L43.1362 40.7358Z" fill="#FFA21A"/>
<path d="M55.1021 39.5672L61.2482 45.9028L63.7192 37.7986L60.5521 38.7461L59.8371 41.8286L58.3319 38.8029L55.1021 39.5672Z" fill="#FFA21A"/>
<path d="M67.1001 36.3646L73.447 42.498L75.6546 34.3054L72.5188 35.3666L71.9042 38.4681L70.2986 35.4929L67.1001 36.3646Z" fill="#FFA21A"/>
<path d="M64.416 46.5407L70.7629 52.6741L72.9705 44.4878L69.8347 45.5427L69.2201 48.6441L67.6145 45.669L64.416 46.5407Z" fill="#FFA21A"/>
<path d="M51.8223 49.2695L57.4667 56.0725L60.5524 48.1768L57.3162 48.8779L56.3692 51.8972L55.1023 48.7579L51.8223 49.2695Z" fill="#FFA21A"/>
<path d="M39.0845 50.9748L44.7227 57.7715L47.8083 49.8821L44.5721 50.5832L43.6251 53.5962L42.3583 50.4632L39.0845 50.9748Z" fill="#FFA21A"/>
<path d="M47.2505 59.957L52.8887 66.76L55.9743 58.8643L52.7444 59.5654L51.7974 62.5847L50.5243 59.4517L47.2505 59.957Z" fill="#FFA21A"/>
<path d="M61.2236 57.2346L66.8681 64.0313L69.9537 56.1418L66.7176 56.843L65.7706 59.856L64.5037 56.723L61.2236 57.2346Z" fill="#FFA21A"/>
<path d="M56.9712 67.4738L62.6094 74.2705L65.695 66.3748L62.4651 67.0822L61.5181 70.0952L60.245 66.9622L56.9712 67.4738Z" fill="#FFA21A"/>
</svg>
