<svg width="392" height="35" viewBox="0 0 392 35" fill="none" xmlns="http://www.w3.org/2000/svg">
<g clip-path="url(#clip0_774_78)">
<path d="M25.4405 22.4146C24.7455 25.0084 23.0485 27.2199 20.723 28.5626C18.3974 29.9052 15.6337 30.2691 13.0399 29.5741C10.4461 28.8791 8.23463 27.1821 6.89197 24.8566C5.54931 22.531 5.18546 19.7673 5.88048 17.1735C7.76465 10.1417 15.138 2.18381 20.028 3.49408C24.918 4.80435 27.3246 15.3828 25.4405 22.4146Z" fill="#C2A16C"/>
</g>
<g clip-path="url(#clip1_774_78)">
<path d="M228.44 22.4146C227.745 25.0084 226.049 27.2199 223.723 28.5626C221.397 29.9052 218.634 30.2691 216.04 29.5741C213.446 28.8791 211.235 27.1821 209.892 24.8566C208.549 22.531 208.185 19.7673 208.88 17.1735C210.765 10.1417 218.138 2.18381 223.028 3.49408C227.918 4.80435 230.325 15.3828 228.44 22.4146Z" fill="#C2A16C"/>
</g>
<g clip-path="url(#clip2_774_78)">
<path d="M127.44 22.4146C126.745 25.0084 125.049 27.2199 122.723 28.5626C120.397 29.9052 117.634 30.2691 115.04 29.5741C112.446 28.8791 110.235 27.1821 108.892 24.8566C107.549 22.531 107.185 19.7673 107.88 17.1735C109.765 10.1417 117.138 2.18381 122.028 3.49408C126.918 4.80435 129.325 15.3828 127.44 22.4146Z" fill="#C2A16C"/>
</g>
<g clip-path="url(#clip3_774_78)">
<path d="M330.44 22.4146C329.745 25.0084 328.049 27.2199 325.723 28.5626C323.397 29.9052 320.634 30.2691 318.04 29.5741C315.446 28.8791 313.235 27.1821 311.892 24.8566C310.549 22.531 310.185 19.7673 310.88 17.1735C312.765 10.1417 320.138 2.18381 325.028 3.49408C329.918 4.80435 332.325 15.3828 330.44 22.4146Z" fill="#C2A16C"/>
</g>
<path d="M83.447 18.6277C84.1122 21.2913 83.7623 24.124 82.4831 26.5015C81.2045 28.8776 79.1036 30.6037 76.647 31.3099C74.1904 32.0162 71.5666 31.6486 69.352 30.2767C67.1363 28.9041 65.5133 26.6386 64.8481 23.9749C63.9289 20.2939 64.0537 15.6558 65.0139 11.7691C65.4935 9.82766 66.1753 8.09935 67.019 6.78227C67.8657 5.46056 68.8431 4.60105 69.9011 4.29685C70.9592 3.99266 72.2061 4.21268 73.5553 4.90307C74.8997 5.59105 76.2956 6.722 77.6157 8.14606C80.2583 10.9969 82.5278 14.9466 83.447 18.6277Z" stroke="#C2A16C"/>
<path d="M286.447 18.6277C287.112 21.2913 286.762 24.124 285.483 26.5015C284.205 28.8776 282.104 30.6037 279.647 31.3099C277.19 32.0162 274.567 31.6486 272.352 30.2767C270.136 28.9041 268.513 26.6386 267.848 23.9749C266.929 20.2939 267.054 15.6558 268.014 11.7691C268.493 9.82766 269.175 8.09935 270.019 6.78227C270.866 5.46056 271.843 4.60105 272.901 4.29685C273.959 3.99266 275.206 4.21268 276.555 4.90307C277.9 5.59105 279.296 6.722 280.616 8.14606C283.258 10.9969 285.528 14.9466 286.447 18.6277Z" stroke="#C2A16C"/>
<path d="M185.447 18.6277C186.112 21.2913 185.762 24.124 184.483 26.5015C183.205 28.8776 181.104 30.6037 178.647 31.3099C176.19 32.0162 173.567 31.6486 171.352 30.2767C169.136 28.9041 167.513 26.6386 166.848 23.9749C165.929 20.2939 166.054 15.6558 167.014 11.7691C167.493 9.82766 168.175 8.09935 169.019 6.78227C169.866 5.46056 170.843 4.60105 171.901 4.29685C172.959 3.99266 174.206 4.21268 175.555 4.90307C176.9 5.59105 178.296 6.722 179.616 8.14606C182.258 10.9969 184.528 14.9466 185.447 18.6277Z" stroke="#C2A16C"/>
<path d="M388.447 18.6277C389.112 21.2913 388.762 24.124 387.483 26.5015C386.205 28.8776 384.104 30.6037 381.647 31.3099C379.19 32.0162 376.567 31.6486 374.352 30.2767C372.136 28.9041 370.513 26.6386 369.848 23.9749C368.929 20.2939 369.054 15.6558 370.014 11.7691C370.493 9.82766 371.175 8.09935 372.019 6.78227C372.866 5.46056 373.843 4.60105 374.901 4.29685C375.959 3.99266 377.206 4.21268 378.555 4.90307C379.9 5.59105 381.296 6.722 382.616 8.14606C385.258 10.9969 387.528 14.9466 388.447 18.6277Z" stroke="#C2A16C"/>
<defs>
<clipPath id="clip0_774_78">
<rect width="27" height="27" fill="white" transform="translate(6.98828) rotate(15)"/>
</clipPath>
<clipPath id="clip1_774_78">
<rect width="27" height="27" fill="white" transform="translate(209.988) rotate(15)"/>
</clipPath>
<clipPath id="clip2_774_78">
<rect width="27" height="27" fill="white" transform="translate(108.988) rotate(15)"/>
</clipPath>
<clipPath id="clip3_774_78">
<rect width="27" height="27" fill="white" transform="translate(311.988) rotate(15)"/>
</clipPath>
</defs>
</svg>
