<svg width="278" height="355" viewBox="0 0 278 355" fill="none" xmlns="http://www.w3.org/2000/svg">
<path d="M163.127 343.633L174.696 351.392L173.617 352.438L163.665 347.199L166.085 354.955H163.934L160.973 348.035L154.785 354.118L153.172 353.487L160.166 344.054L163.127 343.633Z" fill="#EF5C3F"/>
<path d="M204.017 342.824L206.172 343.363L219.623 347.677L218.816 349.293L207.247 346.869L212.087 353.338H209.667L205.631 347.677L201.329 353.338L200.253 352.799L204.017 342.824Z" fill="#EF5C3F"/>
<path d="M165.547 311.467L162.321 348.127L159.898 348.396V310.12L165.547 311.467Z" fill="#EF5C3F"/>
<path d="M209.129 312.006L205.9 346.238L203.748 346.507L204.286 311.198L209.129 312.006Z" fill="#EF5C3F"/>
<path d="M232.535 226.11C236.303 226.648 245.986 228.804 254.056 232.04C262.126 235.276 271.543 243.362 271.543 243.362L267.238 244.709L278 253.603L267.776 254.95L274.501 261.419L264.815 262.227L271.271 268.966C271.271 268.966 262.933 271.933 250.289 270.313C237.644 268.697 225 263.036 225 263.036L232.532 226.106L232.535 226.11Z" fill="#DDD2BC"/>
<path d="M223.656 295.115C234.484 288.567 242.756 266.002 243.832 249.292C244.908 232.578 242.488 209.13 243.025 199.963C243.563 190.796 255.401 169.234 250.557 156.834C245.714 144.434 225.269 139.582 212.625 148.209C189.096 164.26 186.799 188.372 181.956 202.391C181.956 202.391 149.135 205.627 133.261 211.015C122.06 214.819 110.662 219.101 110.662 219.101L115.774 223.684L107.435 227.729C107.435 227.729 115.774 236.623 114.699 236.353C113.623 236.084 105.55 232.848 105.822 233.659C106.091 234.467 112.816 247.136 112.816 247.136C112.816 247.136 105.284 243.9 105.822 244.712C106.36 245.52 122.503 293.232 148.867 298.354C175.23 303.476 209.398 303.746 223.656 295.121V295.115Z" fill="#FAF1E3"/>
<path d="M212.628 148.206C225.272 139.582 245.717 144.431 250.56 156.831C255.404 169.23 243.566 190.793 243.028 199.96C242.886 202.413 242.952 205.89 243.107 209.985L237.378 207.776L231.997 212.359L225.81 202.384L216.396 209.392L212.628 201.307L205.096 206.698L199.984 198.882L191.376 204.274C191.376 204.274 189.763 196.457 189.225 197.265C188.921 197.722 185.809 198.261 183.142 198.647C187.34 184.371 191.076 162.91 212.628 148.209V148.206Z" fill="#DDD2BC"/>
<path d="M236.411 178.479C236.411 178.479 235.224 175.164 238.454 171.389C241.57 167.744 245.749 169.811 245.749 169.811C245.749 169.811 253.113 183.833 251.614 185.278C250.115 186.724 236.414 178.476 236.414 178.476L236.411 178.479Z" fill="#E8B618"/>
<path d="M222.312 167.297C221.001 167.297 219.939 166.233 219.939 164.92C219.939 163.607 221.001 162.543 222.312 162.543C223.622 162.543 224.684 163.607 224.684 164.92C224.684 166.233 223.622 167.297 222.312 167.297Z" fill="#564336"/>
<path d="M247.647 165.997C247.647 167.31 248.71 168.375 250.02 168.375C251.329 168.375 252.392 167.31 252.392 165.997C252.392 164.685 251.329 163.62 250.02 163.62C248.71 163.62 247.647 164.685 247.647 165.997Z" fill="#564336"/>
<path d="M246.793 153.059C246.793 153.059 251.636 143.084 248.675 138.774C245.717 134.46 241.412 137.157 241.412 137.157C241.412 137.157 238.182 131.496 232.535 130.957C226.886 130.419 225.272 134.194 225.272 134.194C225.272 134.194 224.197 131.769 219.622 133.385C215.048 135.002 214.779 139.316 214.779 139.316L213.973 147.401C213.973 147.401 221.773 144.438 231.729 146.054C241.684 147.671 246.793 153.062 246.793 153.062V153.059Z" fill="#EF5C3F"/>
<path d="M168.651 221.105C180.776 227.14 187.846 243.593 170.042 258.902C147.06 278.665 116.208 275.847 116.208 275.847L117.97 270.779L101.789 271.359L109.485 259.879L95 258.256L103.288 250.661L97.3979 247.856C97.3979 247.856 106.815 231.758 122.642 223.428C137.861 215.418 151.318 212.48 168.651 221.102V221.105Z" fill="#DDD2BC"/>
<path d="M206.716 318.57C198.516 318.383 199.38 301.987 199.184 295.382L216.662 292.418C216.662 298.317 215.412 318.77 206.716 318.57Z" fill="#FAF1E3"/>
<path d="M199.117 294.057C199.149 294.434 199.168 294.881 199.184 295.382H199.177C199.095 294.76 198.652 294.494 199.117 294.057Z" fill="#FAF1E3"/>
<path d="M155.804 294.865C155.835 295.242 155.857 295.689 155.87 296.19H155.864C155.782 295.568 155.339 295.299 155.804 294.865Z" fill="#FAF1E3"/>
<path d="M163.402 319.379C155.203 319.192 156.066 302.795 155.87 296.19L173.348 293.226C173.348 299.125 172.099 319.578 163.402 319.379Z" fill="#FAF1E3"/>
<path d="M240.599 139.037C241.767 135.538 247.087 137.291 247.176 140.482C248.596 142.901 248.337 146.28 245.487 147.094C245.126 144.742 245 144.251 243.228 142.885C241.868 141.836 239.805 141.418 240.599 139.037Z" fill="#ED7454"/>
<path d="M232.567 133.43C234.642 133.113 238.116 133.931 238.663 136.14C239.678 140.235 234.089 138.825 232.26 137.756C226.041 134.127 229.087 132.881 232.567 133.43Z" fill="#ED7454"/>
<path d="M240.067 225.84L233.946 237.7L229.574 225.301L232.855 225.84L234.383 230.689L237.008 225.57L240.067 225.84Z" fill="#DDD2BC"/>
<path d="M226.348 225.84L219.353 237.701L212.628 223.143L218.278 225.032L220.698 231.231L222.849 226.109L226.348 225.84Z" fill="#DDD2BC"/>
<path d="M207.516 223.682L201.597 235.003L197.83 221.257L201.597 222.065L202.942 227.995L205.093 222.335L207.516 223.682Z" fill="#DDD2BC"/>
<path d="M232.536 241.473L228.23 252.525L222.312 241.473H226.348L227.961 244.978L228.768 241.203L232.536 241.473Z" fill="#DDD2BC"/>
<path d="M215.586 240.395L209.936 252.794L204.555 238.509L208.861 239.586L210.205 246.056L211.549 239.586L215.586 240.395Z" fill="#DDD2BC"/>
<path d="M223.387 257.917L217.468 269.508L214.241 256.839H217.737L219.084 261.15L220.429 256.839L223.387 257.917Z" fill="#DDD2BC"/>
<path d="M172.883 246.965C171.435 247.995 169.948 248.968 168.401 249.84C166.981 250.639 165.434 251.419 163.811 251.682C163.245 251.774 163.004 250.908 163.574 250.816C165.136 250.563 166.579 249.821 167.952 249.064C169.508 248.208 170.992 247.219 172.434 246.189C172.906 245.853 173.355 246.632 172.887 246.965H172.883Z" fill="#F2EAD7"/>
<path d="M172.776 237.665C169.799 238.448 167.145 240.116 164.168 240.902C163.608 241.047 163.371 240.182 163.931 240.036C166.907 239.253 169.562 237.586 172.538 236.8C173.098 236.654 173.336 237.52 172.776 237.665Z" fill="#F2EAD7"/>
<path d="M166.917 228.696C163.874 229.101 160.932 230.125 158.069 231.196C157.525 231.399 157.294 230.531 157.832 230.331C160.783 229.228 163.785 228.217 166.92 227.799C167.493 227.722 167.486 228.623 166.92 228.696H166.917Z" fill="#F2EAD7"/>
<path d="M153.046 222.569C148.38 223.342 143.397 223.853 139.162 226.119C138.652 226.391 138.2 225.615 138.709 225.342C143.024 223.035 148.054 222.493 152.805 221.704C153.372 221.608 153.612 222.477 153.043 222.569H153.046Z" fill="#F2EAD7"/>
<path d="M148.383 231.555C145.435 232.29 142.417 232.981 139.88 234.743C139.402 235.076 138.956 234.296 139.427 233.967C142.024 232.16 145.125 231.44 148.142 230.686C148.702 230.547 148.943 231.412 148.38 231.551L148.383 231.555Z" fill="#F2EAD7"/>
<path d="M154.121 241.26C151.249 242.008 148.633 243.441 145.871 244.496C145.33 244.702 145.099 243.834 145.634 243.631C148.396 242.576 151.012 241.146 153.884 240.395C154.444 240.249 154.681 241.114 154.121 241.26Z" fill="#F2EAD7"/>
<path d="M155.079 250.981C154.501 250.981 154.501 250.084 155.079 250.084C155.658 250.084 155.658 250.981 155.079 250.981Z" fill="#F2EAD7"/>
<path d="M155.197 250.965C152.72 251.707 150.502 253.098 148.022 253.84C147.465 254.005 147.231 253.14 147.785 252.975C150.262 252.233 152.479 250.842 154.959 250.1C155.516 249.935 155.75 250.8 155.197 250.965Z" fill="#F2EAD7"/>
<path d="M156.155 263.562C151.717 263.999 148.076 267.074 143.72 267.86C143.154 267.961 142.913 267.096 143.483 266.994C147.927 266.192 151.616 263.112 156.158 262.665C156.734 262.608 156.728 263.508 156.158 263.562H156.155Z" fill="#F2EAD7"/>
<path d="M136.425 266.437C135.846 266.437 135.846 265.54 136.425 265.54C137.004 265.54 137.004 266.437 136.425 266.437Z" fill="#F2EAD7"/>
<path d="M136.425 266.436C133.565 266.795 130.702 267.14 127.817 267.156C127.238 267.156 127.238 266.259 127.817 266.259C130.702 266.246 133.565 265.898 136.425 265.539C136.998 265.466 136.991 266.367 136.425 266.436Z" fill="#F2EAD7"/>
<path d="M138.937 258.886C138.358 258.886 138.358 257.986 138.937 257.986C139.516 257.986 139.516 258.886 138.937 258.886Z" fill="#F2EAD7"/>
<path d="M138.937 258.886C137.21 258.702 135.473 259.124 133.809 259.546C131.965 260.011 130.152 260.604 128.295 261.029C127.732 261.159 127.492 260.29 128.058 260.164C129.915 259.739 131.731 259.159 133.572 258.68C135.299 258.233 137.143 257.799 138.937 257.989C139.506 258.049 139.513 258.95 138.937 258.889V258.886Z" fill="#F2EAD7"/>
<path d="M135.707 247.745C132.391 248.144 129.219 249.441 126.248 250.918C125.733 251.174 125.277 250.398 125.796 250.141C128.921 248.588 132.224 247.266 135.707 246.845C136.279 246.775 136.273 247.675 135.707 247.745Z" fill="#F2EAD7"/>
<path d="M132.958 234.791C129.99 235.932 127.286 237.631 124.454 239.057C123.939 239.317 123.486 238.544 124.002 238.281C126.903 236.816 129.677 235.092 132.717 233.922C133.258 233.713 133.489 234.585 132.955 234.788L132.958 234.791Z" fill="#F2EAD7"/>
<path d="M129.836 225.399C126.514 227.244 123.114 228.946 119.792 230.791C119.286 231.073 118.833 230.296 119.34 230.014C122.661 228.17 126.062 226.467 129.383 224.623C129.89 224.341 130.342 225.117 129.836 225.399Z" fill="#F2EAD7"/>
<path d="M115.619 238.401C115.04 238.401 115.04 237.504 115.619 237.504C116.198 237.504 116.198 238.401 115.619 238.401Z" fill="#F2EAD7"/>
<path d="M115.847 238.341C113.408 239.564 110.953 240.788 108.672 242.293C108.188 242.613 107.739 241.834 108.22 241.517C110.501 240.011 112.952 238.785 115.394 237.564C115.91 237.304 116.366 238.081 115.847 238.341Z" fill="#F2EAD7"/>
<path d="M117.28 246.607C114.778 248.386 112.127 249.901 109.387 251.279C108.872 251.539 108.416 250.763 108.935 250.503C111.675 249.124 114.325 247.609 116.828 245.831C117.302 245.495 117.748 246.275 117.28 246.607Z" fill="#F2EAD7"/>
<path d="M119.792 259.904C117.331 261.314 114.863 262.725 112.26 263.856C111.735 264.084 111.279 263.311 111.807 263.08C114.411 261.948 116.878 260.534 119.34 259.127C119.843 258.839 120.295 259.615 119.792 259.904Z" fill="#F2EAD7"/>
<path d="M268.206 249.84C265.116 248.303 261.898 247.032 258.627 245.932C258.083 245.748 258.314 244.88 258.865 245.067C262.205 246.189 265.498 247.495 268.655 249.067C269.174 249.324 268.719 250.1 268.203 249.843L268.206 249.84Z" fill="#F2EAD7"/>
<path d="M264.008 254.198C261.528 253.469 259.238 252.341 257.087 250.918C256.606 250.601 257.055 249.821 257.539 250.141C259.63 251.523 261.842 252.623 264.249 253.33C264.802 253.491 264.565 254.36 264.012 254.195L264.008 254.198Z" fill="#F2EAD7"/>
<path d="M262.215 264.262C260.228 263.463 258.336 262.598 256.638 261.27C256.182 260.915 256.821 260.281 257.27 260.636C258.839 261.862 260.617 262.658 262.452 263.397C262.983 263.609 262.752 264.477 262.215 264.262Z" fill="#F2EAD7"/>
<path d="M251.813 265.701C249.808 265.267 247.964 264.313 246.075 263.546C245.547 263.33 245.778 262.462 246.312 262.681C248.201 263.448 250.048 264.402 252.051 264.836C252.617 264.959 252.377 265.825 251.813 265.701Z" fill="#F2EAD7"/>
<path d="M250.738 257.434C247.872 257.048 245.24 255.932 242.738 254.515C242.235 254.23 242.687 253.453 243.19 253.739C245.629 255.124 248.179 256.192 250.975 256.569C251.545 256.645 251.301 257.511 250.738 257.434Z" fill="#F2EAD7"/>
<path d="M251.814 247.01C249.254 246.626 246.765 245.922 244.282 245.212C243.728 245.054 243.962 244.185 244.519 244.347C247.002 245.057 249.492 245.761 252.051 246.144C252.62 246.23 252.377 247.095 251.814 247.01Z" fill="#F2EAD7"/>
<path d="M255.202 240.427C254.297 239.58 252.962 239.137 251.814 238.744C251.269 238.56 251.504 237.691 252.051 237.878C253.354 238.322 254.813 238.832 255.834 239.79C256.258 240.186 255.622 240.82 255.202 240.423V240.427Z" fill="#F2EAD7"/>
<path d="M262.335 240.556C261.756 240.556 261.756 239.656 262.335 239.656C262.914 239.656 262.914 240.556 262.335 240.556Z" fill="#F2EAD7"/>
<path d="M262.018 240.065C261.31 239.339 260.693 238.388 259.706 238.024C259.168 237.827 259.399 236.955 259.943 237.158C261.114 237.589 261.81 238.569 262.651 239.431C263.056 239.846 262.423 240.48 262.018 240.065Z" fill="#F2EAD7"/>
<path d="M248.837 235.104C247.246 234.347 245.43 234.106 243.684 234.087C243.105 234.081 243.105 233.184 243.684 233.19C245.594 233.209 247.552 233.504 249.289 234.331C249.811 234.578 249.356 235.355 248.837 235.108V235.104Z" fill="#F2EAD7"/>
<path d="M97.8259 15.1103C62.9793 8.74559 14.695 43.1056 15.5048 80.5157C16.3239 118.674 42.3763 158.963 78.2166 160.585C91.9472 161.212 108.35 155.958 123.095 147.012C134.781 153.363 148.776 160.976 149.715 161.609L141.971 132.489C156.106 118.746 165.398 101.369 163.211 83.5689C158.262 43.1499 132.666 21.5034 97.8195 15.1387L97.8259 15.1103Z" fill="#FAF1E3"/>
<path d="M60.8129 73.0187C60.514 73.1156 60.1384 73.2643 59.686 73.4648L56.9809 74.6639L59.2763 79.842L56.8301 80.9264L51.5389 68.9899C51.7048 68.9306 51.8933 68.8577 52.1043 68.7713L52.7728 68.4963C53.2305 68.3077 53.7033 68.1053 54.1913 67.8889C55.6555 67.2399 57.0436 66.5961 58.3558 65.9575C58.5225 66.5103 58.7997 67.2241 59.1876 68.099C59.2298 68.1943 59.2674 68.263 59.3004 68.3054L59.2944 68.3401C58.9394 68.3906 58.4792 68.5412 57.9137 68.7919L54.9586 70.1018L56.0469 72.557L58.6539 71.4014C59.3086 71.1111 59.6935 70.9192 59.8086 70.8254L60.8129 73.0187ZM69.2099 69.916C69.0366 70.0071 68.8488 70.0975 68.6465 70.1872C68.4441 70.2769 68.1369 70.3952 67.725 70.5422L69.7829 75.1847L67.417 76.2334L62.1258 64.297C62.9116 63.8205 63.9116 63.3131 65.1257 62.7749C66.7804 62.0414 68.1483 61.8018 69.2295 62.056C70.314 62.3017 71.1385 63.0613 71.7031 64.335C72.1411 65.323 72.1438 66.3331 71.7111 67.3652C71.5673 67.6996 71.3747 68.02 71.1331 68.3265L74.6561 71.3581C75.3641 71.9914 75.8463 72.3402 76.1027 72.4046L76.0779 72.469C75.4583 72.6297 74.552 73.035 73.3589 73.685L69.2099 69.916ZM66.2293 64.8066C65.9258 64.9412 65.6407 65.0854 65.3742 65.2391L66.886 68.6495C67.1961 68.5619 67.5475 68.431 67.9404 68.2569C68.3332 68.0828 68.649 67.9036 68.8878 67.7194C69.124 67.5293 69.3086 67.3193 69.4417 67.0893C69.7245 66.5866 69.726 66.0197 69.4463 65.3888C69.1667 64.7579 68.7499 64.4121 68.196 64.3515C67.6824 64.3014 67.0269 64.4531 66.2293 64.8066ZM84.5624 66.0695C84.9314 65.9059 85.1715 65.7568 85.2827 65.622L85.3224 65.6151L86.2264 67.8956L79.5395 70.8598L74.2483 58.9233C74.4143 58.864 74.5968 58.7937 74.7959 58.7126L75.4287 58.4535C75.8506 58.2807 76.3056 58.0861 76.7937 57.8698C78.1567 57.2656 79.4942 56.6442 80.8063 56.0056C80.973 56.5584 81.2503 57.2722 81.6381 58.1472C81.6803 58.2424 81.7179 58.3112 81.751 58.3535L81.745 58.3882C81.3959 58.4361 80.9357 58.5867 80.3643 58.84L77.552 60.0866L78.5612 62.3632L80.6771 61.4253C81.3318 61.1351 81.7167 60.9431 81.8318 60.8493L82.8361 63.0426C82.5372 63.1395 82.1616 63.2882 81.7093 63.4887L79.4952 64.4702L80.9199 67.6842L84.5624 66.0695ZM95.1851 61.3607C95.5541 61.1971 95.7942 61.048 95.9054 60.9132L95.945 60.9063L96.8491 63.1868L90.1622 66.151L84.871 54.2145C85.037 54.1552 85.2195 54.0849 85.4185 54.0038L86.0514 53.7447C86.4733 53.5719 86.9283 53.3773 87.4163 53.161C88.7793 52.5568 90.1168 51.9354 91.429 51.2968C91.5957 51.8496 91.8729 52.5634 92.2608 53.4384C92.303 53.5336 92.3406 53.6024 92.3736 53.6447L92.3676 53.6794C92.0185 53.7273 91.5583 53.8779 90.9869 54.1312L88.1747 55.3778L89.1838 57.6544L91.2997 56.7165C91.9544 56.4263 92.3393 56.2343 92.4545 56.1405L93.4587 58.3338C93.1599 58.4307 92.7843 58.5794 92.3319 58.7799L90.1178 59.7614L91.5425 62.9754L95.1851 61.3607ZM68.7542 97.4642C68.5809 97.5552 68.3931 97.6456 68.1907 97.7353C67.9884 97.825 67.6812 97.9434 67.2692 98.0904L69.3271 102.733L66.9613 103.782L61.6701 91.8451C62.4559 91.3686 63.4558 90.8612 64.67 90.323C66.3246 89.5896 67.6925 89.3499 68.7737 89.6042C69.8583 89.8498 70.6828 90.6095 71.2474 91.8832C71.6854 92.8712 71.688 93.8812 71.2554 94.9134C71.1116 95.2477 70.9189 95.5681 70.6774 95.8746L74.2004 98.9062C74.9084 99.5395 75.3906 99.8883 75.647 99.9527L75.6222 100.017C75.0026 100.178 74.0963 100.583 72.9031 101.233L68.7542 97.4642ZM65.7736 92.3548C65.4701 92.4893 65.185 92.6335 64.9185 92.7873L66.4302 96.1977C66.7404 96.1101 67.0918 95.9792 67.4846 95.8051C67.8775 95.6309 68.1933 95.4518 68.4321 95.2676C68.6683 95.0774 68.8529 94.8674 68.986 94.6375C69.2687 94.1347 69.2703 93.5679 68.9906 92.937C68.711 92.3061 68.2942 91.9603 67.7403 91.8996C67.2267 91.8495 66.5712 92.0012 65.7736 92.3548ZM79.9814 98.0954C79.4485 98.2747 78.8398 98.5161 78.1553 98.8195L77.45 99.1321L76.5094 86.5276C76.4657 85.9631 76.4266 85.6421 76.3923 85.5647C76.3554 85.4814 76.33 85.4321 76.3161 85.4169L76.3171 85.3951C76.7119 85.2414 77.1266 85.0683 77.5611 84.8757C77.9182 84.7174 78.3441 84.5215 78.8387 84.288L78.8556 84.3019C78.8542 84.331 78.8628 84.3663 78.8813 84.408C78.9314 84.5211 79.1539 84.7821 79.5488 85.191L88.3449 94.3347C88.2232 94.3815 88.082 94.4405 87.9213 94.5118C87.9213 94.5118 87.7639 94.5744 87.4491 94.6997C87.3003 94.7657 87.1664 94.825 87.0474 94.8778L85.6636 95.4912L83.6846 93.292L79.6492 95.0808L79.9814 98.0954ZM82.0384 91.458L78.8501 87.9042L79.378 92.6374L82.0384 91.458ZM91.3224 92.9828C91.2684 92.7646 91.1886 92.5365 91.0831 92.2984L86.1125 81.0851L87.898 80.2936L95.9303 85.6419L92.8989 78.8032C92.7538 78.4758 92.6343 78.2867 92.5405 78.2357L94.951 77.1671C95.0268 77.4184 95.128 77.6869 95.2546 77.9726L100.17 89.0609L98.3128 89.8841L90.4826 84.7987L93.6525 91.9499L91.3224 92.9828ZM111.458 75.4903C111.434 75.7428 111.593 76.2529 111.933 77.0207L113.16 79.7883C113.532 80.6275 113.42 81.5492 112.826 82.5534C112.215 83.6006 111.257 84.413 109.954 84.9908C108.145 85.7929 106.449 85.8643 104.868 85.205C103.346 84.5835 102.213 83.4335 101.469 81.7551C100.678 79.9695 100.548 78.2467 101.08 76.5867C101.671 74.7225 103.005 73.3301 105.082 72.4093C106.469 71.7945 107.685 71.5756 108.732 71.7525L109.757 74.4495L109.694 74.499C109.324 74.2283 108.782 74.1127 108.066 74.1524C107.385 74.1907 106.723 74.3523 106.08 74.6373C105.443 74.9196 104.929 75.2688 104.536 75.6848C104.15 76.0983 103.873 76.5663 103.706 77.089C103.344 78.1682 103.443 79.3386 104.002 80.6004C104.49 81.7015 105.191 82.4482 106.106 82.8404C107.018 83.2267 107.962 83.2034 108.938 82.7708C110.015 82.2932 110.617 81.6916 110.744 80.9659C110.784 80.7346 110.754 80.5058 110.654 80.2797L109.997 78.7977L108.845 79.3082C108.226 79.5826 107.913 79.7852 107.907 79.9161L107.877 79.919L106.763 77.6245C106.951 77.5982 107.637 77.3226 108.822 76.7976L109.875 76.3306C110.53 76.0403 111.046 75.7583 111.423 75.4843L111.458 75.4903ZM123.51 76.1511C123.879 75.9875 124.119 75.8384 124.23 75.7036L124.27 75.6967L125.174 77.9772L118.487 80.9414L113.196 69.0049C113.362 68.9456 113.544 68.8753 113.743 68.7942L114.376 68.5351C114.798 68.3623 115.253 68.1677 115.741 67.9514C117.104 67.3472 118.441 66.7258 119.754 66.0872C119.92 66.64 120.198 67.3538 120.585 68.2288C120.628 68.324 120.665 68.3928 120.698 68.4351L120.692 68.4698C120.343 68.5177 119.883 68.6683 119.312 68.9216L116.499 70.1682L117.508 72.4448L119.624 71.5069C120.279 71.2167 120.664 71.0247 120.779 70.9309L121.783 73.1242C121.485 73.2211 121.109 73.3698 120.657 73.5703L118.442 74.5518L119.867 77.7658L123.51 76.1511ZM82.1154 121.846C82.4844 121.683 82.7245 121.534 82.8357 121.399L82.8753 121.392L83.7794 123.673L77.0925 126.637L71.8013 114.7C71.9673 114.641 72.1498 114.571 72.3488 114.49L72.9817 114.23C73.4036 114.058 73.8586 113.863 74.3466 113.647C75.7096 113.043 77.0472 112.421 78.3593 111.783C78.526 112.335 78.8032 113.049 79.1911 113.924C79.2333 114.019 79.2709 114.088 79.3039 114.13L79.2979 114.165C78.9489 114.213 78.4886 114.364 77.9173 114.617L75.105 115.864L76.1142 118.14L78.2301 117.202C78.8848 116.912 79.2697 116.72 79.3848 116.626L80.3891 118.82C80.0902 118.916 79.7146 119.065 79.2622 119.266L77.0481 120.247L78.4728 123.461L82.1154 121.846ZM94.3261 110.43C94.3027 110.683 94.4612 111.193 94.8015 111.961L96.0284 114.728C96.4004 115.568 96.2891 116.489 95.6945 117.494C95.0833 118.541 94.126 119.353 92.8226 119.931C91.0132 120.733 89.3179 120.804 87.7367 120.145C86.2149 119.524 85.0821 118.374 84.3381 116.695C83.5466 114.91 83.4167 113.187 83.9485 111.527C84.5392 109.663 85.8732 108.27 87.9504 107.349C89.3372 106.735 90.5541 106.516 91.601 106.693L92.6256 109.39L92.5621 109.439C92.1928 109.168 91.6502 109.053 90.9343 109.092C90.2534 109.131 89.5916 109.292 88.9487 109.577C88.3119 109.86 87.7973 110.209 87.4049 110.625C87.0184 111.038 86.7417 111.506 86.5746 112.029C86.2126 113.108 86.3113 114.279 86.8706 115.541C87.3587 116.642 88.06 117.388 88.9745 117.781C89.8863 118.167 90.8303 118.144 91.8064 117.711C92.8837 117.233 93.4858 116.632 93.6128 115.906C93.6527 115.675 93.6225 115.446 93.5222 115.22L92.8653 113.738L91.7136 114.248C91.0946 114.523 90.7821 114.725 90.776 114.856L90.7453 114.859L89.632 112.565C89.8198 112.538 90.5058 112.263 91.6903 111.738L92.7437 111.271C93.3984 110.98 93.9143 110.698 94.2914 110.424L94.3261 110.43ZM107.966 104.384C107.943 104.636 108.101 105.147 108.442 105.914L109.669 108.682C110.041 109.521 109.929 110.443 109.335 111.447C108.724 112.494 107.766 113.307 106.463 113.885C104.653 114.687 102.958 114.758 101.377 114.099C99.8552 113.477 98.7223 112.327 97.9783 110.649C97.1868 108.863 97.0569 107.14 97.5887 105.48C98.1795 103.616 99.5135 102.224 101.591 101.303C102.977 100.688 104.194 100.469 105.241 100.646L106.266 103.343L106.202 103.393C105.833 103.122 105.29 103.006 104.575 103.046C103.894 103.084 103.232 103.246 102.589 103.531C101.952 103.813 101.438 104.162 101.045 104.579C100.659 104.992 100.382 105.46 100.215 105.983C99.8528 107.062 99.9515 108.232 100.511 109.494C100.999 110.595 101.7 111.342 102.615 111.734C103.527 112.12 104.471 112.097 105.447 111.664C106.524 111.187 107.126 110.585 107.253 109.86C107.293 109.628 107.263 109.4 107.162 109.173L106.506 107.691L105.354 108.202C104.735 108.476 104.422 108.679 104.416 108.81L104.385 108.813L103.272 106.518C103.46 106.492 104.146 106.216 105.331 105.691L106.384 105.224C107.039 104.934 107.555 104.652 107.932 104.378L107.966 104.384ZM117.194 95.4439L118.188 98.1438L118.133 98.1894C117.4 97.724 116.46 97.6279 115.314 97.9011C114.951 97.9833 114.615 98.0931 114.306 98.2303C114.002 98.3648 113.752 98.5077 113.556 98.6589C113.365 98.8074 113.215 98.9666 113.105 99.1364C112.873 99.4957 112.833 99.848 112.986 100.193C113.187 100.646 113.48 100.922 113.866 101.021C114.344 101.137 115.022 101.067 115.9 100.814C116.775 100.554 117.504 100.409 118.089 100.378C118.673 100.347 119.19 100.406 119.641 100.555C120.491 100.833 121.137 101.472 121.581 102.472C122.161 103.782 122.114 105.009 121.44 106.156C120.864 107.137 119.933 107.913 118.648 108.483C117.612 108.942 116.501 109.2 115.315 109.255C114.924 109.272 114.565 109.25 114.239 109.188L113.015 106.162L113.039 106.12C114.342 107.066 115.835 107.166 117.519 106.42C118.716 105.889 119.379 105.25 119.51 104.501C119.554 104.246 119.523 104 119.418 103.762C119.31 103.518 119.183 103.336 119.037 103.215C118.888 103.089 118.699 103.009 118.471 102.975C118.025 102.902 117.378 103.007 116.528 103.291C115.678 103.575 114.947 103.725 114.334 103.74C113.721 103.756 113.19 103.674 112.741 103.496C111.928 103.172 111.295 102.499 110.841 101.475C110.372 100.416 110.364 99.3938 110.817 98.4093C111.278 97.4076 112.148 96.6232 113.428 96.0559C114.713 95.4861 115.969 95.282 117.194 95.4439Z" fill="#D74C38"/>
</svg>
